<svg width="22" height="16" viewBox="0 0 22 16" fill="none" xmlns="http://www.w3.org/2000/svg">
<path d="M20.0087 3.34514C19.7946 2.51297 19.1639 1.85766 18.3629 1.63526C16.9113 1.23107 11.09 1.23107 11.09 1.23107C11.09 1.23107 5.26885 1.23107 3.81713 1.63526C3.01621 1.85766 2.3854 2.51297 2.17134 3.34514C1.78235 4.8534 1.78235 8.0003 1.78235 8.0003C1.78235 8.0003 1.78235 11.1472 2.17134 12.6556C2.3854 13.4876 3.01621 14.1429 3.81713 14.3654C5.26885 14.7695 11.09 14.7695 11.09 14.7695C11.09 14.7695 16.9113 14.7695 18.3629 14.3654C19.1639 14.1429 19.7946 13.4876 20.0087 12.6556C20.3977 11.1472 20.3977 8.0003 20.3977 8.0003C20.3977 8.0003 20.3977 4.8534 20.0087 3.34514Z" fill="#6C7078"/>
<path d="M9.18604 10.8555L14.0514 7.99847L9.18604 5.1412V10.8555Z" fill="white"/>
</svg>
