<svg width="16" height="16" viewBox="0 0 16 16" fill="none" xmlns="http://www.w3.org/2000/svg">
<path d="M14.7692 8.0005C14.7692 4.26196 11.7385 1.23127 7.99994 1.23127C4.2614 1.23127 1.23071 4.26196 1.23071 8.0005C1.23071 11.3792 3.70612 14.1797 6.94225 14.6875V9.95723H5.2235V8.0005H6.94225V6.50916C6.94225 4.81262 7.95285 3.8755 9.49909 3.8755C10.2397 3.8755 11.0144 4.00772 11.0144 4.00772V5.67358H10.1608C9.31988 5.67358 9.05764 6.19538 9.05764 6.7307V8.0005H10.935L10.6349 9.95723H9.05764V14.6875C12.2938 14.1797 14.7692 11.3792 14.7692 8.0005Z" fill="#6C7078"/>
<path d="M10.6349 9.95703L10.9351 8.0003H9.05765V6.7305C9.05765 6.19518 9.31989 5.67338 10.1608 5.67338H11.0144V4.00751C11.0144 4.00751 10.2397 3.8753 9.4991 3.8753C7.95286 3.8753 6.94226 4.81242 6.94226 6.50895V8.0003H5.22351V9.95703H6.94226V14.6873C7.2869 14.7414 7.64013 14.7695 7.99995 14.7695C8.35978 14.7695 8.71301 14.7414 9.05765 14.6873V9.95703H10.6349Z" fill="white"/>
</svg>
