<svg width="19" height="16" viewBox="0 0 19 16" fill="none" xmlns="http://www.w3.org/2000/svg">
<path d="M15.621 4.60083C15.6308 4.74772 15.6308 4.8946 15.6308 5.04284C15.6308 9.55966 12.3128 14.7689 6.24586 14.7689V14.7662C4.45366 14.7689 2.69868 14.2369 1.18994 13.2338C1.45054 13.2663 1.71245 13.2825 1.97501 13.2832C3.46024 13.2845 4.90302 12.7681 6.07147 11.8171C4.66005 11.7893 3.42236 10.8356 2.98998 9.44324C3.48441 9.54206 3.99385 9.52175 4.47913 9.38435C2.94034 9.06215 1.83328 7.66101 1.83328 6.03379C1.83328 6.0189 1.83328 6.00468 1.83328 5.99047C2.29178 6.25513 2.80514 6.40201 3.33027 6.41826C1.88096 5.41444 1.43421 3.41629 2.30942 1.85405C3.98405 3.98961 6.45486 5.28787 9.10725 5.42527C8.84142 4.23803 9.20456 2.99392 10.0615 2.15933C11.39 0.865131 13.4793 0.931465 14.7281 2.30756C15.4668 2.15662 16.1748 1.87571 16.8227 1.47771C16.5765 2.26898 16.0612 2.94112 15.3728 3.36823C16.0266 3.28836 16.6653 3.10696 17.2669 2.83011C16.824 3.51783 16.2663 4.11686 15.621 4.60083Z" fill="#6C7078"/>
</svg>
