<svg width="1440" height="50" viewBox="0 0 1440 50" fill="none" xmlns="http://www.w3.org/2000/svg">
<rect width="1440" height="50" fill="#073763"/>
<path d="M85.144 29V19.744H88.251C89.239 19.744 90.0797 19.926 90.773 20.29C91.4663 20.6453 91.995 21.1697 92.359 21.863C92.723 22.5477 92.905 23.3797 92.905 24.359C92.905 25.347 92.7187 26.1877 92.346 26.881C91.982 27.5657 91.4533 28.09 90.76 28.454C90.0667 28.818 89.2303 29 88.251 29H85.144ZM86.21 28.09H88.186C89.382 28.09 90.279 27.778 90.877 27.154C91.4837 26.53 91.787 25.5983 91.787 24.359C91.787 21.889 90.5867 20.654 88.186 20.654H86.21V28.09ZM100.199 28.22C99.9132 28.4887 99.5449 28.701 99.0942 28.857C98.6522 29.013 98.1972 29.091 97.7292 29.091C97.0532 29.091 96.4682 28.9567 95.9742 28.688C95.4889 28.4193 95.1119 28.0337 94.8432 27.531C94.5832 27.0197 94.4532 26.413 94.4532 25.711C94.4532 25.035 94.5832 24.4413 94.8432 23.93C95.1032 23.4187 95.4629 23.02 95.9222 22.734C96.3902 22.448 96.9276 22.305 97.5342 22.305C98.1149 22.305 98.6132 22.435 99.0292 22.695C99.4452 22.9463 99.7616 23.3103 99.9782 23.787C100.204 24.2637 100.316 24.8357 100.316 25.503V25.698H95.3762V25.009H99.7182L99.3802 25.49C99.3976 24.7273 99.2459 24.1423 98.9252 23.735C98.6132 23.3277 98.1539 23.124 97.5472 23.124C96.9146 23.124 96.4162 23.3493 96.0522 23.8C95.6969 24.242 95.5192 24.8573 95.5192 25.646C95.5192 26.4953 95.7056 27.1367 96.0782 27.57C96.4596 28.0033 97.0142 28.22 97.7422 28.22C98.1236 28.22 98.4876 28.1593 98.8342 28.038C99.1896 27.908 99.5276 27.713 99.8482 27.453L100.199 28.22ZM100.316 30.846C100.446 30.8807 100.563 30.9067 100.667 30.924C100.762 30.9413 100.857 30.95 100.953 30.95C101.152 30.95 101.334 30.911 101.499 30.833C101.672 30.7637 101.806 30.6337 101.902 30.443C101.997 30.261 102.045 29.9967 102.045 29.65V22.461H103.098V29.78C103.098 30.482 102.924 31.002 102.578 31.34C102.231 31.6867 101.763 31.86 101.174 31.86C101.035 31.86 100.892 31.8513 100.745 31.834C100.597 31.8167 100.454 31.7863 100.316 31.743V30.846ZM101.928 19.692H103.215V20.888H101.928V19.692ZM107.781 29.091C107.2 29.091 106.689 28.9567 106.247 28.688C105.814 28.4107 105.476 28.0207 105.233 27.518C104.999 27.0067 104.882 26.4087 104.882 25.724C104.882 25.0393 105.003 24.4413 105.246 23.93C105.489 23.4187 105.827 23.02 106.26 22.734C106.702 22.448 107.209 22.305 107.781 22.305C108.379 22.305 108.886 22.4523 109.302 22.747C109.718 23.0417 110 23.462 110.147 24.008L109.991 24.112V22.461H111.031V29H109.991V27.31L110.147 27.388C110 27.934 109.718 28.3543 109.302 28.649C108.886 28.9437 108.379 29.091 107.781 29.091ZM107.989 28.22C108.63 28.22 109.124 28.0033 109.471 27.57C109.818 27.128 109.991 26.504 109.991 25.698C109.991 24.892 109.813 24.2723 109.458 23.839C109.111 23.4057 108.622 23.189 107.989 23.189C107.348 23.189 106.845 23.4143 106.481 23.865C106.126 24.307 105.948 24.9267 105.948 25.724C105.948 26.5213 106.126 27.1367 106.481 27.57C106.845 28.0033 107.348 28.22 107.989 28.22ZM115.121 29L112.339 22.474H113.444L115.81 28.233H115.498L117.89 22.474H118.943L116.122 29H115.121ZM122.547 29.091C121.767 29.091 121.178 28.8743 120.779 28.441C120.389 28.0077 120.194 27.3663 120.194 26.517V22.461H121.247V26.491C121.247 27.0803 121.369 27.5137 121.611 27.791C121.854 28.0683 122.222 28.207 122.716 28.207C123.297 28.207 123.765 28.0207 124.12 27.648C124.476 27.2753 124.653 26.777 124.653 26.153V22.461H125.706V29H124.679V27.583L124.835 27.505C124.662 28.025 124.367 28.4193 123.951 28.688C123.544 28.9567 123.076 29.091 122.547 29.091ZM130.57 29.091C129.946 29.091 129.4 28.9523 128.932 28.675C128.473 28.3977 128.113 28.0077 127.853 27.505C127.602 26.9937 127.476 26.3913 127.476 25.698C127.476 25.0133 127.602 24.4153 127.853 23.904C128.113 23.3927 128.473 22.9983 128.932 22.721C129.4 22.4437 129.946 22.305 130.57 22.305C131.194 22.305 131.736 22.4437 132.195 22.721C132.663 22.9983 133.023 23.3927 133.274 23.904C133.534 24.4153 133.664 25.0133 133.664 25.698C133.664 26.3913 133.534 26.9937 133.274 27.505C133.023 28.0077 132.663 28.3977 132.195 28.675C131.736 28.9523 131.194 29.091 130.57 29.091ZM130.57 28.22C131.212 28.22 131.706 28.0077 132.052 27.583C132.408 27.1497 132.585 26.5213 132.585 25.698C132.585 24.892 132.408 24.2723 132.052 23.839C131.697 23.4057 131.203 23.189 130.57 23.189C129.938 23.189 129.439 23.4057 129.075 23.839C128.72 24.2723 128.542 24.892 128.542 25.698C128.542 26.5213 128.716 27.1497 129.062 27.583C129.418 28.0077 129.92 28.22 130.57 28.22ZM137.75 29.091C136.97 29.091 136.38 28.8743 135.982 28.441C135.592 28.0077 135.397 27.3663 135.397 26.517V22.461H136.45V26.491C136.45 27.0803 136.571 27.5137 136.814 27.791C137.056 28.0683 137.425 28.207 137.919 28.207C138.499 28.207 138.967 28.0207 139.323 27.648C139.678 27.2753 139.856 26.777 139.856 26.153V22.461H140.909V29H139.882V27.583L140.038 27.505C139.864 28.025 139.57 28.4193 139.154 28.688C138.746 28.9567 138.278 29.091 137.75 29.091ZM142.146 23.293V22.461H146.345V23.293H142.146ZM146.319 28.064V28.961C146.171 29.0043 146.024 29.0347 145.877 29.052C145.738 29.078 145.582 29.091 145.409 29.091C144.802 29.091 144.317 28.9177 143.953 28.571C143.597 28.2243 143.42 27.7043 143.42 27.011V20.784L144.473 20.407V26.868C144.473 27.2147 144.52 27.4833 144.616 27.674C144.72 27.8647 144.858 27.999 145.032 28.077C145.205 28.1463 145.4 28.181 145.617 28.181C145.747 28.181 145.864 28.1723 145.968 28.155C146.072 28.1377 146.189 28.1073 146.319 28.064ZM153.503 29H152.463V27.245L152.619 27.388C152.471 27.934 152.19 28.3543 151.774 28.649C151.358 28.9437 150.851 29.091 150.253 29.091C149.681 29.091 149.174 28.9523 148.732 28.675C148.298 28.389 147.96 27.9903 147.718 27.479C147.475 26.959 147.354 26.3567 147.354 25.672C147.354 24.9873 147.471 24.3937 147.705 23.891C147.947 23.3883 148.285 22.9983 148.719 22.721C149.161 22.4437 149.672 22.305 150.253 22.305C150.851 22.305 151.358 22.4567 151.774 22.76C152.19 23.0547 152.471 23.4707 152.619 24.008L152.45 24.138V19.432H153.503V29ZM150.461 28.22C151.093 28.22 151.583 28.0033 151.93 27.57C152.285 27.128 152.463 26.504 152.463 25.698C152.463 24.9007 152.289 24.2853 151.943 23.852C151.596 23.41 151.102 23.189 150.461 23.189C149.819 23.189 149.317 23.4057 148.953 23.839C148.597 24.2723 148.42 24.8833 148.42 25.672C148.42 26.478 148.597 27.1063 148.953 27.557C149.317 27.999 149.819 28.22 150.461 28.22ZM158.372 29.091C157.748 29.091 157.202 28.9523 156.734 28.675C156.275 28.3977 155.915 28.0077 155.655 27.505C155.404 26.9937 155.278 26.3913 155.278 25.698C155.278 25.0133 155.404 24.4153 155.655 23.904C155.915 23.3927 156.275 22.9983 156.734 22.721C157.202 22.4437 157.748 22.305 158.372 22.305C158.996 22.305 159.538 22.4437 159.997 22.721C160.465 22.9983 160.825 23.3927 161.076 23.904C161.336 24.4153 161.466 25.0133 161.466 25.698C161.466 26.3913 161.336 26.9937 161.076 27.505C160.825 28.0077 160.465 28.3977 159.997 28.675C159.538 28.9523 158.996 29.091 158.372 29.091ZM158.372 28.22C159.014 28.22 159.508 28.0077 159.854 27.583C160.21 27.1497 160.387 26.5213 160.387 25.698C160.387 24.892 160.21 24.2723 159.854 23.839C159.499 23.4057 159.005 23.189 158.372 23.189C157.74 23.189 157.241 23.4057 156.877 23.839C156.522 24.2723 156.344 24.892 156.344 25.698C156.344 26.5213 156.518 27.1497 156.864 27.583C157.22 28.0077 157.722 28.22 158.372 28.22ZM165.942 29.091C165.318 29.091 164.772 28.9523 164.304 28.675C163.845 28.3977 163.485 28.0077 163.225 27.505C162.974 26.9937 162.848 26.3913 162.848 25.698C162.848 25.0133 162.974 24.4153 163.225 23.904C163.485 23.3927 163.845 22.9983 164.304 22.721C164.772 22.4437 165.318 22.305 165.942 22.305C166.566 22.305 167.108 22.4437 167.567 22.721C168.035 22.9983 168.395 23.3927 168.646 23.904C168.906 24.4153 169.036 25.0133 169.036 25.698C169.036 26.3913 168.906 26.9937 168.646 27.505C168.395 28.0077 168.035 28.3977 167.567 28.675C167.108 28.9523 166.566 29.091 165.942 29.091ZM165.942 28.22C166.583 28.22 167.077 28.0077 167.424 27.583C167.779 27.1497 167.957 26.5213 167.957 25.698C167.957 24.892 167.779 24.2723 167.424 23.839C167.069 23.4057 166.575 23.189 165.942 23.189C165.309 23.189 164.811 23.4057 164.447 23.839C164.092 24.2723 163.914 24.892 163.914 25.698C163.914 26.5213 164.087 27.1497 164.434 27.583C164.789 28.0077 165.292 28.22 165.942 28.22ZM170.807 29V24.294C170.807 23.9907 170.799 23.6873 170.781 23.384C170.773 23.072 170.747 22.7643 170.703 22.461H171.704L171.847 24.073L171.704 24.034C171.826 23.462 172.086 23.033 172.484 22.747C172.892 22.4523 173.347 22.305 173.849 22.305C173.962 22.305 174.066 22.3137 174.161 22.331C174.265 22.3397 174.361 22.357 174.447 22.383L174.421 23.345C174.222 23.2757 173.992 23.241 173.732 23.241C173.282 23.241 172.918 23.3407 172.64 23.54C172.372 23.7393 172.172 23.995 172.042 24.307C171.921 24.6103 171.86 24.931 171.86 25.269V29H170.807ZM177.794 29.091C176.693 29.091 175.822 28.8093 175.181 28.246L175.532 27.466C175.879 27.7347 176.234 27.934 176.598 28.064C176.971 28.1853 177.382 28.246 177.833 28.246C178.327 28.246 178.7 28.1637 178.951 27.999C179.211 27.8257 179.341 27.5787 179.341 27.258C179.341 26.998 179.254 26.7943 179.081 26.647C178.908 26.491 178.622 26.3653 178.223 26.27L177.118 26.01C176.572 25.8887 176.147 25.672 175.844 25.36C175.549 25.048 175.402 24.6753 175.402 24.242C175.402 23.8607 175.506 23.527 175.714 23.241C175.922 22.9463 176.212 22.7167 176.585 22.552C176.958 22.3873 177.4 22.305 177.911 22.305C178.37 22.305 178.804 22.3787 179.211 22.526C179.618 22.6733 179.961 22.8857 180.238 23.163L179.887 23.93C179.575 23.67 179.254 23.4793 178.925 23.358C178.604 23.228 178.266 23.163 177.911 23.163C177.443 23.163 177.079 23.254 176.819 23.436C176.568 23.618 176.442 23.865 176.442 24.177C176.442 24.4457 176.52 24.658 176.676 24.814C176.841 24.97 177.101 25.0913 177.456 25.178L178.561 25.451C179.176 25.581 179.627 25.7977 179.913 26.101C180.208 26.3957 180.355 26.7727 180.355 27.232C180.355 27.7953 180.125 28.246 179.666 28.584C179.207 28.922 178.583 29.091 177.794 29.091ZM187.363 30.989C186.219 30.989 185.231 30.755 184.399 30.287C183.567 29.819 182.926 29.169 182.475 28.337C182.024 27.4963 181.799 26.5213 181.799 25.412C181.799 24.5367 181.938 23.748 182.215 23.046C182.492 22.3353 182.882 21.7287 183.385 21.226C183.896 20.7233 184.49 20.3377 185.166 20.069C185.842 19.8003 186.574 19.666 187.363 19.666C188.247 19.666 189.018 19.8047 189.677 20.082C190.344 20.3593 190.899 20.7277 191.341 21.187C191.783 21.6463 192.112 22.1663 192.329 22.747C192.554 23.319 192.667 23.8997 192.667 24.489C192.667 25.1737 192.589 25.75 192.433 26.218C192.277 26.686 192.069 27.063 191.809 27.349C191.549 27.635 191.263 27.843 190.951 27.973C190.648 28.0943 190.34 28.155 190.028 28.155C189.551 28.155 189.179 28.0553 188.91 27.856C188.65 27.648 188.507 27.3577 188.481 26.985H188.455C188.247 27.3317 187.978 27.6133 187.649 27.83C187.32 28.0467 186.925 28.155 186.466 28.155C185.903 28.155 185.439 27.96 185.075 27.57C184.72 27.1713 184.542 26.6037 184.542 25.867C184.542 25.425 184.607 25.0003 184.737 24.593C184.867 24.177 185.053 23.8087 185.296 23.488C185.539 23.1673 185.829 22.916 186.167 22.734C186.505 22.5433 186.886 22.448 187.311 22.448C187.727 22.448 188.087 22.5477 188.39 22.747C188.702 22.9463 188.901 23.202 188.988 23.514H189.001L189.157 22.604H190.015L189.391 26.166C189.313 26.66 189.343 26.998 189.482 27.18C189.621 27.362 189.855 27.453 190.184 27.453C190.34 27.453 190.513 27.4053 190.704 27.31C190.895 27.206 191.077 27.0413 191.25 26.816C191.423 26.5907 191.562 26.2873 191.666 25.906C191.779 25.5247 191.835 25.0523 191.835 24.489C191.835 23.995 191.744 23.5097 191.562 23.033C191.38 22.5563 191.107 22.123 190.743 21.733C190.379 21.343 189.915 21.0353 189.352 20.81C188.789 20.576 188.126 20.459 187.363 20.459C186.696 20.459 186.076 20.5717 185.504 20.797C184.932 21.0223 184.429 21.3517 183.996 21.785C183.571 22.2097 183.238 22.7297 182.995 23.345C182.761 23.9517 182.644 24.6407 182.644 25.412C182.644 26.3827 182.83 27.2277 183.203 27.947C183.584 28.6663 184.126 29.221 184.828 29.611C185.539 30.0097 186.384 30.209 187.363 30.209C188.117 30.209 188.763 30.1007 189.3 29.884C189.837 29.6673 190.245 29.3727 190.522 29H191.666C191.302 29.6067 190.747 30.0877 190.002 30.443C189.265 30.807 188.386 30.989 187.363 30.989ZM186.648 27.453C187.107 27.453 187.493 27.3187 187.805 27.05C188.126 26.7727 188.364 26.426 188.52 26.01C188.685 25.5853 188.767 25.1477 188.767 24.697C188.767 24.1943 188.641 23.8173 188.39 23.566C188.147 23.306 187.822 23.176 187.415 23.176C186.982 23.176 186.613 23.3103 186.31 23.579C186.007 23.839 185.773 24.1727 185.608 24.58C185.452 24.9873 185.374 25.4033 185.374 25.828C185.374 26.3653 185.5 26.7727 185.751 27.05C186.011 27.3187 186.31 27.453 186.648 27.453ZM197.316 31.899C196.328 31.899 195.47 31.6737 194.742 31.223L194.924 30.365C195.331 30.599 195.717 30.768 196.081 30.872C196.445 30.976 196.856 31.028 197.316 31.028C197.94 31.028 198.412 30.859 198.733 30.521C199.062 30.1917 199.227 29.6977 199.227 29.039V27.271L199.37 27.102C199.266 27.4487 199.101 27.752 198.876 28.012C198.659 28.2633 198.39 28.4583 198.07 28.597C197.749 28.7357 197.385 28.805 196.978 28.805C196.397 28.805 195.886 28.6707 195.444 28.402C195.01 28.1247 194.668 27.7433 194.417 27.258C194.174 26.7727 194.053 26.205 194.053 25.555C194.053 24.905 194.174 24.3373 194.417 23.852C194.668 23.3667 195.01 22.9897 195.444 22.721C195.886 22.4437 196.397 22.305 196.978 22.305C197.584 22.305 198.096 22.4567 198.512 22.76C198.936 23.0547 199.222 23.4707 199.37 24.008L199.214 23.865V22.461H200.267V28.948C200.267 29.9273 200.015 30.664 199.513 31.158C199.019 31.652 198.286 31.899 197.316 31.899ZM197.186 27.921C197.818 27.921 198.312 27.713 198.668 27.297C199.032 26.8723 199.214 26.2917 199.214 25.555C199.214 24.8183 199.032 24.242 198.668 23.826C198.312 23.4013 197.818 23.189 197.186 23.189C196.544 23.189 196.037 23.4013 195.665 23.826C195.301 24.242 195.119 24.8183 195.119 25.555C195.119 26.3003 195.301 26.881 195.665 27.297C196.037 27.713 196.544 27.921 197.186 27.921ZM202.418 29V24.294C202.418 23.9907 202.41 23.6873 202.392 23.384C202.384 23.072 202.358 22.7643 202.314 22.461H203.315L203.432 23.813L203.302 23.904C203.458 23.3927 203.727 22.9983 204.108 22.721C204.498 22.4437 204.958 22.305 205.486 22.305C206.119 22.305 206.609 22.461 206.955 22.773C207.311 23.085 207.536 23.5617 207.631 24.203L207.319 24.034C207.458 23.5053 207.735 23.085 208.151 22.773C208.576 22.461 209.083 22.305 209.672 22.305C210.392 22.305 210.933 22.5217 211.297 22.955C211.661 23.3797 211.843 24.0253 211.843 24.892V29H210.79V24.944C210.79 24.3373 210.682 23.8953 210.465 23.618C210.249 23.332 209.906 23.189 209.438 23.189C208.892 23.189 208.459 23.3753 208.138 23.748C207.826 24.1207 207.67 24.6277 207.67 25.269V29H206.617V24.944C206.617 24.3373 206.505 23.8953 206.279 23.618C206.063 23.332 205.72 23.189 205.252 23.189C204.698 23.189 204.26 23.3753 203.939 23.748C203.627 24.1207 203.471 24.6277 203.471 25.269V29H202.418ZM216.483 29.091C215.902 29.091 215.391 28.9567 214.949 28.688C214.516 28.4107 214.178 28.0207 213.935 27.518C213.701 27.0067 213.584 26.4087 213.584 25.724C213.584 25.0393 213.705 24.4413 213.948 23.93C214.191 23.4187 214.529 23.02 214.962 22.734C215.404 22.448 215.911 22.305 216.483 22.305C217.081 22.305 217.588 22.4523 218.004 22.747C218.42 23.0417 218.702 23.462 218.849 24.008L218.693 24.112V22.461H219.733V29H218.693V27.31L218.849 27.388C218.702 27.934 218.42 28.3543 218.004 28.649C217.588 28.9437 217.081 29.091 216.483 29.091ZM216.691 28.22C217.332 28.22 217.826 28.0033 218.173 27.57C218.52 27.128 218.693 26.504 218.693 25.698C218.693 24.892 218.515 24.2723 218.16 23.839C217.813 23.4057 217.324 23.189 216.691 23.189C216.05 23.189 215.547 23.4143 215.183 23.865C214.828 24.307 214.65 24.9267 214.65 25.724C214.65 26.5213 214.828 27.1367 215.183 27.57C215.547 28.0033 216.05 28.22 216.691 28.22ZM221.899 29V22.461H222.952V29H221.899ZM221.795 19.692H223.082V20.888H221.795V19.692ZM225.127 29V19.432H226.18V29H225.127ZM228.172 27.661H229.511V29H228.172V27.661ZM234.02 29.091C233.379 29.091 232.824 28.9523 232.356 28.675C231.888 28.3977 231.524 28.0077 231.264 27.505C231.013 27.0023 230.887 26.4087 230.887 25.724C230.887 25.048 231.017 24.4543 231.277 23.943C231.537 23.423 231.906 23.02 232.382 22.734C232.859 22.448 233.422 22.305 234.072 22.305C234.514 22.305 234.939 22.383 235.346 22.539C235.762 22.6863 236.105 22.8943 236.373 23.163L236.022 23.943C235.702 23.6917 235.385 23.5053 235.073 23.384C234.77 23.254 234.454 23.189 234.124 23.189C233.466 23.189 232.941 23.41 232.551 23.852C232.17 24.294 231.979 24.918 231.979 25.724C231.979 26.5213 232.17 27.1367 232.551 27.57C232.933 28.0033 233.457 28.22 234.124 28.22C234.445 28.22 234.761 28.1593 235.073 28.038C235.385 27.908 235.702 27.7173 236.022 27.466L236.373 28.246C236.096 28.506 235.745 28.714 235.32 28.87C234.904 29.0173 234.471 29.091 234.02 29.091ZM240.548 29.091C239.924 29.091 239.378 28.9523 238.91 28.675C238.45 28.3977 238.091 28.0077 237.831 27.505C237.579 26.9937 237.454 26.3913 237.454 25.698C237.454 25.0133 237.579 24.4153 237.831 23.904C238.091 23.3927 238.45 22.9983 238.91 22.721C239.378 22.4437 239.924 22.305 240.548 22.305C241.172 22.305 241.713 22.4437 242.173 22.721C242.641 22.9983 243 23.3927 243.252 23.904C243.512 24.4153 243.642 25.0133 243.642 25.698C243.642 26.3913 243.512 26.9937 243.252 27.505C243 28.0077 242.641 28.3977 242.173 28.675C241.713 28.9523 241.172 29.091 240.548 29.091ZM240.548 28.22C241.189 28.22 241.683 28.0077 242.03 27.583C242.385 27.1497 242.563 26.5213 242.563 25.698C242.563 24.892 242.385 24.2723 242.03 23.839C241.674 23.4057 241.18 23.189 240.548 23.189C239.915 23.189 239.417 23.4057 239.053 23.839C238.697 24.2723 238.52 24.892 238.52 25.698C238.52 26.5213 238.693 27.1497 239.04 27.583C239.395 28.0077 239.898 28.22 240.548 28.22ZM245.413 29V24.294C245.413 23.9907 245.405 23.6873 245.387 23.384C245.379 23.072 245.353 22.7643 245.309 22.461H246.31L246.427 23.813L246.297 23.904C246.453 23.3927 246.722 22.9983 247.103 22.721C247.493 22.4437 247.953 22.305 248.481 22.305C249.114 22.305 249.604 22.461 249.95 22.773C250.306 23.085 250.531 23.5617 250.626 24.203L250.314 24.034C250.453 23.5053 250.73 23.085 251.146 22.773C251.571 22.461 252.078 22.305 252.667 22.305C253.387 22.305 253.928 22.5217 254.292 22.955C254.656 23.3797 254.838 24.0253 254.838 24.892V29H253.785V24.944C253.785 24.3373 253.677 23.8953 253.46 23.618C253.244 23.332 252.901 23.189 252.433 23.189C251.887 23.189 251.454 23.3753 251.133 23.748C250.821 24.1207 250.665 24.6277 250.665 25.269V29H249.612V24.944C249.612 24.3373 249.5 23.8953 249.274 23.618C249.058 23.332 248.715 23.189 248.247 23.189C247.693 23.189 247.255 23.3753 246.934 23.748C246.622 24.1207 246.466 24.6277 246.466 25.269V29H245.413Z" fill="white"/>
<path d="M298.098 24.853V25.672H291.702V24.853H298.098ZM294.497 22.058H295.303V28.467H294.497V22.058ZM302.539 19.64C303.657 19.64 304.519 20.03 305.126 20.81C305.733 21.5813 306.036 22.6907 306.036 24.138C306.036 25.1867 305.893 26.0837 305.607 26.829C305.33 27.5657 304.922 28.129 304.385 28.519C303.856 28.909 303.215 29.104 302.461 29.104C301.932 29.104 301.412 29.0087 300.901 28.818C300.398 28.6187 299.952 28.3327 299.562 27.96L299.978 27.141C300.42 27.5137 300.84 27.7867 301.239 27.96C301.638 28.1247 302.041 28.207 302.448 28.207C303.245 28.207 303.861 27.856 304.294 27.154C304.736 26.4433 304.957 25.4423 304.957 24.151V23.033L305.126 23.371C305.057 23.8217 304.896 24.2117 304.645 24.541C304.394 24.8617 304.077 25.113 303.696 25.295C303.315 25.4683 302.894 25.555 302.435 25.555C301.872 25.555 301.373 25.4337 300.94 25.191C300.507 24.9397 300.169 24.593 299.926 24.151C299.683 23.709 299.562 23.1977 299.562 22.617C299.562 22.045 299.688 21.5337 299.939 21.083C300.199 20.6323 300.554 20.2813 301.005 20.03C301.456 19.77 301.967 19.64 302.539 19.64ZM302.591 20.537C301.993 20.537 301.512 20.7277 301.148 21.109C300.793 21.4817 300.615 21.98 300.615 22.604C300.615 23.2193 300.797 23.7177 301.161 24.099C301.525 24.4717 302.006 24.658 302.604 24.658C303.003 24.658 303.358 24.5713 303.67 24.398C303.982 24.216 304.225 23.9733 304.398 23.67C304.571 23.358 304.658 23.0027 304.658 22.604C304.658 22.188 304.571 21.8283 304.398 21.525C304.225 21.213 303.982 20.9703 303.67 20.797C303.358 20.6237 302.998 20.537 302.591 20.537ZM310.555 28.519V20.368L311.166 20.68L308.657 22.279V21.252L311.023 19.744H311.634V28.519H310.555ZM308.514 29V28.103H313.675V29H308.514ZM322.194 29.091C321.518 29.091 320.933 28.9913 320.439 28.792C319.945 28.584 319.56 28.2893 319.282 27.908C319.014 27.5267 318.879 27.0717 318.879 26.543C318.879 25.9017 319.096 25.3687 319.529 24.944C319.963 24.5193 320.543 24.255 321.271 24.151L321.206 24.346C320.53 24.216 320.006 23.9517 319.633 23.553C319.269 23.1543 319.087 22.669 319.087 22.097C319.087 21.5943 319.217 21.161 319.477 20.797C319.746 20.4243 320.11 20.1383 320.569 19.939C321.037 19.7397 321.579 19.64 322.194 19.64C322.81 19.64 323.347 19.7397 323.806 19.939C324.274 20.1383 324.638 20.4243 324.898 20.797C325.167 21.161 325.301 21.5943 325.301 22.097C325.301 22.669 325.115 23.1587 324.742 23.566C324.378 23.9647 323.863 24.2247 323.195 24.346L323.117 24.151C323.871 24.255 324.456 24.5237 324.872 24.957C325.297 25.3817 325.509 25.9103 325.509 26.543C325.509 27.0717 325.371 27.5267 325.093 27.908C324.825 28.2893 324.443 28.584 323.949 28.792C323.455 28.9913 322.87 29.091 322.194 29.091ZM322.194 28.207C322.922 28.207 323.481 28.0597 323.871 27.765C324.261 27.4703 324.456 27.0413 324.456 26.478C324.456 25.9493 324.244 25.5377 323.819 25.243C323.395 24.9397 322.853 24.7533 322.194 24.684C321.536 24.7533 320.994 24.9397 320.569 25.243C320.145 25.5377 319.932 25.9493 319.932 26.478C319.932 27.0413 320.127 27.4703 320.517 27.765C320.907 28.0597 321.466 28.207 322.194 28.207ZM322.194 23.943C322.801 23.8737 323.291 23.6873 323.663 23.384C324.045 23.0807 324.235 22.6777 324.235 22.175C324.235 21.655 324.053 21.252 323.689 20.966C323.334 20.6713 322.836 20.524 322.194 20.524C321.553 20.524 321.05 20.6713 320.686 20.966C320.331 21.252 320.153 21.655 320.153 22.175C320.153 22.6777 320.34 23.0807 320.712 23.384C321.094 23.6873 321.588 23.8737 322.194 23.943ZM330.262 29.091C329.699 29.091 329.144 28.9913 328.598 28.792C328.052 28.584 327.593 28.3023 327.22 27.947L327.623 27.128C328.048 27.4747 328.477 27.739 328.91 27.921C329.352 28.103 329.803 28.194 330.262 28.194C330.912 28.194 331.419 28.012 331.783 27.648C332.156 27.2753 332.342 26.7727 332.342 26.14C332.342 25.7327 332.26 25.3773 332.095 25.074C331.931 24.762 331.697 24.5193 331.393 24.346C331.099 24.1727 330.748 24.086 330.34 24.086C329.898 24.086 329.5 24.177 329.144 24.359C328.798 24.5323 328.49 24.801 328.221 25.165H327.48V19.744H333.031V20.628H328.546V24.372L328.208 24.333C328.46 23.969 328.78 23.6873 329.17 23.488C329.569 23.2887 330.015 23.189 330.509 23.189C331.099 23.189 331.61 23.3147 332.043 23.566C332.477 23.8087 332.81 24.151 333.044 24.593C333.278 25.035 333.395 25.5463 333.395 26.127C333.395 26.7077 333.265 27.2233 333.005 27.674C332.754 28.116 332.394 28.4627 331.926 28.714C331.458 28.9653 330.904 29.091 330.262 29.091ZM341.369 28.519V20.368L341.98 20.68L339.471 22.279V21.252L341.837 19.744H342.448V28.519H341.369ZM339.328 29V28.103H344.489V29H339.328ZM349.294 28.519V20.368L349.905 20.68L347.396 22.279V21.252L349.762 19.744H350.373V28.519H349.294ZM347.253 29V28.103H352.414V29H347.253ZM357.219 28.519V20.368L357.83 20.68L355.321 22.279V21.252L357.687 19.744H358.298V28.519H357.219ZM355.178 29V28.103H360.339V29H355.178ZM365.144 28.519V20.368L365.755 20.68L363.246 22.279V21.252L365.612 19.744H366.223V28.519H365.144ZM363.103 29V28.103H368.264V29H363.103ZM375.496 29H374.352L378.889 20.212L378.98 20.641H373.728V19.744H379.838V20.537L375.496 29ZM384.708 29.091C384.032 29.091 383.447 28.9913 382.953 28.792C382.459 28.584 382.073 28.2893 381.796 27.908C381.527 27.5267 381.393 27.0717 381.393 26.543C381.393 25.9017 381.61 25.3687 382.043 24.944C382.476 24.5193 383.057 24.255 383.785 24.151L383.72 24.346C383.044 24.216 382.52 23.9517 382.147 23.553C381.783 23.1543 381.601 22.669 381.601 22.097C381.601 21.5943 381.731 21.161 381.991 20.797C382.26 20.4243 382.624 20.1383 383.083 19.939C383.551 19.7397 384.093 19.64 384.708 19.64C385.324 19.64 385.861 19.7397 386.32 19.939C386.788 20.1383 387.152 20.4243 387.412 20.797C387.681 21.161 387.815 21.5943 387.815 22.097C387.815 22.669 387.629 23.1587 387.256 23.566C386.892 23.9647 386.377 24.2247 385.709 24.346L385.631 24.151C386.385 24.255 386.97 24.5237 387.386 24.957C387.811 25.3817 388.023 25.9103 388.023 26.543C388.023 27.0717 387.884 27.5267 387.607 27.908C387.338 28.2893 386.957 28.584 386.463 28.792C385.969 28.9913 385.384 29.091 384.708 29.091ZM384.708 28.207C385.436 28.207 385.995 28.0597 386.385 27.765C386.775 27.4703 386.97 27.0413 386.97 26.478C386.97 25.9493 386.758 25.5377 386.333 25.243C385.909 24.9397 385.367 24.7533 384.708 24.684C384.049 24.7533 383.508 24.9397 383.083 25.243C382.658 25.5377 382.446 25.9493 382.446 26.478C382.446 27.0413 382.641 27.4703 383.031 27.765C383.421 28.0597 383.98 28.207 384.708 28.207ZM384.708 23.943C385.315 23.8737 385.804 23.6873 386.177 23.384C386.559 23.0807 386.749 22.6777 386.749 22.175C386.749 21.655 386.567 21.252 386.203 20.966C385.848 20.6713 385.35 20.524 384.708 20.524C384.067 20.524 383.564 20.6713 383.2 20.966C382.845 21.252 382.667 21.655 382.667 22.175C382.667 22.6777 382.853 23.0807 383.226 23.384C383.607 23.6873 384.101 23.8737 384.708 23.943ZM392.347 19.64C393.465 19.64 394.327 20.03 394.934 20.81C395.541 21.5813 395.844 22.6907 395.844 24.138C395.844 25.1867 395.701 26.0837 395.415 26.829C395.138 27.5657 394.73 28.129 394.193 28.519C393.664 28.909 393.023 29.104 392.269 29.104C391.74 29.104 391.22 29.0087 390.709 28.818C390.206 28.6187 389.76 28.3327 389.37 27.96L389.786 27.141C390.228 27.5137 390.648 27.7867 391.047 27.96C391.446 28.1247 391.849 28.207 392.256 28.207C393.053 28.207 393.669 27.856 394.102 27.154C394.544 26.4433 394.765 25.4423 394.765 24.151V23.033L394.934 23.371C394.865 23.8217 394.704 24.2117 394.453 24.541C394.202 24.8617 393.885 25.113 393.504 25.295C393.123 25.4683 392.702 25.555 392.243 25.555C391.68 25.555 391.181 25.4337 390.748 25.191C390.315 24.9397 389.977 24.593 389.734 24.151C389.491 23.709 389.37 23.1977 389.37 22.617C389.37 22.045 389.496 21.5337 389.747 21.083C390.007 20.6323 390.362 20.2813 390.813 20.03C391.264 19.77 391.775 19.64 392.347 19.64ZM392.399 20.537C391.801 20.537 391.32 20.7277 390.956 21.109C390.601 21.4817 390.423 21.98 390.423 22.604C390.423 23.2193 390.605 23.7177 390.969 24.099C391.333 24.4717 391.814 24.658 392.412 24.658C392.811 24.658 393.166 24.5713 393.478 24.398C393.79 24.216 394.033 23.9733 394.206 23.67C394.379 23.358 394.466 23.0027 394.466 22.604C394.466 22.188 394.379 21.8283 394.206 21.525C394.033 21.213 393.79 20.9703 393.478 20.797C393.166 20.6237 392.806 20.537 392.399 20.537ZM400.363 28.519V20.368L400.974 20.68L398.465 22.279V21.252L400.831 19.744H401.442V28.519H400.363ZM398.322 29V28.103H403.483V29H398.322Z" fill="white"/>
<path d="M1223.08 30.604C1222.61 30.604 1222.16 30.565 1221.74 30.487C1221.33 30.4003 1220.94 30.2703 1220.59 30.097C1220.23 29.915 1219.91 29.694 1219.62 29.434L1220.03 28.615C1220.5 29.005 1220.96 29.2823 1221.43 29.447C1221.91 29.6117 1222.46 29.694 1223.1 29.694C1223.83 29.694 1224.4 29.551 1224.81 29.265C1225.22 28.9703 1225.42 28.5587 1225.42 28.03C1225.42 27.7093 1225.32 27.4537 1225.11 27.263C1224.91 27.0637 1224.63 26.9077 1224.28 26.795C1223.93 26.6737 1223.54 26.561 1223.1 26.457C1222.65 26.3617 1222.23 26.2533 1221.83 26.132C1221.44 26.002 1221.08 25.8417 1220.77 25.651C1220.46 25.4603 1220.23 25.2177 1220.05 24.923C1219.88 24.6283 1219.79 24.26 1219.79 23.818C1219.79 23.2893 1219.93 22.8257 1220.21 22.427C1220.49 22.0197 1220.88 21.7033 1221.38 21.478C1221.88 21.2527 1222.48 21.14 1223.16 21.14C1223.58 21.14 1223.99 21.1877 1224.38 21.283C1224.77 21.3697 1225.13 21.4997 1225.46 21.673C1225.8 21.8463 1226.1 22.0587 1226.36 22.31L1225.94 23.129C1225.52 22.7563 1225.08 22.4833 1224.63 22.31C1224.18 22.1367 1223.69 22.05 1223.16 22.05C1222.44 22.05 1221.88 22.2017 1221.47 22.505C1221.06 22.8083 1220.86 23.233 1220.86 23.779C1220.86 24.117 1220.95 24.39 1221.13 24.598C1221.31 24.806 1221.57 24.975 1221.9 25.105C1222.23 25.2263 1222.61 25.339 1223.03 25.443C1223.48 25.547 1223.91 25.6597 1224.33 25.781C1224.75 25.9023 1225.11 26.054 1225.44 26.236C1225.76 26.4093 1226.02 26.639 1226.22 26.925C1226.41 27.2023 1226.5 27.5577 1226.5 27.991C1226.5 28.5197 1226.36 28.979 1226.09 29.369C1225.81 29.759 1225.41 30.0623 1224.9 30.279C1224.39 30.4957 1223.78 30.604 1223.08 30.604ZM1228.37 30.5V21.244H1229.44V30.5H1228.37ZM1235.95 30.604C1235.02 30.604 1234.23 30.4177 1233.56 30.045C1232.9 29.6637 1232.39 29.122 1232.04 28.42C1231.69 27.7093 1231.52 26.8557 1231.52 25.859C1231.52 24.871 1231.69 24.026 1232.04 23.324C1232.39 22.6133 1232.9 22.0717 1233.55 21.699C1234.2 21.3263 1234.98 21.14 1235.87 21.14C1236.51 21.14 1237.1 21.2397 1237.64 21.439C1238.19 21.6297 1238.66 21.92 1239.06 22.31L1238.64 23.129C1238.19 22.7477 1237.75 22.4747 1237.32 22.31C1236.88 22.1367 1236.4 22.05 1235.87 22.05C1234.82 22.05 1234.02 22.3793 1233.45 23.038C1232.9 23.688 1232.62 24.6283 1232.62 25.859C1232.62 27.1157 1232.91 28.0733 1233.48 28.732C1234.05 29.382 1234.88 29.707 1235.98 29.707C1236.43 29.707 1236.86 29.668 1237.29 29.59C1237.72 29.5033 1238.11 29.3907 1238.46 29.252L1238.2 29.798V26.522H1235.9V25.677H1239.17V29.967C1238.93 30.097 1238.63 30.2097 1238.28 30.305C1237.93 30.4003 1237.55 30.474 1237.15 30.526C1236.75 30.578 1236.35 30.604 1235.95 30.604ZM1241.49 30.5V21.244H1242.31L1248.21 29.109L1247.9 29.187V21.244H1248.92V30.5H1248.08L1242.2 22.648L1242.49 22.557V30.5H1241.49ZM1258.46 30.604C1257.25 30.604 1256.34 30.292 1255.71 29.668C1255.09 29.0353 1254.78 28.1037 1254.78 26.873V21.244H1255.83V26.964C1255.83 27.874 1256.05 28.5587 1256.49 29.018C1256.94 29.4687 1257.59 29.694 1258.46 29.694C1259.31 29.694 1259.95 29.4643 1260.39 29.005C1260.84 28.5457 1261.06 27.8653 1261.06 26.964V21.244H1262.12V26.873C1262.12 28.095 1261.81 29.0223 1261.19 29.655C1260.56 30.2877 1259.65 30.604 1258.46 30.604ZM1264.48 30.5V21.244H1268.17C1269.13 21.244 1269.87 21.4737 1270.4 21.933C1270.93 22.3923 1271.2 23.025 1271.2 23.831C1271.2 24.6283 1270.93 25.261 1270.4 25.729C1269.86 26.197 1269.12 26.431 1268.17 26.431H1265.55V30.5H1264.48ZM1265.55 25.547H1268.08C1268.77 25.547 1269.28 25.3997 1269.63 25.105C1269.98 24.8017 1270.15 24.377 1270.15 23.831C1270.15 23.285 1269.98 22.8647 1269.63 22.57C1269.28 22.2753 1268.77 22.128 1268.08 22.128H1265.55V25.547Z" fill="white"/>
<rect x="1211.5" y="12" width="68" height="27" rx="7.5" stroke="white"/>
<path d="M1147.14 31V21.744H1148.21V30.09H1152.85V31H1147.14ZM1157.75 31.104C1156.88 31.104 1156.13 30.9133 1155.5 30.532C1154.88 30.1507 1154.39 29.6047 1154.04 28.894C1153.71 28.1833 1153.54 27.3427 1153.54 26.372C1153.54 25.3927 1153.71 24.552 1154.04 23.85C1154.38 23.1393 1154.86 22.5933 1155.49 22.212C1156.12 21.8307 1156.87 21.64 1157.75 21.64C1158.62 21.64 1159.37 21.8307 1160 22.212C1160.63 22.5933 1161.12 23.1393 1161.45 23.85C1161.79 24.552 1161.96 25.3883 1161.96 26.359C1161.96 27.3383 1161.79 28.1833 1161.44 28.894C1161.1 29.6047 1160.62 30.1507 1159.99 30.532C1159.36 30.9133 1158.62 31.104 1157.75 31.104ZM1157.75 30.194C1158.73 30.194 1159.49 29.8647 1160.04 29.206C1160.58 28.5387 1160.86 27.5897 1160.86 26.359C1160.86 25.1283 1160.58 24.188 1160.04 23.538C1159.49 22.8793 1158.73 22.55 1157.75 22.55C1156.77 22.55 1156 22.8793 1155.45 23.538C1154.9 24.1967 1154.63 25.137 1154.63 26.359C1154.63 27.581 1154.9 28.5257 1155.45 29.193C1156 29.8603 1156.77 30.194 1157.75 30.194ZM1168.14 31.104C1167.22 31.104 1166.42 30.9177 1165.75 30.545C1165.09 30.1637 1164.58 29.622 1164.23 28.92C1163.88 28.2093 1163.71 27.3557 1163.71 26.359C1163.71 25.371 1163.88 24.526 1164.23 23.824C1164.58 23.1133 1165.09 22.5717 1165.74 22.199C1166.4 21.8263 1167.17 21.64 1168.06 21.64C1168.71 21.64 1169.3 21.7397 1169.83 21.939C1170.38 22.1297 1170.85 22.42 1171.25 22.81L1170.83 23.629C1170.38 23.2477 1169.94 22.9747 1169.51 22.81C1169.07 22.6367 1168.59 22.55 1168.06 22.55C1167.02 22.55 1166.21 22.8793 1165.65 23.538C1165.09 24.188 1164.81 25.1283 1164.81 26.359C1164.81 27.6157 1165.1 28.5733 1165.67 29.232C1166.24 29.882 1167.08 30.207 1168.17 30.207C1168.62 30.207 1169.06 30.168 1169.48 30.09C1169.91 30.0033 1170.3 29.8907 1170.65 29.752L1170.39 30.298V27.022H1168.09V26.177H1171.37V30.467C1171.12 30.597 1170.82 30.7097 1170.47 30.805C1170.12 30.9003 1169.75 30.974 1169.34 31.026C1168.94 31.078 1168.54 31.104 1168.14 31.104ZM1177.21 31V21.744H1178.27V31H1177.21ZM1180.69 31V21.744H1181.51L1187.41 29.609L1187.1 29.687V21.744H1188.11V31H1187.28L1181.39 23.148L1181.69 23.057V31H1180.69Z" fill="white"/>
</svg>
