<svg width="157" height="25" viewBox="0 0 157 25" fill="none" xmlns="http://www.w3.org/2000/svg">
<circle cx="4" cy="4.5" r="3.5" stroke="#989393"/>
<line x1="8" y1="4" x2="149" y2="4" stroke="#989393" stroke-dasharray="2 2"/>
<circle cx="153" cy="4.5" r="3.5" stroke="#989393"/>
<path d="M30.809 21.591C30.211 21.591 29.6347 21.4913 29.08 21.292C28.534 21.0927 28.0703 20.811 27.689 20.447L28.105 19.628C28.521 19.9833 28.95 20.252 29.392 20.434C29.834 20.6073 30.2977 20.694 30.783 20.694C31.4417 20.694 31.94 20.5467 32.278 20.252C32.6247 19.9573 32.798 19.524 32.798 18.952C32.798 18.38 32.6203 17.9553 32.265 17.678C31.9097 17.392 31.3767 17.249 30.666 17.249H29.6V16.352H30.458C31.1427 16.352 31.667 16.2003 32.031 15.897C32.395 15.5937 32.577 15.1603 32.577 14.597C32.577 14.0943 32.4253 13.7087 32.122 13.44C31.8273 13.1713 31.407 13.037 30.861 13.037C30.4017 13.037 29.9553 13.128 29.522 13.31C29.0887 13.4833 28.6597 13.7477 28.235 14.103L27.832 13.284C28.2047 12.9287 28.664 12.6513 29.21 12.452C29.756 12.244 30.3193 12.14 30.9 12.14C31.4547 12.14 31.94 12.2397 32.356 12.439C32.772 12.6297 33.0883 12.9027 33.305 13.258C33.5303 13.6133 33.643 14.0337 33.643 14.519C33.643 15.091 33.4913 15.5807 33.188 15.988C32.8933 16.3867 32.486 16.6597 31.966 16.807L31.927 16.677C32.551 16.807 33.0277 17.0713 33.357 17.47C33.6863 17.8687 33.851 18.3757 33.851 18.991C33.851 19.797 33.578 20.434 33.032 20.902C32.486 21.3613 31.745 21.591 30.809 21.591ZM39.3286 21.5V12.244H42.4356C43.4236 12.244 44.2642 12.426 44.9576 12.79C45.6509 13.1453 46.1796 13.6697 46.5436 14.363C46.9076 15.0477 47.0896 15.8797 47.0896 16.859C47.0896 17.847 46.9032 18.6877 46.5306 19.381C46.1666 20.0657 45.6379 20.59 44.9446 20.954C44.2512 21.318 43.4149 21.5 42.4356 21.5H39.3286ZM40.3946 20.59H42.3706C43.5666 20.59 44.4636 20.278 45.0616 19.654C45.6682 19.03 45.9716 18.0983 45.9716 16.859C45.9716 14.389 44.7712 13.154 42.3706 13.154H40.3946V20.59ZM51.4068 21.591C50.8261 21.591 50.3148 21.4567 49.8728 21.188C49.4395 20.9107 49.1015 20.5207 48.8588 20.018C48.6248 19.5067 48.5078 18.9087 48.5078 18.224C48.5078 17.5393 48.6291 16.9413 48.8718 16.43C49.1145 15.9187 49.4525 15.52 49.8858 15.234C50.3278 14.948 50.8348 14.805 51.4068 14.805C52.0048 14.805 52.5118 14.9523 52.9278 15.247C53.3438 15.5417 53.6255 15.962 53.7728 16.508L53.6168 16.612V14.961H54.6568V21.5H53.6168V19.81L53.7728 19.888C53.6255 20.434 53.3438 20.8543 52.9278 21.149C52.5118 21.4437 52.0048 21.591 51.4068 21.591ZM51.6148 20.72C52.2561 20.72 52.7501 20.5033 53.0968 20.07C53.4435 19.628 53.6168 19.004 53.6168 18.198C53.6168 17.392 53.4391 16.7723 53.0838 16.339C52.7371 15.9057 52.2475 15.689 51.6148 15.689C50.9735 15.689 50.4708 15.9143 50.1068 16.365C49.7515 16.807 49.5738 17.4267 49.5738 18.224C49.5738 19.0213 49.7515 19.6367 50.1068 20.07C50.4708 20.5033 50.9735 20.72 51.6148 20.72ZM56.3807 24.451L56.1597 23.632C56.5584 23.5367 56.892 23.424 57.1607 23.294C57.438 23.1727 57.6677 23.0123 57.8497 22.813C58.0404 22.6137 58.205 22.3493 58.3437 22.02L58.7597 21.058L58.9937 20.733L61.3857 14.961H62.4387L59.3837 22.098C59.1497 22.6267 58.8854 23.047 58.5907 23.359C58.296 23.6797 57.9624 23.9223 57.5897 24.087C57.2257 24.2517 56.8227 24.373 56.3807 24.451ZM58.7727 21.838L55.8347 14.961H56.9397L59.3057 20.733L58.7727 21.838ZM65.6947 21.591C64.594 21.591 63.723 21.3093 63.0817 20.746L63.4327 19.966C63.7794 20.2347 64.1347 20.434 64.4987 20.564C64.8714 20.6853 65.283 20.746 65.7337 20.746C66.2277 20.746 66.6004 20.6637 66.8517 20.499C67.1117 20.3257 67.2417 20.0787 67.2417 19.758C67.2417 19.498 67.155 19.2943 66.9817 19.147C66.8084 18.991 66.5224 18.8653 66.1237 18.77L65.0187 18.51C64.4727 18.3887 64.048 18.172 63.7447 17.86C63.45 17.548 63.3027 17.1753 63.3027 16.742C63.3027 16.3607 63.4067 16.027 63.6147 15.741C63.8227 15.4463 64.113 15.2167 64.4857 15.052C64.8584 14.8873 65.3004 14.805 65.8117 14.805C66.271 14.805 66.7044 14.8787 67.1117 15.026C67.519 15.1733 67.8614 15.3857 68.1387 15.663L67.7877 16.43C67.4757 16.17 67.155 15.9793 66.8257 15.858C66.505 15.728 66.167 15.663 65.8117 15.663C65.3437 15.663 64.9797 15.754 64.7197 15.936C64.4684 16.118 64.3427 16.365 64.3427 16.677C64.3427 16.9457 64.4207 17.158 64.5767 17.314C64.7414 17.47 65.0014 17.5913 65.3567 17.678L66.4617 17.951C67.077 18.081 67.5277 18.2977 67.8137 18.601C68.1084 18.8957 68.2557 19.2727 68.2557 19.732C68.2557 20.2953 68.026 20.746 67.5667 21.084C67.1074 21.422 66.4834 21.591 65.6947 21.591ZM73.5186 23.866V12.244H74.5326V23.866H73.5186ZM84.028 21.5V13.583H84.353L80.505 19.134L80.518 18.601H86.498V19.485H79.764V18.679L84.223 12.244H85.094V21.5H84.028ZM91.4555 21.5V12.244H92.2745L98.1765 20.109L97.8645 20.187V12.244H98.8785V21.5H98.0465L92.1575 13.648L92.4565 13.557V21.5H91.4555ZM101.025 21.5V14.961H102.078V21.5H101.025ZM100.921 12.192H102.208V13.388H100.921V12.192ZM106.995 24.399C106.007 24.399 105.149 24.1737 104.421 23.723L104.603 22.865C105.011 23.099 105.396 23.268 105.76 23.372C106.124 23.476 106.536 23.528 106.995 23.528C107.619 23.528 108.092 23.359 108.412 23.021C108.742 22.6917 108.906 22.1977 108.906 21.539V19.771L109.049 19.602C108.945 19.9487 108.781 20.252 108.555 20.512C108.339 20.7633 108.07 20.9583 107.749 21.097C107.429 21.2357 107.065 21.305 106.657 21.305C106.077 21.305 105.565 21.1707 105.123 20.902C104.69 20.6247 104.348 20.2433 104.096 19.758C103.854 19.2727 103.732 18.705 103.732 18.055C103.732 17.405 103.854 16.8373 104.096 16.352C104.348 15.8667 104.69 15.4897 105.123 15.221C105.565 14.9437 106.077 14.805 106.657 14.805C107.264 14.805 107.775 14.9567 108.191 15.26C108.616 15.5547 108.902 15.9707 109.049 16.508L108.893 16.365V14.961H109.946V21.448C109.946 22.4273 109.695 23.164 109.192 23.658C108.698 24.152 107.966 24.399 106.995 24.399ZM106.865 20.421C107.498 20.421 107.992 20.213 108.347 19.797C108.711 19.3723 108.893 18.7917 108.893 18.055C108.893 17.3183 108.711 16.742 108.347 16.326C107.992 15.9013 107.498 15.689 106.865 15.689C106.224 15.689 105.717 15.9013 105.344 16.326C104.98 16.742 104.798 17.3183 104.798 18.055C104.798 18.8003 104.98 19.381 105.344 19.797C105.717 20.213 106.224 20.421 106.865 20.421ZM111.968 21.5V11.932H113.021V16.287L112.852 16.417C113.034 15.8883 113.337 15.4897 113.762 15.221C114.187 14.9437 114.676 14.805 115.231 14.805C116.8 14.805 117.584 15.6673 117.584 17.392V21.5H116.531V17.444C116.531 16.8373 116.41 16.3953 116.167 16.118C115.924 15.832 115.543 15.689 115.023 15.689C114.416 15.689 113.931 15.8753 113.567 16.248C113.203 16.6207 113.021 17.1233 113.021 17.756V21.5H111.968ZM118.65 15.793V14.961H122.849V15.793H118.65ZM122.823 20.564V21.461C122.675 21.5043 122.528 21.5347 122.381 21.552C122.242 21.578 122.086 21.591 121.913 21.591C121.306 21.591 120.821 21.4177 120.457 21.071C120.101 20.7243 119.924 20.2043 119.924 19.511V13.284L120.977 12.907V19.368C120.977 19.7147 121.024 19.9833 121.12 20.174C121.224 20.3647 121.362 20.499 121.536 20.577C121.709 20.6463 121.904 20.681 122.121 20.681C122.251 20.681 122.368 20.6723 122.472 20.655C122.576 20.6377 122.693 20.6073 122.823 20.564ZM126.328 21.591C125.227 21.591 124.356 21.3093 123.715 20.746L124.066 19.966C124.412 20.2347 124.768 20.434 125.132 20.564C125.504 20.6853 125.916 20.746 126.367 20.746C126.861 20.746 127.233 20.6637 127.485 20.499C127.745 20.3257 127.875 20.0787 127.875 19.758C127.875 19.498 127.788 19.2943 127.615 19.147C127.441 18.991 127.155 18.8653 126.757 18.77L125.652 18.51C125.106 18.3887 124.681 18.172 124.378 17.86C124.083 17.548 123.936 17.1753 123.936 16.742C123.936 16.3607 124.04 16.027 124.248 15.741C124.456 15.4463 124.746 15.2167 125.119 15.052C125.491 14.8873 125.933 14.805 126.445 14.805C126.904 14.805 127.337 14.8787 127.745 15.026C128.152 15.1733 128.494 15.3857 128.772 15.663L128.421 16.43C128.109 16.17 127.788 15.9793 127.459 15.858C127.138 15.728 126.8 15.663 126.445 15.663C125.977 15.663 125.613 15.754 125.353 15.936C125.101 16.118 124.976 16.365 124.976 16.677C124.976 16.9457 125.054 17.158 125.21 17.314C125.374 17.47 125.634 17.5913 125.99 17.678L127.095 17.951C127.71 18.081 128.161 18.2977 128.447 18.601C128.741 18.8957 128.889 19.2727 128.889 19.732C128.889 20.2953 128.659 20.746 128.2 21.084C127.74 21.422 127.116 21.591 126.328 21.591Z" fill="#6C6C6C"/>
</svg>
