<svg width="52" height="45" viewBox="0 0 52 45" fill="none" xmlns="http://www.w3.org/2000/svg">
<path fill-rule="evenodd" clip-rule="evenodd" d="M25.8229 1.07129L47.0746 15.784L45.1938 18.9186L43.2337 17.6119V43.1828H42.6979V32.5795L41.9234 31.8049L40.5551 33.6292V43.1828H40.0194V38.6292H37.8765V43.1828H37.3408V33.6292L36.0015 31.8435L34.6622 33.6292V43.1828H34.1265V38.6292H31.9837V43.1828H31.4479V33.6292L30.1087 31.8435L28.7694 33.6292V43.1828H28.2337V33.4506L30.1087 30.9506L31.9837 33.4506V35.4149H34.1265V33.4506L36.0015 30.9506L37.8765 33.4506V35.4149H40.0194V33.4506L41.8654 30.9893L42.6979 31.8218V17.2547L25.8229 6.00471L9.21581 17.0761V24.9097L9.23041 24.9413C9.25605 24.9971 9.29361 25.079 9.34138 25.184C9.43691 25.394 9.57329 25.6961 9.73692 26.0653C10.0641 26.8036 10.5005 27.8107 10.9372 28.8855C11.3735 29.9597 11.8115 31.1047 12.1407 32.1179C12.4662 33.1192 12.6979 34.0276 12.6979 34.6114C12.6979 35.7276 12.3916 36.8603 11.7319 37.7208C11.11 38.5321 10.1833 39.0873 8.94795 39.1574V43.1828H8.41223V39.1574C7.17693 39.0873 6.25023 38.5321 5.62823 37.7208C4.96857 36.8603 4.66223 35.7276 4.66223 34.6114C4.66223 34.0205 4.93199 33.1068 5.30708 32.1066C5.68733 31.0926 6.19291 29.947 6.69649 28.8727C7.20042 27.7976 7.7041 26.7903 8.08167 26.0519C8.2705 25.6826 8.4279 25.3804 8.53815 25.1704C8.59327 25.0654 8.63662 24.9835 8.66622 24.9277L8.68009 24.9016V17.4333L6.45208 18.9186L4.57129 15.784L25.8229 1.07129ZM8.93074 25.5756C8.76277 25.5756 8.7038 26.0119 8.55864 26.2958C8.18286 27.0307 7.68209 28.0322 7.18155 29.1C6.68066 30.1686 6.18178 31.2998 5.80868 32.2947C5.43043 33.3034 5.19795 34.1308 5.19795 34.6114C5.19795 35.638 5.48089 36.6481 6.05338 37.3948C6.61935 38.133 7.47866 38.6292 8.68009 38.6292C9.88152 38.6292 10.7408 38.133 11.3068 37.3948C11.8793 36.6481 12.1622 35.638 12.1622 34.6114C12.1622 34.1237 11.9587 33.291 11.6313 32.2834C11.3076 31.2877 10.875 30.1559 10.4409 29.0872C10.007 28.0191 9.57287 27.0173 9.24715 26.2824C9.12425 26.0051 9.0987 25.5756 8.93074 25.5756ZM40.0194 35.9506H37.8765V38.0935H40.0194V35.9506ZM34.1265 35.9506H31.9837V38.0935H34.1265V35.9506ZM5.28889 15.9387L6.62239 18.1612L25.8229 5.36086L45.0235 18.1612L46.357 15.9387L25.8229 1.72286L5.28889 15.9387ZM22.1832 14.3572C21.9016 14.7483 21.8051 15.2257 21.8051 15.5399V17.522H25.5551V13.6649H23.6801C22.9102 13.6649 22.455 13.9797 22.1832 14.3572ZM26.0908 13.6649V17.522H29.8408V16.0756C29.8408 15.069 29.5081 14.4759 29.1259 14.1319C28.7351 13.7802 28.266 13.6649 27.9658 13.6649H26.0908ZM29.8408 18.0577H26.0908V21.7006H27.9658C28.7356 21.7006 29.1909 21.3859 29.4627 21.0084C29.7443 20.6173 29.8408 20.1399 29.8408 19.8256V18.0577ZM25.5551 21.7006V18.0577H21.8051V19.8256C21.8051 20.5955 22.1199 21.0508 22.4973 21.3226C22.8884 21.6042 23.3658 21.7006 23.6801 21.7006H25.5551ZM21.7484 14.0441C22.1195 13.5287 22.7356 13.1292 23.6801 13.1292H27.9658C28.3799 13.1292 28.9822 13.2818 29.4843 13.7337C29.9949 14.1933 30.3765 14.9394 30.3765 16.0756V19.8256C30.3765 20.2256 30.2587 20.8197 29.8975 21.3214C29.5264 21.8368 28.9102 22.2364 27.9658 22.2364H23.6801C23.2801 22.2364 22.686 22.1186 22.1843 21.7573C21.6689 21.3862 21.2694 20.7701 21.2694 19.8256V15.5399C21.2694 15.1399 21.3872 14.5459 21.7484 14.0441ZM14.8408 28.9864H23.4122V43.1828H22.8765V29.5221H15.3765V43.1828H14.8408V28.9864Z" fill="black"/>
<rect x="19.9302" y="35.6826" width="1.07143" height="1.07143" fill="black"/>
<path fill-rule="evenodd" clip-rule="evenodd" d="M48.323 43.7189H4.93018V42.6475H48.323V43.7189Z" fill="black"/>
</svg>
