<svg width="28" height="24" viewBox="0 0 28 24" fill="none" xmlns="http://www.w3.org/2000/svg">
<path fill-rule="evenodd" clip-rule="evenodd" d="M17.1235 0.587283C18.0603 0.199561 19.0644 0 20.0785 0C21.0925 0 22.0966 0.199561 23.0334 0.587283C23.97 0.974933 24.821 1.54308 25.5378 2.25928C26.2549 2.97524 26.824 3.82567 27.2121 4.76123C27.6003 5.69696 27.8001 6.69991 27.8001 7.71279C27.8001 8.72567 27.6003 9.72862 27.2121 10.6644C26.824 11.6 26.2551 12.4501 25.538 13.1661C25.538 13.1662 25.5381 13.166 25.538 13.1661L15.0395 23.6526C14.5758 24.1158 13.8238 24.1158 13.36 23.6526L2.86153 13.1661C1.41356 11.7198 0.600098 9.75818 0.600098 7.71279C0.600098 5.6674 1.41356 3.70578 2.86153 2.25947C4.3095 0.813163 6.27337 0.000634374 8.3211 0.000634374C10.3688 0.000634374 12.3327 0.813163 13.7807 2.25947L14.1998 2.67809L14.6187 2.25967C14.6186 2.25974 14.6187 2.2596 14.6187 2.25967C15.3355 1.54338 16.1868 0.974969 17.1235 0.587283ZM20.0785 2.3725C19.3764 2.3725 18.6813 2.51066 18.0327 2.77908C17.3842 3.0475 16.7949 3.44093 16.2986 3.93689L15.0395 5.19451C14.5758 5.65777 13.8238 5.65777 13.36 5.19451L12.1011 3.93708C11.0986 2.9357 9.73889 2.37313 8.3211 2.37313C6.90331 2.37313 5.54359 2.9357 4.54106 3.93708C3.53853 4.93846 2.97532 6.29662 2.97532 7.71279C2.97532 9.12895 3.53854 10.4871 4.54106 11.4885L14.1998 21.1361L23.8585 11.4885C24.355 10.9928 24.7491 10.404 25.0178 9.75618C25.2866 9.10836 25.4249 8.41401 25.4249 7.71279C25.4249 7.01157 25.2866 6.31721 25.0178 5.6694C24.7491 5.02158 24.3552 4.433 23.8587 3.93728C23.3624 3.44132 22.7727 3.0475 22.1242 2.77908C21.4756 2.51066 20.7805 2.3725 20.0785 2.3725Z" fill="black"/>
</svg>
