<svg width="234" height="25" viewBox="0 0 234 25" fill="none" xmlns="http://www.w3.org/2000/svg">
<path d="M69.309 13.591C68.711 13.591 68.1347 13.4913 67.58 13.292C67.034 13.0927 66.5703 12.811 66.189 12.447L66.605 11.628C67.021 11.9833 67.45 12.252 67.892 12.434C68.334 12.6073 68.7977 12.694 69.283 12.694C69.9417 12.694 70.44 12.5467 70.778 12.252C71.1247 11.9573 71.298 11.524 71.298 10.952C71.298 10.38 71.1203 9.95533 70.765 9.678C70.4097 9.392 69.8767 9.249 69.166 9.249H68.1V8.352H68.958C69.6427 8.352 70.167 8.20033 70.531 7.897C70.895 7.59367 71.077 7.16033 71.077 6.597C71.077 6.09433 70.9253 5.70867 70.622 5.44C70.3273 5.17133 69.907 5.037 69.361 5.037C68.9017 5.037 68.4553 5.128 68.022 5.31C67.5887 5.48333 67.1597 5.74767 66.735 6.103L66.332 5.284C66.7047 4.92867 67.164 4.65133 67.71 4.452C68.256 4.244 68.8193 4.14 69.4 4.14C69.9547 4.14 70.44 4.23967 70.856 4.439C71.272 4.62967 71.5883 4.90267 71.805 5.258C72.0303 5.61333 72.143 6.03367 72.143 6.519C72.143 7.091 71.9913 7.58067 71.688 7.988C71.3933 8.38667 70.986 8.65967 70.466 8.807L70.427 8.677C71.051 8.807 71.5277 9.07133 71.857 9.47C72.1863 9.86867 72.351 10.3757 72.351 10.991C72.351 11.797 72.078 12.434 71.532 12.902C70.986 13.3613 70.245 13.591 69.309 13.591ZM77.8286 13.5V4.244H80.9356C81.9236 4.244 82.7642 4.426 83.4576 4.79C84.1509 5.14533 84.6796 5.66967 85.0436 6.363C85.4076 7.04767 85.5896 7.87967 85.5896 8.859C85.5896 9.847 85.4032 10.6877 85.0306 11.381C84.6666 12.0657 84.1379 12.59 83.4446 12.954C82.7512 13.318 81.9149 13.5 80.9356 13.5H77.8286ZM78.8946 12.59H80.8706C82.0666 12.59 82.9636 12.278 83.5616 11.654C84.1682 11.03 84.4716 10.0983 84.4716 8.859C84.4716 6.389 83.2712 5.154 80.8706 5.154H78.8946V12.59ZM89.9068 13.591C89.3261 13.591 88.8148 13.4567 88.3728 13.188C87.9395 12.9107 87.6015 12.5207 87.3588 12.018C87.1248 11.5067 87.0078 10.9087 87.0078 10.224C87.0078 9.53933 87.1291 8.94133 87.3718 8.43C87.6145 7.91867 87.9525 7.52 88.3858 7.234C88.8278 6.948 89.3348 6.805 89.9068 6.805C90.5048 6.805 91.0118 6.95233 91.4278 7.247C91.8438 7.54167 92.1255 7.962 92.2728 8.508L92.1168 8.612V6.961H93.1568V13.5H92.1168V11.81L92.2728 11.888C92.1255 12.434 91.8438 12.8543 91.4278 13.149C91.0118 13.4437 90.5048 13.591 89.9068 13.591ZM90.1148 12.72C90.7561 12.72 91.2501 12.5033 91.5968 12.07C91.9435 11.628 92.1168 11.004 92.1168 10.198C92.1168 9.392 91.9391 8.77233 91.5838 8.339C91.2371 7.90567 90.7475 7.689 90.1148 7.689C89.4735 7.689 88.9708 7.91433 88.6068 8.365C88.2515 8.807 88.0738 9.42667 88.0738 10.224C88.0738 11.0213 88.2515 11.6367 88.6068 12.07C88.9708 12.5033 89.4735 12.72 90.1148 12.72ZM94.8807 16.451L94.6597 15.632C95.0584 15.5367 95.392 15.424 95.6607 15.294C95.938 15.1727 96.1677 15.0123 96.3497 14.813C96.5404 14.6137 96.705 14.3493 96.8437 14.02L97.2597 13.058L97.4937 12.733L99.8857 6.961H100.939L97.8837 14.098C97.6497 14.6267 97.3854 15.047 97.0907 15.359C96.796 15.6797 96.4624 15.9223 96.0897 16.087C95.7257 16.2517 95.3227 16.373 94.8807 16.451ZM97.2727 13.838L94.3347 6.961H95.4397L97.8057 12.733L97.2727 13.838ZM104.195 13.591C103.094 13.591 102.223 13.3093 101.582 12.746L101.933 11.966C102.279 12.2347 102.635 12.434 102.999 12.564C103.371 12.6853 103.783 12.746 104.234 12.746C104.728 12.746 105.1 12.6637 105.352 12.499C105.612 12.3257 105.742 12.0787 105.742 11.758C105.742 11.498 105.655 11.2943 105.482 11.147C105.308 10.991 105.022 10.8653 104.624 10.77L103.519 10.51C102.973 10.3887 102.548 10.172 102.245 9.86C101.95 9.548 101.803 9.17533 101.803 8.742C101.803 8.36067 101.907 8.027 102.115 7.741C102.323 7.44633 102.613 7.21667 102.986 7.052C103.358 6.88733 103.8 6.805 104.312 6.805C104.771 6.805 105.204 6.87867 105.612 7.026C106.019 7.17333 106.361 7.38567 106.639 7.663L106.288 8.43C105.976 8.17 105.655 7.97933 105.326 7.858C105.005 7.728 104.667 7.663 104.312 7.663C103.844 7.663 103.48 7.754 103.22 7.936C102.968 8.118 102.843 8.365 102.843 8.677C102.843 8.94567 102.921 9.158 103.077 9.314C103.241 9.47 103.501 9.59133 103.857 9.678L104.962 9.951C105.577 10.081 106.028 10.2977 106.314 10.601C106.608 10.8957 106.756 11.2727 106.756 11.732C106.756 12.2953 106.526 12.746 106.067 13.084C105.607 13.422 104.983 13.591 104.195 13.591ZM112.019 15.866V4.244H113.033V15.866H112.019ZM122.528 13.5V5.583H122.853L119.005 11.134L119.018 10.601H124.998V11.485H118.264V10.679L122.723 4.244H123.594V13.5H122.528ZM129.956 13.5V4.244H130.775L136.677 12.109L136.365 12.187V4.244H137.379V13.5H136.547L130.658 5.648L130.957 5.557V13.5H129.956ZM139.525 13.5V6.961H140.578V13.5H139.525ZM139.421 4.192H140.708V5.388H139.421V4.192ZM145.495 16.399C144.507 16.399 143.649 16.1737 142.921 15.723L143.103 14.865C143.511 15.099 143.896 15.268 144.26 15.372C144.624 15.476 145.036 15.528 145.495 15.528C146.119 15.528 146.592 15.359 146.912 15.021C147.242 14.6917 147.406 14.1977 147.406 13.539V11.771L147.549 11.602C147.445 11.9487 147.281 12.252 147.055 12.512C146.839 12.7633 146.57 12.9583 146.249 13.097C145.929 13.2357 145.565 13.305 145.157 13.305C144.577 13.305 144.065 13.1707 143.623 12.902C143.19 12.6247 142.848 12.2433 142.596 11.758C142.354 11.2727 142.232 10.705 142.232 10.055C142.232 9.405 142.354 8.83733 142.596 8.352C142.848 7.86667 143.19 7.48967 143.623 7.221C144.065 6.94367 144.577 6.805 145.157 6.805C145.764 6.805 146.275 6.95667 146.691 7.26C147.116 7.55467 147.402 7.97067 147.549 8.508L147.393 8.365V6.961H148.446V13.448C148.446 14.4273 148.195 15.164 147.692 15.658C147.198 16.152 146.466 16.399 145.495 16.399ZM145.365 12.421C145.998 12.421 146.492 12.213 146.847 11.797C147.211 11.3723 147.393 10.7917 147.393 10.055C147.393 9.31833 147.211 8.742 146.847 8.326C146.492 7.90133 145.998 7.689 145.365 7.689C144.724 7.689 144.217 7.90133 143.844 8.326C143.48 8.742 143.298 9.31833 143.298 10.055C143.298 10.8003 143.48 11.381 143.844 11.797C144.217 12.213 144.724 12.421 145.365 12.421ZM150.468 13.5V3.932H151.521V8.287L151.352 8.417C151.534 7.88833 151.837 7.48967 152.262 7.221C152.687 6.94367 153.176 6.805 153.731 6.805C155.3 6.805 156.084 7.66733 156.084 9.392V13.5H155.031V9.444C155.031 8.83733 154.91 8.39533 154.667 8.118C154.424 7.832 154.043 7.689 153.523 7.689C152.916 7.689 152.431 7.87533 152.067 8.248C151.703 8.62067 151.521 9.12333 151.521 9.756V13.5H150.468ZM157.15 7.793V6.961H161.349V7.793H157.15ZM161.323 12.564V13.461C161.175 13.5043 161.028 13.5347 160.881 13.552C160.742 13.578 160.586 13.591 160.413 13.591C159.806 13.591 159.321 13.4177 158.957 13.071C158.601 12.7243 158.424 12.2043 158.424 11.511V5.284L159.477 4.907V11.368C159.477 11.7147 159.524 11.9833 159.62 12.174C159.724 12.3647 159.862 12.499 160.036 12.577C160.209 12.6463 160.404 12.681 160.621 12.681C160.751 12.681 160.868 12.6723 160.972 12.655C161.076 12.6377 161.193 12.6073 161.323 12.564ZM164.828 13.591C163.727 13.591 162.856 13.3093 162.215 12.746L162.566 11.966C162.912 12.2347 163.268 12.434 163.632 12.564C164.004 12.6853 164.416 12.746 164.867 12.746C165.361 12.746 165.733 12.6637 165.985 12.499C166.245 12.3257 166.375 12.0787 166.375 11.758C166.375 11.498 166.288 11.2943 166.115 11.147C165.941 10.991 165.655 10.8653 165.257 10.77L164.152 10.51C163.606 10.3887 163.181 10.172 162.878 9.86C162.583 9.548 162.436 9.17533 162.436 8.742C162.436 8.36067 162.54 8.027 162.748 7.741C162.956 7.44633 163.246 7.21667 163.619 7.052C163.991 6.88733 164.433 6.805 164.945 6.805C165.404 6.805 165.837 6.87867 166.245 7.026C166.652 7.17333 166.994 7.38567 167.272 7.663L166.921 8.43C166.609 8.17 166.288 7.97933 165.959 7.858C165.638 7.728 165.3 7.663 164.945 7.663C164.477 7.663 164.113 7.754 163.853 7.936C163.601 8.118 163.476 8.365 163.476 8.677C163.476 8.94567 163.554 9.158 163.71 9.314C163.874 9.47 164.134 9.59133 164.49 9.678L165.595 9.951C166.21 10.081 166.661 10.2977 166.947 10.601C167.241 10.8957 167.389 11.2727 167.389 11.732C167.389 12.2953 167.159 12.746 166.7 13.084C166.24 13.422 165.616 13.591 164.828 13.591Z" fill="#6C6C6C"/>
<circle cx="4.5" cy="20.5" r="3.5" stroke="#989393"/>
<line x1="8.5" y1="20" x2="225.5" y2="20" stroke="#989393" stroke-dasharray="2 2"/>
<circle cx="229.5" cy="20.5" r="3.5" stroke="#989393"/>
</svg>
