<svg width="59" height="45" viewBox="0 0 59 45" fill="none" xmlns="http://www.w3.org/2000/svg">
<rect x="21.8594" y="13.6445" width="13.0546" height="0.767917" rx="0.383958" fill="black"/>
<path fill-rule="evenodd" clip-rule="evenodd" d="M28.3859 39.3693C33.8993 39.3693 38.3688 34.8998 38.3688 29.3864C38.3688 23.873 33.8993 19.4035 28.3859 19.4035C22.8725 19.4035 18.403 23.873 18.403 29.3864C18.403 34.8998 22.8725 39.3693 28.3859 39.3693ZM28.3859 39.7533C34.1114 39.7533 38.7528 35.1119 38.7528 29.3864C38.7528 23.6609 34.1114 19.0195 28.3859 19.0195C22.6605 19.0195 18.019 23.6609 18.019 29.3864C18.019 35.1119 22.6605 39.7533 28.3859 39.7533Z" fill="black"/>
<path fill-rule="evenodd" clip-rule="evenodd" d="M12.6433 14.0273H19.1706V13.6433C19.1706 10.4625 21.7492 7.88396 24.93 7.88396H31.8412C35.0221 7.88396 37.6006 10.4625 37.6006 13.6433V14.0273H47.1996C50.3804 14.0273 52.959 16.6059 52.959 19.7867V38.2167C52.959 41.3975 50.3804 43.976 47.1996 43.976H12.6433C9.46252 43.976 6.88396 41.3975 6.88396 38.2167V19.7867C6.88396 16.6059 9.46252 14.0273 12.6433 14.0273ZM24.93 7.5C21.5371 7.5 18.7867 10.2505 18.7867 13.6433H12.6433C9.25046 13.6433 6.5 16.3938 6.5 19.7867V38.2167C6.5 41.6095 9.25046 44.36 12.6433 44.36H47.1996C50.5924 44.36 53.3429 41.6095 53.3429 38.2167V19.7867C53.3429 16.3938 50.5924 13.6433 47.1996 13.6433H37.9846C37.9846 10.2505 35.2341 7.5 31.8412 7.5H24.93ZM39.7693 11.7993C39.7693 11.641 39.8251 11.3924 39.9901 11.1887C40.1465 10.9956 40.4185 10.8206 40.9016 10.8206H44.7028H45.0483C45.2442 10.8206 45.5396 10.8747 45.7775 11.0269C46.0019 11.1705 46.1806 11.4024 46.1806 11.7993V13.6423H46.6806V11.7993C46.6806 11.2132 46.3986 10.8308 46.047 10.6058C45.7089 10.3894 45.3132 10.3206 45.0483 10.3206H44.7028H40.9016C40.2789 10.3206 39.8598 10.5552 39.6015 10.874C39.3519 11.1822 39.2693 11.548 39.2693 11.7993V13.6423H39.7693V11.7993Z" fill="black"/>
<path fill-rule="evenodd" clip-rule="evenodd" d="M33.5218 25.4186C34.5595 26.8598 34.9129 28.6124 34.9129 29.7693H36.4487C36.4487 28.3666 36.0342 26.2796 34.7682 24.5212C33.4739 22.7236 31.3236 21.3223 28.0016 21.3223V22.8581C30.823 22.8581 32.5123 24.0165 33.5218 25.4186Z" fill="black"/>
</svg>
