<svg width="51" height="48" viewBox="0 0 51 48" fill="none" xmlns="http://www.w3.org/2000/svg">
<mask id="path-1-inside-1_958_2260" fill="white">
<path fill-rule="evenodd" clip-rule="evenodd" d="M28.2024 22.3464C28.3391 22.0123 28.4141 21.6492 28.4141 21.2695C28.4141 19.6191 26.9975 18.2812 25.25 18.2812C23.5025 18.2812 22.0859 19.6191 22.0859 21.2695C22.0859 21.6492 22.1609 22.0123 22.2976 22.3464C12.2404 23.7067 4.50781 31.9142 4.50781 41.8359H25.25H45.9922C45.9922 31.9142 38.2596 23.7067 28.2024 22.3464Z"/>
</mask>
<path d="M28.2024 22.3464L27.7396 22.157L27.4949 22.7552L28.1354 22.8418L28.2024 22.3464ZM22.2976 22.3464L22.3646 22.8418L23.0051 22.7552L22.7604 22.157L22.2976 22.3464ZM4.50781 41.8359H4.00781V42.3359H4.50781V41.8359ZM45.9922 41.8359V42.3359H46.4922V41.8359H45.9922ZM27.9141 21.2695C27.9141 21.5827 27.8523 21.8816 27.7396 22.157L28.6652 22.5357C28.8259 22.143 28.9141 21.7156 28.9141 21.2695H27.9141ZM25.25 18.7812C26.7486 18.7812 27.9141 19.9218 27.9141 21.2695H28.9141C28.9141 19.3165 27.2463 17.7812 25.25 17.7812V18.7812ZM22.5859 21.2695C22.5859 19.9218 23.7514 18.7812 25.25 18.7812V17.7812C23.2537 17.7812 21.5859 19.3165 21.5859 21.2695H22.5859ZM22.7604 22.157C22.6477 21.8816 22.5859 21.5827 22.5859 21.2695H21.5859C21.5859 21.7156 21.6741 22.143 21.8348 22.5357L22.7604 22.157ZM5.00781 41.8359C5.00781 32.1874 12.5319 24.1718 22.3646 22.8418L22.2306 21.8509C11.9489 23.2415 4.00781 31.6409 4.00781 41.8359H5.00781ZM25.25 41.3359H4.50781V42.3359H25.25V41.3359ZM45.9922 41.3359H25.25V42.3359H45.9922V41.3359ZM28.1354 22.8418C37.9681 24.1718 45.4922 32.1874 45.4922 41.8359H46.4922C46.4922 31.6409 38.5511 23.2415 28.2694 21.8509L28.1354 22.8418Z" fill="black" mask="url(#path-1-inside-1_958_2260)"/>
<path fill-rule="evenodd" clip-rule="evenodd" d="M0.640625 45.3906C0.640625 44.5622 1.11282 43.8906 1.69531 43.8906H48.8047C49.3872 43.8906 49.8594 44.5622 49.8594 45.3906C49.8594 46.2191 49.3872 46.8906 48.8047 46.8906H1.69531C1.11282 46.8906 0.640625 46.2191 0.640625 45.3906Z" stroke="black" stroke-width="0.5" stroke-linecap="round"/>
<path d="M33.9794 29.6136C37.0546 31.7948 40.1061 34.834 40.75 40.771L38.9552 41C38.3944 35.8286 36.0877 32.7174 32.9252 30.1037C31.2687 28.7968 28.7688 27.4157 27.75 27C28.076 27.1036 29.9604 27.5901 30.5157 27.8167C31.165 28.0816 32.4423 28.5234 33.9794 29.6136Z" fill="black"/>
<path d="M19.8 12.0742C22.6125 16.0117 20.386 18.6367 18.9211 19.457C20.6016 18.7539 23.8023 16.0524 21.15 12.0742C20.0952 10.4922 17.4585 7.67969 18.9211 5.57031C18.5695 5.92187 16.2844 7.15234 19.8 12.0742Z" stroke="black" stroke-width="0.3"/>
<path d="M29.9543 12.0742C32.7668 16.0117 30.5403 18.6367 29.0754 19.457C30.7559 18.7539 33.9566 16.0524 31.3043 12.0742C30.2495 10.4922 27.6128 7.67969 29.0754 5.57031C28.7238 5.92187 26.4387 7.15234 29.9543 12.0742Z" stroke="black" stroke-width="0.3"/>
<path d="M24.4085 8.38281C21.596 4.44531 23.8225 1.82031 25.2874 1C23.6069 1.70313 20.4062 4.40468 23.0585 8.38281C24.1133 9.96484 26.75 12.7773 25.2874 14.8867C25.639 14.5352 27.9241 13.3047 24.4085 8.38281Z" stroke="black" stroke-width="0.3"/>
</svg>
