<svg width="28" height="24" viewBox="0 0 28 24" fill="none" xmlns="http://www.w3.org/2000/svg">
<path fill-rule="evenodd" clip-rule="evenodd" d="M17.1234 0.587283C18.0602 0.199561 19.0643 0 20.0783 0C21.0924 0 22.0965 0.199561 23.0333 0.587283C23.9699 0.974933 24.8209 1.54308 25.5377 2.25928C26.2547 2.97524 26.8239 3.82567 27.212 4.76123C27.6002 5.69696 27.8 6.69991 27.8 7.71279C27.8 8.72567 27.6002 9.72862 27.212 10.6644C26.8239 11.6 26.255 12.4501 25.5379 13.1661C25.5378 13.1662 25.538 13.166 25.5379 13.1661L15.0394 23.6526C14.5756 24.1158 13.8237 24.1158 13.3599 23.6526L2.86141 13.1661C1.41344 11.7198 0.599976 9.75818 0.599976 7.71279C0.599976 5.6674 1.41344 3.70578 2.86141 2.25947C4.30938 0.813163 6.27324 0.000634374 8.32098 0.000634374C10.3687 0.000634374 12.3326 0.813163 13.7806 2.25947L14.1997 2.67809L14.6186 2.25967C14.6185 2.25974 14.6186 2.2596 14.6186 2.25967C15.3354 1.54338 16.1867 0.974969 17.1234 0.587283ZM20.0783 2.3725C19.3763 2.3725 18.6812 2.51066 18.0326 2.77908C17.384 3.0475 16.7948 3.44093 16.2985 3.93689L15.0394 5.19451C14.5756 5.65777 13.8237 5.65777 13.3599 5.19451L12.101 3.93708C11.0985 2.9357 9.73877 2.37313 8.32098 2.37313C6.90319 2.37313 5.54347 2.9357 4.54094 3.93708C3.53841 4.93846 2.9752 6.29662 2.9752 7.71279C2.9752 9.12895 3.53841 10.4871 4.54094 11.4885L14.1997 21.1361L23.8584 11.4885C24.3549 10.9928 24.749 10.404 25.0177 9.75618C25.2864 9.10836 25.4248 8.41401 25.4248 7.71279C25.4248 7.01157 25.2864 6.31721 25.0177 5.6694C24.749 5.02158 24.3551 4.433 23.8586 3.93728C23.3623 3.44132 22.7726 3.0475 22.1241 2.77908C21.4755 2.51066 20.7804 2.3725 20.0783 2.3725Z" fill="black"/>
</svg>
