<svg width="26" height="24" viewBox="0 0 26 24" fill="none" xmlns="http://www.w3.org/2000/svg">
<path fill-rule="evenodd" clip-rule="evenodd" d="M12.6897 1.84619L23.152 9.08936L22.2261 10.6326L21.2611 9.98924V22.578H20.9973V17.3579L20.616 16.9766L19.9424 17.8747V22.578H19.6787V20.3363H18.6237V22.578H18.36V17.8747L17.7006 16.9956L17.0413 17.8747V22.578H16.7776V20.3363H15.7226V22.578H15.4589V17.8747L14.7995 16.9956L14.1402 17.8747V22.578H13.8765V17.7868L14.7995 16.556L15.7226 17.7868V18.7538H16.7776V17.7868L17.7006 16.556L18.6237 17.7868V18.7538H19.6787V17.7868L20.5875 16.5751L20.9973 16.9849V9.81342L12.6897 4.27495L4.51383 9.7255V13.582L4.52102 13.5976C4.53364 13.6251 4.55213 13.6654 4.57565 13.7171C4.62268 13.8204 4.68982 13.9692 4.77037 14.151C4.93145 14.5144 5.14631 15.0102 5.36127 15.5394C5.5761 16.0682 5.79169 16.6319 5.9538 17.1307C6.11401 17.6236 6.22811 18.0709 6.22811 18.3582C6.22811 18.9078 6.0773 19.4654 5.75254 19.889C5.44633 20.2884 4.99011 20.5618 4.38196 20.5963V22.578H4.11822V20.5963C3.51007 20.5618 3.05385 20.2884 2.74764 19.889C2.42288 19.4654 2.27207 18.9078 2.27207 18.3582C2.27207 18.0673 2.40487 17.6175 2.58953 17.1251C2.77673 16.6259 3.02563 16.0619 3.27355 15.533C3.52163 15.0038 3.7696 14.5078 3.95548 14.1443C4.04845 13.9625 4.12593 13.8138 4.18021 13.7104C4.20735 13.6587 4.22869 13.6183 4.24326 13.5909L4.25009 13.578V9.90133L3.15322 10.6326L2.22729 9.08936L12.6897 1.84619ZM4.37349 13.9098C4.2908 13.9098 4.26176 14.1247 4.1903 14.2644C4.0053 14.6262 3.75876 15.1193 3.51235 15.645C3.26576 16.171 3.02015 16.7279 2.83647 17.2177C2.65025 17.7143 2.5358 18.1217 2.5358 18.3582C2.5358 18.8636 2.6751 19.3609 2.95694 19.7285C3.23557 20.092 3.65862 20.3363 4.25009 20.3363C4.84156 20.3363 5.26461 20.092 5.54324 19.7285C5.82508 19.3609 5.96438 18.8636 5.96438 18.3582C5.96438 18.1181 5.86419 17.7082 5.70298 17.2122C5.54365 16.7219 5.33068 16.1648 5.11693 15.6386C4.90332 15.1128 4.68961 14.6196 4.52926 14.2578C4.46875 14.1213 4.45618 13.9098 4.37349 13.9098ZM19.6787 19.0176H18.6237V20.0725H19.6787V19.0176ZM16.7776 19.0176H15.7226V20.0725H16.7776V19.0176ZM2.58058 9.16555L3.23707 10.2597L12.6897 3.95798L22.1422 10.2597L22.7987 9.16555L12.6897 2.16696L2.58058 9.16555ZM10.8978 8.38693C10.7591 8.57947 10.7116 8.81449 10.7116 8.96922V9.94499H12.5578V8.04614H11.6347C11.2557 8.04614 11.0316 8.2011 10.8978 8.38693ZM12.8215 8.04614V9.94499H14.6677V9.23295C14.6677 8.73739 14.5039 8.44538 14.3157 8.27602C14.1233 8.10287 13.8924 8.04614 13.7446 8.04614H12.8215ZM14.6677 10.2087H12.8215V12.0022H13.7446C14.1236 12.0022 14.3477 11.8472 14.4815 11.6614C14.6202 11.4688 14.6677 11.2338 14.6677 11.0791V10.2087ZM12.5578 12.0022V10.2087H10.7116V11.0791C10.7116 11.4581 10.8666 11.6823 11.0524 11.816C11.245 11.9547 11.48 12.0022 11.6347 12.0022H12.5578ZM10.6837 8.23282C10.8664 7.97909 11.1697 7.7824 11.6347 7.7824H13.7446C13.9485 7.7824 14.245 7.85754 14.4922 8.07999C14.7435 8.30624 14.9314 8.67357 14.9314 9.23295V11.0791C14.9314 11.276 14.8734 11.5685 14.6956 11.8155C14.5129 12.0692 14.2096 12.2659 13.7446 12.2659H11.6347C11.4378 12.2659 11.1453 12.2079 10.8983 12.0301C10.6446 11.8474 10.4479 11.5441 10.4479 11.0791V8.96922C10.4479 8.77229 10.5059 8.47984 10.6837 8.23282ZM7.28306 15.589H11.5028V22.578H11.2391V15.8527H7.54679V22.578H7.28306V15.589Z" fill="black"/>
<rect x="9.78857" y="18.8857" width="0.527472" height="0.527472" fill="black"/>
<path fill-rule="evenodd" clip-rule="evenodd" d="M23.7667 22.8418H2.40405V22.3143H23.7667V22.8418Z" fill="black"/>
</svg>
