<svg width="49" height="45" viewBox="0 0 49 45" fill="none" xmlns="http://www.w3.org/2000/svg">
<mask id="path-1-inside-1_809_6047" fill="white">
<path fill-rule="evenodd" clip-rule="evenodd" d="M40.4423 6C40.4423 7.933 38.8753 9.5 36.9423 9.5C35.0093 9.5 33.4423 7.933 33.4423 6C33.4423 4.067 35.0093 2.5 36.9423 2.5C38.8753 2.5 40.4423 4.067 40.4423 6ZM40.9423 6C40.9423 8.20914 39.1514 10 36.9423 10C34.7331 10 32.9423 8.20914 32.9423 6C32.9423 3.79086 34.7331 2 36.9423 2C39.1514 2 40.9423 3.79086 40.9423 6ZM16.4423 7C16.4423 8.933 14.8753 10.5 12.9423 10.5C11.0093 10.5 9.44228 8.933 9.44228 7C9.44228 5.067 11.0093 3.5 12.9423 3.5C14.8753 3.5 16.4423 5.067 16.4423 7ZM16.9423 7C16.9423 9.20914 15.1514 11 12.9423 11C10.7331 11 8.94228 9.20914 8.94228 7C8.94228 4.79086 10.7331 3 12.9423 3C15.1514 3 16.9423 4.79086 16.9423 7ZM27.6187 7.6185C27.9508 7.2864 28.3474 7.2138 28.7295 7.26454C29.1107 7.31517 29.462 7.48843 29.6694 7.63427L33.7676 11.6211L33.8403 11.6919H33.9419H39.9419H40.0413L40.1136 11.6236L44.3379 7.6316C44.5236 7.48753 44.8458 7.31461 45.2018 7.26445C45.5527 7.21502 45.9306 7.28381 46.2655 7.61867C46.5953 7.94847 46.6711 8.36235 46.6193 8.77311C46.5683 9.17742 46.3947 9.55569 46.2474 9.78319L41.7649 14.2649L41.6916 14.3382V14.4417V30.4419V30.442C41.6917 30.7353 41.6018 31.1808 41.339 31.5458C41.0854 31.8981 40.6605 32.1919 39.9419 32.1919C39.1971 32.1919 38.7668 31.9612 38.522 31.7062C38.2712 31.445 38.1916 31.1342 38.1916 30.9419V22.4419V22.1919H37.9416H35.9416H35.6916V22.4419V30.4419C35.6916 30.7352 35.6016 31.1808 35.3387 31.5458C35.0851 31.8981 34.6601 32.1919 33.9416 32.1919C33.2231 32.1919 32.7982 31.8981 32.5445 31.5458C32.2817 31.1808 32.1916 30.7352 32.1916 30.4419L32.1923 21.5455L34.1191 19.6187C34.314 19.4238 34.5455 19.0782 34.614 18.6571C34.6851 18.2205 34.5767 17.7228 34.1191 17.2652C33.6614 16.8075 33.1637 16.6991 32.7271 16.7702C32.5295 16.8024 32.3485 16.8704 32.1919 16.9537V14.4417V14.3382L32.1187 14.2649L27.6368 9.78303C27.4895 9.55553 27.3159 9.17726 27.2649 8.77294C27.2131 8.36218 27.2889 7.9483 27.6187 7.6185ZM30.1923 23.5455L31.6922 22.0455L31.6916 30.4419C31.6916 30.8152 31.8016 31.3697 32.1387 31.838C32.4851 32.319 33.0601 32.6919 33.9416 32.6919C34.8231 32.6919 35.3982 32.319 35.7445 31.838C36.0817 31.3697 36.1916 30.8152 36.1916 30.4419V22.6919H37.6916V30.9419C37.6916 31.2496 37.8121 31.6888 38.1613 32.0525C38.5167 32.4226 39.0864 32.6919 39.9419 32.6919C40.8235 32.6919 41.3985 32.319 41.7448 31.8379C42.0819 31.3697 42.1917 30.8152 42.1916 30.4419V30.4418V14.5453L46.619 10.1187L46.6366 10.1012L46.6503 10.0806C46.8337 9.80547 47.0512 9.34426 47.1153 8.83568C47.1802 8.32143 47.0893 7.73532 46.6191 7.26512C46.1539 6.79998 45.6094 6.7021 45.1321 6.76934C44.6654 6.83508 44.2582 7.05762 44.0199 7.24562L44.0111 7.25253L44.003 7.26019L39.8425 11.1919H34.0434L30.0043 7.26253L29.9911 7.24966L29.9761 7.23888C29.7187 7.05342 29.2835 6.83374 28.7953 6.7689C28.2991 6.70298 27.733 6.79704 27.2651 7.26494C26.7949 7.73515 26.704 8.32126 26.7689 8.8355C26.833 9.34409 27.0505 9.8053 27.2339 10.0804L27.2476 10.101L27.2651 10.1185L31.6919 14.5453V17.3388L28.3387 20.6919H21.5362L18.192 17.7656V15.0453L22.6188 10.6185L22.6363 10.601L22.65 10.5804C22.8334 10.3053 23.0509 9.84412 23.115 9.33554C23.1799 8.8213 23.089 8.23518 22.6188 7.76498C22.1509 7.29708 21.5849 7.20302 21.0886 7.26894C20.6004 7.33378 20.1652 7.55346 19.9078 7.73892L19.8928 7.7497L19.8796 7.76256L15.8405 11.6919H10.0415L5.88091 7.76023L5.8728 7.75257L5.86404 7.74566C5.62574 7.55766 5.21853 7.33512 4.75184 7.26938C4.27454 7.20214 3.72998 7.30002 3.26485 7.76515C2.79465 8.23536 2.70373 8.82147 2.76859 9.33572C2.83273 9.8443 3.05021 10.3055 3.23361 10.5806L3.24735 10.6012L3.26486 10.6187L7.69228 15.0453V30.9419V30.9419C7.6922 31.3153 7.80202 31.8697 8.1391 32.338C8.48539 32.8191 9.06044 33.1919 9.94202 33.1919C10.7975 33.1919 11.3673 32.9226 11.7226 32.5526C12.0718 32.1888 12.1923 31.7497 12.1923 31.4419V23.1919H13.6923V30.9419C13.6923 31.3153 13.8022 31.8697 14.1394 32.338C14.4858 32.819 15.0608 33.1919 15.9423 33.1919C16.8238 33.1919 17.3988 32.819 17.7452 32.338C18.0823 31.8697 18.1923 31.3153 18.1923 30.9419V22.2367L19.9213 23.9672V39.9282C19.8816 40.2994 19.9293 40.8508 20.2143 41.3214C20.5142 41.8167 21.0593 42.1919 21.9423 42.1919C22.8238 42.1919 23.3988 41.819 23.7452 41.338C24.0823 40.8697 24.1923 40.3153 24.1923 39.9419V31.9336H25.8484V40.1012C25.821 40.4496 25.8905 40.9633 26.1961 41.399C26.5151 41.8538 27.0694 42.1919 27.9423 42.1919C28.8148 42.1919 29.3889 41.8548 29.7388 41.41C30.0798 40.9765 30.1923 40.4612 30.1923 40.1114V23.5455ZM17.692 14.9418V17.3281L17.6129 17.2588C17.4168 17.0652 17.0741 16.8379 16.6574 16.7701C16.2208 16.6991 15.7231 16.8075 15.2655 17.2652C14.8079 17.7228 14.6995 18.2205 14.7705 18.6571C14.8391 19.0782 15.0706 19.4238 15.2655 19.6187L15.2713 19.6245L15.2775 19.6299L17.6923 21.7461V30.9419C17.6923 31.2353 17.6022 31.6808 17.3394 32.0459C17.0858 32.3981 16.6608 32.6919 15.9423 32.6919C15.2238 32.6919 14.7988 32.3981 14.5452 32.0459C14.2823 31.6808 14.1923 31.2353 14.1923 30.9419V22.9419V22.6919H13.9423H11.9423H11.6923V22.9419V31.4419C11.6923 31.6342 11.6127 31.945 11.3619 32.2063C11.1171 32.4612 10.6868 32.6919 9.94202 32.6919C9.22338 32.6919 8.79847 32.3981 8.5449 32.0459C8.28215 31.6809 8.19221 31.2353 8.19228 30.942V30.9419V14.9418V14.8382L8.11904 14.765L3.63649 10.2832C3.4892 10.0557 3.31565 9.67746 3.26466 9.27315C3.21285 8.86239 3.2886 8.44851 3.6184 8.11871C3.95326 7.78384 4.33123 7.71506 4.68209 7.76449C5.03812 7.81464 5.3603 7.98756 5.54595 8.13163L9.77031 12.1236L9.84258 12.1919H9.94202H15.942H16.0436L16.1163 12.1211L20.2145 8.1343C20.4219 7.98846 20.7732 7.81521 21.1544 7.76458C21.5365 7.71383 21.9331 7.78644 22.2652 8.11854C22.595 8.44833 22.6708 8.86222 22.619 9.27297C22.568 9.6773 22.3944 10.0556 22.2471 10.2831L17.7652 14.765L17.692 14.8382V14.9418ZM15.6191 17.6187C15.9615 17.2763 16.2971 17.2181 16.5771 17.2636C16.8727 17.3117 17.1272 17.4802 17.2655 17.6185L17.2714 17.6244L17.2777 17.6299L21.2777 21.1301L21.3483 21.1919H21.4423H28.4423H28.5458L28.6191 21.1187L32.1191 17.6187C32.2574 17.4803 32.5119 17.3118 32.8075 17.2637C33.0875 17.2181 33.4231 17.2763 33.7655 17.6187C34.1079 17.9611 34.1661 18.2967 34.1205 18.5768C34.0724 18.8723 33.9039 19.1268 33.7655 19.2652L29.7655 23.2652L29.6923 23.3384V23.4419V40.1114C29.6923 40.3717 29.6047 40.7717 29.3458 41.1009C29.0957 41.4188 28.6697 41.6919 27.9423 41.6919C27.2152 41.6919 26.8215 41.4198 26.6055 41.1119C26.3794 40.7896 26.3252 40.3943 26.3475 40.1326L26.3484 40.122V40.1114V31.6836V31.4336H26.0984H23.9423H23.6923V31.6836V39.9419C23.6923 40.2353 23.6022 40.6808 23.3394 41.0459C23.0857 41.3981 22.6608 41.6919 21.9423 41.6919C21.2252 41.6919 20.8467 41.4005 20.642 41.0624C20.4262 40.706 20.3858 40.2657 20.4197 39.9704L20.4213 39.9562V39.9419V23.8637V23.7602L20.3481 23.687L18.1191 21.456L18.1133 21.4502L18.1071 21.4447L15.6136 19.2596C15.4763 19.1201 15.3115 18.8684 15.264 18.5768C15.2184 18.2967 15.2767 17.9611 15.6191 17.6187ZM24.9423 19.5C26.8753 19.5 28.4423 17.933 28.4423 16C28.4423 14.067 26.8753 12.5 24.9423 12.5C23.0093 12.5 21.4423 14.067 21.4423 16C21.4423 17.933 23.0093 19.5 24.9423 19.5ZM24.9423 20C27.1514 20 28.9423 18.2091 28.9423 16C28.9423 13.7909 27.1514 12 24.9423 12C22.7331 12 20.9423 13.7909 20.9423 16C20.9423 18.2091 22.7331 20 24.9423 20Z"/>
</mask>
<path d="M28.7295 7.26454L28.7953 6.7689H28.7953L28.7295 7.26454ZM27.6187 7.6185L27.9722 7.97205L27.6187 7.6185ZM29.6694 7.63427L30.018 7.27588L29.9895 7.24814L29.957 7.22527L29.6694 7.63427ZM33.7676 11.6211L34.1162 11.2627L33.7676 11.6211ZM33.8403 11.6919L33.4917 12.0503L33.6373 12.1919H33.8403V11.6919ZM40.0413 11.6919V12.1919H40.2402L40.3848 12.0553L40.0413 11.6919ZM40.1136 11.6236L39.7702 11.2602L39.7702 11.2602L40.1136 11.6236ZM44.3379 7.6316L44.0314 7.23659L44.0122 7.25149L43.9945 7.26819L44.3379 7.6316ZM45.2018 7.26445L45.1321 6.76934L45.2018 7.26445ZM46.2655 7.61867L45.912 7.97222L45.912 7.97223L46.2655 7.61867ZM46.6193 8.77311L47.1153 8.83568V8.83568L46.6193 8.77311ZM46.2474 9.78319L46.6009 10.1368L46.6384 10.0994L46.6671 10.0549L46.2474 9.78319ZM41.7649 14.2649L41.4113 13.9113L41.4113 13.9113L41.7649 14.2649ZM41.6916 14.3382L41.3381 13.9846L41.1916 14.131V14.3382H41.6916ZM41.6916 30.442H41.1916V30.4421L41.6916 30.442ZM41.339 31.5458L41.7448 31.8379L41.339 31.5458ZM38.522 31.7062L38.8827 31.36L38.522 31.7062ZM38.1916 22.1919H38.6916V21.6919H38.1916V22.1919ZM35.6916 22.1919V21.6919H35.1916V22.1919H35.6916ZM35.3387 31.5458L34.933 31.2537L35.3387 31.5458ZM32.5445 31.5458L32.9503 31.2537L32.5445 31.5458ZM32.1916 30.4419L31.6916 30.4419V30.4419H32.1916ZM32.1923 21.5455L31.8387 21.1919L31.6923 21.3384L31.6923 21.5455L32.1923 21.5455ZM34.614 18.6571L34.1205 18.5768L34.614 18.6571ZM32.7271 16.7702L32.8075 17.2637L32.7271 16.7702ZM32.1919 16.9537H31.6919V17.7862L32.4268 17.3951L32.1919 16.9537ZM32.1919 14.3382H32.6919V14.1311L32.5454 13.9846L32.1919 14.3382ZM27.6368 9.78303L27.217 10.0548L27.2458 10.0992L27.2832 10.1366L27.6368 9.78303ZM27.2649 8.77294L26.7689 8.83551V8.83551L27.2649 8.77294ZM31.6922 22.0455L32.1922 22.0456L32.1923 20.8383L31.3387 21.692L31.6922 22.0455ZM30.1923 23.5455L29.8387 23.1919L29.6923 23.3384V23.5455H30.1923ZM31.6916 30.4419L31.1916 30.4418V30.4419H31.6916ZM32.1387 31.838L31.733 32.1301L32.1387 31.838ZM35.7445 31.838L35.3387 31.5458V31.5458L35.7445 31.838ZM36.1916 22.6919V22.1919H35.6916V22.6919H36.1916ZM37.6916 22.6919H38.1916V22.1919H37.6916V22.6919ZM38.1613 32.0525L38.522 31.7063V31.7062L38.1613 32.0525ZM41.7448 31.8379L41.339 31.5458L41.339 31.5458L41.7448 31.8379ZM42.1916 30.4419H41.6916V30.442L42.1916 30.4419ZM42.1916 14.5453L41.8381 14.1917L41.6916 14.3382V14.5453H42.1916ZM46.619 10.1187L46.9726 10.4723L46.9726 10.4723L46.619 10.1187ZM46.6366 10.1012L46.9901 10.4547L47.0251 10.4197L47.0526 10.3785L46.6366 10.1012ZM46.6503 10.0806L46.2343 9.80322L46.2343 9.80324L46.6503 10.0806ZM47.1153 8.83568L46.6193 8.77311V8.77311L47.1153 8.83568ZM46.6191 7.26512L46.9726 6.91156L46.9726 6.91156L46.6191 7.26512ZM45.1321 6.76934L45.0623 6.27423L45.1321 6.76934ZM44.0199 7.24562L44.3295 7.63818L44.3295 7.63817L44.0199 7.24562ZM44.0111 7.25253L43.7014 6.85997L43.6839 6.87381L43.6676 6.88917L44.0111 7.25253ZM44.003 7.26019L44.3464 7.6236L44.3465 7.62355L44.003 7.26019ZM39.8425 11.1919V11.6919H40.0413L40.1859 11.5553L39.8425 11.1919ZM34.0434 11.1919L33.6948 11.5503L33.8403 11.6919H34.0434V11.1919ZM30.0043 7.26253L29.6556 7.62091L29.6556 7.62092L30.0043 7.26253ZM29.9911 7.24966L30.3397 6.89128L30.3133 6.86554L30.2833 6.84397L29.9911 7.24966ZM29.9761 7.23888L29.6838 7.64456L29.6838 7.64457L29.9761 7.23888ZM28.7953 6.7689L28.7295 7.26454H28.7295L28.7953 6.7689ZM27.2651 7.26494L26.9116 6.91139L27.2651 7.26494ZM26.7689 8.8355L26.2728 8.89807V8.89807L26.7689 8.8355ZM27.2339 10.0804L27.6499 9.80305L27.6499 9.80304L27.2339 10.0804ZM27.2476 10.101L26.8316 10.3783L26.859 10.4195L26.894 10.4545L27.2476 10.101ZM27.2651 10.1185L26.9116 10.472L26.9116 10.4721L27.2651 10.1185ZM31.6919 14.5453H32.1919V14.3382L32.0454 14.1917L31.6919 14.5453ZM31.6919 17.3388L32.0454 17.6923L32.1919 17.5459V17.3388H31.6919ZM28.3387 20.6919V21.1919H28.5458L28.6923 21.0455L28.3387 20.6919ZM21.5362 20.6919L21.207 21.0682L21.3483 21.1919H21.5362V20.6919ZM18.192 17.7656H17.692V17.9925L17.8628 18.1419L18.192 17.7656ZM18.192 15.0453L17.8385 14.6918L17.692 14.8382V15.0453H18.192ZM22.6188 10.6185L22.9723 10.9721L22.9724 10.9721L22.6188 10.6185ZM22.6363 10.601L22.9899 10.9546L23.0249 10.9196L23.0523 10.8784L22.6363 10.601ZM22.65 10.5804L22.234 10.3031L22.234 10.3031L22.65 10.5804ZM23.115 9.33554L23.6111 9.39811V9.39811L23.115 9.33554ZM22.6188 7.76498L22.9723 7.41143L22.6188 7.76498ZM21.0886 7.26894L21.1544 7.76458H21.1544L21.0886 7.26894ZM19.9078 7.73892L20.2001 8.1446L20.2001 8.1446L19.9078 7.73892ZM19.8928 7.7497L19.6006 7.34401L19.5706 7.36558L19.5442 7.39131L19.8928 7.7497ZM19.8796 7.76256L20.2283 8.12095L20.2283 8.12095L19.8796 7.76256ZM15.8405 11.6919V12.1919H16.0436L16.1891 12.0503L15.8405 11.6919ZM10.0415 11.6919L9.69804 12.0553L9.84258 12.1919H10.0415V11.6919ZM5.88091 7.76023L5.53749 8.12363L5.53749 8.12363L5.88091 7.76023ZM5.8728 7.75257L6.21622 7.38916L6.2 7.37383L6.18248 7.36001L5.8728 7.75257ZM5.86404 7.74566L5.55436 8.13821L5.55437 8.13821L5.86404 7.74566ZM4.75184 7.26938L4.82159 6.77427L4.75184 7.26938ZM3.26485 7.76515L2.91129 7.4116H2.91129L3.26485 7.76515ZM2.76859 9.33572L3.26466 9.27315L2.76859 9.33572ZM3.23361 10.5806L3.64964 10.3033L3.23361 10.5806ZM3.24735 10.6012L2.83132 10.8786L2.8588 10.9198L2.89383 10.9548L3.24735 10.6012ZM3.26486 10.6187L3.61838 10.2651L3.61838 10.2651L3.26486 10.6187ZM7.69228 15.0453H8.19228V14.8382L8.04581 14.6917L7.69228 15.0453ZM7.69228 30.9419L8.19228 30.942V30.9419H7.69228ZM8.1391 32.338L8.5449 32.0459H8.5449L8.1391 32.338ZM11.7226 32.5526L12.0832 32.8989V32.8989L11.7226 32.5526ZM12.1923 23.1919V22.6919H11.6923V23.1919H12.1923ZM13.6923 23.1919H14.1923V22.6919H13.6923V23.1919ZM14.1394 32.338L14.5452 32.0459L14.1394 32.338ZM17.7452 32.338L17.3394 32.0459L17.7452 32.338ZM18.1923 22.2367L18.546 21.8833L17.6923 21.0288V22.2367H18.1923ZM19.9213 23.9672H20.4213V23.7602L20.275 23.6138L19.9213 23.9672ZM19.9213 39.9282L20.4185 39.9813L20.4213 39.9548V39.9282H19.9213ZM20.2143 41.3214L20.642 41.0624H20.642L20.2143 41.3214ZM23.7452 41.338L23.3394 41.0459L23.7452 41.338ZM24.1923 31.9336V31.4336H23.6923V31.9336H24.1923ZM25.8484 31.9336H26.3484V31.4336H25.8484V31.9336ZM25.8484 40.1012L26.3468 40.1403L26.3484 40.1208V40.1012H25.8484ZM26.1961 41.399L25.7868 41.6861L26.1961 41.399ZM29.7388 41.41L30.1318 41.7192L29.7388 41.41ZM17.692 17.3281L17.3628 17.7044L18.192 18.43V17.3281H17.692ZM17.6129 17.2588L17.2615 17.6146L17.2723 17.6252L17.2836 17.6351L17.6129 17.2588ZM16.6574 16.7701L16.5771 17.2636L16.6574 16.7701ZM15.2655 17.2652L14.912 16.9116L15.2655 17.2652ZM14.7705 18.6571L14.277 18.7374L14.7705 18.6571ZM15.2655 19.6187L15.6191 19.2652H15.6191L15.2655 19.6187ZM15.2713 19.6245L14.9178 19.9781L14.9294 19.9897L14.9418 20.0006L15.2713 19.6245ZM15.2775 19.6299L15.6071 19.2539L15.607 19.2539L15.2775 19.6299ZM17.6923 21.7461H18.1923V21.5194L18.0218 21.37L17.6923 21.7461ZM17.3394 32.0459L16.9336 31.7537H16.9336L17.3394 32.0459ZM14.5452 32.0459L14.9509 31.7537L14.5452 32.0459ZM14.1923 22.6919H14.6923V22.1919H14.1923V22.6919ZM11.6923 22.6919V22.1919H11.1923V22.6919H11.6923ZM11.3619 32.2063L11.0012 31.86L11.0012 31.86L11.3619 32.2063ZM8.5449 32.0459L8.9507 31.7538L8.5449 32.0459ZM8.19228 30.942L8.69228 30.9421V30.942H8.19228ZM8.19228 14.8382H8.69228V14.6311L8.54581 14.4846L8.19228 14.8382ZM8.11904 14.765L8.47257 14.4114L8.47257 14.4114L8.11904 14.765ZM3.63649 10.2832L3.21676 10.555L3.24553 10.5994L3.28296 10.6368L3.63649 10.2832ZM3.26466 9.27315L2.76859 9.33572H2.76859L3.26466 9.27315ZM3.6184 8.11871L3.97195 8.47226L3.97195 8.47226L3.6184 8.11871ZM4.68209 7.76449L4.75184 7.26938L4.75184 7.26938L4.68209 7.76449ZM5.54595 8.13163L5.88937 7.76822L5.8717 7.75152L5.85249 7.73661L5.54595 8.13163ZM9.77031 12.1236L10.1137 11.7602L10.1137 11.7602L9.77031 12.1236ZM9.84258 12.1919L9.49916 12.5553L9.64371 12.6919H9.84258V12.1919ZM16.0436 12.1919V12.6919H16.2466L16.3922 12.5503L16.0436 12.1919ZM16.1163 12.1211L15.7677 11.7627L16.1163 12.1211ZM20.2145 8.1343L19.9269 7.72531L19.8944 7.74818L19.8659 7.77591L20.2145 8.1343ZM21.1544 7.76458L21.0886 7.26894L21.1544 7.76458ZM22.2652 8.11854L22.6188 7.76498L22.2652 8.11854ZM22.619 9.27297L23.115 9.33554L23.1151 9.33554L22.619 9.27297ZM22.2471 10.2831L22.6007 10.6366L22.6381 10.5992L22.6669 10.5548L22.2471 10.2831ZM17.7652 14.765L18.1188 15.1185L17.7652 14.765ZM17.692 14.8382L17.3385 14.4847L17.192 14.6311V14.8382H17.692ZM16.5771 17.2636L16.4969 17.7571H16.4969L16.5771 17.2636ZM15.6191 17.6187L15.9726 17.9723L15.9726 17.9723L15.6191 17.6187ZM17.2655 17.6185L17.619 17.265L17.619 17.265L17.2655 17.6185ZM17.2714 17.6244L16.9179 17.978L16.9296 17.9898L16.9422 18.0007L17.2714 17.6244ZM17.2777 17.6299L17.6069 17.2536L17.6069 17.2536L17.2777 17.6299ZM21.2777 21.1301L20.9484 21.5063L20.9484 21.5064L21.2777 21.1301ZM21.3483 21.1919L21.0191 21.5682L21.1605 21.6919H21.3483V21.1919ZM28.5458 21.1919V21.6919H28.7529L28.8994 21.5455L28.5458 21.1919ZM32.8075 17.2637L32.7271 16.7702L32.8075 17.2637ZM33.7655 17.6187L33.412 17.9723V17.9723L33.7655 17.6187ZM34.1205 18.5768L33.627 18.4964V18.4964L34.1205 18.5768ZM29.6923 23.3384L29.3387 22.9848L29.1923 23.1313V23.3384H29.6923ZM29.3458 41.1009L28.9528 40.7918V40.7918L29.3458 41.1009ZM26.6055 41.1119L27.0148 40.8248L27.0148 40.8248L26.6055 41.1119ZM26.3475 40.1326L25.8493 40.0901V40.0901L26.3475 40.1326ZM26.3484 40.122L26.8466 40.1645L26.8484 40.1433V40.122H26.3484ZM26.3484 31.4336H26.8484V30.9336H26.3484V31.4336ZM23.6923 31.4336V30.9336H23.1923V31.4336H23.6923ZM23.3394 41.0459L23.7452 41.338L23.3394 41.0459ZM20.642 41.0624L20.2143 41.3214H20.2143L20.642 41.0624ZM20.4197 39.9704L19.9229 39.9135L19.9229 39.9135L20.4197 39.9704ZM20.4213 39.9562L20.918 40.0131L20.9213 39.9847V39.9562H20.4213ZM20.4213 23.7602H20.9213V23.5532L20.775 23.4068L20.4213 23.7602ZM20.3481 23.687L20.7018 23.3336H20.7018L20.3481 23.687ZM18.1191 21.456L17.7654 21.8094L17.7654 21.8094L18.1191 21.456ZM18.1133 21.4502L18.467 21.0968L18.4553 21.0851L18.4428 21.0741L18.1133 21.4502ZM18.1071 21.4447L18.4366 21.0687L18.4366 21.0687L18.1071 21.4447ZM15.6136 19.2596L15.2572 19.6103L15.2702 19.6235L15.2841 19.6357L15.6136 19.2596ZM15.264 18.5768L14.7705 18.6571L15.264 18.5768ZM36.9423 10C39.1514 10 40.9423 8.20914 40.9423 6H39.9423C39.9423 7.65685 38.5991 9 36.9423 9V10ZM32.9423 6C32.9423 8.20914 34.7331 10 36.9423 10V9C35.2854 9 33.9423 7.65685 33.9423 6H32.9423ZM36.9423 2C34.7331 2 32.9423 3.79086 32.9423 6H33.9423C33.9423 4.34315 35.2854 3 36.9423 3V2ZM40.9423 6C40.9423 3.79086 39.1514 2 36.9423 2V3C38.5991 3 39.9423 4.34315 39.9423 6H40.9423ZM36.9423 10.5C39.4276 10.5 41.4423 8.48528 41.4423 6H40.4423C40.4423 7.933 38.8753 9.5 36.9423 9.5V10.5ZM32.4423 6C32.4423 8.48528 34.457 10.5 36.9423 10.5V9.5C35.0093 9.5 33.4423 7.933 33.4423 6H32.4423ZM36.9423 1.5C34.457 1.5 32.4423 3.51472 32.4423 6H33.4423C33.4423 4.067 35.0093 2.5 36.9423 2.5V1.5ZM41.4423 6C41.4423 3.51472 39.4276 1.5 36.9423 1.5V2.5C38.8753 2.5 40.4423 4.067 40.4423 6H41.4423ZM12.9423 11C15.1514 11 16.9423 9.20914 16.9423 7H15.9423C15.9423 8.65685 14.5991 10 12.9423 10V11ZM8.94228 7C8.94228 9.20914 10.7331 11 12.9423 11V10C11.2854 10 9.94228 8.65685 9.94228 7H8.94228ZM12.9423 3C10.7331 3 8.94228 4.79086 8.94228 7H9.94228C9.94228 5.34315 11.2854 4 12.9423 4V3ZM16.9423 7C16.9423 4.79086 15.1514 3 12.9423 3V4C14.5991 4 15.9423 5.34315 15.9423 7H16.9423ZM12.9423 11.5C15.4276 11.5 17.4423 9.48528 17.4423 7H16.4423C16.4423 8.933 14.8753 10.5 12.9423 10.5V11.5ZM8.44228 7C8.44228 9.48528 10.457 11.5 12.9423 11.5V10.5C11.0093 10.5 9.44228 8.933 9.44228 7H8.44228ZM12.9423 2.5C10.457 2.5 8.44228 4.51472 8.44228 7H9.44228C9.44228 5.067 11.0093 3.5 12.9423 3.5V2.5ZM17.4423 7C17.4423 4.51472 15.4276 2.5 12.9423 2.5V3.5C14.8753 3.5 16.4423 5.067 16.4423 7H17.4423ZM28.7953 6.7689C28.2984 6.7029 27.7327 6.79741 27.2651 7.26494L27.9722 7.97205C28.1689 7.7754 28.3964 7.7247 28.6637 7.76019L28.7953 6.7689ZM29.957 7.22527C29.6988 7.04375 29.2728 6.83232 28.7953 6.7689L28.6637 7.76019C28.9485 7.79802 29.2251 7.9331 29.3818 8.04327L29.957 7.22527ZM34.1162 11.2627L30.018 7.27588L29.3207 7.99266L33.4189 11.9795L34.1162 11.2627ZM34.189 11.3335L34.1162 11.2627L33.4189 11.9795L33.4917 12.0503L34.189 11.3335ZM33.9419 11.1919H33.8403V12.1919H33.9419V11.1919ZM39.9419 11.1919H33.9419V12.1919H39.9419V11.1919ZM40.0413 11.1919H39.9419V12.1919H40.0413V11.1919ZM39.7702 11.2602L39.6979 11.3285L40.3848 12.0553L40.457 11.987L39.7702 11.2602ZM43.9945 7.26819L39.7702 11.2602L40.457 11.987L44.6814 7.99501L43.9945 7.26819ZM45.1321 6.76934C44.672 6.83415 44.2702 7.05124 44.0314 7.23659L44.6445 8.02661C44.7769 7.92382 45.0196 7.79506 45.2716 7.75956L45.1321 6.76934ZM46.6191 7.26512C46.1542 6.80029 45.6099 6.70203 45.1321 6.76934L45.2716 7.75956C45.4955 7.72802 45.7071 7.76732 45.912 7.97222L46.6191 7.26512ZM47.1153 8.83568C47.1803 8.32072 47.0889 7.73493 46.6191 7.26512L45.912 7.97223C46.1017 8.16201 46.1618 8.40399 46.1232 8.71054L47.1153 8.83568ZM46.6671 10.0549C46.8458 9.77901 47.053 9.33017 47.1153 8.83568L46.1232 8.71054C46.0836 9.02468 45.9436 9.33237 45.8277 9.51147L46.6671 10.0549ZM42.1184 14.6185L46.6009 10.1368L45.8939 9.42961L41.4113 13.9113L42.1184 14.6185ZM42.0452 14.6917L42.1184 14.6185L41.4113 13.9113L41.3381 13.9846L42.0452 14.6917ZM42.1916 14.4417V14.3382H41.1916V14.4417H42.1916ZM42.1916 30.4419V14.4417H41.1916V30.4419H42.1916ZM42.1916 30.442V30.4419H41.1916V30.442H42.1916ZM41.7448 31.8379C42.0819 31.3697 42.1917 30.8153 42.1916 30.4418L41.1916 30.4421C41.1917 30.6553 41.1217 30.9919 40.9332 31.2537L41.7448 31.8379ZM39.9419 32.6919C40.8234 32.6919 41.3985 32.319 41.7448 31.8379L40.9332 31.2537C40.7724 31.4772 40.4976 31.6919 39.9419 31.6919V32.6919ZM38.1613 32.0525C38.5165 32.4225 39.0862 32.6919 39.9419 32.6919V31.6919C39.3081 31.6919 39.017 31.4999 38.8827 31.36L38.1613 32.0525ZM37.6916 30.9419C37.6916 31.2498 37.8122 31.6889 38.1613 32.0525L38.8827 31.36C38.7301 31.2011 38.6916 31.0185 38.6916 30.9419H37.6916ZM37.6916 22.4419V30.9419H38.6916V22.4419H37.6916ZM37.6916 22.1919V22.4419H38.6916V22.1919H37.6916ZM37.9416 22.6919H38.1916V21.6919H37.9416V22.6919ZM35.9416 22.6919H37.9416V21.6919H35.9416V22.6919ZM35.6916 22.6919H35.9416V21.6919H35.6916V22.6919ZM36.1916 22.4419V22.1919H35.1916V22.4419H36.1916ZM36.1916 30.4419V22.4419H35.1916V30.4419H36.1916ZM35.7445 31.838C36.0816 31.3697 36.1916 30.8153 36.1916 30.4419H35.1916C35.1916 30.6551 35.1215 30.9918 34.933 31.2537L35.7445 31.838ZM33.9416 32.6919C34.8231 32.6919 35.3981 32.319 35.7445 31.838L34.933 31.2537C34.772 31.4772 34.4972 31.6919 33.9416 31.6919V32.6919ZM32.1387 31.838C32.4851 32.319 33.0602 32.6919 33.9416 32.6919V31.6919C33.386 31.6919 33.1112 31.4772 32.9503 31.2537L32.1387 31.838ZM31.6916 30.4419C31.6916 30.8153 31.8016 31.3697 32.1387 31.838L32.9503 31.2537C32.7617 30.9918 32.6916 30.6551 32.6916 30.4419H31.6916ZM31.6923 21.5455L31.6916 30.4419L32.6916 30.4419L32.6923 21.5455L31.6923 21.5455ZM33.7655 19.2652L31.8387 21.1919L32.5458 21.899L34.4726 19.9723L33.7655 19.2652ZM34.1205 18.5768C34.0724 18.8722 33.904 19.1267 33.7655 19.2652L34.4726 19.9723C34.7241 19.7208 35.0185 19.2842 35.1075 18.7374L34.1205 18.5768ZM33.7655 17.6187C34.1079 17.9611 34.1661 18.2967 34.1205 18.5768L35.1075 18.7374C35.2041 18.1443 35.0455 17.4845 34.4726 16.9116L33.7655 17.6187ZM32.8075 17.2637C33.0875 17.2181 33.4231 17.2763 33.7655 17.6187L34.4726 16.9116C33.8997 16.3387 33.24 16.1801 32.6468 16.2767L32.8075 17.2637ZM32.4268 17.3951C32.5429 17.3333 32.6719 17.2857 32.8075 17.2637L32.6468 16.2767C32.387 16.319 32.1541 16.4075 31.957 16.5123L32.4268 17.3951ZM31.6919 14.4417V16.9537H32.6919V14.4417H31.6919ZM31.6919 14.3382V14.4417H32.6919V14.3382H31.6919ZM31.7651 14.6185L31.8383 14.6917L32.5454 13.9846L32.4722 13.9114L31.7651 14.6185ZM27.2832 10.1366L31.7651 14.6185L32.4722 13.9114L27.9903 9.42948L27.2832 10.1366ZM26.7689 8.83551C26.8312 9.33001 27.0384 9.77885 27.217 10.0548L28.0565 9.51131C27.9405 9.33221 27.8006 9.02451 27.761 8.71037L26.7689 8.83551ZM27.2651 7.26494C26.7953 7.73475 26.7039 8.32055 26.7689 8.83551L27.761 8.71037C27.7223 8.40381 27.7824 8.16184 27.9722 7.97205L27.2651 7.26494ZM31.3387 21.692L29.8387 23.1919L30.5458 23.899L32.0458 22.3991L31.3387 21.692ZM32.1916 30.4419L32.1922 22.0456L31.1922 22.0455L31.1916 30.4418L32.1916 30.4419ZM32.5445 31.5458C32.2817 31.1808 32.1916 30.7353 32.1916 30.4419H31.1916C31.1916 30.8952 31.3214 31.5585 31.733 32.1301L32.5445 31.5458ZM33.9416 32.1919C33.2231 32.1919 32.7982 31.8981 32.5445 31.5458L31.733 32.1301C32.172 32.7399 32.8972 33.1919 33.9416 33.1919V32.1919ZM35.3387 31.5458C35.0851 31.8981 34.6601 32.1919 33.9416 32.1919V33.1919C34.9861 33.1919 35.7112 32.7399 36.1503 32.1301L35.3387 31.5458ZM35.6916 30.4419C35.6916 30.7353 35.6015 31.1808 35.3387 31.5458L36.1503 32.1301C36.5618 31.5585 36.6916 30.8952 36.6916 30.4419H35.6916ZM35.6916 22.6919V30.4419H36.6916V22.6919H35.6916ZM37.6916 22.1919H36.1916V23.1919H37.6916V22.1919ZM38.1916 30.9419V22.6919H37.1916V30.9419H38.1916ZM38.522 31.7062C38.2713 31.4451 38.1916 31.1343 38.1916 30.9419H37.1916C37.1916 31.365 37.353 31.9325 37.8007 32.3988L38.522 31.7062ZM39.9419 32.1919C39.197 32.1919 38.7667 31.9611 38.522 31.7063L37.8007 32.3988C38.2666 32.8841 38.9759 33.1919 39.9419 33.1919V32.1919ZM41.339 31.5458C41.0854 31.8981 40.6605 32.1919 39.9419 32.1919V33.1919C40.9864 33.1919 41.7116 32.7399 42.1506 32.1301L41.339 31.5458ZM41.6916 30.442C41.6917 30.7354 41.6017 31.1809 41.339 31.5458L42.1506 32.1301C42.5621 31.5584 42.6917 30.8951 42.6916 30.4418L41.6916 30.442ZM41.6916 30.4418V30.4419H42.6916V30.4418H41.6916ZM41.6916 14.5453V30.4418H42.6916V14.5453H41.6916ZM46.2655 9.7651L41.8381 14.1917L42.5451 14.8989L46.9726 10.4723L46.2655 9.7651ZM46.283 9.7476L46.2655 9.76511L46.9726 10.4723L46.9901 10.4547L46.283 9.7476ZM46.2343 9.80324L46.2205 9.82384L47.0526 10.3785L47.0663 10.3579L46.2343 9.80324ZM46.6193 8.77311C46.5667 9.18951 46.3842 9.5783 46.2343 9.80322L47.0663 10.3579C47.2832 10.0326 47.5356 9.49901 47.6114 8.89824L46.6193 8.77311ZM46.2655 7.61867C46.595 7.94819 46.6711 8.36184 46.6193 8.77311L47.6114 8.89825C47.6892 8.28103 47.5835 7.52245 46.9726 6.91156L46.2655 7.61867ZM45.2018 7.26445C45.553 7.21497 45.9309 7.28403 46.2655 7.61867L46.9726 6.91156C46.377 6.31593 45.6657 6.18923 45.0623 6.27423L45.2018 7.26445ZM44.3295 7.63817C44.5138 7.49281 44.8404 7.31537 45.2018 7.26445L45.0623 6.27423C44.4904 6.3548 44.0025 6.62243 43.7102 6.85307L44.3295 7.63817ZM44.3208 7.64509L44.3295 7.63818L43.7102 6.85306L43.7014 6.85997L44.3208 7.64509ZM44.3465 7.62355L44.3546 7.61589L43.6676 6.88917L43.6595 6.89683L44.3465 7.62355ZM40.1859 11.5553L44.3464 7.6236L43.6596 6.89679L39.499 10.8285L40.1859 11.5553ZM34.0434 11.6919H39.8425V10.6919H34.0434V11.6919ZM29.6556 7.62092L33.6948 11.5503L34.3921 10.8335L30.3529 6.90414L29.6556 7.62092ZM29.6424 7.60805L29.6556 7.62091L30.3529 6.90414L30.3397 6.89128L29.6424 7.60805ZM29.6838 7.64457L29.6988 7.65535L30.2833 6.84397L30.2684 6.83319L29.6838 7.64457ZM28.7295 7.26454C29.1196 7.31636 29.4785 7.49667 29.6838 7.64456L30.2684 6.83319C29.9588 6.61018 29.4474 6.35112 28.8612 6.27325L28.7295 7.26454ZM27.6187 7.6185C27.9505 7.28667 28.347 7.21373 28.7295 7.26454L28.8612 6.27325C28.2511 6.19222 27.5155 6.30741 26.9116 6.91139L27.6187 7.6185ZM27.2649 8.77294C27.2131 8.36166 27.2892 7.94801 27.6187 7.6185L26.9116 6.91139C26.3007 7.52228 26.1949 8.28086 26.2728 8.89807L27.2649 8.77294ZM27.6499 9.80304C27.5 9.57813 27.3174 9.18934 27.2649 8.77294L26.2728 8.89807C26.3486 9.49884 26.601 10.0325 26.8179 10.3577L27.6499 9.80304ZM27.6636 9.82365L27.6499 9.80305L26.8178 10.3577L26.8316 10.3783L27.6636 9.82365ZM27.6187 9.76495L27.6012 9.74745L26.894 10.4545L26.9116 10.472L27.6187 9.76495ZM32.0454 14.1917L27.6187 9.76494L26.9116 10.4721L31.3383 14.8988L32.0454 14.1917ZM32.1919 17.3388V14.5453H31.1919V17.3388H32.1919ZM28.6923 21.0455L32.0454 17.6923L31.3383 16.9852L27.9852 20.3384L28.6923 21.0455ZM21.5362 21.1919H28.3387V20.1919H21.5362V21.1919ZM17.8628 18.1419L21.207 21.0682L21.8655 20.3156L18.5213 17.3893L17.8628 18.1419ZM17.692 15.0453V17.7656H18.692V15.0453H17.692ZM22.2652 10.265L17.8385 14.6918L18.5456 15.3989L22.9723 10.9721L22.2652 10.265ZM22.2827 10.2475L22.2652 10.265L22.9724 10.9721L22.9899 10.9546L22.2827 10.2475ZM22.234 10.3031L22.2203 10.3237L23.0523 10.8784L23.0661 10.8578L22.234 10.3031ZM22.619 9.27297C22.5665 9.68938 22.3839 10.0782 22.234 10.3031L23.0661 10.8578C23.2829 10.5325 23.5353 9.99887 23.6111 9.39811L22.619 9.27297ZM22.2652 8.11854C22.5948 8.44805 22.6709 8.8617 22.619 9.27298L23.6111 9.39811C23.689 8.7809 23.5832 8.02232 22.9723 7.41143L22.2652 8.11854ZM21.1544 7.76458C21.5369 7.71377 21.9334 7.7867 22.2652 8.11854L22.9723 7.41143C22.3684 6.80745 21.6328 6.69226 21.0227 6.77329L21.1544 7.76458ZM20.2001 8.1446C20.4054 7.99671 20.7643 7.8164 21.1544 7.76458L21.0227 6.77329C20.4365 6.85116 19.9251 7.11021 19.6155 7.33323L20.2001 8.1446ZM20.1851 8.15539L20.2001 8.1446L19.6155 7.33323L19.6006 7.34401L20.1851 8.15539ZM20.2283 8.12095L20.2415 8.10808L19.5442 7.39131L19.531 7.40418L20.2283 8.12095ZM16.1891 12.0503L20.2283 8.12095L19.531 7.40417L15.4918 11.3335L16.1891 12.0503ZM10.0415 12.1919H15.8405V11.1919H10.0415V12.1919ZM5.53749 8.12363L9.69804 12.0553L10.3849 11.3285L6.22433 7.39682L5.53749 8.12363ZM5.52938 8.11597L5.53749 8.12363L6.22433 7.39683L6.21622 7.38916L5.52938 8.11597ZM5.55437 8.13821L5.56313 8.14512L6.18248 7.36001L6.17372 7.3531L5.55437 8.13821ZM4.68209 7.76449C5.04352 7.8154 5.3701 7.99284 5.55436 8.13821L6.17373 7.35311C5.88138 7.12247 5.39355 6.85484 4.82159 6.77427L4.68209 7.76449ZM3.6184 8.11871C3.95304 7.78407 4.33087 7.71501 4.68209 7.76449L4.82159 6.77427C4.21821 6.68926 3.50693 6.81597 2.91129 7.4116L3.6184 8.11871ZM3.26466 9.27315C3.21279 8.86187 3.28889 8.44822 3.6184 8.11871L2.91129 7.4116C2.30041 8.02249 2.19467 8.78107 2.27252 9.39828L3.26466 9.27315ZM3.64964 10.3033C3.49969 10.0783 3.31718 9.68955 3.26466 9.27315L2.27252 9.39828C2.34829 9.99905 2.60073 10.5327 2.81759 10.858L3.64964 10.3033ZM3.66337 10.3239L3.64964 10.3033L2.81759 10.858L2.83132 10.8786L3.66337 10.3239ZM3.61838 10.2651L3.60086 10.2476L2.89383 10.9548L2.91135 10.9723L3.61838 10.2651ZM8.04581 14.6917L3.61838 10.2651L2.91134 10.9723L7.33876 15.3989L8.04581 14.6917ZM8.19228 30.9419V15.0453H7.19228V30.9419H8.19228ZM8.19228 30.9419V30.9419H7.19228V30.9419H8.19228ZM8.5449 32.0459C8.28221 31.6809 8.19222 31.2355 8.19228 30.942L7.19228 30.9418C7.19218 31.3951 7.32183 32.0585 7.7333 32.6301L8.5449 32.0459ZM9.94202 32.6919C9.2234 32.6919 8.79849 32.3982 8.5449 32.0459L7.7333 32.6301C8.1723 33.24 8.89748 33.6919 9.94202 33.6919V32.6919ZM11.3619 32.2063C11.1172 32.4611 10.6869 32.6919 9.94202 32.6919V33.6919C10.908 33.6919 11.6173 33.3842 12.0832 32.8989L11.3619 32.2063ZM11.6923 31.4419C11.6923 31.6343 11.6127 31.9451 11.3619 32.2063L12.0832 32.8989C12.531 32.4326 12.6923 31.865 12.6923 31.4419H11.6923ZM11.6923 23.1919V31.4419H12.6923V23.1919H11.6923ZM13.6923 22.6919H12.1923V23.6919H13.6923V22.6919ZM14.1923 30.9419V23.1919H13.1923V30.9419H14.1923ZM14.5452 32.0459C14.2824 31.6809 14.1923 31.2353 14.1923 30.9419H13.1923C13.1923 31.3952 13.3221 32.0586 13.7336 32.6302L14.5452 32.0459ZM15.9423 32.6919C15.2238 32.6919 14.7988 32.3982 14.5452 32.0459L13.7336 32.6302C14.1727 33.2399 14.8978 33.6919 15.9423 33.6919V32.6919ZM17.3394 32.0459C17.0857 32.3982 16.6608 32.6919 15.9423 32.6919V33.6919C16.9867 33.6919 17.7119 33.2399 18.1509 32.6302L17.3394 32.0459ZM17.6923 30.9419C17.6923 31.2353 17.6022 31.6809 17.3394 32.0459L18.1509 32.6302C18.5625 32.0586 18.6923 31.3952 18.6923 30.9419H17.6923ZM17.6923 22.2367V30.9419H18.6923V22.2367H17.6923ZM20.275 23.6138L18.546 21.8833L17.8386 22.5901L19.5676 24.3206L20.275 23.6138ZM20.4213 39.9282V23.9672H19.4213V39.9282H20.4213ZM20.642 41.0624C20.4292 40.711 20.3868 40.2777 20.4185 39.9813L19.4241 39.875C19.3764 40.3211 19.4295 40.9906 19.7866 41.5804L20.642 41.0624ZM21.9423 41.6919C21.2251 41.6919 20.8467 41.4004 20.642 41.0624L19.7866 41.5804C20.1817 42.2329 20.8936 42.6919 21.9423 42.6919V41.6919ZM23.3394 41.0459C23.0857 41.3982 22.6608 41.6919 21.9423 41.6919V42.6919C22.9867 42.6919 23.7119 42.2399 24.1509 41.6302L23.3394 41.0459ZM23.6923 39.9419C23.6923 40.2353 23.6022 40.6809 23.3394 41.0459L24.1509 41.6302C24.5625 41.0586 24.6923 40.3952 24.6923 39.9419H23.6923ZM23.6923 31.9336V39.9419H24.6923V31.9336H23.6923ZM25.8484 31.4336H24.1923V32.4336H25.8484V31.4336ZM26.3484 40.1012V31.9336H25.3484V40.1012H26.3484ZM26.6055 41.1119C26.382 40.7933 26.3262 40.403 26.3468 40.1403L25.3499 40.062C25.3158 40.4963 25.399 41.1332 25.7868 41.6861L26.6055 41.1119ZM27.9423 41.6919C27.215 41.6919 26.8213 41.4197 26.6055 41.1119L25.7868 41.6861C26.2089 42.288 26.9237 42.6919 27.9423 42.6919V41.6919ZM29.3458 41.1009C29.0957 41.4188 28.6698 41.6919 27.9423 41.6919V42.6919C28.9598 42.6919 29.682 42.2909 30.1318 41.7192L29.3458 41.1009ZM29.6923 40.1114C29.6923 40.3718 29.6047 40.7718 29.3458 41.1009L30.1318 41.7192C30.555 41.1812 30.6923 40.5507 30.6923 40.1114H29.6923ZM29.6923 23.5455V40.1114H30.6923V23.5455H29.6923ZM18.192 17.3281V14.9418H17.192V17.3281H18.192ZM17.2836 17.6351L17.3628 17.7044L18.0213 16.9518L17.9421 16.8825L17.2836 17.6351ZM16.5771 17.2636C16.8693 17.3111 17.1216 17.4764 17.2615 17.6146L17.9642 16.9031C17.7121 16.654 17.279 16.3647 16.7377 16.2766L16.5771 17.2636ZM15.6191 17.6187C15.9614 17.2763 16.2971 17.2181 16.5771 17.2636L16.7377 16.2766C16.1446 16.1801 15.4848 16.3388 14.912 16.9116L15.6191 17.6187ZM15.264 18.5768C15.2184 18.2967 15.2767 17.9611 15.6191 17.6187L14.912 16.9116C14.3391 17.4845 14.1805 18.1443 14.277 18.7374L15.264 18.5768ZM15.6191 19.2652C15.4806 19.1267 15.3121 18.8722 15.264 18.5768L14.277 18.7374C14.366 19.2842 14.6605 19.7208 14.912 19.9723L15.6191 19.2652ZM15.6249 19.271L15.6191 19.2652L14.912 19.9723L14.9178 19.9781L15.6249 19.271ZM15.607 19.2539L15.6009 19.2485L14.9418 20.0006L14.948 20.006L15.607 19.2539ZM18.0218 21.37L15.6071 19.2539L14.948 20.006L17.3628 22.1221L18.0218 21.37ZM18.1923 30.9419V21.7461H17.1923V30.9419H18.1923ZM17.7452 32.338C18.0823 31.8698 18.1923 31.3154 18.1923 30.9419H17.1923C17.1923 31.1551 17.1222 31.4918 16.9336 31.7537L17.7452 32.338ZM15.9423 33.1919C16.8237 33.1919 17.3988 32.8191 17.7452 32.338L16.9336 31.7537C16.7727 31.9772 16.4979 32.1919 15.9423 32.1919V33.1919ZM14.1394 32.338C14.4858 32.8191 15.0608 33.1919 15.9423 33.1919V32.1919C15.3867 32.1919 15.1119 31.9772 14.9509 31.7537L14.1394 32.338ZM13.6923 30.9419C13.6923 31.3154 13.8023 31.8698 14.1394 32.338L14.9509 31.7537C14.7624 31.4918 14.6923 31.1551 14.6923 30.9419H13.6923ZM13.6923 22.9419V30.9419H14.6923V22.9419H13.6923ZM13.6923 22.6919V22.9419H14.6923V22.6919H13.6923ZM13.9423 23.1919H14.1923V22.1919H13.9423V23.1919ZM11.9423 23.1919H13.9423V22.1919H11.9423V23.1919ZM11.6923 23.1919H11.9423V22.1919H11.6923V23.1919ZM12.1923 22.9419V22.6919H11.1923V22.9419H12.1923ZM12.1923 31.4419V22.9419H11.1923V31.4419H12.1923ZM11.7226 32.5526C12.0717 32.1889 12.1923 31.7498 12.1923 31.4419H11.1923C11.1923 31.5185 11.1538 31.7011 11.0012 31.86L11.7226 32.5526ZM9.94202 33.1919C10.7977 33.1919 11.3674 32.9225 11.7226 32.5526L11.0012 31.86C10.8669 31.9999 10.5758 32.1919 9.94202 32.1919V33.1919ZM8.1391 32.338C8.48541 32.8191 9.06047 33.1919 9.94202 33.1919V32.1919C9.38629 32.1919 9.11154 31.9772 8.9507 31.7538L8.1391 32.338ZM7.69228 30.9419C7.69218 31.3153 7.80205 31.8697 8.1391 32.338L8.9507 31.7538C8.76226 31.492 8.69223 31.1553 8.69228 30.9421L7.69228 30.9419ZM7.69228 30.9419V30.942H8.69228V30.9419H7.69228ZM7.69228 14.9418V30.9419H8.69228V14.9418H7.69228ZM7.69228 14.8382V14.9418H8.69228V14.8382H7.69228ZM7.76552 15.1185L7.83876 15.1918L8.54581 14.4846L8.47257 14.4114L7.76552 15.1185ZM3.28296 10.6368L7.76552 15.1186L8.47257 14.4114L3.99001 9.92965L3.28296 10.6368ZM2.76859 9.33572C2.83096 9.83021 3.03815 10.2791 3.21676 10.555L4.05621 10.0115C3.94026 9.83242 3.80035 9.52472 3.76073 9.21058L2.76859 9.33572ZM3.26485 7.76515C2.79504 8.23496 2.70364 8.82076 2.76859 9.33572L3.76073 9.21058C3.72206 8.90402 3.78216 8.66205 3.97195 8.47226L3.26485 7.76515ZM4.75184 7.26938C4.27403 7.20206 3.72967 7.30033 3.26485 7.76516L3.97195 8.47226C4.17686 8.26736 4.38843 8.22806 4.61234 8.2596L4.75184 7.26938ZM5.85249 7.73661C5.61365 7.55127 5.21188 7.33419 4.75184 7.26938L4.61234 8.2596C4.86435 8.2951 5.10696 8.42385 5.23941 8.52664L5.85249 7.73661ZM10.1137 11.7602L5.88937 7.76822L5.20253 8.49503L9.42689 12.487L10.1137 11.7602ZM10.186 11.8285L10.1137 11.7602L9.42689 12.487L9.49916 12.5553L10.186 11.8285ZM9.94202 11.6919H9.84258V12.6919H9.94202V11.6919ZM15.942 11.6919H9.94202V12.6919H15.942V11.6919ZM16.0436 11.6919H15.942V12.6919H16.0436V11.6919ZM15.7677 11.7627L15.6949 11.8335L16.3922 12.5503L16.465 12.4795L15.7677 11.7627ZM19.8659 7.77591L15.7677 11.7627L16.465 12.4795L20.5632 8.49269L19.8659 7.77591ZM21.0886 7.26894C20.6111 7.33236 20.1851 7.54378 19.9269 7.72531L20.5021 8.5433C20.6588 8.43314 20.9354 8.29806 21.2202 8.26023L21.0886 7.26894ZM22.6188 7.76498C22.1513 7.29745 21.5855 7.20293 21.0886 7.26894L21.2202 8.26023C21.4875 8.22473 21.715 8.27543 21.9117 8.47209L22.6188 7.76498ZM23.1151 9.33554C23.18 8.82059 23.0886 8.23479 22.6188 7.76498L21.9117 8.47209C22.1015 8.66188 22.1616 8.90385 22.1229 9.21041L23.1151 9.33554ZM22.6669 10.5548C22.8455 10.2789 23.0527 9.83004 23.115 9.33554L22.1229 9.21041C22.0833 9.52455 21.9434 9.83225 21.8274 10.0113L22.6669 10.5548ZM18.1188 15.1185L22.6007 10.6366L21.8936 9.92952L17.4117 14.4114L18.1188 15.1185ZM18.0456 15.1918L18.1188 15.1185L17.4117 14.4114L17.3385 14.4847L18.0456 15.1918ZM18.192 14.9418V14.8382H17.192V14.9418H18.192ZM16.6574 16.7701C16.2208 16.6991 15.7231 16.8076 15.2655 17.2652L15.9726 17.9723C16.0948 17.8501 16.1972 17.7964 16.2737 17.772C16.3501 17.7475 16.4232 17.7452 16.4969 17.7571L16.6574 16.7701ZM17.619 17.265C17.424 17.0699 17.0784 16.8386 16.6574 16.7701L16.4969 17.7571C16.6669 17.7848 16.8303 17.8905 16.912 17.9721L17.619 17.265ZM17.6249 17.2708L17.619 17.265L16.912 17.9721L16.9179 17.978L17.6249 17.2708ZM17.6069 17.2536L17.6006 17.2481L16.9422 18.0007L16.9484 18.0062L17.6069 17.2536ZM21.6069 20.7538L17.6069 17.2536L16.9484 18.0062L20.9484 21.5063L21.6069 20.7538ZM21.6776 20.8156L21.6069 20.7538L20.9484 21.5064L21.0191 21.5682L21.6776 20.8156ZM21.4423 20.6919H21.3483V21.6919H21.4423V20.6919ZM28.4423 20.6919H21.4423V21.6919H28.4423V20.6919ZM28.5458 20.6919H28.4423V21.6919H28.5458V20.6919ZM28.2655 20.7652L28.1923 20.8384L28.8994 21.5455L28.9726 21.4723L28.2655 20.7652ZM31.7655 17.2652L28.2655 20.7652L28.9726 21.4723L32.4726 17.9723L31.7655 17.2652ZM32.7271 16.7702C32.3061 16.8387 31.9606 17.0701 31.7655 17.2652L32.4726 17.9723C32.5543 17.8906 32.7177 17.7849 32.8878 17.7572L32.7271 16.7702ZM34.1191 17.2652C33.6615 16.8076 33.1638 16.6991 32.7271 16.7702L32.8878 17.7572C32.9614 17.7452 33.0346 17.7476 33.111 17.772C33.1874 17.7964 33.2898 17.8501 33.412 17.9723L34.1191 17.2652ZM34.614 18.6571C34.6851 18.2204 34.5766 17.7227 34.1191 17.2652L33.412 17.9723C33.5341 18.0944 33.5878 18.1968 33.6122 18.2733C33.6366 18.3497 33.639 18.4228 33.627 18.4964L34.614 18.6571ZM34.1191 19.6187C34.3141 19.4236 34.5455 19.0781 34.614 18.6571L33.627 18.4964C33.5993 18.6665 33.4936 18.8299 33.412 18.9116L34.1191 19.6187ZM30.1191 23.6187L34.1191 19.6187L33.412 18.9116L29.412 22.9116L30.1191 23.6187ZM30.0458 23.6919L30.1191 23.6187L29.412 22.9116L29.3387 22.9848L30.0458 23.6919ZM30.1923 23.4419V23.3384H29.1923V23.4419H30.1923ZM30.1923 40.1114V23.4419H29.1923V40.1114H30.1923ZM29.7388 41.41C30.0798 40.9766 30.1923 40.4614 30.1923 40.1114H29.1923C29.1923 40.2821 29.1297 40.5669 28.9528 40.7918L29.7388 41.41ZM27.9423 42.1919C28.8149 42.1919 29.3889 41.8548 29.7388 41.41L28.9528 40.7918C28.8024 40.9829 28.5245 41.1919 27.9423 41.1919V42.1919ZM26.1961 41.399C26.515 41.8536 27.0691 42.1919 27.9423 42.1919V41.1919C27.3613 41.1919 27.1279 40.986 27.0148 40.8248L26.1961 41.399ZM25.8493 40.0901C25.8195 40.4389 25.8873 40.9588 26.1961 41.399L27.0148 40.8248C26.8715 40.6204 26.8308 40.3496 26.8457 40.1751L25.8493 40.0901ZM25.8502 40.0795L25.8493 40.0901L26.8457 40.1751L26.8466 40.1645L25.8502 40.0795ZM25.8484 40.1114V40.122H26.8484V40.1114H25.8484ZM25.8484 31.6836V40.1114H26.8484V31.6836H25.8484ZM25.8484 31.4336V31.6836H26.8484V31.4336H25.8484ZM26.0984 31.9336H26.3484V30.9336H26.0984V31.9336ZM23.9423 31.9336H26.0984V30.9336H23.9423V31.9336ZM23.6923 31.9336H23.9423V30.9336H23.6923V31.9336ZM24.1923 31.6836V31.4336H23.1923V31.6836H24.1923ZM24.1923 39.9419V31.6836H23.1923V39.9419H24.1923ZM23.7452 41.338C24.0823 40.8698 24.1923 40.3154 24.1923 39.9419H23.1923C23.1923 40.1551 23.1222 40.4918 22.9336 40.7537L23.7452 41.338ZM21.9423 42.1919C22.8237 42.1919 23.3988 41.8191 23.7452 41.338L22.9336 40.7537C22.7727 40.9772 22.4979 41.1919 21.9423 41.1919V42.1919ZM20.2143 41.3214C20.5141 41.8165 21.0592 42.1919 21.9423 42.1919V41.1919C21.6525 41.1919 21.4643 41.1335 21.3405 41.0656C21.2179 40.9983 21.1329 40.9078 21.0697 40.8035L20.2143 41.3214ZM19.9229 39.9135C19.8804 40.285 19.9256 40.8447 20.2143 41.3214L21.0697 40.8035C20.9267 40.5673 20.8913 40.2465 20.9164 40.0272L19.9229 39.9135ZM19.9245 39.8993L19.9229 39.9135L20.9164 40.0273L20.918 40.0131L19.9245 39.8993ZM19.9213 39.9419V39.9562H20.9213V39.9419H19.9213ZM19.9213 23.8637V39.9419H20.9213V23.8637H19.9213ZM19.9213 23.7602V23.8637H20.9213V23.7602H19.9213ZM19.9944 24.0404L20.0676 24.1136L20.775 23.4068L20.7018 23.3336L19.9944 24.0404ZM17.7654 21.8094L19.9944 24.0404L20.7018 23.3336L18.4728 21.1027L17.7654 21.8094ZM17.7596 21.8036L17.7654 21.8094L18.4729 21.1027L18.467 21.0968L17.7596 21.8036ZM17.7775 21.8208L17.7837 21.8262L18.4428 21.0741L18.4366 21.0687L17.7775 21.8208ZM15.2841 19.6357L17.7775 21.8208L18.4366 21.0687L15.9431 18.8836L15.2841 19.6357ZM14.7705 18.6571C14.8382 19.073 15.0648 19.4148 15.2572 19.6103L15.97 18.909C15.8878 18.8254 15.7848 18.6639 15.7575 18.4964L14.7705 18.6571ZM15.2655 17.2652C14.8079 17.7227 14.6994 18.2204 14.7705 18.6571L15.7575 18.4964C15.7456 18.4228 15.7479 18.3497 15.7723 18.2733C15.7968 18.1968 15.8504 18.0944 15.9726 17.9723L15.2655 17.2652ZM27.9423 16C27.9423 17.6569 26.5991 19 24.9423 19V20C27.1514 20 28.9423 18.2091 28.9423 16H27.9423ZM24.9423 13C26.5991 13 27.9423 14.3431 27.9423 16H28.9423C28.9423 13.7909 27.1514 12 24.9423 12V13ZM21.9423 16C21.9423 14.3431 23.2854 13 24.9423 13V12C22.7331 12 20.9423 13.7909 20.9423 16H21.9423ZM24.9423 19C23.2854 19 21.9423 17.6569 21.9423 16H20.9423C20.9423 18.2091 22.7331 20 24.9423 20V19ZM28.4423 16C28.4423 17.933 26.8753 19.5 24.9423 19.5V20.5C27.4276 20.5 29.4423 18.4853 29.4423 16H28.4423ZM24.9423 12.5C26.8753 12.5 28.4423 14.067 28.4423 16H29.4423C29.4423 13.5147 27.4276 11.5 24.9423 11.5V12.5ZM21.4423 16C21.4423 14.067 23.0093 12.5 24.9423 12.5V11.5C22.457 11.5 20.4423 13.5147 20.4423 16H21.4423ZM24.9423 19.5C23.0093 19.5 21.4423 17.933 21.4423 16H20.4423C20.4423 18.4853 22.457 20.5 24.9423 20.5V19.5Z" fill="black" mask="url(#path-1-inside-1_809_6047)"/>
</svg>
