<svg width="20" height="24" viewBox="0 0 20 24" fill="none" xmlns="http://www.w3.org/2000/svg">
<path fill-rule="evenodd" clip-rule="evenodd" d="M4.40005 2.4C4.08179 2.4 3.77656 2.52643 3.55152 2.75147C3.32648 2.97651 3.20005 3.28174 3.20005 3.6V20.4682L9.70256 15.8235C10.1198 15.5255 10.6803 15.5255 11.0975 15.8235L17.6 20.4682V3.6C17.6 3.28174 17.4736 2.97652 17.2486 2.75147C17.0235 2.52643 16.7183 2.4 16.4 2.4H4.40005ZM1.85446 1.05442C2.5296 0.379284 3.44527 0 4.40005 0H16.4C17.3548 0 18.2705 0.379285 18.9456 1.05442C19.6208 1.72955 20 2.64522 20 3.6V22.8C20 23.2495 19.7488 23.6613 19.3491 23.867C18.9495 24.0727 18.4683 24.0377 18.1026 23.7765L10.4 18.2747L2.69753 23.7765C2.33176 24.0377 1.85064 24.0727 1.45095 23.867C1.05127 23.6613 0.800049 23.2495 0.800049 22.8V3.6C0.800049 2.64522 1.17933 1.72955 1.85446 1.05442Z" fill="black"/>
</svg>
