<svg width="100" height="41" viewBox="0 0 100 41" fill="none" xmlns="http://www.w3.org/2000/svg">
<circle cx="16.9998" cy="20.0002" r="13.3846" stroke="#909090" stroke-width="2"/>
<path d="M17 12.1536V19.9997L23.5385 23.9228" stroke="#909090" stroke-width="2" stroke-linecap="round"/>
<path d="M43.204 13V3.13H46.55C47.6513 3.13 48.58 3.32133 49.336 3.704C50.1013 4.08667 50.68 4.64667 51.072 5.384C51.464 6.112 51.66 7.00333 51.66 8.058C51.66 9.11267 51.464 10.0087 51.072 10.746C50.68 11.4833 50.1013 12.0433 49.336 12.426C48.58 12.8087 47.6513 13 46.55 13H43.204ZM44.506 11.894H46.452C47.768 11.894 48.7433 11.5767 49.378 10.942C50.0127 10.3073 50.33 9.346 50.33 8.058C50.33 6.77 50.0127 5.81333 49.378 5.188C48.7433 4.55333 47.768 4.236 46.452 4.236H44.506V11.894ZM53.564 13V5.958H54.838V13H53.564ZM53.452 4.418V3.046H54.964V4.418H53.452ZM57.3603 13V6.938H55.9883V5.958H57.7103L57.3603 6.28V5.146C57.3603 4.32467 57.5656 3.704 57.9763 3.284C58.387 2.85467 58.9843 2.64 59.7683 2.64C59.955 2.64 60.151 2.654 60.3563 2.682C60.571 2.71 60.7483 2.75667 60.8883 2.822V3.858C60.7763 3.81133 60.6363 3.774 60.4683 3.746C60.3003 3.718 60.137 3.704 59.9783 3.704C59.6983 3.704 59.4556 3.76 59.2503 3.872C59.045 3.984 58.891 4.152 58.7883 4.376C58.6856 4.59067 58.6343 4.87533 58.6343 5.23V6.224L58.4383 5.958H60.5803V6.938H58.6343V13H57.3603ZM61.9404 13V6.938H60.5684V5.958H62.2904L61.9404 6.28V5.146C61.9404 4.32467 62.141 3.704 62.5424 3.284C62.953 2.85467 63.541 2.64 64.3064 2.64C64.493 2.64 64.689 2.654 64.8944 2.682C65.109 2.71 65.2864 2.75667 65.4264 2.822V3.858C65.3144 3.81133 65.1744 3.774 65.0064 3.746C64.8384 3.718 64.675 3.704 64.5164 3.704C64.0964 3.704 63.7744 3.83 63.5504 4.082C63.3264 4.32467 63.2144 4.70733 63.2144 5.23V6.224L63.0184 5.958H67.6244V13H66.3504V6.938H63.2144V13H61.9404ZM66.2244 4.418V3.046H67.7364V4.418H66.2244ZM72.7755 13.126C72.0755 13.126 71.4688 12.9813 70.9555 12.692C70.4422 12.3933 70.0408 11.9687 69.7515 11.418C69.4715 10.858 69.3315 10.1953 69.3315 9.43C69.3315 8.674 69.4762 8.03 69.7655 7.498C70.0548 6.95667 70.4562 6.546 70.9695 6.266C71.4828 5.97667 72.0848 5.832 72.7755 5.832C73.2328 5.832 73.6762 5.91133 74.1055 6.07C74.5348 6.21933 74.8848 6.43867 75.1555 6.728L74.7215 7.624C74.4508 7.36267 74.1522 7.17133 73.8255 7.05C73.4988 6.91933 73.1768 6.854 72.8595 6.854C72.1688 6.854 71.6275 7.078 71.2355 7.526C70.8435 7.96467 70.6475 8.604 70.6475 9.444C70.6475 10.2933 70.8435 10.9467 71.2355 11.404C71.6275 11.8613 72.1688 12.09 72.8595 12.09C73.1675 12.09 73.4848 12.0293 73.8115 11.908C74.1382 11.7867 74.4415 11.5953 74.7215 11.334L75.1555 12.216C74.8755 12.5147 74.5162 12.7433 74.0775 12.902C73.6482 13.0513 73.2142 13.126 72.7755 13.126ZM79.2165 13.126C78.3672 13.126 77.7278 12.8973 77.2985 12.44C76.8785 11.9827 76.6685 11.278 76.6685 10.326V5.958H77.9425V10.298C77.9425 10.914 78.0685 11.3667 78.3205 11.656C78.5725 11.9453 78.9645 12.09 79.4965 12.09C80.0752 12.09 80.5418 11.8987 80.8965 11.516C81.2605 11.124 81.4425 10.606 81.4425 9.962V5.958H82.7165V13H81.4845V11.446H81.6665C81.4705 11.978 81.1578 12.3933 80.7285 12.692C80.2992 12.9813 79.7952 13.126 79.2165 13.126ZM84.8589 13V2.696H86.1329V13H84.8589ZM90.8952 13.126C90.1579 13.126 89.5979 12.9253 89.2152 12.524C88.8419 12.1133 88.6552 11.4973 88.6552 10.676V6.938H87.2832V5.958H88.6552V4.068L89.9292 3.718V5.958H91.9172V6.938H89.9292V10.564C89.9292 11.1053 90.0226 11.4927 90.2092 11.726C90.4052 11.95 90.6852 12.062 91.0492 12.062C91.2359 12.062 91.3946 12.048 91.5252 12.02C91.6652 11.9827 91.7912 11.9407 91.9032 11.894V12.944C91.7632 13 91.5999 13.042 91.4132 13.07C91.2359 13.1073 91.0632 13.126 90.8952 13.126ZM93.1112 16.178L92.8172 15.142C93.2558 15.0393 93.6198 14.918 93.9092 14.778C94.1985 14.6473 94.4412 14.4747 94.6372 14.26C94.8332 14.0453 95.0058 13.7747 95.1552 13.448L95.5052 12.608L95.4772 13.14L92.4112 5.958H93.7832L96.2332 11.992H95.8692L98.3192 5.958H99.6352L96.4012 13.546C96.2052 14.0033 95.9905 14.386 95.7572 14.694C95.5332 15.002 95.2858 15.254 95.0152 15.45C94.7538 15.646 94.4645 15.8 94.1472 15.912C93.8298 16.024 93.4845 16.1127 93.1112 16.178Z" fill="#282828"/>
<path d="M43.204 37V27.13H49.588V28.194H44.464V31.456H49.266V32.52H44.464V35.936H49.588V37H43.204ZM53.9141 37.126C53.2981 37.126 52.7568 36.9813 52.2901 36.692C51.8234 36.4027 51.4594 35.9827 51.1981 35.432C50.9368 34.8813 50.8061 34.228 50.8061 33.472C50.8061 32.716 50.9368 32.0673 51.1981 31.526C51.4594 30.9753 51.8234 30.5553 52.2901 30.266C52.7568 29.9767 53.2981 29.832 53.9141 29.832C54.5394 29.832 55.0808 29.9907 55.5381 30.308C56.0048 30.616 56.3128 31.0407 56.4621 31.582H56.2941L56.4481 29.958H57.6801C57.6521 30.238 57.6241 30.518 57.5961 30.798C57.5774 31.078 57.5681 31.3533 57.5681 31.624V37H56.2941V35.39H56.4481C56.2988 35.922 55.9908 36.3467 55.5241 36.664C55.0668 36.972 54.5301 37.126 53.9141 37.126ZM54.2081 36.118C54.8428 36.118 55.3514 35.894 55.7341 35.446C56.1168 34.998 56.3081 34.34 56.3081 33.472C56.3081 32.604 56.1168 31.9507 55.7341 31.512C55.3514 31.0733 54.8428 30.854 54.2081 30.854C53.5734 30.854 53.0601 31.0733 52.6681 31.512C52.2854 31.9507 52.0941 32.604 52.0941 33.472C52.0941 34.34 52.2854 34.998 52.6681 35.446C53.0508 35.894 53.5641 36.118 54.2081 36.118ZM62.0827 37.126C61.5133 37.126 60.9813 37.0513 60.4867 36.902C60.0013 36.7527 59.6 36.538 59.2827 36.258L59.6887 35.376C60.034 35.6373 60.412 35.838 60.8227 35.978C61.2427 36.1087 61.672 36.174 62.1107 36.174C62.6427 36.174 63.044 36.076 63.3147 35.88C63.5947 35.684 63.7347 35.4227 63.7347 35.096C63.7347 34.8347 63.646 34.6247 63.4687 34.466C63.2913 34.3073 63.0113 34.1907 62.6287 34.116L61.2987 33.85C60.7013 33.71 60.2487 33.486 59.9407 33.178C59.642 32.8607 59.4927 32.4547 59.4927 31.96C59.4927 31.5493 59.6047 31.1853 59.8287 30.868C60.0527 30.5413 60.37 30.2893 60.7807 30.112C61.2007 29.9253 61.6907 29.832 62.2507 29.832C62.764 29.832 63.24 29.9067 63.6787 30.056C64.1267 30.2053 64.4953 30.4247 64.7847 30.714L64.3647 31.568C64.0753 31.316 63.7487 31.1247 63.3847 30.994C63.03 30.854 62.666 30.784 62.2927 30.784C61.7513 30.784 61.35 30.8913 61.0887 31.106C60.8273 31.3113 60.6967 31.582 60.6967 31.918C60.6967 32.17 60.776 32.38 60.9347 32.548C61.0933 32.7067 61.35 32.828 61.7047 32.912L63.0347 33.178C63.66 33.3087 64.1313 33.5233 64.4487 33.822C64.766 34.1207 64.9247 34.5173 64.9247 35.012C64.9247 35.4507 64.8033 35.8287 64.5607 36.146C64.3273 36.4633 63.996 36.706 63.5667 36.874C63.1467 37.042 62.652 37.126 62.0827 37.126ZM66.2869 40.178L65.9929 39.142C66.4316 39.0393 66.7956 38.918 67.0849 38.778C67.3743 38.6473 67.6169 38.4747 67.8129 38.26C68.0089 38.0453 68.1816 37.7747 68.3309 37.448L68.6809 36.608L68.6529 37.14L65.5869 29.958H66.9589L69.4089 35.992H69.0449L71.4949 29.958H72.8109L69.5769 37.546C69.3809 38.0033 69.1663 38.386 68.9329 38.694C68.7089 39.002 68.4616 39.254 68.1909 39.45C67.9296 39.646 67.6403 39.8 67.3229 39.912C67.0056 40.024 66.6603 40.1127 66.2869 40.178Z" fill="#5E6D77"/>
</svg>
