<svg width="99" height="40" viewBox="0 0 99 40" fill="none" xmlns="http://www.w3.org/2000/svg">
<circle cx="16.9994" cy="19.9996" r="13.3846" stroke="#909090" stroke-width="2"/>
<path d="M17 12.1548V20.0009L23.5385 23.924" stroke="#909090" stroke-width="2" stroke-linecap="round"/>
<path d="M43.204 13V3.13H46.55C47.6513 3.13 48.58 3.32133 49.336 3.704C50.1013 4.08667 50.68 4.64667 51.072 5.384C51.464 6.112 51.66 7.00333 51.66 8.058C51.66 9.11267 51.464 10.0087 51.072 10.746C50.68 11.4833 50.1013 12.0433 49.336 12.426C48.58 12.8087 47.6513 13 46.55 13H43.204ZM44.506 11.894H46.452C47.768 11.894 48.7433 11.5767 49.378 10.942C50.0127 10.3073 50.33 9.346 50.33 8.058C50.33 6.77 50.0127 5.81333 49.378 5.188C48.7433 4.55333 47.768 4.236 46.452 4.236H44.506V11.894ZM56.07 13.126C55.2207 13.126 54.5813 12.8973 54.152 12.44C53.732 11.9827 53.522 11.278 53.522 10.326V5.958H54.796V10.298C54.796 10.914 54.922 11.3667 55.174 11.656C55.426 11.9453 55.818 12.09 56.35 12.09C56.9287 12.09 57.3953 11.8987 57.75 11.516C58.114 11.124 58.296 10.606 58.296 9.962V5.958H59.57V13H58.338V11.446H58.52C58.324 11.978 58.0113 12.3933 57.582 12.692C57.1527 12.9813 56.6487 13.126 56.07 13.126ZM61.6984 13V7.68C61.6984 7.4 61.6891 7.11533 61.6704 6.826C61.6611 6.52733 61.6378 6.238 61.6004 5.958H62.8324L62.9864 7.722L62.7764 7.736C62.8698 7.30667 63.0284 6.952 63.2524 6.672C63.4858 6.38267 63.7611 6.17267 64.0784 6.042C64.4051 5.902 64.7411 5.832 65.0864 5.832C65.2358 5.832 65.3618 5.83667 65.4644 5.846C65.5671 5.85533 65.6698 5.87867 65.7724 5.916L65.7444 7.05C65.6044 6.994 65.4738 6.96133 65.3524 6.952C65.2404 6.93333 65.1004 6.924 64.9324 6.924C64.5218 6.924 64.1671 7.01733 63.8684 7.204C63.5791 7.39067 63.3551 7.638 63.1964 7.946C63.0471 8.254 62.9724 8.58533 62.9724 8.94V13H61.6984ZM69.5137 13.126C68.8977 13.126 68.3564 12.9813 67.8897 12.692C67.4231 12.4027 67.0591 11.9827 66.7977 11.432C66.5364 10.8813 66.4057 10.228 66.4057 9.472C66.4057 8.716 66.5364 8.06733 66.7977 7.526C67.0591 6.97533 67.4231 6.55533 67.8897 6.266C68.3564 5.97667 68.8977 5.832 69.5137 5.832C70.1391 5.832 70.6804 5.99067 71.1377 6.308C71.6044 6.616 71.9124 7.04067 72.0617 7.582H71.8937L72.0477 5.958H73.2797C73.2517 6.238 73.2237 6.518 73.1957 6.798C73.1771 7.078 73.1677 7.35333 73.1677 7.624V13H71.8937V11.39H72.0477C71.8984 11.922 71.5904 12.3467 71.1237 12.664C70.6664 12.972 70.1297 13.126 69.5137 13.126ZM69.8077 12.118C70.4424 12.118 70.9511 11.894 71.3337 11.446C71.7164 10.998 71.9077 10.34 71.9077 9.472C71.9077 8.604 71.7164 7.95067 71.3337 7.512C70.9511 7.07333 70.4424 6.854 69.8077 6.854C69.1731 6.854 68.6597 7.07333 68.2677 7.512C67.8851 7.95067 67.6937 8.604 67.6937 9.472C67.6937 10.34 67.8851 10.998 68.2677 11.446C68.6504 11.894 69.1637 12.118 69.8077 12.118ZM77.9343 13.126C77.1969 13.126 76.6369 12.9253 76.2543 12.524C75.8809 12.1133 75.6943 11.4973 75.6943 10.676V6.938H74.3223V5.958H75.6943V4.068L76.9683 3.718V5.958H78.9563V6.938H76.9683V10.564C76.9683 11.1053 77.0616 11.4927 77.2483 11.726C77.4443 11.95 77.7243 12.062 78.0883 12.062C78.2749 12.062 78.4336 12.048 78.5643 12.02C78.7043 11.9827 78.8303 11.9407 78.9423 11.894V12.944C78.8023 13 78.6389 13.042 78.4523 13.07C78.2749 13.1073 78.1023 13.126 77.9343 13.126ZM80.2925 13V5.958H81.5665V13H80.2925ZM80.1805 4.418V3.046H81.6925V4.418H80.1805ZM86.6648 13.126C85.9741 13.126 85.3768 12.9813 84.8728 12.692C84.3688 12.3933 83.9768 11.9733 83.6968 11.432C83.4168 10.8813 83.2768 10.228 83.2768 9.472C83.2768 8.72533 83.4168 8.08133 83.6968 7.54C83.9768 6.98933 84.3688 6.56933 84.8728 6.28C85.3768 5.98133 85.9741 5.832 86.6648 5.832C87.3555 5.832 87.9528 5.98133 88.4568 6.28C88.9701 6.56933 89.3621 6.98933 89.6328 7.54C89.9128 8.08133 90.0528 8.72533 90.0528 9.472C90.0528 10.228 89.9128 10.8813 89.6328 11.432C89.3621 11.9733 88.9701 12.3933 88.4568 12.692C87.9528 12.9813 87.3555 13.126 86.6648 13.126ZM86.6648 12.118C87.2995 12.118 87.8081 11.894 88.1908 11.446C88.5735 10.998 88.7648 10.34 88.7648 9.472C88.7648 8.604 88.5735 7.95067 88.1908 7.512C87.8081 7.07333 87.2995 6.854 86.6648 6.854C86.0208 6.854 85.5075 7.07333 85.1248 7.512C84.7515 7.95067 84.5648 8.604 84.5648 9.472C84.5648 10.34 84.7515 10.998 85.1248 11.446C85.5075 11.894 86.0208 12.118 86.6648 12.118ZM91.7632 13V7.624C91.7632 7.35333 91.7539 7.078 91.7352 6.798C91.7166 6.518 91.6886 6.238 91.6512 5.958H92.8832L93.0232 7.47H92.8552C93.0699 6.938 93.4012 6.532 93.8492 6.252C94.2972 5.972 94.8199 5.832 95.4172 5.832C96.2479 5.832 96.8732 6.06067 97.2932 6.518C97.7132 6.966 97.9232 7.666 97.9232 8.618V13H96.6492V8.688C96.6492 8.044 96.5232 7.582 96.2712 7.302C96.0192 7.01267 95.6272 6.868 95.0952 6.868C94.4606 6.868 93.9566 7.05933 93.5832 7.442C93.2192 7.82467 93.0372 8.34267 93.0372 8.996V13H91.7632Z" fill="#282828"/>
<path d="M46.13 37.126C45.458 37.126 44.814 37.0233 44.198 36.818C43.5913 36.6127 43.0827 36.3233 42.672 35.95L43.134 34.942C43.5913 35.3153 44.0627 35.586 44.548 35.754C45.0333 35.922 45.5467 36.006 46.088 36.006C46.8067 36.006 47.3527 35.8567 47.726 35.558C48.0993 35.25 48.286 34.8113 48.286 34.242C48.286 33.682 48.0947 33.2573 47.712 32.968C47.3387 32.6787 46.788 32.534 46.06 32.534H44.548V31.456H45.962C46.578 31.456 47.0727 31.2973 47.446 30.98C47.8193 30.6627 48.006 30.2287 48.006 29.678C48.006 29.174 47.8333 28.7913 47.488 28.53C47.152 28.2593 46.6713 28.124 46.046 28.124C44.9913 28.124 44.0767 28.4927 43.302 29.23L42.84 28.236C43.232 27.844 43.7173 27.5407 44.296 27.326C44.8747 27.1113 45.486 27.004 46.13 27.004C47.11 27.004 47.88 27.228 48.44 27.676C49 28.124 49.28 28.7493 49.28 29.552C49.28 30.1587 49.1073 30.6813 48.762 31.12C48.426 31.5493 47.964 31.834 47.376 31.974V31.82C48.0667 31.9413 48.6033 32.226 48.986 32.674C49.3687 33.1127 49.56 33.6633 49.56 34.326C49.56 35.194 49.252 35.88 48.636 36.384C48.0293 36.8787 47.194 37.126 46.13 37.126ZM51.5985 37V27.13H54.9445C56.0459 27.13 56.9745 27.3213 57.7305 27.704C58.4959 28.0867 59.0745 28.6467 59.4665 29.384C59.8585 30.112 60.0545 31.0033 60.0545 32.058C60.0545 33.1127 59.8585 34.0087 59.4665 34.746C59.0745 35.4833 58.4959 36.0433 57.7305 36.426C56.9745 36.8087 56.0459 37 54.9445 37H51.5985ZM52.9005 35.894H54.8465C56.1625 35.894 57.1379 35.5767 57.7725 34.942C58.4072 34.3073 58.7245 33.346 58.7245 32.058C58.7245 30.77 58.4072 29.8133 57.7725 29.188C57.1379 28.5533 56.1625 28.236 54.8465 28.236H52.9005V35.894ZM65.8319 39.604V27.046H67.1059V39.604H65.8319ZM77.3294 37V34.914H72.6954V33.976L77.5394 27.13H78.6034V33.878H80.0874V34.914H78.6034V37H77.3294ZM77.3294 33.878V28.67H77.6514L73.7454 34.186V33.878H77.3294ZM81.622 37V27.13H82.63L88.818 35.306H88.482V27.13H89.7V37H88.706L82.518 28.824H82.84V37H81.622Z" fill="#5E6D77"/>
</svg>
