<svg width="119" height="40" viewBox="0 0 119 40" fill="none" xmlns="http://www.w3.org/2000/svg">
<circle cx="17.0003" cy="20.0002" r="13.3846" stroke="#909090" stroke-width="2"/>
<path d="M17 12.1536V19.9997L23.5385 23.9228" stroke="#909090" stroke-width="2" stroke-linecap="round"/>
<path d="M45.57 13V4.236H42.154V3.13H50.316V4.236H46.886V13H45.57ZM50.4738 13V7.68C50.4738 7.4 50.4645 7.11533 50.4458 6.826C50.4365 6.52733 50.4132 6.238 50.3758 5.958H51.6078L51.7618 7.722L51.5518 7.736C51.6452 7.30667 51.8038 6.952 52.0278 6.672C52.2612 6.38267 52.5365 6.17267 52.8538 6.042C53.1805 5.902 53.5165 5.832 53.8618 5.832C54.0112 5.832 54.1372 5.83667 54.2398 5.846C54.3425 5.85533 54.4452 5.87867 54.5478 5.916L54.5198 7.05C54.3798 6.994 54.2492 6.96133 54.1278 6.952C54.0158 6.93333 53.8758 6.924 53.7078 6.924C53.2972 6.924 52.9425 7.01733 52.6438 7.204C52.3545 7.39067 52.1305 7.638 51.9718 7.946C51.8225 8.254 51.7478 8.58533 51.7478 8.94V13H50.4738ZM58.7798 13.126C57.6598 13.126 56.7731 12.804 56.1198 12.16C55.4758 11.516 55.1538 10.6293 55.1538 9.5C55.1538 8.75333 55.2938 8.10933 55.5738 7.568C55.8631 7.01733 56.2598 6.59267 56.7638 6.294C57.2678 5.986 57.8558 5.832 58.5278 5.832C59.1718 5.832 59.7178 5.972 60.1658 6.252C60.6138 6.52267 60.9544 6.91 61.1878 7.414C61.4211 7.918 61.5378 8.51533 61.5378 9.206V9.626H56.1478V8.87H60.6698L60.4318 9.052C60.4318 8.324 60.2684 7.75933 59.9418 7.358C59.6244 6.95667 59.1531 6.756 58.5278 6.756C57.8464 6.756 57.3191 6.994 56.9458 7.47C56.5724 7.93667 56.3858 8.576 56.3858 9.388V9.514C56.3858 10.3727 56.5958 11.0213 57.0158 11.46C57.4451 11.8987 58.0378 12.118 58.7938 12.118C59.2138 12.118 59.6058 12.0573 59.9698 11.936C60.3338 11.8147 60.6838 11.614 61.0198 11.334L61.4398 12.216C61.1224 12.5053 60.7258 12.7293 60.2498 12.888C59.7831 13.0467 59.2931 13.126 58.7798 13.126ZM63.2027 13V2.696H64.4767V9.066H64.5047L67.6827 5.958H69.2647L65.4847 9.654L65.4987 9.052L69.6007 13H67.9767L64.5047 9.724H64.4767V13H63.2027ZM74.3622 13V3.13H75.6642V11.88H80.5782V13H74.3622ZM85.0434 13.126C83.9234 13.126 83.0368 12.804 82.3834 12.16C81.7394 11.516 81.4174 10.6293 81.4174 9.5C81.4174 8.75333 81.5574 8.10933 81.8374 7.568C82.1268 7.01733 82.5234 6.59267 83.0274 6.294C83.5314 5.986 84.1194 5.832 84.7914 5.832C85.4354 5.832 85.9814 5.972 86.4294 6.252C86.8774 6.52267 87.2181 6.91 87.4514 7.414C87.6848 7.918 87.8014 8.51533 87.8014 9.206V9.626H82.4114V8.87H86.9334L86.6954 9.052C86.6954 8.324 86.5321 7.75933 86.2054 7.358C85.8881 6.95667 85.4168 6.756 84.7914 6.756C84.1101 6.756 83.5828 6.994 83.2094 7.47C82.8361 7.93667 82.6494 8.576 82.6494 9.388V9.514C82.6494 10.3727 82.8594 11.0213 83.2794 11.46C83.7088 11.8987 84.3014 12.118 85.0574 12.118C85.4774 12.118 85.8694 12.0573 86.2334 11.936C86.5974 11.8147 86.9474 11.614 87.2834 11.334L87.7034 12.216C87.3861 12.5053 86.9894 12.7293 86.5134 12.888C86.0468 13.0467 85.5568 13.126 85.0434 13.126ZM89.4663 13V7.624C89.4663 7.35333 89.457 7.078 89.4383 6.798C89.4197 6.518 89.3917 6.238 89.3543 5.958H90.5863L90.7263 7.47H90.5583C90.773 6.938 91.1043 6.532 91.5523 6.252C92.0003 5.972 92.523 5.832 93.1203 5.832C93.951 5.832 94.5763 6.06067 94.9963 6.518C95.4163 6.966 95.6263 7.666 95.6263 8.618V13H94.3523V8.688C94.3523 8.044 94.2263 7.582 93.9743 7.302C93.7223 7.01267 93.3303 6.868 92.7983 6.868C92.1637 6.868 91.6597 7.05933 91.2863 7.442C90.9223 7.82467 90.7403 8.34267 90.7403 8.996V13H89.4663ZM100.846 16.136C100.23 16.136 99.6658 16.0613 99.1525 15.912C98.6392 15.7627 98.1772 15.534 97.7665 15.226L98.1025 14.288C98.3918 14.484 98.6765 14.6427 98.9565 14.764C99.2365 14.8853 99.5258 14.974 99.8245 15.03C100.132 15.086 100.45 15.114 100.776 15.114C101.467 15.114 101.985 14.9367 102.33 14.582C102.676 14.2273 102.848 13.7233 102.848 13.07V11.096H102.988C102.839 11.628 102.531 12.0527 102.064 12.37C101.607 12.678 101.066 12.832 100.44 12.832C99.8058 12.832 99.2505 12.692 98.7745 12.412C98.3078 12.1227 97.9438 11.7167 97.6825 11.194C97.4212 10.662 97.2905 10.0413 97.2905 9.332C97.2905 8.61333 97.4212 7.99267 97.6825 7.47C97.9438 6.94733 98.3078 6.546 98.7745 6.266C99.2505 5.97667 99.8058 5.832 100.44 5.832C101.066 5.832 101.607 5.986 102.064 6.294C102.522 6.602 102.825 7.02667 102.974 7.568L102.848 7.442L102.974 5.958H104.206C104.178 6.238 104.15 6.518 104.122 6.798C104.104 7.078 104.094 7.35333 104.094 7.624V12.916C104.094 13.9613 103.819 14.7593 103.268 15.31C102.727 15.8607 101.92 16.136 100.846 16.136ZM100.72 11.824C101.364 11.824 101.878 11.6047 102.26 11.166C102.643 10.7273 102.834 10.116 102.834 9.332C102.834 8.53867 102.643 7.92733 102.26 7.498C101.878 7.06867 101.364 6.854 100.72 6.854C100.067 6.854 99.5445 7.06867 99.1525 7.498C98.7698 7.92733 98.5785 8.53867 98.5785 9.332C98.5785 10.116 98.7698 10.7273 99.1525 11.166C99.5445 11.6047 100.067 11.824 100.72 11.824ZM108.86 13.126C108.123 13.126 107.563 12.9253 107.18 12.524C106.807 12.1133 106.62 11.4973 106.62 10.676V6.938H105.248V5.958H106.62V4.068L107.894 3.718V5.958H109.882V6.938H107.894V10.564C107.894 11.1053 107.987 11.4927 108.174 11.726C108.37 11.95 108.65 12.062 109.014 12.062C109.201 12.062 109.359 12.048 109.49 12.02C109.63 11.9827 109.756 11.9407 109.868 11.894V12.944C109.728 13 109.565 13.042 109.378 13.07C109.201 13.1073 109.028 13.126 108.86 13.126ZM111.218 13V2.696H112.492V7.484H112.31C112.516 6.94267 112.847 6.532 113.304 6.252C113.762 5.972 114.289 5.832 114.886 5.832C115.736 5.832 116.361 6.06067 116.762 6.518C117.173 6.97533 117.378 7.666 117.378 8.59V13H116.104V8.66C116.104 8.03467 115.983 7.582 115.74 7.302C115.498 7.01267 115.101 6.868 114.55 6.868C113.934 6.868 113.435 7.05933 113.052 7.442C112.679 7.82467 112.492 8.33333 112.492 8.968V13H111.218Z" fill="#282828"/>
<path d="M47.306 37V34.914H42.672V33.976L47.516 27.13H48.58V33.878H50.064V34.914H48.58V37H47.306ZM47.306 33.878V28.67H47.628L43.722 34.186V33.878H47.306ZM55.2899 37V27.13H56.5919V31.596H56.6199L61.2539 27.13H62.8919L57.5159 32.24L57.5299 31.61L63.2699 37H61.5759L56.6199 32.366H56.5919V37H55.2899ZM64.1187 37V31.624C64.1187 31.3533 64.1094 31.078 64.0907 30.798C64.072 30.518 64.044 30.238 64.0067 29.958H65.2387L65.3787 31.47H65.2107C65.3974 30.9473 65.696 30.546 66.1067 30.266C66.5174 29.9767 67.0074 29.832 67.5767 29.832C68.1554 29.832 68.6314 29.972 69.0047 30.252C69.378 30.5227 69.63 30.952 69.7607 31.54H69.5507C69.728 31.0173 70.0407 30.602 70.4887 30.294C70.9367 29.986 71.4594 29.832 72.0567 29.832C72.8314 29.832 73.4147 30.0607 73.8067 30.518C74.1987 30.966 74.3947 31.666 74.3947 32.618V37H73.1207V32.688C73.1207 32.044 73.0087 31.582 72.7847 31.302C72.5607 31.0127 72.206 30.868 71.7207 30.868C71.1514 30.868 70.7034 31.064 70.3767 31.456C70.05 31.8387 69.8867 32.3613 69.8867 33.024V37H68.6127V32.688C68.6127 32.044 68.5007 31.582 68.2767 31.302C68.062 31.0127 67.7074 30.868 67.2127 30.868C66.6434 30.868 66.1954 31.064 65.8687 31.456C65.5514 31.8387 65.3927 32.3613 65.3927 33.024V37H64.1187Z" fill="#5E6D77"/>
</svg>
