<svg width="79" height="115" viewBox="0 0 79 115" fill="none" xmlns="http://www.w3.org/2000/svg">
<mask id="path-1-inside-1_461_530" fill="white">
<path fill-rule="evenodd" clip-rule="evenodd" d="M44.2387 36.0086C44.4581 35.4702 44.5785 34.8851 44.5785 34.2734C44.5785 31.614 42.3047 29.4581 39.4999 29.4581C36.6951 29.4581 34.4213 31.614 34.4213 34.2734C34.4213 34.8851 34.5416 35.4702 34.761 36.0086C18.6185 38.2006 6.20703 51.4261 6.20703 67.4138H39.4999H72.7927C72.7927 51.426 60.3813 38.2006 44.2387 36.0086Z"/>
</mask>
<path fill-rule="evenodd" clip-rule="evenodd" d="M44.2387 36.0086C44.4581 35.4702 44.5785 34.8851 44.5785 34.2734C44.5785 31.614 42.3047 29.4581 39.4999 29.4581C36.6951 29.4581 34.4213 31.614 34.4213 34.2734C34.4213 34.8851 34.5416 35.4702 34.761 36.0086C18.6185 38.2006 6.20703 51.4261 6.20703 67.4138H39.4999H72.7927C72.7927 51.426 60.3813 38.2006 44.2387 36.0086Z" fill="black"/>
<path d="M44.2387 36.0086L43.7757 35.8199L43.5322 36.4172L44.1715 36.504L44.2387 36.0086ZM34.761 36.0086L34.8283 36.504L35.4675 36.4172L35.2241 35.8199L34.761 36.0086ZM6.20703 67.4138H5.70703V67.9138H6.20703V67.4138ZM72.7927 67.4138V67.9138H73.2927V67.4138H72.7927ZM44.0785 34.2734C44.0785 34.8189 43.9713 35.34 43.7757 35.8199L44.7018 36.1973C44.945 35.6004 45.0785 34.9513 45.0785 34.2734H44.0785ZM39.4999 29.9581C42.054 29.9581 44.0785 31.9149 44.0785 34.2734H45.0785C45.0785 31.3131 42.5554 28.9581 39.4999 28.9581V29.9581ZM34.9213 34.2734C34.9213 31.9149 36.9458 29.9581 39.4999 29.9581V28.9581C36.4443 28.9581 33.9213 31.3131 33.9213 34.2734H34.9213ZM35.2241 35.8199C35.0285 35.34 34.9213 34.8189 34.9213 34.2734H33.9213C33.9213 34.9513 34.0548 35.6004 34.298 36.1973L35.2241 35.8199ZM6.70703 67.4138C6.70703 51.6977 18.9116 38.6653 34.8283 36.504L34.6938 35.5131C18.3253 37.7358 5.70703 51.1544 5.70703 67.4138H6.70703ZM39.4999 66.9138H6.20703V67.9138H39.4999V66.9138ZM72.7927 66.9138H39.4999V67.9138H72.7927V66.9138ZM44.1715 36.504C60.0881 38.6653 72.2927 51.6977 72.2927 67.4138H73.2927C73.2927 51.1544 60.6745 37.7358 44.306 35.5131L44.1715 36.504Z" fill="black" mask="url(#path-1-inside-1_461_530)"/>
<line x1="3" y1="69.5123" x2="76" y2="69.5123" stroke="black" stroke-width="6" stroke-linecap="round"/>
<path d="M56.1461 45.8867C61.9076 49.6686 67.6246 54.9384 68.8309 65.2326L65.4684 65.6298C64.4176 56.6629 60.0961 51.2684 54.1711 46.7364C52.7604 45.6978 48.9797 43.2807 45.1426 41.9211C45.8009 42.0156 49.6569 42.7709 49.6569 42.7709C49.6569 42.7709 53.2664 43.9963 56.1461 45.8867Z" stroke="white"/>
<path d="M30.7532 17.8448C35.2675 24.1896 31.6937 28.4195 29.3425 29.7413C32.0397 28.6083 37.1772 24.2551 32.92 17.8448C31.227 15.2955 26.9949 10.7635 29.3425 7.36448C28.7781 7.93099 25.1103 9.91375 30.7532 17.8448Z" fill="black"/>
<path d="M47.051 17.8448C51.5653 24.1896 47.9915 28.4195 45.6403 29.7413C48.3376 28.6083 53.4751 24.2551 49.2179 17.8448C47.5249 15.2955 43.2927 10.7635 45.6403 7.36448C45.076 7.93099 41.4082 9.91375 47.051 17.8448Z" fill="black"/>
<path d="M38.1501 11.8966C33.6358 5.55172 37.2097 1.32184 39.5608 0C36.8636 1.13301 31.7261 5.48625 35.9833 11.8966C37.6763 14.4458 41.9085 18.9778 39.5608 22.3769C40.1252 21.8103 43.793 19.8276 38.1501 11.8966Z" fill="black"/>
<path d="M26.239 107.635L19.4676 94.6058C17.8876 95.5122 11.8497 98.3825 9.02832 99.7044L16.6462 115C20.0319 112.054 24.4521 108.863 26.239 107.635Z" fill="black"/>
<path d="M33.0192 100.862C31.8907 101.541 28.0347 104.166 26.2478 105.394C24.1857 101.687 20.3837 94.4479 20.605 94.3469C23.7085 92.9304 25.6835 90.1441 25.6835 89.2484C25.6835 88.0911 25.6835 85.5418 25.9657 84.4332C26.1865 83.5653 26.1607 82.7093 25.9657 81.6006C25.7014 80.0985 24.0084 77.2652 23.7085 76.7853C23.3393 76.1945 21.4514 73.3864 24.8371 73.6695C28.2228 73.9527 29.5464 76.4778 31.8907 81.0341C34.1519 85.4292 36.405 85.2829 40.0728 84.4332C43.7407 83.5834 44.8692 82.1671 47.4085 81.3174C49.9478 80.4676 51.6407 78.7681 55.5907 76.2189C59.5407 73.6696 61.2335 73.9528 62.3621 73.6695C63.4907 73.3863 68.8514 75.6523 63.7728 76.7853C58.6942 77.9183 52.7692 84.9996 49.1014 88.6819C46.1671 91.6277 43.3645 93.686 42.33 94.3469C41.6716 94.819 40.0728 95.9897 38.9442 96.8961C37.5335 98.0291 34.43 100.012 33.0192 100.862Z" fill="black"/>
<ellipse cx="21.7243" cy="108.202" rx="1.12857" ry="1.133" fill="white"/>
</svg>
