<svg width="58" height="45" viewBox="0 0 58 45" fill="none" xmlns="http://www.w3.org/2000/svg">
<rect x="18.75" y="7.5" width="15.9375" height="0.9375" rx="0.46875" fill="black"/>
<path fill-rule="evenodd" clip-rule="evenodd" d="M26.7188 38.9062C33.4497 38.9062 38.9062 33.4497 38.9062 26.7188C38.9062 19.9878 33.4497 14.5312 26.7188 14.5312C19.9878 14.5312 14.5312 19.9878 14.5312 26.7188C14.5312 33.4497 19.9878 38.9062 26.7188 38.9062ZM26.7188 39.375C33.7086 39.375 39.375 33.7086 39.375 26.7188C39.375 19.7289 33.7086 14.0625 26.7188 14.0625C19.7289 14.0625 14.0625 19.7289 14.0625 26.7188C14.0625 33.7086 19.7289 39.375 26.7188 39.375Z" fill="black"/>
<path fill-rule="evenodd" clip-rule="evenodd" d="M7.5 7.96875H15.4688V7.5C15.4688 3.61675 18.6167 0.46875 22.5 0.46875H30.9375C34.8208 0.46875 37.9688 3.61675 37.9688 7.5V7.96875H49.6875C53.5708 7.96875 56.7188 11.1167 56.7188 15V37.5C56.7188 41.3833 53.5708 44.5312 49.6875 44.5312H7.5C3.61675 44.5312 0.46875 41.3833 0.46875 37.5V15C0.46875 11.1167 3.61675 7.96875 7.5 7.96875ZM22.5 0C18.3579 0 15 3.35786 15 7.5H7.5C3.35786 7.5 0 10.8579 0 15V37.5C0 41.6421 3.35787 45 7.5 45H49.6875C53.8296 45 57.1875 41.6421 57.1875 37.5V15C57.1875 10.8579 53.8296 7.5 49.6875 7.5L49 7.5V5.25C49 4.55543 48.6671 4.10512 48.252 3.83943C47.8503 3.58237 47.3783 3.5 47.0625 3.5H46.6406H42C41.2552 3.5 40.7598 3.77979 40.4557 4.15514C40.1603 4.51991 40.0625 4.95354 40.0625 5.25V7.5L38.4375 7.5C38.4375 3.35786 35.0796 0 30.9375 0H22.5ZM40.5625 7.5H48.5V5.25C48.5 4.74457 48.2704 4.44488 47.9824 4.26057C47.681 4.06763 47.3092 4 47.0625 4H46.6406H42C41.3948 4 41.0465 4.22021 40.8443 4.46986C40.6335 4.73009 40.5625 5.04646 40.5625 5.25V7.5Z" fill="black"/>
<path fill-rule="evenodd" clip-rule="evenodd" d="M32.9892 21.8759C34.256 23.6354 34.6875 25.775 34.6875 27.1875H36.5625C36.5625 25.475 36.0565 22.9271 34.5108 20.7803C32.9308 18.5858 30.3055 16.875 26.25 16.875V18.75C29.6944 18.75 31.7567 20.1642 32.9892 21.8759Z" fill="black"/>
</svg>
