<svg width="26" height="24" viewBox="0 0 26 24" fill="none" xmlns="http://www.w3.org/2000/svg">
<mask id="path-1-inside-1_951_2367" fill="white">
<path fill-rule="evenodd" clip-rule="evenodd" d="M14.0209 11.2574C14.0816 11.109 14.1149 10.9478 14.1149 10.7792C14.1149 10.0463 13.4858 9.45215 12.7098 9.45215C11.9338 9.45215 11.3047 10.0463 11.3047 10.7792C11.3047 10.9478 11.338 11.109 11.3987 11.2574C6.93245 11.8615 3.49854 15.5063 3.49854 19.9124H12.7098H21.921C21.921 15.5063 18.4871 11.8615 14.0209 11.2574Z"/>
</mask>
<path d="M14.0209 11.2574L13.5581 11.068L13.3134 11.6662L13.9539 11.7529L14.0209 11.2574ZM11.3987 11.2574L11.4657 11.7529L12.1062 11.6662L11.8614 11.068L11.3987 11.2574ZM3.49854 19.9124H2.99854V20.4124H3.49854V19.9124ZM21.921 19.9124V20.4124H22.421V19.9124H21.921ZM13.6149 10.7792C13.6149 10.8813 13.5948 10.9783 13.5581 11.068L14.4837 11.4467C14.5684 11.2397 14.6149 11.0143 14.6149 10.7792H13.6149ZM12.7098 9.95215C13.237 9.95215 13.6149 10.349 13.6149 10.7792H14.6149C14.6149 9.7436 13.7346 8.95215 12.7098 8.95215V9.95215ZM11.8047 10.7792C11.8047 10.349 12.1826 9.95215 12.7098 9.95215V8.95215C11.6849 8.95215 10.8047 9.7436 10.8047 10.7792H11.8047ZM11.8614 11.068C11.8247 10.9783 11.8047 10.8813 11.8047 10.7792H10.8047C10.8047 11.0143 10.8512 11.2397 10.9359 11.4467L11.8614 11.068ZM3.99854 19.9124C3.99854 15.7795 7.22396 12.3266 11.4657 11.7529L11.3317 10.7619C6.64093 11.3964 2.99854 15.2331 2.99854 19.9124H3.99854ZM12.7098 19.4124H3.49854V20.4124H12.7098V19.4124ZM21.921 19.4124H12.7098V20.4124H21.921V19.4124ZM13.9539 11.7529C18.1956 12.3266 21.421 15.7795 21.421 19.9124H22.421C22.421 15.2331 18.7786 11.3964 14.0879 10.7619L13.9539 11.7529Z" fill="black" mask="url(#path-1-inside-1_951_2367)"/>
<path fill-rule="evenodd" clip-rule="evenodd" d="M1.78125 21.491C1.78125 21.1231 1.99095 20.8248 2.24962 20.8248H23.1701C23.4288 20.8248 23.6385 21.1231 23.6385 21.491C23.6385 21.8588 23.4288 22.1571 23.1701 22.1571H2.24962C1.99095 22.1571 1.78125 21.8588 1.78125 21.491Z" stroke="black" stroke-width="0.5" stroke-linecap="round"/>
<path d="M16.5864 14.4846C17.9521 15.4532 19.3072 16.8029 19.5931 19.4394L18.7961 19.5411C18.547 17.2446 17.5227 15.863 16.1183 14.7023C15.3826 14.1219 14.2725 13.5086 13.8201 13.324C13.9648 13.37 14.8017 13.586 15.0483 13.6866C15.3366 13.8043 15.9038 14.0005 16.5864 14.4846Z" fill="black"/>
<path d="M10.2897 6.69566C11.5387 8.44424 10.5499 9.60996 9.89944 9.97424C10.6457 9.662 12.0671 8.46228 10.8892 6.69566C10.4208 5.99311 9.24992 4.74413 9.89944 3.80739C9.7433 3.96351 8.72851 4.50994 10.2897 6.69566Z" stroke="black" stroke-width="0.3"/>
<path d="M14.799 6.69566C16.048 8.44424 15.0592 9.60996 14.4087 9.97424C15.155 9.662 16.5764 8.46228 15.3985 6.69566C14.9301 5.99311 13.7592 4.74413 14.4087 3.80739C14.2526 3.96351 13.2378 4.50994 14.799 6.69566Z" stroke="black" stroke-width="0.3"/>
<path d="M12.3362 5.05641C11.0873 3.30784 12.076 2.14212 12.7265 1.77783C11.9803 2.09008 10.5589 3.28979 11.7367 5.05641C12.2051 5.75897 13.3761 7.00795 12.7265 7.94469C12.8827 7.78856 13.8975 7.24213 12.3362 5.05641Z" stroke="black" stroke-width="0.3"/>
</svg>
