<svg width="48" height="45" viewBox="0 0 48 45" fill="none" xmlns="http://www.w3.org/2000/svg">
<mask id="path-1-inside-1_693_2814" fill="white">
<path fill-rule="evenodd" clip-rule="evenodd" d="M39.6923 6C39.6923 7.933 38.1253 9.5 36.1923 9.5C34.2593 9.5 32.6923 7.933 32.6923 6C32.6923 4.067 34.2593 2.5 36.1923 2.5C38.1253 2.5 39.6923 4.067 39.6923 6ZM40.1923 6C40.1923 8.20914 38.4014 10 36.1923 10C33.9832 10 32.1923 8.20914 32.1923 6C32.1923 3.79086 33.9832 2 36.1923 2C38.4014 2 40.1923 3.79086 40.1923 6ZM15.6923 7C15.6923 8.933 14.1253 10.5 12.1923 10.5C10.2593 10.5 8.69229 8.933 8.69229 7C8.69229 5.067 10.2593 3.5 12.1923 3.5C14.1253 3.5 15.6923 5.067 15.6923 7ZM16.1923 7C16.1923 9.20914 14.4014 11 12.1923 11C9.98315 11 8.19229 9.20914 8.19229 7C8.19229 4.79086 9.98315 3 12.1923 3C14.4014 3 16.1923 4.79086 16.1923 7ZM26.8687 7.6185C27.2008 7.2864 27.5974 7.2138 27.9795 7.26454C28.3607 7.31517 28.712 7.48843 28.9194 7.63427L33.0176 11.6211L33.0904 11.6919H33.1919H39.1919H39.2913L39.3636 11.6236L43.588 7.6316C43.7736 7.48753 44.0958 7.31461 44.4518 7.26445C44.8027 7.21502 45.1807 7.28381 45.5155 7.61867C45.8453 7.94847 45.9211 8.36235 45.8693 8.77311C45.8183 9.17742 45.6447 9.55569 45.4974 9.78319L41.0149 14.2649L40.9416 14.3382V14.4417V30.4419V30.442C40.9417 30.7353 40.8518 31.1808 40.589 31.5458C40.3354 31.8981 39.9105 32.1919 39.1919 32.1919C38.4472 32.1919 38.0168 31.9612 37.772 31.7062C37.5212 31.445 37.4416 31.1342 37.4416 30.9419V22.4419V22.1919H37.1916H35.1916H34.9416V22.4419V30.4419C34.9416 30.7352 34.8516 31.1808 34.5887 31.5458C34.3351 31.8981 33.9101 32.1919 33.1916 32.1919C32.4731 32.1919 32.0482 31.8981 31.7945 31.5458C31.5317 31.1808 31.4416 30.7352 31.4416 30.4419L31.4423 21.5455L33.3691 19.6187C33.564 19.4238 33.7955 19.0782 33.864 18.6571C33.9351 18.2205 33.8267 17.7228 33.3691 17.2652C32.9115 16.8075 32.4137 16.6991 31.9771 16.7702C31.7795 16.8024 31.5985 16.8704 31.4419 16.9537V14.4417V14.3382L31.3687 14.2649L26.8868 9.78303C26.7395 9.55553 26.5659 9.17726 26.5149 8.77294C26.4631 8.36218 26.5389 7.9483 26.8687 7.6185ZM29.4423 23.5455L30.9422 22.0455L30.9416 30.4419C30.9416 30.8152 31.0516 31.3697 31.3887 31.838C31.7351 32.319 32.3102 32.6919 33.1916 32.6919C34.0731 32.6919 34.6482 32.319 34.9945 31.838C35.3317 31.3697 35.4416 30.8152 35.4416 30.4419V22.6919H36.9416V30.9419C36.9416 31.2496 37.0621 31.6888 37.4114 32.0525C37.7667 32.4226 38.3364 32.6919 39.1919 32.6919C40.0735 32.6919 40.6485 32.319 40.9948 31.8379C41.3319 31.3697 41.4417 30.8152 41.4416 30.4419V30.4418V14.5453L45.8691 10.1187L45.8866 10.1012L45.9003 10.0806C46.0837 9.80547 46.3012 9.34426 46.3653 8.83568C46.4302 8.32143 46.3393 7.73532 45.8691 7.26512C45.4039 6.79998 44.8594 6.7021 44.3821 6.76934C43.9154 6.83508 43.5082 7.05762 43.2699 7.24562L43.2611 7.25253L43.253 7.26019L39.0925 11.1919H33.2934L29.2543 7.26253L29.2411 7.24966L29.2261 7.23888C28.9687 7.05342 28.5335 6.83374 28.0453 6.7689C27.5491 6.70298 26.983 6.79704 26.5151 7.26494C26.0449 7.73515 25.954 8.32126 26.0189 8.8355C26.083 9.34409 26.3005 9.8053 26.4839 10.0804L26.4976 10.101L26.5151 10.1185L30.9419 14.5453V17.3388L27.5887 20.6919H20.7862L17.442 17.7656V15.0453L21.8688 10.6185L21.8863 10.601L21.9 10.5804C22.0834 10.3053 22.3009 9.84412 22.3651 9.33554C22.4299 8.8213 22.339 8.23518 21.8688 7.76498C21.4009 7.29708 20.8349 7.20302 20.3386 7.26894C19.8504 7.33378 19.4152 7.55346 19.1578 7.73892L19.1428 7.7497L19.1296 7.76256L15.0905 11.6919H9.29146L5.13092 7.76023L5.12281 7.75257L5.11405 7.74566C4.87575 7.55766 4.46854 7.33512 4.00185 7.26938C3.52455 7.20214 2.97999 7.30002 2.51485 7.76515C2.04465 8.23536 1.95373 8.82147 2.01859 9.33572C2.08274 9.8443 2.30022 10.3055 2.48362 10.5806L2.49735 10.6012L2.51487 10.6187L6.94229 15.0453V30.9419V30.9419C6.9422 31.3153 7.05202 31.8697 7.38911 32.338C7.7354 32.8191 8.31045 33.1919 9.19202 33.1919C10.0475 33.1919 10.6173 32.9226 10.9726 32.5526C11.3218 32.1888 11.4423 31.7497 11.4423 31.4419V23.1919H12.9423V30.9419C12.9423 31.3153 13.0522 31.8697 13.3894 32.338C13.7358 32.819 14.3108 33.1919 15.1923 33.1919C16.0738 33.1919 16.6488 32.819 16.9952 32.338C17.3323 31.8697 17.4423 31.3153 17.4423 30.9419V22.2367L19.1713 23.9672V39.9282C19.1316 40.2994 19.1793 40.8508 19.4643 41.3214C19.7642 41.8167 20.3093 42.1919 21.1923 42.1919C22.0738 42.1919 22.6488 41.819 22.9952 41.338C23.3323 40.8697 23.4423 40.3153 23.4423 39.9419V31.9336H25.0984V40.1012C25.071 40.4496 25.1405 40.9633 25.4461 41.399C25.7651 41.8538 26.3194 42.1919 27.1923 42.1919C28.0648 42.1919 28.6389 41.8548 28.9888 41.41C29.3298 40.9765 29.4423 40.4612 29.4423 40.1114V23.5455ZM16.942 14.9418V17.3281L16.8629 17.2588C16.6668 17.0652 16.3241 16.8379 15.9074 16.7701C15.4708 16.6991 14.9731 16.8075 14.5155 17.2652C14.0579 17.7228 13.9495 18.2205 14.0205 18.6571C14.0891 19.0782 14.3206 19.4238 14.5155 19.6187L14.5213 19.6245L14.5275 19.6299L16.9423 21.7461V30.9419C16.9423 31.2353 16.8522 31.6808 16.5894 32.0459C16.3358 32.3981 15.9108 32.6919 15.1923 32.6919C14.4738 32.6919 14.0488 32.3981 13.7952 32.0459C13.5323 31.6808 13.4423 31.2353 13.4423 30.9419V22.9419V22.6919H13.1923H11.1923H10.9423V22.9419V31.4419C10.9423 31.6342 10.8627 31.945 10.6119 32.2063C10.3671 32.4612 9.93677 32.6919 9.19202 32.6919C8.47339 32.6919 8.04848 32.3981 7.79491 32.0459C7.53216 31.6809 7.44221 31.2353 7.44229 30.942V30.9419V14.9418V14.8382L7.36905 14.765L2.88649 10.2832C2.73921 10.0557 2.56566 9.67746 2.51466 9.27315C2.46286 8.86239 2.53861 8.44851 2.86841 8.11871C3.20327 7.78384 3.58124 7.71506 3.9321 7.76449C4.28812 7.81464 4.61031 7.98756 4.79596 8.13163L9.02031 12.1236L9.09259 12.1919H9.19202H15.192H15.2936L15.3663 12.1211L19.4645 8.1343C19.6719 7.98846 20.0233 7.81521 20.4044 7.76458C20.7865 7.71383 21.1831 7.78644 21.5152 8.11854C21.845 8.44833 21.9208 8.86222 21.869 9.27297C21.818 9.6773 21.6444 10.0556 21.4972 10.2831L17.0152 14.765L16.942 14.8382V14.9418ZM14.8691 17.6187C15.2115 17.2763 15.5471 17.2181 15.8271 17.2636C16.1227 17.3117 16.3772 17.4802 16.5155 17.6185L16.5214 17.6244L16.5277 17.6299L20.5277 21.1301L20.5984 21.1919H20.6923H27.6923H27.7958L27.8691 21.1187L31.3691 17.6187C31.5074 17.4803 31.7619 17.3118 32.0575 17.2637C32.3375 17.2181 32.6731 17.2763 33.0155 17.6187C33.3579 17.9611 33.4161 18.2967 33.3705 18.5768C33.3224 18.8723 33.1539 19.1268 33.0155 19.2652L29.0155 23.2652L28.9423 23.3384V23.4419V40.1114C28.9423 40.3717 28.8547 40.7717 28.5958 41.1009C28.3457 41.4188 27.9197 41.6919 27.1923 41.6919C26.4652 41.6919 26.0715 41.4198 25.8555 41.1119C25.6294 40.7896 25.5752 40.3943 25.5975 40.1326L25.5984 40.122V40.1114V31.6836V31.4336H25.3484H23.1923H22.9423V31.6836V39.9419C22.9423 40.2353 22.8522 40.6808 22.5894 41.0459C22.3358 41.3981 21.9108 41.6919 21.1923 41.6919C20.4752 41.6919 20.0967 41.4005 19.892 41.0624C19.6762 40.706 19.6358 40.2657 19.6697 39.9704L19.6713 39.9562V39.9419V23.8637V23.7602L19.5981 23.687L17.3691 21.456L17.3633 21.4502L17.3571 21.4447L14.8636 19.2596C14.7263 19.1201 14.5615 18.8684 14.514 18.5768C14.4685 18.2967 14.5267 17.9611 14.8691 17.6187ZM24.1923 19.5C26.1253 19.5 27.6923 17.933 27.6923 16C27.6923 14.067 26.1253 12.5 24.1923 12.5C22.2593 12.5 20.6923 14.067 20.6923 16C20.6923 17.933 22.2593 19.5 24.1923 19.5ZM24.1923 20C26.4014 20 28.1923 18.2091 28.1923 16C28.1923 13.7909 26.4014 12 24.1923 12C21.9832 12 20.1923 13.7909 20.1923 16C20.1923 18.2091 21.9832 20 24.1923 20Z"/>
</mask>
<path d="M27.9795 7.26454L28.0453 6.7689H28.0453L27.9795 7.26454ZM26.8687 7.6185L27.2222 7.97205L26.8687 7.6185ZM28.9194 7.63427L29.268 7.27588L29.2395 7.24814L29.207 7.22527L28.9194 7.63427ZM33.0176 11.6211L33.3662 11.2627L33.0176 11.6211ZM33.0904 11.6919L32.7417 12.0503L32.8873 12.1919H33.0904V11.6919ZM39.2913 11.6919V12.1919H39.4902L39.6348 12.0553L39.2913 11.6919ZM39.3636 11.6236L39.0202 11.2602L39.0202 11.2602L39.3636 11.6236ZM43.588 7.6316L43.2814 7.23659L43.2622 7.25149L43.2445 7.26819L43.588 7.6316ZM44.4518 7.26445L44.3821 6.76934L44.4518 7.26445ZM45.5155 7.61867L45.162 7.97222V7.97223L45.5155 7.61867ZM45.8693 8.77311L46.3653 8.83568V8.83568L45.8693 8.77311ZM45.4974 9.78319L45.851 10.1368L45.8884 10.0994L45.9172 10.0549L45.4974 9.78319ZM41.0149 14.2649L40.6614 13.9113L40.6613 13.9113L41.0149 14.2649ZM40.9416 14.3382L40.5881 13.9846L40.4416 14.131V14.3382H40.9416ZM40.9416 30.442H40.4416V30.4421L40.9416 30.442ZM40.589 31.5458L40.9948 31.8379L40.589 31.5458ZM37.772 31.7062L38.1327 31.36H38.1327L37.772 31.7062ZM37.4416 22.1919H37.9416V21.6919H37.4416V22.1919ZM34.9416 22.1919V21.6919H34.4416V22.1919H34.9416ZM34.5887 31.5458L34.183 31.2537L34.5887 31.5458ZM31.7945 31.5458L32.2003 31.2537L31.7945 31.5458ZM31.4416 30.4419L30.9416 30.4419V30.4419H31.4416ZM31.4423 21.5455L31.0887 21.1919L30.9423 21.3384L30.9423 21.5455L31.4423 21.5455ZM33.864 18.6571L33.3705 18.5768L33.864 18.6571ZM31.9771 16.7702L32.0575 17.2637L31.9771 16.7702ZM31.4419 16.9537H30.9419V17.7862L31.6768 17.3951L31.4419 16.9537ZM31.4419 14.3382H31.9419V14.1311L31.7955 13.9846L31.4419 14.3382ZM26.8868 9.78303L26.467 10.0548L26.4958 10.0992L26.5332 10.1366L26.8868 9.78303ZM26.5149 8.77294L26.0189 8.83551V8.83551L26.5149 8.77294ZM30.9422 22.0455L31.4422 22.0456L31.4423 20.8383L30.5887 21.692L30.9422 22.0455ZM29.4423 23.5455L29.0887 23.1919L28.9423 23.3384V23.5455H29.4423ZM30.9416 30.4419L30.4416 30.4418V30.4419H30.9416ZM31.3887 31.838L30.983 32.1301L31.3887 31.838ZM34.9945 31.838L34.5887 31.5458L34.5887 31.5458L34.9945 31.838ZM35.4416 22.6919V22.1919H34.9416V22.6919H35.4416ZM36.9416 22.6919H37.4416V22.1919H36.9416V22.6919ZM37.4114 32.0525L37.772 31.7063L37.772 31.7062L37.4114 32.0525ZM40.9948 31.8379L40.589 31.5458V31.5458L40.9948 31.8379ZM41.4416 30.4419H40.9416V30.442L41.4416 30.4419ZM41.4416 14.5453L41.0881 14.1917L40.9416 14.3382V14.5453H41.4416ZM45.8691 10.1187L46.2226 10.4723L46.2226 10.4723L45.8691 10.1187ZM45.8866 10.1012L46.2401 10.4547L46.2751 10.4197L46.3026 10.3785L45.8866 10.1012ZM45.9003 10.0806L45.4843 9.80322L45.4843 9.80324L45.9003 10.0806ZM46.3653 8.83568L45.8693 8.77311V8.77311L46.3653 8.83568ZM45.8691 7.26512L46.2226 6.91156V6.91156L45.8691 7.26512ZM44.3821 6.76934L44.3123 6.27423L44.3821 6.76934ZM43.2699 7.24562L43.5795 7.63818L43.5796 7.63817L43.2699 7.24562ZM43.2611 7.25253L42.9514 6.85997L42.9339 6.87381L42.9176 6.88917L43.2611 7.25253ZM43.253 7.26019L43.5964 7.6236L43.5965 7.62355L43.253 7.26019ZM39.0925 11.1919V11.6919H39.2913L39.4359 11.5553L39.0925 11.1919ZM33.2934 11.1919L32.9448 11.5503L33.0904 11.6919H33.2934V11.1919ZM29.2543 7.26253L28.9056 7.62091L28.9056 7.62092L29.2543 7.26253ZM29.2411 7.24966L29.5897 6.89128L29.5633 6.86554L29.5333 6.84397L29.2411 7.24966ZM29.2261 7.23888L28.9338 7.64456L28.9338 7.64457L29.2261 7.23888ZM28.0453 6.7689L27.9795 7.26454H27.9795L28.0453 6.7689ZM26.5151 7.26494L26.1616 6.91139L26.5151 7.26494ZM26.0189 8.8355L25.5228 8.89807V8.89807L26.0189 8.8355ZM26.4839 10.0804L26.8999 9.80305L26.8999 9.80304L26.4839 10.0804ZM26.4976 10.101L26.0816 10.3783L26.109 10.4195L26.1441 10.4545L26.4976 10.101ZM26.5151 10.1185L26.1616 10.472L26.1616 10.4721L26.5151 10.1185ZM30.9419 14.5453H31.4419V14.3382L31.2955 14.1917L30.9419 14.5453ZM30.9419 17.3388L31.2955 17.6923L31.4419 17.5459V17.3388H30.9419ZM27.5887 20.6919V21.1919H27.7958L27.9423 21.0455L27.5887 20.6919ZM20.7862 20.6919L20.457 21.0682L20.5984 21.1919H20.7862V20.6919ZM17.442 17.7656H16.942V17.9925L17.1128 18.1419L17.442 17.7656ZM17.442 15.0453L17.0885 14.6918L16.942 14.8382V15.0453H17.442ZM21.8688 10.6185L22.2224 10.9721L22.2224 10.9721L21.8688 10.6185ZM21.8863 10.601L22.2399 10.9546L22.2749 10.9196L22.3023 10.8784L21.8863 10.601ZM21.9 10.5804L21.484 10.3031L21.484 10.3031L21.9 10.5804ZM22.3651 9.33554L22.8611 9.39811V9.39811L22.3651 9.33554ZM21.8688 7.76498L22.2224 7.41143L21.8688 7.76498ZM20.3386 7.26894L20.4044 7.76458H20.4044L20.3386 7.26894ZM19.1578 7.73892L19.4501 8.1446L19.4501 8.1446L19.1578 7.73892ZM19.1428 7.7497L18.8506 7.34401L18.8206 7.36558L18.7942 7.39131L19.1428 7.7497ZM19.1296 7.76256L19.4783 8.12095L19.4783 8.12095L19.1296 7.76256ZM15.0905 11.6919V12.1919H15.2936L15.4391 12.0503L15.0905 11.6919ZM9.29146 11.6919L8.94804 12.0553L9.09259 12.1919H9.29146V11.6919ZM5.13092 7.76023L4.7875 8.12363L4.7875 8.12363L5.13092 7.76023ZM5.12281 7.75257L5.46623 7.38916L5.45001 7.37383L5.43248 7.36001L5.12281 7.75257ZM5.11405 7.74566L4.80436 8.13821L4.80437 8.13821L5.11405 7.74566ZM4.00185 7.26938L4.07159 6.77427L4.00185 7.26938ZM2.51485 7.76515L2.1613 7.4116H2.1613L2.51485 7.76515ZM2.01859 9.33572L2.51466 9.27315L2.01859 9.33572ZM2.48362 10.5806L2.89964 10.3033L2.48362 10.5806ZM2.49735 10.6012L2.08133 10.8786L2.10881 10.9198L2.14384 10.9548L2.49735 10.6012ZM2.51487 10.6187L2.86839 10.2651L2.86838 10.2651L2.51487 10.6187ZM6.94229 15.0453H7.44229V14.8382L7.29581 14.6917L6.94229 15.0453ZM6.94229 30.9419L7.44229 30.942V30.9419H6.94229ZM7.38911 32.338L7.79491 32.0459H7.79491L7.38911 32.338ZM10.9726 32.5526L11.3332 32.8989L11.3332 32.8989L10.9726 32.5526ZM11.4423 23.1919V22.6919H10.9423V23.1919H11.4423ZM12.9423 23.1919H13.4423V22.6919H12.9423V23.1919ZM13.3894 32.338L13.7952 32.0459L13.3894 32.338ZM16.9952 32.338L16.5894 32.0459L16.9952 32.338ZM17.4423 22.2367L17.796 21.8833L16.9423 21.0288V22.2367H17.4423ZM19.1713 23.9672H19.6713V23.7602L19.525 23.6138L19.1713 23.9672ZM19.1713 39.9282L19.6685 39.9813L19.6713 39.9548V39.9282H19.1713ZM19.4643 41.3214L19.892 41.0624H19.892L19.4643 41.3214ZM22.9952 41.338L22.5894 41.0459L22.9952 41.338ZM23.4423 31.9336V31.4336H22.9423V31.9336H23.4423ZM25.0984 31.9336H25.5984V31.4336H25.0984V31.9336ZM25.0984 40.1012L25.5968 40.1403L25.5984 40.1208V40.1012H25.0984ZM25.4461 41.399L25.0368 41.6861L25.4461 41.399ZM28.9888 41.41L29.3818 41.7192L28.9888 41.41ZM16.942 17.3281L16.6128 17.7044L17.442 18.43V17.3281H16.942ZM16.8629 17.2588L16.5115 17.6146L16.5223 17.6252L16.5336 17.6351L16.8629 17.2588ZM15.9074 16.7701L15.8271 17.2636L15.9074 16.7701ZM14.5155 17.2652L14.162 16.9116H14.162L14.5155 17.2652ZM14.0205 18.6571L13.527 18.7374L14.0205 18.6571ZM14.5155 19.6187L14.8691 19.2652H14.8691L14.5155 19.6187ZM14.5213 19.6245L14.1678 19.9781L14.1794 19.9897L14.1918 20.0006L14.5213 19.6245ZM14.5275 19.6299L14.8571 19.2539L14.857 19.2539L14.5275 19.6299ZM16.9423 21.7461H17.4423V21.5194L17.2718 21.37L16.9423 21.7461ZM16.5894 32.0459L16.1836 31.7537L16.5894 32.0459ZM13.7952 32.0459L14.2009 31.7537L13.7952 32.0459ZM13.4423 22.6919H13.9423V22.1919H13.4423V22.6919ZM10.9423 22.6919V22.1919H10.4423V22.6919H10.9423ZM10.6119 32.2063L10.2512 31.86L10.2512 31.86L10.6119 32.2063ZM7.79491 32.0459L8.20071 31.7538H8.20071L7.79491 32.0459ZM7.44229 30.942L7.94229 30.9421V30.942H7.44229ZM7.44229 14.8382H7.94229V14.6311L7.79581 14.4846L7.44229 14.8382ZM7.36905 14.765L7.72257 14.4114L7.72257 14.4114L7.36905 14.765ZM2.88649 10.2832L2.46677 10.555L2.49554 10.5994L2.53297 10.6368L2.88649 10.2832ZM2.51466 9.27315L2.01859 9.33572H2.01859L2.51466 9.27315ZM2.86841 8.11871L3.22196 8.47226L3.22196 8.47226L2.86841 8.11871ZM3.9321 7.76449L4.00185 7.26938L4.00184 7.26938L3.9321 7.76449ZM4.79596 8.13163L5.13937 7.76822L5.1217 7.75152L5.10249 7.73661L4.79596 8.13163ZM9.02031 12.1236L9.36373 11.7602L9.36373 11.7602L9.02031 12.1236ZM9.09259 12.1919L8.74917 12.5553L8.89371 12.6919H9.09259V12.1919ZM15.2936 12.1919V12.6919H15.4966L15.6422 12.5503L15.2936 12.1919ZM15.3663 12.1211L15.0177 11.7627L15.3663 12.1211ZM19.4645 8.1343L19.1769 7.72531L19.1444 7.74818L19.1159 7.77591L19.4645 8.1343ZM20.4044 7.76458L20.3386 7.26894H20.3386L20.4044 7.76458ZM21.5152 8.11854L21.8688 7.76498L21.5152 8.11854ZM21.869 9.27297L22.3651 9.33554V9.33554L21.869 9.27297ZM21.4972 10.2831L21.8507 10.6366L21.8881 10.5992L21.9169 10.5548L21.4972 10.2831ZM17.0152 14.765L17.3688 15.1185L17.0152 14.765ZM16.942 14.8382L16.5885 14.4847L16.442 14.6311V14.8382H16.942ZM15.8271 17.2636L15.7469 17.7571L15.8271 17.2636ZM14.8691 17.6187L15.2226 17.9723L15.2226 17.9723L14.8691 17.6187ZM16.5155 17.6185L16.8691 17.265L16.8691 17.265L16.5155 17.6185ZM16.5214 17.6244L16.1679 17.978L16.1796 17.9898L16.1922 18.0007L16.5214 17.6244ZM16.5277 17.6299L16.8569 17.2536L16.8569 17.2536L16.5277 17.6299ZM20.5277 21.1301L20.1984 21.5063L20.1984 21.5064L20.5277 21.1301ZM20.5984 21.1919L20.2691 21.5682L20.4105 21.6919H20.5984V21.1919ZM27.7958 21.1919V21.6919H28.003L28.1494 21.5455L27.7958 21.1919ZM32.0575 17.2637L31.9771 16.7702L32.0575 17.2637ZM33.0155 17.6187L32.662 17.9723V17.9723L33.0155 17.6187ZM33.3705 18.5768L32.877 18.4964V18.4964L33.3705 18.5768ZM28.9423 23.3384L28.5887 22.9848L28.4423 23.1313V23.3384H28.9423ZM28.5958 41.1009L28.2028 40.7918V40.7918L28.5958 41.1009ZM25.8555 41.1119L26.2648 40.8248L26.2648 40.8248L25.8555 41.1119ZM25.5975 40.1326L25.0993 40.0901V40.0901L25.5975 40.1326ZM25.5984 40.122L26.0966 40.1645L26.0984 40.1433V40.122H25.5984ZM25.5984 31.4336H26.0984V30.9336H25.5984V31.4336ZM22.9423 31.4336V30.9336H22.4423V31.4336H22.9423ZM22.5894 41.0459L22.9952 41.338L22.5894 41.0459ZM19.892 41.0624L19.4643 41.3214H19.4643L19.892 41.0624ZM19.6697 39.9704L19.1729 39.9135L19.1729 39.9135L19.6697 39.9704ZM19.6713 39.9562L20.168 40.0131L20.1713 39.9847V39.9562H19.6713ZM19.6713 23.7602H20.1713V23.5532L20.025 23.4068L19.6713 23.7602ZM19.5981 23.687L19.9519 23.3336H19.9519L19.5981 23.687ZM17.3691 21.456L17.0154 21.8094L17.0154 21.8094L17.3691 21.456ZM17.3633 21.4502L17.717 21.0968L17.7053 21.0851L17.6928 21.0741L17.3633 21.4502ZM17.3571 21.4447L17.6866 21.0687L17.6866 21.0687L17.3571 21.4447ZM14.8636 19.2596L14.5072 19.6103L14.5202 19.6235L14.5341 19.6357L14.8636 19.2596ZM14.514 18.5768L14.0205 18.6571L14.514 18.5768ZM36.1923 10C38.4014 10 40.1923 8.20914 40.1923 6H39.1923C39.1923 7.65685 37.8491 9 36.1923 9V10ZM32.1923 6C32.1923 8.20914 33.9832 10 36.1923 10V9C34.5354 9 33.1923 7.65685 33.1923 6H32.1923ZM36.1923 2C33.9832 2 32.1923 3.79086 32.1923 6H33.1923C33.1923 4.34315 34.5354 3 36.1923 3V2ZM40.1923 6C40.1923 3.79086 38.4014 2 36.1923 2V3C37.8491 3 39.1923 4.34315 39.1923 6H40.1923ZM36.1923 10.5C38.6776 10.5 40.6923 8.48528 40.6923 6H39.6923C39.6923 7.933 38.1253 9.5 36.1923 9.5V10.5ZM31.6923 6C31.6923 8.48528 33.707 10.5 36.1923 10.5V9.5C34.2593 9.5 32.6923 7.933 32.6923 6H31.6923ZM36.1923 1.5C33.707 1.5 31.6923 3.51472 31.6923 6H32.6923C32.6923 4.067 34.2593 2.5 36.1923 2.5V1.5ZM40.6923 6C40.6923 3.51472 38.6776 1.5 36.1923 1.5V2.5C38.1253 2.5 39.6923 4.067 39.6923 6H40.6923ZM12.1923 11C14.4014 11 16.1923 9.20914 16.1923 7H15.1923C15.1923 8.65685 13.8491 10 12.1923 10V11ZM8.19229 7C8.19229 9.20914 9.98315 11 12.1923 11V10C10.5354 10 9.19229 8.65685 9.19229 7H8.19229ZM12.1923 3C9.98315 3 8.19229 4.79086 8.19229 7H9.19229C9.19229 5.34315 10.5354 4 12.1923 4V3ZM16.1923 7C16.1923 4.79086 14.4014 3 12.1923 3V4C13.8491 4 15.1923 5.34315 15.1923 7H16.1923ZM12.1923 11.5C14.6776 11.5 16.6923 9.48528 16.6923 7H15.6923C15.6923 8.933 14.1253 10.5 12.1923 10.5V11.5ZM7.69229 7C7.69229 9.48528 9.70701 11.5 12.1923 11.5V10.5C10.2593 10.5 8.69229 8.933 8.69229 7H7.69229ZM12.1923 2.5C9.70701 2.5 7.69229 4.51472 7.69229 7H8.69229C8.69229 5.067 10.2593 3.5 12.1923 3.5V2.5ZM16.6923 7C16.6923 4.51472 14.6776 2.5 12.1923 2.5V3.5C14.1253 3.5 15.6923 5.067 15.6923 7H16.6923ZM28.0453 6.7689C27.5484 6.7029 26.9827 6.79741 26.5151 7.26494L27.2222 7.97205C27.4189 7.7754 27.6464 7.7247 27.9137 7.76019L28.0453 6.7689ZM29.207 7.22527C28.9489 7.04375 28.5228 6.83232 28.0453 6.7689L27.9137 7.76019C28.1985 7.79802 28.4751 7.9331 28.6318 8.04327L29.207 7.22527ZM33.3662 11.2627L29.268 7.27588L28.5707 7.99266L32.6689 11.9795L33.3662 11.2627ZM33.439 11.3335L33.3662 11.2627L32.6689 11.9795L32.7417 12.0503L33.439 11.3335ZM33.1919 11.1919H33.0904V12.1919H33.1919V11.1919ZM39.1919 11.1919H33.1919V12.1919H39.1919V11.1919ZM39.2913 11.1919H39.1919V12.1919H39.2913V11.1919ZM39.0202 11.2602L38.9479 11.3285L39.6348 12.0553L39.707 11.987L39.0202 11.2602ZM43.2445 7.26819L39.0202 11.2602L39.707 11.987L43.9314 7.99501L43.2445 7.26819ZM44.3821 6.76934C43.922 6.83415 43.5202 7.05124 43.2814 7.23659L43.8945 8.02661C44.0269 7.92382 44.2696 7.79506 44.5216 7.75956L44.3821 6.76934ZM45.8691 7.26512C45.4042 6.80029 44.8599 6.70203 44.3821 6.76934L44.5216 7.75956C44.7455 7.72802 44.9571 7.76732 45.162 7.97222L45.8691 7.26512ZM46.3653 8.83568C46.4303 8.32072 46.3389 7.73493 45.8691 7.26512L45.162 7.97223C45.3517 8.16201 45.4118 8.40399 45.3732 8.71054L46.3653 8.83568ZM45.9172 10.0549C46.0958 9.77901 46.303 9.33017 46.3653 8.83568L45.3732 8.71054C45.3336 9.02468 45.1937 9.33237 45.0777 9.51147L45.9172 10.0549ZM41.3684 14.6185L45.851 10.1368L45.1439 9.42961L40.6614 13.9113L41.3684 14.6185ZM41.2952 14.6917L41.3684 14.6185L40.6613 13.9113L40.5881 13.9846L41.2952 14.6917ZM41.4416 14.4417V14.3382H40.4416V14.4417H41.4416ZM41.4416 30.4419V14.4417H40.4416V30.4419H41.4416ZM41.4416 30.442V30.4419H40.4416V30.442H41.4416ZM40.9948 31.8379C41.3319 31.3697 41.4417 30.8153 41.4416 30.4418L40.4416 30.4421C40.4417 30.6553 40.3717 30.9919 40.1832 31.2537L40.9948 31.8379ZM39.1919 32.6919C40.0734 32.6919 40.6485 32.319 40.9948 31.8379L40.1832 31.2537C40.0224 31.4772 39.7476 31.6919 39.1919 31.6919V32.6919ZM37.4113 32.0525C37.7665 32.4225 38.3362 32.6919 39.1919 32.6919V31.6919C38.5581 31.6919 38.267 31.4999 38.1327 31.36L37.4113 32.0525ZM36.9416 30.9419C36.9416 31.2498 37.0622 31.6889 37.4114 32.0525L38.1327 31.36C37.9801 31.2011 37.9416 31.0185 37.9416 30.9419H36.9416ZM36.9416 22.4419V30.9419H37.9416V22.4419H36.9416ZM36.9416 22.1919V22.4419H37.9416V22.1919H36.9416ZM37.1916 22.6919H37.4416V21.6919H37.1916V22.6919ZM35.1916 22.6919H37.1916V21.6919H35.1916V22.6919ZM34.9416 22.6919H35.1916V21.6919H34.9416V22.6919ZM35.4416 22.4419V22.1919H34.4416V22.4419H35.4416ZM35.4416 30.4419V22.4419H34.4416V30.4419H35.4416ZM34.9945 31.838C35.3316 31.3697 35.4416 30.8153 35.4416 30.4419H34.4416C34.4416 30.6551 34.3715 30.9918 34.183 31.2537L34.9945 31.838ZM33.1916 32.6919C34.0731 32.6919 34.6481 32.319 34.9945 31.838L34.183 31.2537C34.022 31.4772 33.7472 31.6919 33.1916 31.6919V32.6919ZM31.3887 31.838C31.7351 32.319 32.3102 32.6919 33.1916 32.6919V31.6919C32.636 31.6919 32.3612 31.4772 32.2003 31.2537L31.3887 31.838ZM30.9416 30.4419C30.9416 30.8153 31.0516 31.3697 31.3887 31.838L32.2003 31.2537C32.0117 30.9918 31.9416 30.6551 31.9416 30.4419H30.9416ZM30.9423 21.5455L30.9416 30.4419L31.9416 30.4419L31.9423 21.5455L30.9423 21.5455ZM33.0155 19.2652L31.0887 21.1919L31.7958 21.899L33.7226 19.9723L33.0155 19.2652ZM33.3705 18.5768C33.3224 18.8722 33.154 19.1267 33.0155 19.2652L33.7226 19.9723C33.9741 19.7208 34.2685 19.2842 34.3575 18.7374L33.3705 18.5768ZM33.0155 17.6187C33.3579 17.9611 33.4161 18.2967 33.3705 18.5768L34.3575 18.7374C34.4541 18.1443 34.2955 17.4845 33.7226 16.9116L33.0155 17.6187ZM32.0575 17.2637C32.3375 17.2181 32.6732 17.2763 33.0155 17.6187L33.7226 16.9116C33.1498 16.3387 32.49 16.1801 31.8968 16.2767L32.0575 17.2637ZM31.6768 17.3951C31.7929 17.3333 31.9219 17.2857 32.0575 17.2637L31.8968 16.2767C31.637 16.319 31.4041 16.4075 31.207 16.5123L31.6768 17.3951ZM30.9419 14.4417V16.9537H31.9419V14.4417H30.9419ZM30.9419 14.3382V14.4417H31.9419V14.3382H30.9419ZM31.0151 14.6185L31.0883 14.6917L31.7955 13.9846L31.7222 13.9114L31.0151 14.6185ZM26.5332 10.1366L31.0151 14.6185L31.7222 13.9114L27.2403 9.42948L26.5332 10.1366ZM26.0189 8.83551C26.0812 9.33001 26.2884 9.77885 26.467 10.0548L27.3065 9.51131C27.1905 9.33221 27.0506 9.02451 27.011 8.71037L26.0189 8.83551ZM26.5151 7.26494C26.0453 7.73475 25.9539 8.32055 26.0189 8.83551L27.011 8.71037C26.9723 8.40381 27.0324 8.16184 27.2222 7.97205L26.5151 7.26494ZM30.5887 21.692L29.0887 23.1919L29.7958 23.899L31.2958 22.3991L30.5887 21.692ZM31.4416 30.4419L31.4422 22.0456L30.4422 22.0455L30.4416 30.4418L31.4416 30.4419ZM31.7945 31.5458C31.5317 31.1808 31.4416 30.7353 31.4416 30.4419H30.4416C30.4416 30.8952 30.5714 31.5585 30.983 32.1301L31.7945 31.5458ZM33.1916 32.1919C32.4731 32.1919 32.0482 31.8981 31.7945 31.5458L30.983 32.1301C31.422 32.7399 32.1472 33.1919 33.1916 33.1919V32.1919ZM34.5887 31.5458C34.3351 31.8981 33.9101 32.1919 33.1916 32.1919V33.1919C34.2361 33.1919 34.9613 32.7399 35.4003 32.1301L34.5887 31.5458ZM34.9416 30.4419C34.9416 30.7353 34.8515 31.1808 34.5887 31.5458L35.4003 32.1301C35.8118 31.5585 35.9416 30.8952 35.9416 30.4419H34.9416ZM34.9416 22.6919V30.4419H35.9416V22.6919H34.9416ZM36.9416 22.1919H35.4416V23.1919H36.9416V22.1919ZM37.4416 30.9419V22.6919H36.4416V30.9419H37.4416ZM37.772 31.7062C37.5213 31.4451 37.4416 31.1343 37.4416 30.9419H36.4416C36.4416 31.365 36.603 31.9325 37.0507 32.3988L37.772 31.7062ZM39.1919 32.1919C38.447 32.1919 38.0167 31.9611 37.772 31.7063L37.0507 32.3988C37.5166 32.8841 38.2259 33.1919 39.1919 33.1919V32.1919ZM40.589 31.5458C40.3354 31.8981 39.9105 32.1919 39.1919 32.1919V33.1919C40.2364 33.1919 40.9616 32.7399 41.4006 32.1301L40.589 31.5458ZM40.9416 30.442C40.9417 30.7354 40.8517 31.1809 40.589 31.5458L41.4006 32.1301C41.8121 31.5584 41.9417 30.8951 41.9416 30.4418L40.9416 30.442ZM40.9416 30.4418V30.4419H41.9416V30.4418H40.9416ZM40.9416 14.5453V30.4418H41.9416V14.5453H40.9416ZM45.5155 9.7651L41.0881 14.1917L41.7952 14.8989L46.2226 10.4723L45.5155 9.7651ZM45.533 9.7476L45.5155 9.76511L46.2226 10.4723L46.2401 10.4547L45.533 9.7476ZM45.4843 9.80324L45.4705 9.82384L46.3026 10.3785L46.3163 10.3579L45.4843 9.80324ZM45.8693 8.77311C45.8167 9.18951 45.6342 9.5783 45.4843 9.80322L46.3163 10.3579C46.5332 10.0326 46.7856 9.49901 46.8614 8.89824L45.8693 8.77311ZM45.5155 7.61867C45.845 7.94819 45.9211 8.36184 45.8693 8.77311L46.8614 8.89825C46.9392 8.28103 46.8335 7.52245 46.2226 6.91156L45.5155 7.61867ZM44.4518 7.26445C44.803 7.21497 45.1809 7.28403 45.5155 7.61867L46.2226 6.91156C45.627 6.31593 44.9157 6.18923 44.3123 6.27423L44.4518 7.26445ZM43.5796 7.63817C43.7638 7.49281 44.0904 7.31537 44.4518 7.26445L44.3123 6.27423C43.7404 6.3548 43.2525 6.62243 42.9602 6.85307L43.5796 7.63817ZM43.5708 7.64509L43.5795 7.63818L42.9602 6.85306L42.9514 6.85997L43.5708 7.64509ZM43.5965 7.62355L43.6046 7.61589L42.9176 6.88917L42.9095 6.89683L43.5965 7.62355ZM39.4359 11.5553L43.5964 7.6236L42.9096 6.89679L38.749 10.8285L39.4359 11.5553ZM33.2934 11.6919H39.0925V10.6919H33.2934V11.6919ZM28.9056 7.62092L32.9448 11.5503L33.6421 10.8335L29.6029 6.90414L28.9056 7.62092ZM28.8924 7.60805L28.9056 7.62091L29.603 6.90414L29.5897 6.89128L28.8924 7.60805ZM28.9338 7.64457L28.9488 7.65535L29.5333 6.84397L29.5184 6.83319L28.9338 7.64457ZM27.9795 7.26454C28.3696 7.31636 28.7285 7.49667 28.9338 7.64456L29.5184 6.83319C29.2088 6.61018 28.6974 6.35112 28.1112 6.27325L27.9795 7.26454ZM26.8687 7.6185C27.2005 7.28667 27.597 7.21373 27.9795 7.26454L28.1112 6.27325C27.5011 6.19222 26.7655 6.30741 26.1616 6.91139L26.8687 7.6185ZM26.5149 8.77294C26.4631 8.36166 26.5392 7.94801 26.8687 7.6185L26.1616 6.91139C25.5507 7.52228 25.4449 8.28086 25.5228 8.89807L26.5149 8.77294ZM26.8999 9.80304C26.75 9.57813 26.5675 9.18934 26.5149 8.77294L25.5228 8.89807C25.5986 9.49884 25.851 10.0325 26.0679 10.3577L26.8999 9.80304ZM26.9136 9.82365L26.8999 9.80305L26.0679 10.3577L26.0816 10.3783L26.9136 9.82365ZM26.8687 9.76495L26.8512 9.74745L26.1441 10.4545L26.1616 10.472L26.8687 9.76495ZM31.2955 14.1917L26.8687 9.76494L26.1616 10.4721L30.5883 14.8988L31.2955 14.1917ZM31.4419 17.3388V14.5453H30.4419V17.3388H31.4419ZM27.9423 21.0455L31.2955 17.6923L30.5883 16.9852L27.2352 20.3384L27.9423 21.0455ZM20.7862 21.1919H27.5887V20.1919H20.7862V21.1919ZM17.1128 18.1419L20.457 21.0682L21.1155 20.3156L17.7713 17.3893L17.1128 18.1419ZM16.942 15.0453V17.7656H17.942V15.0453H16.942ZM21.5152 10.265L17.0885 14.6918L17.7956 15.3989L22.2224 10.9721L21.5152 10.265ZM21.5327 10.2475L21.5152 10.265L22.2224 10.9721L22.2399 10.9546L21.5327 10.2475ZM21.484 10.3031L21.4703 10.3237L22.3023 10.8784L22.3161 10.8578L21.484 10.3031ZM21.869 9.27297C21.8165 9.68938 21.634 10.0782 21.484 10.3031L22.3161 10.8578C22.5329 10.5325 22.7854 9.99887 22.8611 9.39811L21.869 9.27297ZM21.5152 8.11854C21.8448 8.44805 21.9209 8.8617 21.869 9.27298L22.8611 9.39811C22.939 8.7809 22.8332 8.02232 22.2224 7.41143L21.5152 8.11854ZM20.4044 7.76458C20.7869 7.71377 21.1834 7.7867 21.5152 8.11854L22.2224 7.41143C21.6184 6.80745 20.8828 6.69226 20.2727 6.77329L20.4044 7.76458ZM19.4501 8.1446C19.6554 7.99671 20.0143 7.8164 20.4044 7.76458L20.2727 6.77329C19.6865 6.85116 19.1751 7.11021 18.8655 7.33323L19.4501 8.1446ZM19.4351 8.15539L19.4501 8.1446L18.8656 7.33323L18.8506 7.34401L19.4351 8.15539ZM19.4783 8.12095L19.4915 8.10808L18.7942 7.39131L18.781 7.40418L19.4783 8.12095ZM15.4391 12.0503L19.4783 8.12095L18.781 7.40417L14.7418 11.3335L15.4391 12.0503ZM9.29146 12.1919H15.0905V11.1919H9.29146V12.1919ZM4.7875 8.12363L8.94804 12.0553L9.63488 11.3285L5.47433 7.39682L4.7875 8.12363ZM4.77939 8.11597L4.7875 8.12363L5.47434 7.39683L5.46623 7.38916L4.77939 8.11597ZM4.80437 8.13821L4.81313 8.14512L5.43248 7.36001L5.42373 7.3531L4.80437 8.13821ZM3.9321 7.76449C4.29352 7.8154 4.62011 7.99284 4.80436 8.13821L5.42373 7.35311C5.13139 7.12247 4.64355 6.85484 4.07159 6.77427L3.9321 7.76449ZM2.86841 8.11871C3.20305 7.78407 3.58087 7.71501 3.9321 7.76449L4.07159 6.77427C3.46822 6.68926 2.75693 6.81597 2.1613 7.4116L2.86841 8.11871ZM2.51466 9.27315C2.46279 8.86187 2.53889 8.44822 2.86841 8.11871L2.1613 7.4116C1.55041 8.02249 1.44468 8.78107 1.52252 9.39828L2.51466 9.27315ZM2.89964 10.3033C2.7497 10.0783 2.56718 9.68955 2.51466 9.27315L1.52252 9.39828C1.5983 9.99905 1.85074 10.5327 2.06759 10.858L2.89964 10.3033ZM2.91338 10.3239L2.89964 10.3033L2.06759 10.858L2.08133 10.8786L2.91338 10.3239ZM2.86838 10.2651L2.85087 10.2476L2.14384 10.9548L2.16135 10.9723L2.86838 10.2651ZM7.29581 14.6917L2.86839 10.2651L2.16135 10.9723L6.58877 15.3989L7.29581 14.6917ZM7.44229 30.9419V15.0453H6.44229V30.9419H7.44229ZM7.44229 30.9419V30.9419H6.44229V30.9419H7.44229ZM7.79491 32.0459C7.53221 31.6809 7.44222 31.2355 7.44229 30.942L6.44229 30.9418C6.44218 31.3951 6.57183 32.0585 6.98331 32.6301L7.79491 32.0459ZM9.19202 32.6919C8.47341 32.6919 8.04849 32.3982 7.79491 32.0459L6.98331 32.6301C7.4223 33.24 8.14748 33.6919 9.19202 33.6919V32.6919ZM10.6119 32.2063C10.3672 32.4611 9.93694 32.6919 9.19202 32.6919V33.6919C10.158 33.6919 10.8673 33.3842 11.3332 32.8989L10.6119 32.2063ZM10.9423 31.4419C10.9423 31.6343 10.8627 31.9451 10.6119 32.2063L11.3332 32.8989C11.781 32.4326 11.9423 31.865 11.9423 31.4419H10.9423ZM10.9423 23.1919V31.4419H11.9423V23.1919H10.9423ZM12.9423 22.6919H11.4423V23.6919H12.9423V22.6919ZM13.4423 30.9419V23.1919H12.4423V30.9419H13.4423ZM13.7952 32.0459C13.5324 31.6809 13.4423 31.2353 13.4423 30.9419H12.4423C12.4423 31.3952 12.5721 32.0586 12.9836 32.6302L13.7952 32.0459ZM15.1923 32.6919C14.4738 32.6919 14.0488 32.3982 13.7952 32.0459L12.9836 32.6302C13.4227 33.2399 14.1478 33.6919 15.1923 33.6919V32.6919ZM16.5894 32.0459C16.3357 32.3982 15.9108 32.6919 15.1923 32.6919V33.6919C16.2368 33.6919 16.9619 33.2399 17.4009 32.6302L16.5894 32.0459ZM16.9423 30.9419C16.9423 31.2353 16.8522 31.6809 16.5894 32.0459L17.4009 32.6302C17.8125 32.0586 17.9423 31.3952 17.9423 30.9419H16.9423ZM16.9423 22.2367V30.9419H17.9423V22.2367H16.9423ZM19.525 23.6138L17.796 21.8833L17.0886 22.5901L18.8176 24.3206L19.525 23.6138ZM19.6713 39.9282V23.9672H18.6713V39.9282H19.6713ZM19.892 41.0624C19.6792 40.711 19.6368 40.2777 19.6685 39.9813L18.6741 39.875C18.6265 40.3211 18.6795 40.9906 19.0366 41.5804L19.892 41.0624ZM21.1923 41.6919C20.4751 41.6919 20.0967 41.4004 19.892 41.0624L19.0366 41.5804C19.4317 42.2329 20.1436 42.6919 21.1923 42.6919V41.6919ZM22.5894 41.0459C22.3357 41.3982 21.9108 41.6919 21.1923 41.6919V42.6919C22.2368 42.6919 22.9619 42.2399 23.4009 41.6302L22.5894 41.0459ZM22.9423 39.9419C22.9423 40.2353 22.8522 40.6809 22.5894 41.0459L23.4009 41.6302C23.8125 41.0586 23.9423 40.3952 23.9423 39.9419H22.9423ZM22.9423 31.9336V39.9419H23.9423V31.9336H22.9423ZM25.0984 31.4336H23.4423V32.4336H25.0984V31.4336ZM25.5984 40.1012V31.9336H24.5984V40.1012H25.5984ZM25.8555 41.1119C25.632 40.7933 25.5762 40.403 25.5968 40.1403L24.5999 40.062C24.5658 40.4963 24.649 41.1332 25.0368 41.6861L25.8555 41.1119ZM27.1923 41.6919C26.465 41.6919 26.0714 41.4197 25.8555 41.1119L25.0368 41.6861C25.4589 42.288 26.1738 42.6919 27.1923 42.6919V41.6919ZM28.5958 41.1009C28.3457 41.4188 27.9198 41.6919 27.1923 41.6919V42.6919C28.2098 42.6919 28.932 42.2909 29.3818 41.7192L28.5958 41.1009ZM28.9423 40.1114C28.9423 40.3718 28.8547 40.7718 28.5958 41.1009L29.3818 41.7192C29.805 41.1812 29.9423 40.5507 29.9423 40.1114H28.9423ZM28.9423 23.5455V40.1114H29.9423V23.5455H28.9423ZM17.442 17.3281V14.9418H16.442V17.3281H17.442ZM16.5336 17.6351L16.6128 17.7044L17.2713 16.9518L17.1921 16.8825L16.5336 17.6351ZM15.8271 17.2636C16.1193 17.3111 16.3716 17.4764 16.5115 17.6146L17.2142 16.9031C16.9621 16.654 16.529 16.3647 15.9877 16.2766L15.8271 17.2636ZM14.8691 17.6187C15.2114 17.2763 15.5471 17.2181 15.8271 17.2636L15.9877 16.2766C15.3946 16.1801 14.7348 16.3388 14.162 16.9116L14.8691 17.6187ZM14.514 18.5768C14.4684 18.2967 14.5267 17.9611 14.8691 17.6187L14.162 16.9116C13.5891 17.4845 13.4305 18.1443 13.527 18.7374L14.514 18.5768ZM14.8691 19.2652C14.7306 19.1267 14.5621 18.8722 14.514 18.5768L13.527 18.7374C13.616 19.2842 13.9105 19.7208 14.162 19.9723L14.8691 19.2652ZM14.8749 19.271L14.8691 19.2652L14.162 19.9723L14.1678 19.9781L14.8749 19.271ZM14.857 19.2539L14.8509 19.2485L14.1918 20.0006L14.198 20.006L14.857 19.2539ZM17.2718 21.37L14.8571 19.2539L14.198 20.006L16.6128 22.1221L17.2718 21.37ZM17.4423 30.9419V21.7461H16.4423V30.9419H17.4423ZM16.9952 32.338C17.3323 31.8698 17.4423 31.3154 17.4423 30.9419H16.4423C16.4423 31.1551 16.3722 31.4918 16.1836 31.7537L16.9952 32.338ZM15.1923 33.1919C16.0737 33.1919 16.6488 32.8191 16.9952 32.338L16.1836 31.7537C16.0227 31.9772 15.7479 32.1919 15.1923 32.1919V33.1919ZM13.3894 32.338C13.7358 32.8191 14.3108 33.1919 15.1923 33.1919V32.1919C14.6367 32.1919 14.3619 31.9772 14.2009 31.7537L13.3894 32.338ZM12.9423 30.9419C12.9423 31.3154 13.0523 31.8698 13.3894 32.338L14.2009 31.7537C14.0124 31.4918 13.9423 31.1551 13.9423 30.9419H12.9423ZM12.9423 22.9419V30.9419H13.9423V22.9419H12.9423ZM12.9423 22.6919V22.9419H13.9423V22.6919H12.9423ZM13.1923 23.1919H13.4423V22.1919H13.1923V23.1919ZM11.1923 23.1919H13.1923V22.1919H11.1923V23.1919ZM10.9423 23.1919H11.1923V22.1919H10.9423V23.1919ZM11.4423 22.9419V22.6919H10.4423V22.9419H11.4423ZM11.4423 31.4419V22.9419H10.4423V31.4419H11.4423ZM10.9726 32.5526C11.3217 32.1889 11.4423 31.7498 11.4423 31.4419H10.4423C10.4423 31.5185 10.4038 31.7011 10.2512 31.86L10.9726 32.5526ZM9.19202 33.1919C10.0477 33.1919 10.6174 32.9225 10.9726 32.5526L10.2512 31.86C10.1169 31.9999 9.82584 32.1919 9.19202 32.1919V33.1919ZM7.38911 32.338C7.73541 32.8191 8.31048 33.1919 9.19202 33.1919V32.1919C8.6363 32.1919 8.36154 31.9772 8.20071 31.7538L7.38911 32.338ZM6.94229 30.9419C6.94219 31.3153 7.05205 31.8697 7.38911 32.338L8.20071 31.7538C8.01226 31.492 7.94223 31.1553 7.94229 30.9421L6.94229 30.9419ZM6.94229 30.9419V30.942H7.94229V30.9419H6.94229ZM6.94229 14.9418V30.9419H7.94229V14.9418H6.94229ZM6.94229 14.8382V14.9418H7.94229V14.8382H6.94229ZM7.01553 15.1185L7.08877 15.1918L7.79581 14.4846L7.72257 14.4114L7.01553 15.1185ZM2.53297 10.6368L7.01553 15.1186L7.72257 14.4114L3.24001 9.92965L2.53297 10.6368ZM2.01859 9.33572C2.08096 9.83021 2.28815 10.2791 2.46677 10.555L3.30621 10.0115C3.19027 9.83242 3.05035 9.52472 3.01073 9.21058L2.01859 9.33572ZM2.51485 7.76515C2.04504 8.23496 1.95364 8.82076 2.01859 9.33572L3.01073 9.21058C2.97207 8.90402 3.03217 8.66205 3.22196 8.47226L2.51485 7.76515ZM4.00184 7.26938C3.52404 7.20206 2.97968 7.30033 2.51485 7.76516L3.22196 8.47226C3.42686 8.26736 3.63844 8.22806 3.86235 8.2596L4.00184 7.26938ZM5.10249 7.73661C4.86365 7.55127 4.46189 7.33419 4.00185 7.26938L3.86235 8.2596C4.11436 8.2951 4.35696 8.42385 4.48942 8.52664L5.10249 7.73661ZM9.36373 11.7602L5.13937 7.76822L4.45254 8.49503L8.6769 12.487L9.36373 11.7602ZM9.436 11.8285L9.36373 11.7602L8.6769 12.487L8.74917 12.5553L9.436 11.8285ZM9.19202 11.6919H9.09259V12.6919H9.19202V11.6919ZM15.192 11.6919H9.19202V12.6919H15.192V11.6919ZM15.2936 11.6919H15.192V12.6919H15.2936V11.6919ZM15.0177 11.7627L14.9449 11.8335L15.6422 12.5503L15.715 12.4795L15.0177 11.7627ZM19.1159 7.77591L15.0177 11.7627L15.715 12.4795L19.8132 8.49269L19.1159 7.77591ZM20.3386 7.26894C19.8611 7.33236 19.4351 7.54378 19.1769 7.72531L19.7522 8.5433C19.9088 8.43314 20.1854 8.29806 20.4702 8.26023L20.3386 7.26894ZM21.8688 7.76498C21.4013 7.29745 20.8355 7.20293 20.3386 7.26894L20.4702 8.26023C20.7375 8.22473 20.965 8.27543 21.1617 8.47209L21.8688 7.76498ZM22.3651 9.33554C22.43 8.82059 22.3386 8.23479 21.8688 7.76498L21.1617 8.47209C21.3515 8.66188 21.4116 8.90385 21.3729 9.21041L22.3651 9.33554ZM21.9169 10.5548C22.0955 10.2789 22.3027 9.83004 22.3651 9.33554L21.3729 9.21041C21.3333 9.52455 21.1934 9.83225 21.0774 10.0113L21.9169 10.5548ZM17.3688 15.1185L21.8507 10.6366L21.1436 9.92952L16.6617 14.4114L17.3688 15.1185ZM17.2956 15.1918L17.3688 15.1185L16.6617 14.4114L16.5885 14.4847L17.2956 15.1918ZM17.442 14.9418V14.8382H16.442V14.9418H17.442ZM15.9074 16.7701C15.4708 16.6991 14.9731 16.8076 14.5155 17.2652L15.2226 17.9723C15.3448 17.8501 15.4472 17.7964 15.5237 17.772C15.6001 17.7475 15.6732 17.7452 15.7469 17.7571L15.9074 16.7701ZM16.8691 17.265C16.674 17.0699 16.3284 16.8386 15.9074 16.7701L15.7469 17.7571C15.917 17.7848 16.0803 17.8905 16.162 17.9721L16.8691 17.265ZM16.8749 17.2708L16.8691 17.265L16.162 17.9721L16.1679 17.978L16.8749 17.2708ZM16.8569 17.2536L16.8506 17.2481L16.1922 18.0007L16.1984 18.0062L16.8569 17.2536ZM20.8569 20.7538L16.8569 17.2536L16.1984 18.0062L20.1984 21.5063L20.8569 20.7538ZM20.9276 20.8156L20.8569 20.7538L20.1984 21.5064L20.2691 21.5682L20.9276 20.8156ZM20.6923 20.6919H20.5984V21.6919H20.6923V20.6919ZM27.6923 20.6919H20.6923V21.6919H27.6923V20.6919ZM27.7958 20.6919H27.6923V21.6919H27.7958V20.6919ZM27.5155 20.7652L27.4423 20.8384L28.1494 21.5455L28.2226 21.4723L27.5155 20.7652ZM31.0155 17.2652L27.5155 20.7652L28.2226 21.4723L31.7226 17.9723L31.0155 17.2652ZM31.9771 16.7702C31.5561 16.8387 31.2106 17.0701 31.0155 17.2652L31.7226 17.9723C31.8043 17.8906 31.9677 17.7849 32.1378 17.7572L31.9771 16.7702ZM33.3691 17.2652C32.9115 16.8076 32.4138 16.6991 31.9771 16.7702L32.1378 17.7572C32.2114 17.7452 32.2846 17.7476 32.361 17.772C32.4374 17.7964 32.5398 17.8501 32.662 17.9723L33.3691 17.2652ZM33.864 18.6571C33.9351 18.2204 33.8266 17.7227 33.3691 17.2652L32.662 17.9723C32.7841 18.0944 32.8378 18.1968 32.8622 18.2733C32.8866 18.3497 32.889 18.4228 32.877 18.4964L33.864 18.6571ZM33.3691 19.6187C33.5641 19.4236 33.7955 19.0781 33.864 18.6571L32.877 18.4964C32.8493 18.6665 32.7436 18.8299 32.662 18.9116L33.3691 19.6187ZM29.3691 23.6187L33.3691 19.6187L32.662 18.9116L28.662 22.9116L29.3691 23.6187ZM29.2958 23.6919L29.3691 23.6187L28.662 22.9116L28.5887 22.9848L29.2958 23.6919ZM29.4423 23.4419V23.3384H28.4423V23.4419H29.4423ZM29.4423 40.1114V23.4419H28.4423V40.1114H29.4423ZM28.9888 41.41C29.3298 40.9766 29.4423 40.4614 29.4423 40.1114H28.4423C28.4423 40.2821 28.3797 40.5669 28.2028 40.7918L28.9888 41.41ZM27.1923 42.1919C28.0649 42.1919 28.639 41.8548 28.9888 41.41L28.2028 40.7918C28.0524 40.9829 27.7746 41.1919 27.1923 41.1919V42.1919ZM25.4461 41.399C25.765 41.8536 26.3191 42.1919 27.1923 42.1919V41.1919C26.6113 41.1919 26.3779 40.986 26.2648 40.8248L25.4461 41.399ZM25.0993 40.0901C25.0695 40.4389 25.1374 40.9588 25.4461 41.399L26.2648 40.8248C26.1215 40.6204 26.0808 40.3496 26.0957 40.1751L25.0993 40.0901ZM25.1002 40.0795L25.0993 40.0901L26.0957 40.1751L26.0966 40.1645L25.1002 40.0795ZM25.0984 40.1114V40.122H26.0984V40.1114H25.0984ZM25.0984 31.6836V40.1114H26.0984V31.6836H25.0984ZM25.0984 31.4336V31.6836H26.0984V31.4336H25.0984ZM25.3484 31.9336H25.5984V30.9336H25.3484V31.9336ZM23.1923 31.9336H25.3484V30.9336H23.1923V31.9336ZM22.9423 31.9336H23.1923V30.9336H22.9423V31.9336ZM23.4423 31.6836V31.4336H22.4423V31.6836H23.4423ZM23.4423 39.9419V31.6836H22.4423V39.9419H23.4423ZM22.9952 41.338C23.3323 40.8698 23.4423 40.3154 23.4423 39.9419H22.4423C22.4423 40.1551 22.3722 40.4918 22.1836 40.7537L22.9952 41.338ZM21.1923 42.1919C22.0737 42.1919 22.6488 41.8191 22.9952 41.338L22.1836 40.7537C22.0227 40.9772 21.7479 41.1919 21.1923 41.1919V42.1919ZM19.4643 41.3214C19.7641 41.8165 20.3092 42.1919 21.1923 42.1919V41.1919C20.9026 41.1919 20.7143 41.1335 20.5905 41.0656C20.4679 40.9983 20.3829 40.9078 20.3197 40.8035L19.4643 41.3214ZM19.1729 39.9135C19.1304 40.285 19.1756 40.8447 19.4643 41.3214L20.3197 40.8035C20.1767 40.5673 20.1413 40.2465 20.1664 40.0272L19.1729 39.9135ZM19.1745 39.8993L19.1729 39.9135L20.1664 40.0273L20.168 40.0131L19.1745 39.8993ZM19.1713 39.9419V39.9562H20.1713V39.9419H19.1713ZM19.1713 23.8637V39.9419H20.1713V23.8637H19.1713ZM19.1713 23.7602V23.8637H20.1713V23.7602H19.1713ZM19.2444 24.0404L19.3176 24.1136L20.025 23.4068L19.9519 23.3336L19.2444 24.0404ZM17.0154 21.8094L19.2444 24.0404L19.9519 23.3336L17.7229 21.1027L17.0154 21.8094ZM17.0096 21.8036L17.0154 21.8094L17.7229 21.1027L17.717 21.0968L17.0096 21.8036ZM17.0275 21.8208L17.0338 21.8262L17.6928 21.0741L17.6866 21.0687L17.0275 21.8208ZM14.5341 19.6357L17.0275 21.8208L17.6866 21.0687L15.1931 18.8836L14.5341 19.6357ZM14.0205 18.6571C14.0882 19.073 14.3148 19.4148 14.5072 19.6103L15.22 18.909C15.1378 18.8254 15.0348 18.6639 15.0075 18.4964L14.0205 18.6571ZM14.5155 17.2652C14.0579 17.7227 13.9495 18.2204 14.0205 18.6571L15.0075 18.4964C14.9956 18.4228 14.9979 18.3497 15.0224 18.2733C15.0468 18.1968 15.1005 18.0944 15.2226 17.9723L14.5155 17.2652ZM27.1923 16C27.1923 17.6569 25.8491 19 24.1923 19V20C26.4014 20 28.1923 18.2091 28.1923 16H27.1923ZM24.1923 13C25.8491 13 27.1923 14.3431 27.1923 16H28.1923C28.1923 13.7909 26.4014 12 24.1923 12V13ZM21.1923 16C21.1923 14.3431 22.5354 13 24.1923 13V12C21.9832 12 20.1923 13.7909 20.1923 16H21.1923ZM24.1923 19C22.5354 19 21.1923 17.6569 21.1923 16H20.1923C20.1923 18.2091 21.9832 20 24.1923 20V19ZM27.6923 16C27.6923 17.933 26.1253 19.5 24.1923 19.5V20.5C26.6776 20.5 28.6923 18.4853 28.6923 16H27.6923ZM24.1923 12.5C26.1253 12.5 27.6923 14.067 27.6923 16H28.6923C28.6923 13.5147 26.6776 11.5 24.1923 11.5V12.5ZM20.6923 16C20.6923 14.067 22.2593 12.5 24.1923 12.5V11.5C21.707 11.5 19.6923 13.5147 19.6923 16H20.6923ZM24.1923 19.5C22.2593 19.5 20.6923 17.933 20.6923 16H19.6923C19.6923 18.4853 21.707 20.5 24.1923 20.5V19.5Z" fill="black" mask="url(#path-1-inside-1_693_2814)"/>
</svg>
