<svg width="123" height="40" viewBox="0 0 123 40" fill="none" xmlns="http://www.w3.org/2000/svg">
<circle cx="16.9998" cy="20.0002" r="13.3846" stroke="#909090" stroke-width="2"/>
<path d="M17 12.1536V19.9997L23.5385 23.9228" stroke="#909090" stroke-width="2" stroke-linecap="round"/>
<path d="M43.204 13V3.13H47.222C48.286 3.13 49.1027 3.354 49.672 3.802C50.2413 4.25 50.526 4.88 50.526 5.692C50.526 6.308 50.3393 6.82133 49.966 7.232C49.602 7.64267 49.1027 7.918 48.468 8.058V7.848C49.196 7.932 49.7607 8.184 50.162 8.604C50.5727 9.024 50.778 9.57933 50.778 10.27C50.778 11.1473 50.484 11.824 49.896 12.3C49.308 12.7667 48.4773 13 47.404 13H43.204ZM44.464 11.964H47.278C47.9687 11.964 48.51 11.8333 48.902 11.572C49.3033 11.3013 49.504 10.858 49.504 10.242C49.504 9.61667 49.3033 9.17333 48.902 8.912C48.51 8.65067 47.9687 8.52 47.278 8.52H44.464V11.964ZM44.464 7.484H47.04C47.7773 7.484 48.328 7.344 48.692 7.064C49.056 6.77467 49.238 6.35933 49.238 5.818C49.238 5.27667 49.056 4.866 48.692 4.586C48.328 4.29667 47.7773 4.152 47.04 4.152H44.464V7.484ZM55.8266 13.126C54.7066 13.126 53.82 12.804 53.1666 12.16C52.5226 11.516 52.2006 10.6293 52.2006 9.5C52.2006 8.75333 52.3406 8.10933 52.6206 7.568C52.91 7.01733 53.3066 6.59267 53.8106 6.294C54.3146 5.986 54.9026 5.832 55.5746 5.832C56.2186 5.832 56.7646 5.972 57.2126 6.252C57.6606 6.52267 58.0013 6.91 58.2346 7.414C58.468 7.918 58.5846 8.51533 58.5846 9.206V9.626H53.1946V8.87H57.7166L57.4786 9.052C57.4786 8.324 57.3153 7.75933 56.9886 7.358C56.6713 6.95667 56.2 6.756 55.5746 6.756C54.8933 6.756 54.366 6.994 53.9926 7.47C53.6193 7.93667 53.4326 8.576 53.4326 9.388V9.514C53.4326 10.3727 53.6426 11.0213 54.0626 11.46C54.492 11.8987 55.0846 12.118 55.8406 12.118C56.2606 12.118 56.6526 12.0573 57.0166 11.936C57.3806 11.8147 57.7306 11.614 58.0666 11.334L58.4866 12.216C58.1693 12.5053 57.7726 12.7293 57.2966 12.888C56.83 13.0467 56.34 13.126 55.8266 13.126ZM62.6295 13.126C62.0602 13.126 61.5282 13.0513 61.0335 12.902C60.5482 12.7527 60.1469 12.538 59.8295 12.258L60.2355 11.376C60.5809 11.6373 60.9589 11.838 61.3695 11.978C61.7895 12.1087 62.2189 12.174 62.6575 12.174C63.1895 12.174 63.5909 12.076 63.8615 11.88C64.1415 11.684 64.2815 11.4227 64.2815 11.096C64.2815 10.8347 64.1929 10.6247 64.0155 10.466C63.8382 10.3073 63.5582 10.1907 63.1755 10.116L61.8455 9.85C61.2482 9.71 60.7955 9.486 60.4875 9.178C60.1889 8.86067 60.0395 8.45467 60.0395 7.96C60.0395 7.54933 60.1515 7.18533 60.3755 6.868C60.5995 6.54133 60.9169 6.28933 61.3275 6.112C61.7475 5.92533 62.2375 5.832 62.7975 5.832C63.3109 5.832 63.7869 5.90667 64.2255 6.056C64.6735 6.20533 65.0422 6.42467 65.3315 6.714L64.9115 7.568C64.6222 7.316 64.2955 7.12467 63.9315 6.994C63.5769 6.854 63.2129 6.784 62.8395 6.784C62.2982 6.784 61.8969 6.89133 61.6355 7.106C61.3742 7.31133 61.2435 7.582 61.2435 7.918C61.2435 8.17 61.3229 8.38 61.4815 8.548C61.6402 8.70667 61.8969 8.828 62.2515 8.912L63.5815 9.178C64.2069 9.30867 64.6782 9.52333 64.9955 9.822C65.3129 10.1207 65.4715 10.5173 65.4715 11.012C65.4715 11.4507 65.3502 11.8287 65.1075 12.146C64.8742 12.4633 64.5429 12.706 64.1135 12.874C63.6935 13.042 63.1989 13.126 62.6295 13.126ZM69.7722 13.126C69.0348 13.126 68.4748 12.9253 68.0922 12.524C67.7188 12.1133 67.5322 11.4973 67.5322 10.676V6.938H66.1602V5.958H67.5322V4.068L68.8062 3.718V5.958H70.7942V6.938H68.8062V10.564C68.8062 11.1053 68.8995 11.4927 69.0862 11.726C69.2822 11.95 69.5622 12.062 69.9262 12.062C70.1128 12.062 70.2715 12.048 70.4022 12.02C70.5422 11.9827 70.6682 11.9407 70.7802 11.894V12.944C70.6402 13 70.4768 13.042 70.2902 13.07C70.1128 13.1073 69.9402 13.126 69.7722 13.126ZM79.2238 13.126C78.4305 13.126 77.7165 13.0233 77.0818 12.818C76.4471 12.6127 75.8965 12.3233 75.4298 11.95L75.8778 10.914C76.2045 11.1567 76.5358 11.362 76.8718 11.53C77.2078 11.6887 77.5671 11.81 77.9498 11.894C78.3418 11.9687 78.7665 12.006 79.2238 12.006C80.0358 12.006 80.6331 11.8613 81.0158 11.572C81.4078 11.2733 81.6038 10.8813 81.6038 10.396C81.6038 9.976 81.4685 9.654 81.1978 9.43C80.9271 9.206 80.4558 9.02867 79.7838 8.898L78.2858 8.59C77.3805 8.40333 76.7038 8.1 76.2558 7.68C75.8171 7.25067 75.5978 6.672 75.5978 5.944C75.5978 5.356 75.7518 4.84267 76.0598 4.404C76.3771 3.956 76.8111 3.61067 77.3618 3.368C77.9218 3.12533 78.5751 3.004 79.3218 3.004C80.0125 3.004 80.6518 3.10667 81.2398 3.312C81.8278 3.51733 82.3225 3.82067 82.7238 4.222L82.2758 5.216C81.8558 4.83333 81.4031 4.558 80.9178 4.39C80.4418 4.21267 79.9005 4.124 79.2938 4.124C78.5565 4.124 77.9731 4.28267 77.5438 4.6C77.1145 4.91733 76.8998 5.34667 76.8998 5.888C76.8998 6.31733 77.0351 6.658 77.3058 6.91C77.5765 7.15267 78.0245 7.33933 78.6498 7.47L80.1478 7.764C81.0998 7.95067 81.7951 8.24467 82.2338 8.646C82.6818 9.04733 82.9058 9.60267 82.9058 10.312C82.9058 10.872 82.7565 11.3667 82.4578 11.796C82.1591 12.216 81.7345 12.5427 81.1838 12.776C80.6331 13.0093 79.9798 13.126 79.2238 13.126ZM87.8188 13.126C86.6988 13.126 85.8122 12.804 85.1588 12.16C84.5148 11.516 84.1928 10.6293 84.1928 9.5C84.1928 8.75333 84.3328 8.10933 84.6128 7.568C84.9022 7.01733 85.2988 6.59267 85.8028 6.294C86.3068 5.986 86.8948 5.832 87.5668 5.832C88.2108 5.832 88.7568 5.972 89.2048 6.252C89.6528 6.52267 89.9935 6.91 90.2268 7.414C90.4602 7.918 90.5768 8.51533 90.5768 9.206V9.626H85.1868V8.87H89.7088L89.4708 9.052C89.4708 8.324 89.3075 7.75933 88.9808 7.358C88.6635 6.95667 88.1922 6.756 87.5668 6.756C86.8855 6.756 86.3582 6.994 85.9848 7.47C85.6115 7.93667 85.4248 8.576 85.4248 9.388V9.514C85.4248 10.3727 85.6348 11.0213 86.0548 11.46C86.4842 11.8987 87.0768 12.118 87.8328 12.118C88.2528 12.118 88.6448 12.0573 89.0088 11.936C89.3728 11.8147 89.7228 11.614 90.0588 11.334L90.4788 12.216C90.1615 12.5053 89.7648 12.7293 89.2888 12.888C88.8222 13.0467 88.3322 13.126 87.8188 13.126ZM94.9297 13.126C94.3137 13.126 93.7724 12.9813 93.3057 12.692C92.8391 12.4027 92.4751 11.9827 92.2137 11.432C91.9524 10.8813 91.8217 10.228 91.8217 9.472C91.8217 8.716 91.9524 8.06733 92.2137 7.526C92.4751 6.97533 92.8391 6.55533 93.3057 6.266C93.7724 5.97667 94.3137 5.832 94.9297 5.832C95.5551 5.832 96.0964 5.99067 96.5537 6.308C97.0204 6.616 97.3284 7.04067 97.4777 7.582H97.3097L97.4637 5.958H98.6957C98.6677 6.238 98.6397 6.518 98.6117 6.798C98.5931 7.078 98.5837 7.35333 98.5837 7.624V13H97.3097V11.39H97.4637C97.3144 11.922 97.0064 12.3467 96.5397 12.664C96.0824 12.972 95.5457 13.126 94.9297 13.126ZM95.2237 12.118C95.8584 12.118 96.3671 11.894 96.7497 11.446C97.1324 10.998 97.3237 10.34 97.3237 9.472C97.3237 8.604 97.1324 7.95067 96.7497 7.512C96.3671 7.07333 95.8584 6.854 95.2237 6.854C94.5891 6.854 94.0757 7.07333 93.6837 7.512C93.3011 7.95067 93.1097 8.604 93.1097 9.472C93.1097 10.34 93.3011 10.998 93.6837 11.446C94.0664 11.894 94.5797 12.118 95.2237 12.118ZM103.098 13.126C102.529 13.126 101.997 13.0513 101.502 12.902C101.017 12.7527 100.616 12.538 100.298 12.258L100.704 11.376C101.05 11.6373 101.428 11.838 101.838 11.978C102.258 12.1087 102.688 12.174 103.126 12.174C103.658 12.174 104.06 12.076 104.33 11.88C104.61 11.684 104.75 11.4227 104.75 11.096C104.75 10.8347 104.662 10.6247 104.484 10.466C104.307 10.3073 104.027 10.1907 103.644 10.116L102.314 9.85C101.717 9.71 101.264 9.486 100.956 9.178C100.658 8.86067 100.508 8.45467 100.508 7.96C100.508 7.54933 100.62 7.18533 100.844 6.868C101.068 6.54133 101.386 6.28933 101.796 6.112C102.216 5.92533 102.706 5.832 103.266 5.832C103.78 5.832 104.256 5.90667 104.694 6.056C105.142 6.20533 105.511 6.42467 105.8 6.714L105.38 7.568C105.091 7.316 104.764 7.12467 104.4 6.994C104.046 6.854 103.682 6.784 103.308 6.784C102.767 6.784 102.366 6.89133 102.104 7.106C101.843 7.31133 101.712 7.582 101.712 7.918C101.712 8.17 101.792 8.38 101.95 8.548C102.109 8.70667 102.366 8.828 102.72 8.912L104.05 9.178C104.676 9.30867 105.147 9.52333 105.464 9.822C105.782 10.1207 105.94 10.5173 105.94 11.012C105.94 11.4507 105.819 11.8287 105.576 12.146C105.343 12.4633 105.012 12.706 104.582 12.874C104.162 13.042 103.668 13.126 103.098 13.126ZM110.645 13.126C109.955 13.126 109.357 12.9813 108.853 12.692C108.349 12.3933 107.957 11.9733 107.677 11.432C107.397 10.8813 107.257 10.228 107.257 9.472C107.257 8.72533 107.397 8.08133 107.677 7.54C107.957 6.98933 108.349 6.56933 108.853 6.28C109.357 5.98133 109.955 5.832 110.645 5.832C111.336 5.832 111.933 5.98133 112.437 6.28C112.951 6.56933 113.343 6.98933 113.613 7.54C113.893 8.08133 114.033 8.72533 114.033 9.472C114.033 10.228 113.893 10.8813 113.613 11.432C113.343 11.9733 112.951 12.3933 112.437 12.692C111.933 12.9813 111.336 13.126 110.645 13.126ZM110.645 12.118C111.28 12.118 111.789 11.894 112.171 11.446C112.554 10.998 112.745 10.34 112.745 9.472C112.745 8.604 112.554 7.95067 112.171 7.512C111.789 7.07333 111.28 6.854 110.645 6.854C110.001 6.854 109.488 7.07333 109.105 7.512C108.732 7.95067 108.545 8.604 108.545 9.472C108.545 10.34 108.732 10.998 109.105 11.446C109.488 11.894 110.001 12.118 110.645 12.118ZM115.744 13V7.624C115.744 7.35333 115.734 7.078 115.716 6.798C115.697 6.518 115.669 6.238 115.632 5.958H116.864L117.004 7.47H116.836C117.05 6.938 117.382 6.532 117.83 6.252C118.278 5.972 118.8 5.832 119.398 5.832C120.228 5.832 120.854 6.06067 121.274 6.518C121.694 6.966 121.904 7.666 121.904 8.618V13H120.63V8.688C120.63 8.044 120.504 7.582 120.252 7.302C120 7.01267 119.608 6.868 119.076 6.868C118.441 6.868 117.937 7.05933 117.564 7.442C117.2 7.82467 117.018 8.34267 117.018 8.996V13H115.744Z" fill="#282828"/>
<path d="M43.204 37V27.13H44.212L50.4 35.306H50.064V27.13H51.282V37H50.288L44.1 28.824H44.422V37H43.204ZM56.5047 37.126C55.814 37.126 55.2167 36.9813 54.7127 36.692C54.2087 36.3933 53.8167 35.9733 53.5367 35.432C53.2567 34.8813 53.1167 34.228 53.1167 33.472C53.1167 32.7253 53.2567 32.0813 53.5367 31.54C53.8167 30.9893 54.2087 30.5693 54.7127 30.28C55.2167 29.9813 55.814 29.832 56.5047 29.832C57.1953 29.832 57.7927 29.9813 58.2967 30.28C58.81 30.5693 59.202 30.9893 59.4727 31.54C59.7527 32.0813 59.8927 32.7253 59.8927 33.472C59.8927 34.228 59.7527 34.8813 59.4727 35.432C59.202 35.9733 58.81 36.3933 58.2967 36.692C57.7927 36.9813 57.1953 37.126 56.5047 37.126ZM56.5047 36.118C57.1393 36.118 57.648 35.894 58.0307 35.446C58.4133 34.998 58.6047 34.34 58.6047 33.472C58.6047 32.604 58.4133 31.9507 58.0307 31.512C57.648 31.0733 57.1393 30.854 56.5047 30.854C55.8607 30.854 55.3473 31.0733 54.9647 31.512C54.5913 31.9507 54.4047 32.604 54.4047 33.472C54.4047 34.34 54.5913 34.998 54.9647 35.446C55.3473 35.894 55.8607 36.118 56.5047 36.118ZM63.5657 37L60.5557 29.958H61.9277L64.3777 36.006H63.9857L66.4777 29.958H67.7797L64.7557 37H63.5657ZM72.5936 33.682V32.646H76.6396V33.682H72.5936ZM82.5243 37V27.13H83.6723L87.5643 35.894H87.1443L91.0363 27.13H92.1703V37H90.9803V28.866H91.4143L87.7603 37H86.9343L83.2803 28.866H83.7143V37H82.5243ZM97.1309 37.126C96.5149 37.126 95.9736 36.9813 95.5069 36.692C95.0402 36.4027 94.6762 35.9827 94.4149 35.432C94.1536 34.8813 94.0229 34.228 94.0229 33.472C94.0229 32.716 94.1536 32.0673 94.4149 31.526C94.6762 30.9753 95.0402 30.5553 95.5069 30.266C95.9736 29.9767 96.5149 29.832 97.1309 29.832C97.7562 29.832 98.2976 29.9907 98.7549 30.308C99.2216 30.616 99.5296 31.0407 99.6789 31.582H99.5109L99.6649 29.958H100.897C100.869 30.238 100.841 30.518 100.813 30.798C100.794 31.078 100.785 31.3533 100.785 31.624V37H99.5109V35.39H99.6649C99.5156 35.922 99.2076 36.3467 98.7409 36.664C98.2836 36.972 97.7469 37.126 97.1309 37.126ZM97.4249 36.118C98.0596 36.118 98.5682 35.894 98.9509 35.446C99.3336 34.998 99.5249 34.34 99.5249 33.472C99.5249 32.604 99.3336 31.9507 98.9509 31.512C98.5682 31.0733 98.0596 30.854 97.4249 30.854C96.7902 30.854 96.2769 31.0733 95.8849 31.512C95.5022 31.9507 95.3109 32.604 95.3109 33.472C95.3109 34.34 95.5022 34.998 95.8849 35.446C96.2676 35.894 96.7809 36.118 97.4249 36.118ZM102.905 37V31.68C102.905 31.4 102.896 31.1153 102.877 30.826C102.868 30.5273 102.845 30.238 102.807 29.958H104.039L104.193 31.722L103.983 31.736C104.077 31.3067 104.235 30.952 104.459 30.672C104.693 30.3827 104.968 30.1727 105.285 30.042C105.612 29.902 105.948 29.832 106.293 29.832C106.443 29.832 106.569 29.8367 106.671 29.846C106.774 29.8553 106.877 29.8787 106.979 29.916L106.951 31.05C106.811 30.994 106.681 30.9613 106.559 30.952C106.447 30.9333 106.307 30.924 106.139 30.924C105.729 30.924 105.374 31.0173 105.075 31.204C104.786 31.3907 104.562 31.638 104.403 31.946C104.254 32.254 104.179 32.5853 104.179 32.94V37H102.905ZM111.029 37.126C110.329 37.126 109.723 36.9813 109.209 36.692C108.696 36.3933 108.295 35.9687 108.005 35.418C107.725 34.858 107.585 34.1953 107.585 33.43C107.585 32.674 107.73 32.03 108.019 31.498C108.309 30.9567 108.71 30.546 109.223 30.266C109.737 29.9767 110.339 29.832 111.029 29.832C111.487 29.832 111.93 29.9113 112.359 30.07C112.789 30.2193 113.139 30.4387 113.409 30.728L112.975 31.624C112.705 31.3627 112.406 31.1713 112.079 31.05C111.753 30.9193 111.431 30.854 111.113 30.854C110.423 30.854 109.881 31.078 109.489 31.526C109.097 31.9647 108.901 32.604 108.901 33.444C108.901 34.2933 109.097 34.9467 109.489 35.404C109.881 35.8613 110.423 36.09 111.113 36.09C111.421 36.09 111.739 36.0293 112.065 35.908C112.392 35.7867 112.695 35.5953 112.975 35.334L113.409 36.216C113.129 36.5147 112.77 36.7433 112.331 36.902C111.902 37.0513 111.468 37.126 111.029 37.126ZM114.964 37V26.696H116.238V31.484H116.056C116.262 30.9427 116.593 30.532 117.05 30.252C117.508 29.972 118.035 29.832 118.632 29.832C119.482 29.832 120.107 30.0607 120.508 30.518C120.919 30.9753 121.124 31.666 121.124 32.59V37H119.85V32.66C119.85 32.0347 119.729 31.582 119.486 31.302C119.244 31.0127 118.847 30.868 118.296 30.868C117.68 30.868 117.181 31.0593 116.798 31.442C116.425 31.8247 116.238 32.3333 116.238 32.968V37H114.964Z" fill="#5E6D77"/>
</svg>
