<svg width="65" height="93" viewBox="0 0 65 93" fill="none" xmlns="http://www.w3.org/2000/svg">
<mask id="path-1-inside-1_461_531" fill="white">
<path fill-rule="evenodd" clip-rule="evenodd" d="M36.2793 29.4937C36.4543 29.0677 36.5502 28.6047 36.5502 28.1206C36.5502 26.0163 34.7369 24.3103 32.5002 24.3103C30.2634 24.3103 28.4502 26.0163 28.4502 28.1206C28.4502 28.6047 28.5461 29.0677 28.7211 29.4937C15.8479 31.2282 5.9502 41.6936 5.9502 54.3448H32.5002H59.0502C59.0502 41.6936 49.1525 31.2282 36.2793 29.4937Z"/>
</mask>
<path d="M36.2793 29.4937L35.3543 29.1138L34.8622 30.3118L36.1457 30.4847L36.2793 29.4937ZM28.7211 29.4937L28.8546 30.4847L30.1382 30.3118L29.6461 29.1138L28.7211 29.4937ZM5.9502 54.3448H4.9502V55.3448H5.9502V54.3448ZM59.0502 54.3448V55.3448H60.0502V54.3448H59.0502ZM35.5502 28.1206C35.5502 28.4712 35.4809 28.8053 35.3543 29.1138L37.2043 29.8736C37.4276 29.3301 37.5502 28.7382 37.5502 28.1206H35.5502ZM32.5002 25.3103C34.243 25.3103 35.5502 26.6251 35.5502 28.1206H37.5502C37.5502 25.4074 35.2309 23.3103 32.5002 23.3103V25.3103ZM29.4502 28.1206C29.4502 26.6251 30.7574 25.3103 32.5002 25.3103V23.3103C29.7695 23.3103 27.4502 25.4074 27.4502 28.1206H29.4502ZM29.6461 29.1138C29.5194 28.8053 29.4502 28.4712 29.4502 28.1206H27.4502C27.4502 28.7382 27.5728 29.3301 27.7961 29.8736L29.6461 29.1138ZM6.9502 54.3448C6.9502 42.2431 16.4276 32.1591 28.8546 30.4847L28.5876 28.5027C15.2682 30.2973 4.9502 41.1441 4.9502 54.3448H6.9502ZM32.5002 53.3448H5.9502V55.3448H32.5002V53.3448ZM59.0502 53.3448H32.5002V55.3448H59.0502V53.3448ZM36.1457 30.4847C48.5728 32.1591 58.0502 42.2431 58.0502 54.3448H60.0502C60.0502 41.1441 49.7322 30.2973 36.4128 28.5027L36.1457 30.4847Z" fill="black" mask="url(#path-1-inside-1_461_531)"/>
<path fill-rule="evenodd" clip-rule="evenodd" d="M1 57.0344C1 56.2917 1.60442 55.6896 2.35 55.6896H62.65C63.3956 55.6896 64 56.2917 64 57.0344C64 57.7771 63.3956 58.3792 62.65 58.3792H2.35C1.60442 58.3792 1 57.7771 1 57.0344Z" stroke="black" stroke-linecap="round"/>
<path d="M36.4678 33.7242C37.9899 34.2945 41.7248 36.1896 44.1998 37.9827C48.9248 41.5689 52.3711 45.8376 53.209 52.9331L55.8905 52.6188C54.9285 44.473 50.3695 40.303 45.7748 37.3103C43.4783 35.8145 41.57 35.2083 40.5998 34.8448C39.7703 34.534 36.9548 33.8665 36.4678 33.7242ZM36.4678 33.7242C37.3054 34.038 36.603 33.7592 36.4678 33.7242Z" stroke="black"/>
<path d="M25.5245 15.1206C29.1245 20.1413 26.2745 23.4884 24.3995 24.5344C26.5505 23.6379 30.6474 20.1931 27.2524 15.1206C25.9023 13.1034 22.5273 9.51718 24.3995 6.82753C23.9494 7.2758 21.0245 8.84477 25.5245 15.1206Z" stroke="black" stroke-width="0.5"/>
<path d="M38.5215 15.1206C42.1215 20.1413 39.2715 23.4884 37.3965 24.5344C39.5475 23.6379 43.6445 20.1931 40.2495 15.1206C38.8994 13.1034 35.5244 9.51718 37.3965 6.82753C36.9465 7.2758 34.0215 8.84477 38.5215 15.1206Z" stroke="black" stroke-width="0.5"/>
<path d="M31.4228 10.4138C27.8228 5.3931 30.6728 2.04598 32.5478 1C30.3968 1.89655 26.2999 5.34129 29.6948 10.4138C31.0449 12.431 34.4199 16.0172 32.5478 18.7069C32.9979 18.2586 35.9228 16.6897 31.4228 10.4138Z" stroke="black" stroke-width="0.5"/>
<path d="M21.9252 86.1724L16.5252 75.8621C15.2652 76.5793 10.4502 78.8506 8.2002 79.8965L14.2752 92C16.9752 89.669 20.5002 87.1437 21.9252 86.1724Z" stroke="black" stroke-width="0.5"/>
<path d="M27.3322 80.8123C26.4322 81.3503 23.3572 83.4273 21.9322 84.3985C20.2877 81.4655 17.2557 75.7371 17.4322 75.6572C19.9071 74.5363 21.4822 72.3315 21.4822 71.6227C21.4822 70.7069 21.4822 68.6897 21.7072 67.8124C21.8833 67.1257 21.8627 66.4483 21.7072 65.571C21.4965 64.3824 20.1464 62.1403 19.9072 61.7606C19.6127 61.2931 18.1072 59.071 20.8072 59.2951C23.5072 59.5192 24.5627 61.5173 26.4322 65.1227C28.2355 68.6006 30.0322 68.4848 32.9572 67.8124C35.8822 67.14 36.7822 66.0193 38.8072 65.3469C40.8322 64.6745 42.1822 63.3296 45.3322 61.3124C48.4822 59.2951 49.8322 59.5192 50.7322 59.2951C51.6322 59.071 55.9072 60.8641 51.8572 61.7606C47.8072 62.6572 43.0822 68.2606 40.1572 71.1744C37.8172 73.5054 35.5822 75.1342 34.7572 75.6572C34.2322 76.0307 32.9572 76.9572 32.0572 77.6744C30.9322 78.571 28.4572 80.1399 27.3322 80.8123Z" stroke="black" stroke-width="0.5"/>
<path d="M18.9748 86.6207C18.9748 86.9768 18.6847 87.2672 18.3248 87.2672C17.9649 87.2672 17.6748 86.9768 17.6748 86.6207C17.6748 86.2645 17.9649 85.9741 18.3248 85.9741C18.6847 85.9741 18.9748 86.2645 18.9748 86.6207Z" stroke="black" stroke-width="0.5"/>
</svg>
