<svg width="30" height="24" viewBox="0 0 30 24" fill="none" xmlns="http://www.w3.org/2000/svg">
<rect x="10.4958" y="5.27722" width="6.96244" height="0.409555" rx="0.204778" fill="black"/>
<path fill-rule="evenodd" clip-rule="evenodd" d="M13.9768 18.9967C16.9172 18.9967 19.301 16.6129 19.301 13.6724C19.301 10.7319 16.9172 8.34821 13.9768 8.34821C11.0363 8.34821 8.65253 10.7319 8.65253 13.6724C8.65253 16.6129 11.0363 18.9967 13.9768 18.9967ZM13.9768 19.2014C17.0303 19.2014 19.5058 16.726 19.5058 13.6724C19.5058 10.6189 17.0303 8.14343 13.9768 8.14343C10.9232 8.14343 8.44775 10.6189 8.44775 13.6724C8.44775 16.726 10.9232 19.2014 13.9768 19.2014Z" fill="black"/>
<path fill-rule="evenodd" clip-rule="evenodd" d="M5.58064 5.48122H9.06186V5.27644C9.06186 3.58001 10.4371 2.20478 12.1335 2.20478H15.8195C17.516 2.20478 18.8912 3.58001 18.8912 5.27644V5.48122H24.0106C25.7071 5.48122 27.0823 6.85645 27.0823 8.55289V18.3822C27.0823 20.0787 25.7071 21.4539 24.0106 21.4539H5.58064C3.88421 21.4539 2.50898 20.0787 2.50898 18.3822V8.55289C2.50898 6.85645 3.88421 5.48122 5.58064 5.48122ZM12.1335 2C10.324 2 8.85709 3.46691 8.85709 5.27644H5.58064C3.77111 5.27644 2.3042 6.74336 2.3042 8.55289V18.3822C2.3042 20.1918 3.77111 21.6587 5.58064 21.6587H24.0106C25.8202 21.6587 27.2871 20.1918 27.2871 18.3822V8.55289C27.2871 6.74336 25.8202 5.27644 24.0106 5.27644H19.096C19.096 3.46691 17.6291 2 15.8195 2H12.1335ZM20.1645 4.29295C20.1645 4.23019 20.188 4.125 20.2562 4.04075C20.3159 3.96708 20.4266 3.88766 20.6517 3.88766H22.679H22.8633C22.9517 3.88766 23.0858 3.91305 23.1893 3.97928C23.2793 4.03689 23.3505 4.1254 23.3505 4.29295V5.27588H23.8505V4.29295C23.8505 3.93626 23.676 3.69713 23.4588 3.55815C23.2551 3.42779 23.0207 3.38766 22.8633 3.38766H22.679H20.6517C20.2871 3.38766 20.0292 3.52667 19.8677 3.72604C19.7148 3.91482 19.6645 4.13727 19.6645 4.29295V5.27588H20.1645V4.29295Z" fill="black"/>
<path fill-rule="evenodd" clip-rule="evenodd" d="M16.7158 11.5565C17.2693 12.3252 17.4577 13.2599 17.4577 13.8769H18.2769C18.2769 13.1288 18.0558 12.0157 17.3806 11.0779C16.6903 10.1192 15.5434 9.37183 13.7717 9.37183V10.1909C15.2765 10.1909 16.1774 10.8087 16.7158 11.5565Z" fill="black"/>
</svg>
