<svg width="20" height="24" viewBox="0 0 20 24" fill="none" xmlns="http://www.w3.org/2000/svg">
<path fill-rule="evenodd" clip-rule="evenodd" d="M4.39993 2.4C4.08167 2.4 3.77644 2.52643 3.5514 2.75147C3.32635 2.97651 3.19993 3.28174 3.19993 3.6V20.4682L9.70244 15.8235C10.1197 15.5255 10.6802 15.5255 11.0974 15.8235L17.5999 20.4682V3.6C17.5999 3.28174 17.4735 2.97652 17.2485 2.75147C17.0234 2.52643 16.7182 2.4 16.3999 2.4H4.39993ZM1.85434 1.05442C2.52947 0.379284 3.44515 0 4.39993 0H16.3999C17.3547 0 18.2704 0.379285 18.9455 1.05442C19.6206 1.72955 19.9999 2.64522 19.9999 3.6V22.8C19.9999 23.2495 19.7487 23.6613 19.349 23.867C18.9493 24.0727 18.4682 24.0377 18.1024 23.7765L10.3999 18.2747L2.69741 23.7765C2.33163 24.0377 1.85051 24.0727 1.45083 23.867C1.05114 23.6613 0.799927 23.2495 0.799927 22.8V3.6C0.799927 2.64522 1.17921 1.72955 1.85434 1.05442Z" fill="black"/>
</svg>
