<svg width="51" height="47" viewBox="0 0 51 47" fill="none" xmlns="http://www.w3.org/2000/svg">
<mask id="path-1-inside-1_466_187" fill="white">
<path fill-rule="evenodd" clip-rule="evenodd" d="M28.5618 23.3464C28.6985 23.0123 28.7734 22.6492 28.7734 22.2695C28.7734 20.6191 27.3568 19.2812 25.6094 19.2812C23.8619 19.2812 22.4453 20.6191 22.4453 22.2695C22.4453 22.6492 22.5203 23.0123 22.657 23.3464C12.5998 24.7067 4.86719 32.9142 4.86719 42.8359H25.6094H46.3516C46.3516 32.9142 38.619 24.7067 28.5618 23.3464Z"/>
</mask>
<path d="M28.5618 23.3464L28.099 23.157L27.8543 23.7552L28.4948 23.8418L28.5618 23.3464ZM22.657 23.3464L22.724 23.8418L23.3645 23.7552L23.1197 23.157L22.657 23.3464ZM4.86719 42.8359H4.36719V43.3359H4.86719V42.8359ZM46.3516 42.8359V43.3359H46.8516V42.8359H46.3516ZM28.2734 22.2695C28.2734 22.5827 28.2117 22.8816 28.099 23.157L29.0245 23.5357C29.1852 23.143 29.2734 22.7156 29.2734 22.2695H28.2734ZM25.6094 19.7812C27.108 19.7812 28.2734 20.9218 28.2734 22.2695H29.2734C29.2734 20.3165 27.6057 18.7812 25.6094 18.7812V19.7812ZM22.9453 22.2695C22.9453 20.9218 24.1107 19.7812 25.6094 19.7812V18.7812C23.6131 18.7812 21.9453 20.3165 21.9453 22.2695H22.9453ZM23.1197 23.157C23.007 22.8816 22.9453 22.5827 22.9453 22.2695H21.9453C21.9453 22.7156 22.0335 23.143 22.1942 23.5357L23.1197 23.157ZM5.36719 42.8359C5.36719 33.1874 12.8913 25.1718 22.724 23.8418L22.5899 22.8509C12.3083 24.2415 4.36719 32.641 4.36719 42.8359H5.36719ZM25.6094 42.3359H4.86719V43.3359H25.6094V42.3359ZM46.3516 42.3359H25.6094V43.3359H46.3516V42.3359ZM28.4948 23.8418C38.3275 25.1718 45.8516 33.1874 45.8516 42.8359H46.8516C46.8516 32.641 38.9105 24.2415 28.6288 22.8509L28.4948 23.8418Z" fill="black" mask="url(#path-1-inside-1_466_187)"/>
<path fill-rule="evenodd" clip-rule="evenodd" d="M1 44.9453C1 44.3628 1.4722 43.8906 2.05469 43.8906H49.1641C49.7466 43.8906 50.2188 44.3628 50.2188 44.9453C50.2188 45.5278 49.7466 46 49.1641 46H2.05469C1.4722 46 1 45.5278 1 44.9453Z" stroke="black" stroke-width="0.5" stroke-linecap="round"/>
<path fill-rule="evenodd" clip-rule="evenodd" d="M35.9807 29.4765C39.5703 31.8235 43.132 35.0939 43.8836 41.4823L41.7887 41.7288C41.134 36.1641 38.4417 32.8164 34.7503 30.0039C32.8167 28.5976 29.8988 27.1114 28.7096 26.6642C28.1162 26.441 28.9343 26.9384 28.5979 26.8398C28.4298 26.7906 28.3892 27.7437 28.3037 27.7215C28.2609 27.7104 28.442 26.8447 28.4221 26.8398L28.1885 27.6927L28.1884 26.7167C28.1884 26.7167 28.1859 27.6921 28.4221 26.6642C28.6582 25.6362 28.6592 25.6365 28.6592 25.6365L28.6605 25.6368L28.664 25.6376L28.6746 25.6401C28.6832 25.6421 28.6949 25.6449 28.7096 25.6485C28.739 25.6557 28.6567 26.6504 28.7096 26.6642C28.5192 26.6084 28.8152 26.6916 28.7096 26.6642C29.0901 26.7757 31.2896 27.2992 31.9378 27.5429C32.6957 27.828 34.1866 28.3034 35.9807 29.4765Z" fill="white"/>
<path d="M28.7096 26.6642C29.8988 27.1114 32.8167 28.5976 34.7503 30.0039C38.4417 32.8164 41.134 36.1641 41.7887 41.7288L43.8836 41.4823C43.132 35.0939 39.5703 31.8235 35.9807 29.4765C34.1866 28.3034 32.6957 27.828 31.9378 27.5429C31.2896 27.2992 29.0901 26.7757 28.7096 26.6642ZM28.7096 26.6642C28.1162 26.441 28.9343 26.9384 28.5979 26.8398C28.4298 26.7906 28.3892 27.7437 28.3037 27.7215C28.2609 27.7104 28.442 26.8447 28.4221 26.8398L28.1885 27.6927L28.1884 26.7167C28.1884 26.7167 28.1859 27.6921 28.4221 26.6642C28.6582 25.6362 28.6592 25.6365 28.6592 25.6365L28.6605 25.6368L28.664 25.6376L28.6746 25.6401C28.6832 25.6421 28.6949 25.6449 28.7096 25.6485C28.739 25.6557 28.6567 26.6504 28.7096 26.6642ZM28.7096 26.6642C28.5192 26.6084 28.8152 26.6916 28.7096 26.6642Z" stroke="black" stroke-width="0.3"/>
<path d="M20.1599 12.0742C22.9724 16.0117 20.7458 18.6367 19.281 19.457C20.9614 18.7539 24.1622 16.0524 21.5099 12.0742C20.4551 10.4922 17.8184 7.67969 19.281 5.57031C18.9294 5.92187 16.6443 7.15234 20.1599 12.0742Z" stroke="black" stroke-width="0.3"/>
<path d="M30.3142 12.0742C33.1267 16.0117 30.9001 18.6367 29.4353 19.457C31.1157 18.7539 34.3165 16.0524 31.6642 12.0742C30.6094 10.4922 27.9727 7.67969 29.4353 5.57031C29.0837 5.92187 26.7986 7.15234 30.3142 12.0742Z" stroke="black" stroke-width="0.3"/>
<path d="M24.7678 8.38281C21.9553 4.44531 24.1819 1.82031 25.6468 1C23.9663 1.70313 20.7655 4.40468 23.4179 8.38281C24.4726 9.96484 27.1094 12.7773 25.6468 14.8867C25.9984 14.5352 28.2835 13.3047 24.7678 8.38281Z" stroke="black" stroke-width="0.3"/>
</svg>
