<svg width="27" height="24" viewBox="0 0 27 24" fill="none" xmlns="http://www.w3.org/2000/svg">
<mask id="path-1-inside-1_951_2379" fill="white">
<path fill-rule="evenodd" clip-rule="evenodd" d="M21.717 3.19998C21.717 4.10205 20.9858 4.83332 20.0837 4.83332C19.1816 4.83332 18.4504 4.10205 18.4504 3.19998C18.4504 2.29792 19.1816 1.56665 20.0837 1.56665C20.9858 1.56665 21.717 2.29792 21.717 3.19998ZM22.217 3.19998C22.217 4.37819 21.2619 5.33332 20.0837 5.33332C18.9055 5.33332 17.9504 4.37819 17.9504 3.19998C17.9504 2.02178 18.9055 1.06665 20.0837 1.06665C21.2619 1.06665 22.217 2.02178 22.217 3.19998ZM8.91704 3.73332C8.91704 4.63538 8.18577 5.36665 7.28371 5.36665C6.38164 5.36665 5.65037 4.63538 5.65037 3.73332C5.65037 2.83125 6.38164 2.09998 7.28371 2.09998C8.18577 2.09998 8.91704 2.83125 8.91704 3.73332ZM9.41704 3.73332C9.41704 4.91152 8.46192 5.86665 7.28371 5.86665C6.1055 5.86665 5.15037 4.91152 5.15037 3.73332C5.15037 2.55511 6.1055 1.59998 7.28371 1.59998C8.46192 1.59998 9.41704 2.55511 9.41704 3.73332ZM15.1936 4.14568C15.339 4.00025 15.5111 3.96653 15.6882 3.99006C15.8648 4.01352 16.0309 4.09373 16.1304 4.16192L18.3092 6.28152L18.382 6.35233H18.4835H21.6835H21.7829L21.8552 6.28403L24.1039 4.15902C24.191 4.09262 24.342 4.01286 24.5051 3.98988C24.6627 3.96768 24.8254 3.99757 24.9736 4.14577C25.1167 4.2889 25.1536 4.46945 25.129 4.66438C25.1052 4.85343 25.0246 5.03349 24.955 5.14419L22.5733 7.52544L22.5 7.59867V7.70223V16.2357V16.2357C22.5001 16.3735 22.4567 16.5857 22.3339 16.7563C22.2203 16.9141 22.0288 17.0523 21.6835 17.0523C21.3121 17.0523 21.1151 16.9383 21.0104 16.8292C20.8996 16.7138 20.8667 16.5779 20.8667 16.5023V11.969V11.719H20.6167H19.55H19.3V11.969V16.2357C19.3 16.3734 19.2566 16.5857 19.1338 16.7563C19.0202 16.9141 18.8285 17.0523 18.4834 17.0523C18.1382 17.0523 17.9466 16.9141 17.8329 16.7563C17.7101 16.5857 17.6667 16.3735 17.6667 16.2357V16.2357L17.667 11.5392L18.6605 10.5458C18.7777 10.4286 18.9158 10.2231 18.9571 9.96918C19.001 9.69978 18.9314 9.39652 18.6605 9.12557C18.3895 8.85462 18.0863 8.78507 17.8169 8.82893C17.7647 8.83742 17.7146 8.85 17.6668 8.86565V7.70223V7.59868L17.5936 7.52546L15.2123 5.1441C15.1427 5.03341 15.062 4.85334 15.0382 4.66428C15.0136 4.46936 15.0505 4.28881 15.1936 4.14568ZM16.6004 12.6059L17.167 12.0393L17.1667 16.2356V16.2357C17.1667 16.4534 17.23 16.7746 17.4271 17.0484C17.6335 17.335 17.9752 17.5523 18.4834 17.5523C18.9915 17.5523 19.3332 17.335 19.5396 17.0484C19.7367 16.7746 19.8 16.4534 19.8 16.2357V12.219H20.3667V16.5023C20.3667 16.6934 20.4405 16.9576 20.6497 17.1755C20.865 17.3997 21.2014 17.5523 21.6835 17.5523C22.1917 17.5523 22.5334 17.335 22.7397 17.0484C22.9369 16.7745 23.0001 16.4534 23 16.2357L23 16.2356L23 7.8058L25.3271 5.47912L25.3447 5.46161L25.3584 5.441C25.464 5.28257 25.5882 5.01969 25.6251 4.72694C25.6627 4.42853 25.6107 4.07575 25.3272 3.79222C25.0487 3.51375 24.7194 3.45475 24.4353 3.49477C24.1619 3.5333 23.9259 3.6625 23.7862 3.77272L23.7774 3.77963L23.7693 3.78729L21.5841 5.85233H18.585L16.4648 3.78971L16.4516 3.77684L16.4366 3.76606C16.2871 3.65838 16.0373 3.53203 15.754 3.49441C15.4627 3.45572 15.1213 3.51089 14.8401 3.79212C14.5565 4.07566 14.5045 4.42844 14.5421 4.72685C14.5791 5.0196 14.7032 5.28248 14.8088 5.44091L14.8226 5.46151L14.8401 5.47901L17.1668 7.80579V9.199L15.4468 10.919H11.911L10.2002 9.42203V8.07248L12.527 5.7457L12.5445 5.72819L12.5582 5.7076C12.6639 5.54916 12.788 5.28629 12.8249 4.99354C12.8626 4.69513 12.8105 4.34235 12.527 4.05881C12.2458 3.77757 11.9044 3.7224 11.613 3.7611C11.3298 3.79872 11.0799 3.92507 10.9305 4.03275L10.9155 4.04353L10.9023 4.05639L8.78202 6.11901H5.783L3.59777 4.05398L3.58966 4.04632L3.58091 4.03941C3.44119 3.92918 3.2052 3.79998 2.93174 3.76146C2.64768 3.72144 2.31838 3.78043 2.03991 4.0589C1.75638 4.34244 1.70435 4.69522 1.74199 4.99363C1.77891 5.28638 1.90305 5.54926 2.00868 5.70769L2.02241 5.7283L2.03993 5.74581L4.36704 8.07249V16.5023V16.5023C4.367 16.7201 4.43021 17.0412 4.62732 17.3151C4.83365 17.6017 5.17537 17.819 5.68357 17.819C6.16565 17.819 6.50205 17.6664 6.71735 17.4422C6.92657 17.2242 7.00037 16.9601 7.00037 16.769V12.4857H7.56704V16.5023C7.56704 16.7201 7.63032 17.0412 7.82749 17.3151C8.03384 17.6017 8.37556 17.819 8.88371 17.819C9.39185 17.819 9.73358 17.6017 9.93992 17.3151C10.1371 17.0412 10.2004 16.7201 10.2004 16.5023V12.1414L10.8892 12.8308V21.2889C10.8673 21.5046 10.8952 21.8226 11.0623 22.0985C11.2445 22.3993 11.5741 22.619 12.0837 22.619C12.5919 22.619 12.9336 22.4017 13.1399 22.1151C13.3371 21.8412 13.4004 21.5201 13.4004 21.3023V17.1479H14.0503V21.3828C14.0351 21.5888 14.0762 21.8888 14.2569 22.1465C14.4511 22.4233 14.7841 22.619 15.2837 22.619C15.7829 22.619 16.1236 22.4243 16.3335 22.1575C16.5346 21.9019 16.6004 21.6002 16.6004 21.3927V12.6059ZM9.70023 7.96892V8.99548C9.58802 8.92094 9.44577 8.85523 9.28385 8.82889C9.01445 8.78506 8.71121 8.85463 8.44026 9.12557C8.16932 9.39652 8.09977 9.69978 8.14362 9.96918C8.18496 10.2231 8.32309 10.4286 8.44026 10.5458L8.44608 10.5516L8.45227 10.557L9.70037 11.6508V16.5023C9.70037 16.6401 9.65699 16.8523 9.53416 17.0229C9.42051 17.1808 9.22889 17.319 8.88371 17.319C8.53852 17.319 8.34691 17.1808 8.23326 17.0229C8.11043 16.8523 8.06704 16.6401 8.06704 16.5023V12.2357V11.9857H7.81704H6.75037H6.50037V12.2357V16.769C6.50037 16.8446 6.4675 16.9804 6.35668 17.0959C6.25193 17.205 6.05493 17.319 5.68357 17.319C5.33831 17.319 5.14673 17.1808 5.03312 17.023C4.91034 16.8524 4.867 16.6402 4.86704 16.5024V16.5023V7.96892V7.86535L4.7938 7.79213L2.4121 5.41087C2.3425 5.30018 2.2619 5.12012 2.23806 4.93106C2.21347 4.73614 2.25033 4.55559 2.39346 4.41246C2.54166 4.26426 2.70437 4.23436 2.862 4.25657C3.02507 4.27954 3.17606 4.3593 3.26316 4.42571L5.51186 6.55072L5.58413 6.61901H5.68357H8.88356H8.98511L9.05789 6.54821L11.2367 4.4286C11.3361 4.36042 11.5022 4.28021 11.6789 4.25675C11.856 4.23322 12.028 4.26694 12.1735 4.41236C12.3166 4.5555 12.3534 4.73605 12.3289 4.93097C12.305 5.12003 12.2244 5.30009 12.1548 5.41079L9.77345 7.79214L9.70023 7.86537V7.96892ZM8.79382 9.47912C8.94954 9.3234 9.09074 9.30404 9.20356 9.3224C9.33189 9.34328 9.44635 9.41846 9.50695 9.47904L9.51282 9.48492L9.51908 9.49039L11.6524 11.3572L11.7231 11.419H11.817H15.5504H15.6539L15.7272 11.3458L17.5938 9.47912C17.6544 9.41852 17.7689 9.34332 17.8972 9.32243C18.01 9.30406 18.1512 9.3234 18.3069 9.47912C18.4627 9.63484 18.482 9.77603 18.4636 9.88884C18.4427 10.0172 18.3675 10.1316 18.3069 10.1922L16.1736 12.3256L16.1004 12.3988V12.5023V21.3927C16.1004 21.5107 16.0595 21.6971 15.9406 21.8483C15.8304 21.9883 15.6378 22.119 15.2837 22.119C14.93 22.119 14.7574 21.9893 14.6663 21.8593C14.565 21.715 14.5392 21.5332 14.5494 21.414L14.5503 21.4034V21.3927V16.8979V16.6479H14.3003H13.1504H12.9004V16.8979V21.3023C12.9004 21.4401 12.857 21.6523 12.7342 21.8229C12.6205 21.9808 12.4289 22.119 12.0837 22.119C11.74 22.119 11.577 21.9832 11.49 21.8395C11.3919 21.6775 11.3715 21.4706 11.3876 21.3308L11.3892 21.3166V21.3023V12.7273V12.6238L11.316 12.5506L10.1272 11.3608L10.1214 11.3549L10.1151 11.3494L8.78874 10.1871C8.72908 10.1253 8.65744 10.0136 8.63713 9.88884C8.61876 9.77603 8.6381 9.63484 8.79382 9.47912ZM13.6837 10.1667C14.5858 10.1667 15.317 9.43538 15.317 8.53332C15.317 7.63125 14.5858 6.89998 13.6837 6.89998C12.7816 6.89998 12.0504 7.63125 12.0504 8.53332C12.0504 9.43538 12.7816 10.1667 13.6837 10.1667ZM13.6837 10.6667C14.8619 10.6667 15.817 9.71152 15.817 8.53332C15.817 7.35511 14.8619 6.39998 13.6837 6.39998C12.5055 6.39998 11.5504 7.35511 11.5504 8.53332C11.5504 9.71152 12.5055 10.6667 13.6837 10.6667Z"/>
</mask>
<path d="M15.6882 3.99006L15.754 3.49441V3.49441L15.6882 3.99006ZM15.1936 4.14568L14.8401 3.79212V3.79213L15.1936 4.14568ZM16.1304 4.16192L16.479 3.80353L16.4484 3.77375L16.4132 3.74959L16.1304 4.16192ZM18.3092 6.28152L17.9605 6.63991L17.9605 6.63992L18.3092 6.28152ZM18.382 6.35233L18.0333 6.71072L18.1789 6.85233H18.382V6.35233ZM21.7829 6.35233V6.85233H21.9818L22.1264 6.71574L21.7829 6.35233ZM21.8552 6.28403L22.1986 6.64744L22.1986 6.64744L21.8552 6.28403ZM24.1039 4.15902L23.8008 3.76139L23.7797 3.77744L23.7605 3.79561L24.1039 4.15902ZM24.5051 3.98988L24.5748 4.48499L24.5051 3.98988ZM24.9736 4.14577L24.62 4.49932L24.62 4.49933L24.9736 4.14577ZM25.129 4.66438L25.6251 4.72695V4.72695L25.129 4.66438ZM24.955 5.14419L25.3085 5.49777L25.3483 5.45798L25.3782 5.41033L24.955 5.14419ZM22.5733 7.52544L22.2197 7.17186L22.2197 7.17186L22.5733 7.52544ZM22.5 7.59867L22.1465 7.24509L22 7.39154V7.59867H22.5ZM22.5 16.2357H22V16.2359L22.5 16.2357ZM22.3339 16.7563L21.9281 16.4642H21.9281L22.3339 16.7563ZM21.0104 16.8292L21.3711 16.4829L21.0104 16.8292ZM20.8667 11.719H21.3667V11.219H20.8667V11.719ZM19.3 11.719V11.219H18.8V11.719H19.3ZM19.1338 16.7563L18.728 16.4641L18.728 16.4641L19.1338 16.7563ZM17.8329 16.7563L18.2387 16.4641H18.2387L17.8329 16.7563ZM17.6667 16.2357H17.1667V16.2357L17.6667 16.2357ZM17.6667 16.2357L17.1667 16.2356V16.2357H17.6667ZM17.667 11.5392L17.3135 11.1857L17.167 11.3321L17.167 11.5392L17.667 11.5392ZM18.6605 10.5458L19.014 10.8993L19.014 10.8993L18.6605 10.5458ZM18.9571 9.96918L18.4636 9.88884V9.88884L18.9571 9.96918ZM17.8169 8.82893L17.7365 8.33542L17.7365 8.33542L17.8169 8.82893ZM17.6668 8.86565H17.1668V9.55567L17.8225 9.34078L17.6668 8.86565ZM17.6668 7.59868H18.1668V7.39157L18.0204 7.24513L17.6668 7.59868ZM15.2123 5.1441L14.789 5.41025L14.8189 5.45788L14.8587 5.49766L15.2123 5.1441ZM15.0382 4.66428L14.5421 4.72685V4.72685L15.0382 4.66428ZM17.167 12.0393L17.667 12.0393L17.6671 10.8321L16.8134 11.6857L17.167 12.0393ZM16.6004 12.6059L16.2468 12.2523L16.1004 12.3988V12.6059H16.6004ZM17.1667 16.2356L16.6667 16.2356V16.2356H17.1667ZM17.4271 17.0484L17.8329 16.7563L17.4271 17.0484ZM19.5396 17.0484L19.1338 16.7562L19.1338 16.7563L19.5396 17.0484ZM19.8 12.219V11.719H19.3V12.219H19.8ZM20.3667 12.219H20.8667V11.719H20.3667V12.219ZM20.6497 17.1755L20.289 17.5218L20.6497 17.1755ZM22.7397 17.0484L22.3339 16.7563L22.7397 17.0484ZM23 16.2357L23.5 16.2356L23.5 16.2285L23.4998 16.2214L23 16.2357ZM23 16.2356H22.5V16.2427L22.5002 16.2499L23 16.2356ZM23 7.8058L22.6465 7.45221L22.5 7.59867V7.8058H23ZM25.3271 5.47912L25.6807 5.83271L25.6807 5.8327L25.3271 5.47912ZM25.3447 5.46161L25.6982 5.81519L25.7332 5.78017L25.7607 5.73896L25.3447 5.46161ZM25.3584 5.441L25.7744 5.71836L25.7744 5.71835L25.3584 5.441ZM25.6251 4.72694L26.1211 4.78951L26.1211 4.78951L25.6251 4.72694ZM25.3272 3.79222L24.9736 4.14577V4.14577L25.3272 3.79222ZM24.4353 3.49477L24.3656 2.99966L24.4353 3.49477ZM23.7862 3.77272L23.4765 3.38017L23.4764 3.3802L23.7862 3.77272ZM23.7774 3.77963L23.4677 3.38711L23.4502 3.40091L23.434 3.41622L23.7774 3.77963ZM23.7693 3.78729L23.4259 3.42388L23.4259 3.42388L23.7693 3.78729ZM21.5841 5.85233V6.35233H21.7829L21.9275 6.21573L21.5841 5.85233ZM18.585 5.85233L18.2364 6.21072L18.382 6.35233H18.585V5.85233ZM16.4648 3.78971L16.8134 3.43132L16.8134 3.43131L16.4648 3.78971ZM16.4516 3.77684L16.8002 3.41844L16.7738 3.39272L16.7438 3.37116L16.4516 3.77684ZM16.4366 3.76606L16.7289 3.36037V3.36037L16.4366 3.76606ZM15.754 3.49441L15.6882 3.99006V3.99006L15.754 3.49441ZM14.8401 3.79212L14.4865 3.43857L14.4865 3.43857L14.8401 3.79212ZM14.5421 4.72685L14.0461 4.78942V4.78942L14.5421 4.72685ZM14.8088 5.44091L14.3928 5.71826L14.3928 5.71826L14.8088 5.44091ZM14.8226 5.46151L14.4065 5.73886L14.434 5.78005L14.469 5.81506L14.8226 5.46151ZM14.8401 5.47901L14.4865 5.83256L14.4865 5.83256L14.8401 5.47901ZM17.1668 7.80579H17.6668V7.59868L17.5204 7.45223L17.1668 7.80579ZM17.1668 9.199L17.5204 9.55256L17.6668 9.40611V9.199H17.1668ZM15.4468 10.919V11.419H15.6539L15.8004 11.2726L15.4468 10.919ZM11.911 10.919L11.5817 11.2953L11.7231 11.419H11.911V10.919ZM10.2002 9.42203H9.70023V9.64891L9.87097 9.79831L10.2002 9.42203ZM10.2002 8.07248L9.84668 7.71892L9.70023 7.86537V8.07248H10.2002ZM12.527 5.7457L12.1735 5.39215L12.527 5.7457ZM12.5445 5.72819L12.8981 6.08175L12.9331 6.04674L12.9605 6.00555L12.5445 5.72819ZM12.5582 5.7076L12.9743 5.98495L12.9743 5.98495L12.5582 5.7076ZM12.8249 4.99354L12.3289 4.93097V4.93097L12.8249 4.99354ZM12.527 4.05881L12.1735 4.41236L12.1735 4.41237L12.527 4.05881ZM11.613 3.7611L11.5472 3.26545L11.613 3.7611ZM10.9305 4.03275L10.6382 3.62706L10.6382 3.62706L10.9305 4.03275ZM10.9155 4.04353L10.6232 3.63784L10.5933 3.65941L10.5668 3.68514L10.9155 4.04353ZM10.9023 4.05639L11.2509 4.41478L11.2509 4.41478L10.9023 4.05639ZM8.78202 6.11901V6.61901H8.98511L9.13067 6.4774L8.78202 6.11901ZM5.783 6.11901L5.43958 6.48242L5.58413 6.61901H5.783V6.11901ZM3.59777 4.05398L3.94119 3.69057L3.94119 3.69057L3.59777 4.05398ZM3.58966 4.04632L3.93308 3.68291L3.91686 3.66758L3.89935 3.65377L3.58966 4.04632ZM3.58091 4.03941L3.89059 3.64686L3.89059 3.64686L3.58091 4.03941ZM2.93174 3.76146L3.00149 3.26635L2.93174 3.76146ZM2.03991 4.0589L1.68636 3.70535L1.68636 3.70535L2.03991 4.0589ZM1.74199 4.99363L2.23806 4.93106L1.74199 4.99363ZM2.00868 5.70769L1.59265 5.98504H1.59265L2.00868 5.70769ZM2.02241 5.7283L1.60639 6.00565L1.63386 6.04686L1.66889 6.08188L2.02241 5.7283ZM2.03993 5.74581L1.6864 6.09939L1.68641 6.09939L2.03993 5.74581ZM4.36704 8.07249H4.86704V7.86536L4.72056 7.7189L4.36704 8.07249ZM4.36704 16.5023L4.86704 16.5024V16.5023H4.36704ZM4.62732 17.3151L4.22152 17.6072H4.22152L4.62732 17.3151ZM6.71735 17.4422L6.35668 17.0959L6.35668 17.0959L6.71735 17.4422ZM7.00037 12.4857V11.9857H6.50037V12.4857H7.00037ZM7.56704 12.4857H8.06704V11.9857H7.56704V12.4857ZM7.82749 17.3151L8.23326 17.0229L7.82749 17.3151ZM9.93992 17.3151L9.53416 17.0229L9.53416 17.0229L9.93992 17.3151ZM10.2004 12.1414L10.5541 11.788L9.70037 10.9335V12.1414H10.2004ZM10.8892 12.8308H11.3892V12.6238L11.2429 12.4774L10.8892 12.8308ZM10.8892 21.2889L11.3866 21.3393L11.3892 21.3142V21.2889H10.8892ZM11.0623 22.0985L11.49 21.8395H11.49L11.0623 22.0985ZM13.1399 22.1151L13.5457 22.4072L13.1399 22.1151ZM13.4004 17.1479V16.6479H12.9004V17.1479H13.4004ZM14.0503 17.1479H14.5503V16.6479H14.0503V17.1479ZM14.0503 21.3828L14.5489 21.4196L14.5503 21.4013V21.3828H14.0503ZM14.2569 22.1465L13.8476 22.4336H13.8476L14.2569 22.1465ZM16.3335 22.1575L16.7265 22.4666L16.7265 22.4666L16.3335 22.1575ZM9.70023 8.99548L9.42356 9.41196L10.2002 9.9279V8.99548H9.70023ZM9.28385 8.82889L9.36414 8.33538L9.36414 8.33538L9.28385 8.82889ZM8.14362 9.96918L8.63713 9.88884L8.14362 9.96918ZM8.44026 10.5458L8.79382 10.1922H8.79382L8.44026 10.5458ZM8.44608 10.5516L8.09253 10.9052L8.10417 10.9168L8.11654 10.9276L8.44608 10.5516ZM8.45227 10.557L8.12273 10.9331L8.12274 10.9331L8.45227 10.557ZM9.70037 11.6508H10.2004V11.4241L10.0299 11.2747L9.70037 11.6508ZM9.53416 17.0229L9.93993 17.3151L9.53416 17.0229ZM8.23326 17.0229L7.82749 17.3151H7.82749L8.23326 17.0229ZM8.06704 11.9857H8.56704V11.4857H8.06704V11.9857ZM6.50037 11.9857V11.4857H6.00037V11.9857H6.50037ZM6.35668 17.0959L6.71735 17.4422L6.71735 17.4422L6.35668 17.0959ZM5.03312 17.023L4.62732 17.3151H4.62732L5.03312 17.023ZM4.86704 16.5024L5.36704 16.5025V16.5024H4.86704ZM4.86704 7.86535H5.36704V7.65822L5.22056 7.51177L4.86704 7.86535ZM4.7938 7.79213L4.44028 8.14571L4.44028 8.14572L4.7938 7.79213ZM2.4121 5.41087L1.98882 5.67702L2.01878 5.72467L2.05858 5.76446L2.4121 5.41087ZM2.23806 4.93106L2.73413 4.8685L2.23806 4.93106ZM2.39346 4.41246L2.74702 4.76601L2.74702 4.76601L2.39346 4.41246ZM2.862 4.25657L2.79225 4.75168H2.79225L2.862 4.25657ZM3.26316 4.42571L3.60658 4.0623L3.58735 4.04412L3.5663 4.02808L3.26316 4.42571ZM5.51186 6.55072L5.85527 6.18731L5.85527 6.18731L5.51186 6.55072ZM5.58413 6.61901L5.24071 6.98242L5.38525 7.11901H5.58413V6.61901ZM8.98511 6.61901V7.11901H9.18819L9.33376 6.9774L8.98511 6.61901ZM9.05789 6.54821L8.70924 6.18982V6.18982L9.05789 6.54821ZM11.2367 4.4286L10.9539 4.01628L10.9187 4.04044L10.8881 4.07021L11.2367 4.4286ZM11.6789 4.25675L11.7447 4.75239L11.7447 4.75239L11.6789 4.25675ZM12.1735 4.41236L12.527 4.05881V4.05881L12.1735 4.41236ZM12.3289 4.93097L11.8328 4.8684V4.86841L12.3289 4.93097ZM12.1548 5.41079L12.5084 5.76434L12.5481 5.72456L12.5781 5.67694L12.1548 5.41079ZM9.70023 7.86537L9.34668 7.51181L9.20023 7.65826V7.86537H9.70023ZM9.20356 9.3224L9.12327 9.81591H9.12327L9.20356 9.3224ZM8.79382 9.47912L8.44026 9.12557L8.44026 9.12557L8.79382 9.47912ZM9.50695 9.47904L9.86047 9.12546L9.86047 9.12546L9.50695 9.47904ZM9.51282 9.48492L9.1593 9.8385L9.17106 9.85026L9.18358 9.86122L9.51282 9.48492ZM9.51908 9.49039L9.84834 9.11411L9.84832 9.1141L9.51908 9.49039ZM11.6524 11.3572L11.9817 10.9809L11.9817 10.9809L11.6524 11.3572ZM11.7231 11.419L11.3938 11.7953L11.5352 11.919H11.7231V11.419ZM15.6539 11.419V11.919H15.861L16.0075 11.7726L15.6539 11.419ZM17.8972 9.32243L17.9775 9.81593H17.9776L17.8972 9.32243ZM18.3069 9.47912L18.6605 9.12557V9.12557L18.3069 9.47912ZM18.4636 9.88884L17.9701 9.80851V9.80851L18.4636 9.88884ZM16.1736 12.3256L16.5271 12.6791L16.5272 12.6791L16.1736 12.3256ZM16.1004 12.3988L15.7468 12.0452L15.6004 12.1917V12.3988H16.1004ZM15.9406 21.8483L15.5476 21.5392L15.5476 21.5392L15.9406 21.8483ZM14.6663 21.8593L15.0756 21.5722L15.0756 21.5722L14.6663 21.8593ZM14.5494 21.414L14.0512 21.3715V21.3715L14.5494 21.414ZM14.5503 21.4034L15.0485 21.4458L15.0503 21.4246V21.4034H14.5503ZM14.5503 16.6479H15.0503V16.1479H14.5503V16.6479ZM12.9004 16.6479V16.1479H12.4004V16.6479H12.9004ZM12.7342 21.8229L13.1399 22.1151L13.1399 22.1151L12.7342 21.8229ZM11.49 21.8395L11.0623 22.0985L11.0623 22.0985L11.49 21.8395ZM11.3876 21.3308L10.8908 21.2739L10.8908 21.2739L11.3876 21.3308ZM11.3892 21.3166L11.8859 21.3735L11.8892 21.3451V21.3166H11.3892ZM11.3892 12.6238H11.8892V12.4168L11.7429 12.2704L11.3892 12.6238ZM11.316 12.5506L11.6697 12.1972L11.6697 12.1972L11.316 12.5506ZM10.1272 11.3608L9.7735 11.7141L9.77352 11.7141L10.1272 11.3608ZM10.1214 11.3549L10.4751 11.0015L10.4634 10.9898L10.4509 10.9789L10.1214 11.3549ZM10.1151 11.3494L10.4447 10.9734L10.4447 10.9734L10.1151 11.3494ZM8.78874 10.1871L8.42901 10.5343L8.44351 10.5494L8.4592 10.5631L8.78874 10.1871ZM8.63713 9.88884L9.13063 9.80851V9.80851L8.63713 9.88884ZM20.0837 5.33332C21.2619 5.33332 22.217 4.37819 22.217 3.19998H21.217C21.217 3.82591 20.7096 4.33332 20.0837 4.33332V5.33332ZM17.9504 3.19998C17.9504 4.37819 18.9055 5.33332 20.0837 5.33332V4.33332C19.4578 4.33332 18.9504 3.82591 18.9504 3.19998H17.9504ZM20.0837 1.06665C18.9055 1.06665 17.9504 2.02178 17.9504 3.19998H18.9504C18.9504 2.57406 19.4578 2.06665 20.0837 2.06665V1.06665ZM22.217 3.19998C22.217 2.02178 21.2619 1.06665 20.0837 1.06665V2.06665C20.7096 2.06665 21.217 2.57406 21.217 3.19998H22.217ZM20.0837 5.83332C21.5381 5.83332 22.717 4.65433 22.717 3.19998H21.717C21.717 4.10205 20.9858 4.83332 20.0837 4.83332V5.83332ZM17.4504 3.19998C17.4504 4.65433 18.6294 5.83332 20.0837 5.83332V4.83332C19.1816 4.83332 18.4504 4.10205 18.4504 3.19998H17.4504ZM20.0837 0.56665C18.6294 0.56665 17.4504 1.74563 17.4504 3.19998H18.4504C18.4504 2.29792 19.1816 1.56665 20.0837 1.56665V0.56665ZM22.717 3.19998C22.717 1.74563 21.5381 0.56665 20.0837 0.56665V1.56665C20.9858 1.56665 21.717 2.29792 21.717 3.19998H22.717ZM7.28371 5.86665C8.46192 5.86665 9.41704 4.91152 9.41704 3.73332H8.41704C8.41704 4.35924 7.90963 4.86665 7.28371 4.86665V5.86665ZM5.15037 3.73332C5.15037 4.91152 6.1055 5.86665 7.28371 5.86665V4.86665C6.65778 4.86665 6.15037 4.35924 6.15037 3.73332H5.15037ZM7.28371 1.59998C6.1055 1.59998 5.15037 2.55511 5.15037 3.73332H6.15037C6.15037 3.10739 6.65778 2.59998 7.28371 2.59998V1.59998ZM9.41704 3.73332C9.41704 2.55511 8.46192 1.59998 7.28371 1.59998V2.59998C7.90963 2.59998 8.41704 3.10739 8.41704 3.73332H9.41704ZM7.28371 6.36665C8.73806 6.36665 9.91704 5.18767 9.91704 3.73332H8.91704C8.91704 4.63538 8.18577 5.36665 7.28371 5.36665V6.36665ZM4.65037 3.73332C4.65037 5.18767 5.82936 6.36665 7.28371 6.36665V5.36665C6.38164 5.36665 5.65037 4.63538 5.65037 3.73332H4.65037ZM7.28371 1.09998C5.82936 1.09998 4.65037 2.27897 4.65037 3.73332H5.65037C5.65037 2.83125 6.38164 2.09998 7.28371 2.09998V1.09998ZM9.91704 3.73332C9.91704 2.27897 8.73806 1.09998 7.28371 1.09998V2.09998C8.18577 2.09998 8.91704 2.83125 8.91704 3.73332H9.91704ZM15.754 3.49441C15.4613 3.45552 15.1205 3.51172 14.8401 3.79212L15.5472 4.49923C15.5552 4.4912 15.5601 4.48808 15.5616 4.48719C15.5631 4.48634 15.5641 4.48592 15.5656 4.48549C15.5688 4.48459 15.585 4.48074 15.6224 4.48571L15.754 3.49441ZM16.4132 3.74959C16.2646 3.6477 16.0254 3.53045 15.754 3.49441L15.6224 4.48571C15.659 4.49057 15.7022 4.50263 15.7468 4.52112C15.7915 4.53965 15.8272 4.56029 15.8475 4.57424L16.4132 3.74959ZM18.6578 5.92313L16.479 3.80353L15.7817 4.52031L17.9605 6.63991L18.6578 5.92313ZM18.7306 5.99393L18.6578 5.92313L17.9605 6.63992L18.0333 6.71072L18.7306 5.99393ZM18.4835 5.85233H18.382V6.85233H18.4835V5.85233ZM21.6835 5.85233H18.4835V6.85233H21.6835V5.85233ZM21.7829 5.85233H21.6835V6.85233H21.7829V5.85233ZM21.5118 5.92062L21.4395 5.98892L22.1264 6.71574L22.1986 6.64744L21.5118 5.92062ZM23.7605 3.79561L21.5118 5.92062L22.1986 6.64744L24.4473 4.52243L23.7605 3.79561ZM24.4353 3.49477C24.1694 3.53223 23.94 3.65528 23.8008 3.76139L24.407 4.55665C24.4193 4.54731 24.4459 4.53005 24.4815 4.51399C24.5169 4.49804 24.5495 4.48856 24.5748 4.48499L24.4353 3.49477ZM25.3272 3.79222C25.0494 3.51446 24.7205 3.45459 24.4353 3.49477L24.5748 4.48499C24.5993 4.48154 24.6054 4.48468 24.6017 4.48358C24.6002 4.48314 24.5999 4.48276 24.6015 4.48372C24.6032 4.48478 24.6096 4.48889 24.62 4.49932L25.3272 3.79222ZM25.6251 4.72695C25.6629 4.42694 25.6098 4.07487 25.3272 3.79222L24.62 4.49933C24.6259 4.50516 24.6281 4.50877 24.6289 4.51016C24.6298 4.51159 24.6309 4.51385 24.6321 4.51823C24.6347 4.52764 24.6391 4.5529 24.6329 4.60181L25.6251 4.72695ZM25.3782 5.41033C25.4771 5.25311 25.5901 5.00428 25.6251 4.72695L24.6329 4.60181C24.6271 4.64818 24.6131 4.70068 24.5927 4.75365C24.5722 4.8066 24.5491 4.85039 24.5317 4.87805L25.3782 5.41033ZM22.9268 7.87903L25.3085 5.49777L24.6014 4.7906L22.2197 7.17186L22.9268 7.87903ZM22.8535 7.95225L22.9268 7.87902L22.2197 7.17186L22.1465 7.24509L22.8535 7.95225ZM23 7.70223V7.59867H22V7.70223H23ZM23 16.2357V7.70223H22V16.2357H23ZM23 16.2357V16.2357H22V16.2357H23ZM22.7397 17.0484C22.9368 16.7747 23.0001 16.4536 23 16.2356L22 16.2359C22 16.2566 21.9962 16.2978 21.9823 16.3463C21.9686 16.3942 21.9493 16.4347 21.9281 16.4642L22.7397 17.0484ZM21.6835 17.5523C22.1916 17.5523 22.5334 17.3351 22.7397 17.0484L21.9281 16.4642C21.91 16.4894 21.8911 16.5063 21.8664 16.5191C21.8414 16.532 21.7877 16.5523 21.6835 16.5523V17.5523ZM20.6497 17.1755C20.8647 17.3994 21.201 17.5523 21.6835 17.5523V16.5523C21.5489 16.5523 21.4696 16.5317 21.4276 16.5154C21.3874 16.4999 21.3733 16.4852 21.3711 16.4829L20.6497 17.1755ZM20.3667 16.5023C20.3667 16.6938 20.4408 16.9578 20.6497 17.1755L21.3711 16.4829C21.3668 16.4785 21.3649 16.4746 21.3641 16.4725C21.3637 16.4715 21.3641 16.472 21.3647 16.4751C21.365 16.4768 21.3654 16.4796 21.3658 16.4837C21.3662 16.4877 21.3667 16.4939 21.3667 16.5023H20.3667ZM20.3667 11.969V16.5023H21.3667V11.969H20.3667ZM20.3667 11.719V11.969H21.3667V11.719H20.3667ZM20.6167 12.219H20.8667V11.219H20.6167V12.219ZM19.55 12.219H20.6167V11.219H19.55V12.219ZM19.3 12.219H19.55V11.219H19.3V12.219ZM19.8 11.969V11.719H18.8V11.969H19.8ZM19.8 16.2357V11.969H18.8V16.2357H19.8ZM19.5396 17.0484C19.7366 16.7747 19.8 16.4537 19.8 16.2357H18.8C18.8 16.2564 18.7961 16.2976 18.7823 16.3461C18.7686 16.394 18.7492 16.4346 18.728 16.4641L19.5396 17.0484ZM18.4834 17.5523C18.9914 17.5523 19.3332 17.3351 19.5396 17.0484L18.728 16.4641C18.7098 16.4894 18.691 16.5063 18.6662 16.5191C18.6412 16.532 18.5875 16.5523 18.4834 16.5523V17.5523ZM17.4271 17.0484C17.6335 17.3351 17.9753 17.5523 18.4834 17.5523V16.5523C18.3792 16.5523 18.3255 16.532 18.3005 16.5191C18.2757 16.5063 18.2569 16.4894 18.2387 16.4641L17.4271 17.0484ZM17.1667 16.2357C17.1667 16.4537 17.2301 16.7747 17.4271 17.0484L18.2387 16.4641C18.2175 16.4346 18.1982 16.394 18.1845 16.3462C18.1706 16.2976 18.1667 16.2564 18.1667 16.2357L17.1667 16.2357ZM17.1667 16.2357V16.2357H18.1667V16.2357H17.1667ZM17.167 11.5392L17.1667 16.2356L18.1667 16.2357L18.167 11.5393L17.167 11.5392ZM18.3069 10.1922L17.3135 11.1857L18.0206 11.8928L19.014 10.8993L18.3069 10.1922ZM18.4636 9.88884C18.4428 10.017 18.3677 10.1315 18.3069 10.1922L19.014 10.8993C19.1877 10.7257 19.3888 10.4292 19.4506 10.0495L18.4636 9.88884ZM18.3069 9.47912C18.3902 9.56241 18.4308 9.63815 18.4505 9.70004C18.4705 9.76264 18.4739 9.82574 18.4636 9.88884L19.4506 10.0495C19.52 9.62358 19.4003 9.15823 19.014 8.77202L18.3069 9.47912ZM17.8972 9.32243C17.9603 9.31216 18.0234 9.31552 18.086 9.33551C18.1479 9.35526 18.2236 9.39583 18.3069 9.47912L19.014 8.77202C18.6278 8.3858 18.1625 8.26608 17.7365 8.33542L17.8972 9.32243ZM17.8225 9.34078C17.8472 9.33269 17.8722 9.3265 17.8972 9.32243L17.7365 8.33542C17.6572 8.34834 17.5819 8.36732 17.5111 8.39051L17.8225 9.34078ZM17.1668 7.70223V8.86565H18.1668V7.70223H17.1668ZM17.1668 7.59868V7.70223H18.1668V7.59868H17.1668ZM17.2401 7.87901L17.3133 7.95223L18.0204 7.24513L17.9472 7.17191L17.2401 7.87901ZM14.8587 5.49766L17.2401 7.87901L17.9472 7.17191L15.5658 4.79055L14.8587 5.49766ZM14.5421 4.72685C14.5771 5.0042 14.6901 5.25303 14.789 5.41025L15.6355 4.87795C15.6181 4.85031 15.595 4.80651 15.5745 4.75356C15.5541 4.70059 15.5401 4.64809 15.5343 4.60172L14.5421 4.72685ZM14.8401 3.79213C14.5574 4.07478 14.5043 4.42684 14.5421 4.72685L15.5343 4.60172C15.5281 4.55281 15.5325 4.52754 15.5351 4.51814C15.5363 4.51376 15.5374 4.5115 15.5383 4.51007C15.5391 4.50868 15.5413 4.50506 15.5472 4.49923L14.8401 3.79213ZM16.8134 11.6857L16.2468 12.2523L16.9539 12.9595L17.5205 12.3928L16.8134 11.6857ZM17.6667 16.2357L17.667 12.0393L16.667 12.0392L16.6667 16.2356L17.6667 16.2357ZM17.6667 16.2357V16.2356H16.6667V16.2357H17.6667ZM17.8329 16.7563C17.7101 16.5857 17.6667 16.3736 17.6667 16.2357H16.6667C16.6667 16.5333 16.7498 16.9634 17.0214 17.3406L17.8329 16.7563ZM18.4834 17.0523C18.1382 17.0523 17.9466 16.9141 17.8329 16.7563L17.0214 17.3406C17.3204 17.7559 17.8122 18.0523 18.4834 18.0523V17.0523ZM19.1338 16.7563C19.0201 16.9141 18.8285 17.0523 18.4834 17.0523V18.0523C19.1545 18.0523 19.6463 17.7559 19.9453 17.3406L19.1338 16.7563ZM19.3 16.2357C19.3 16.3736 19.2566 16.5857 19.1338 16.7562L19.9453 17.3406C20.2169 16.9634 20.3 16.5333 20.3 16.2357H19.3ZM19.3 12.219V16.2357H20.3V12.219H19.3ZM20.3667 11.719H19.8V12.719H20.3667V11.719ZM20.8667 16.5023V12.219H19.8667V16.5023H20.8667ZM21.0104 16.8292C20.8997 16.7139 20.8667 16.5781 20.8667 16.5023H19.8667C19.8667 16.8087 19.9813 17.2012 20.289 17.5218L21.0104 16.8292ZM21.6835 17.0523C21.3118 17.0523 21.115 16.9381 21.0104 16.8292L20.289 17.5218C20.6151 17.8613 21.091 18.0523 21.6835 18.0523V17.0523ZM22.3339 16.7563C22.2203 16.9141 22.0287 17.0523 21.6835 17.0523V18.0523C22.3547 18.0523 22.8465 17.7559 23.1455 17.3405L22.3339 16.7563ZM22.5 16.2358C22.5001 16.3737 22.4566 16.5858 22.3339 16.7563L23.1455 17.3405C23.4171 16.9633 23.5001 16.5332 23.5 16.2356L22.5 16.2358ZM22.5002 16.2499L22.5002 16.2499L23.4998 16.2214L23.4998 16.2213L22.5002 16.2499ZM22.5 7.8058L22.5 16.2356H23.5L23.5 7.8058H22.5ZM24.9736 5.12553L22.6465 7.45221L23.3535 8.15939L25.6807 5.83271L24.9736 5.12553ZM24.9911 5.10803L24.9736 5.12554L25.6807 5.8327L25.6982 5.81519L24.9911 5.10803ZM24.9424 5.16365L24.9286 5.18426L25.7607 5.73896L25.7744 5.71836L24.9424 5.16365ZM25.129 4.66438C25.1037 4.86493 25.0145 5.05539 24.9424 5.16365L25.7744 5.71835C25.9135 5.50975 26.0726 5.17446 26.1211 4.78951L25.129 4.66438ZM24.9736 4.14577C25.1163 4.28843 25.1537 4.46858 25.129 4.66438L26.1211 4.78951C26.1717 4.38849 26.1051 3.86308 25.6807 3.43866L24.9736 4.14577ZM24.5051 3.98988C24.6633 3.96759 24.8258 3.99794 24.9736 4.14577L25.6807 3.43866C25.2716 3.02955 24.7755 2.94192 24.3656 2.99966L24.5051 3.98988ZM24.0958 4.16527C24.1815 4.09766 24.3369 4.01357 24.5051 3.98988L24.3656 2.99966C23.9868 3.05302 23.6702 3.22733 23.4765 3.38017L24.0958 4.16527ZM24.0871 4.17215L24.0959 4.16524L23.4764 3.3802L23.4677 3.38711L24.0871 4.17215ZM24.1127 4.1507L24.1208 4.14304L23.434 3.41622L23.4259 3.42388L24.1127 4.1507ZM21.9275 6.21573L24.1127 4.1507L23.4259 3.42388L21.2406 5.48892L21.9275 6.21573ZM18.585 6.35233H21.5841V5.35233H18.585V6.35233ZM16.1161 4.1481L18.2364 6.21072L18.9337 5.49394L16.8134 3.43132L16.1161 4.1481ZM16.1029 4.13524L16.1162 4.14811L16.8134 3.43131L16.8002 3.41844L16.1029 4.13524ZM16.1443 4.17174L16.1593 4.18253L16.7438 3.37116L16.7289 3.36037L16.1443 4.17174ZM15.6882 3.99006C15.8734 4.01465 16.047 4.10161 16.1443 4.17174L16.7289 3.36037C16.5273 3.21515 16.2012 3.04941 15.8199 2.99876L15.6882 3.99006ZM15.1936 4.14568C15.3386 4.00069 15.5103 3.96643 15.6882 3.99006L15.8199 2.99876C15.4151 2.945 14.904 3.02108 14.4865 3.43857L15.1936 4.14568ZM15.0382 4.66429C15.0135 4.46849 15.051 4.28833 15.1936 4.14568L14.4865 3.43857C14.0621 3.86298 13.9955 4.38839 14.0461 4.78942L15.0382 4.66429ZM15.2248 5.16356C15.1527 5.05529 15.0635 4.86484 15.0382 4.66428L14.0461 4.78942C14.0946 5.17436 14.2537 5.50966 14.3928 5.71826L15.2248 5.16356ZM15.2386 5.18415L15.2248 5.16356L14.3928 5.71826L14.4065 5.73886L15.2386 5.18415ZM15.1936 5.12546L15.1761 5.10796L14.469 5.81506L14.4865 5.83256L15.1936 5.12546ZM17.5204 7.45223L15.1936 5.12546L14.4865 5.83256L16.8133 8.15934L17.5204 7.45223ZM17.6668 9.199V7.80579H16.6668V9.199H17.6668ZM15.8004 11.2726L17.5204 9.55256L16.8133 8.84545L15.0933 10.5655L15.8004 11.2726ZM11.911 11.419H15.4468V10.419H11.911V11.419ZM9.87097 9.79831L11.5817 11.2953L12.2402 10.5427L10.5295 9.04575L9.87097 9.79831ZM9.70023 8.07248V9.42203H10.7002V8.07248H9.70023ZM12.1735 5.39215L9.84668 7.71892L10.5538 8.42603L12.8806 6.09925L12.1735 5.39215ZM12.191 5.37464L12.1735 5.39215L12.8806 6.09925L12.8981 6.08175L12.191 5.37464ZM12.1422 5.43024L12.1285 5.45084L12.9605 6.00555L12.9743 5.98495L12.1422 5.43024ZM12.3289 4.93097C12.3036 5.13152 12.2144 5.32198 12.1422 5.43025L12.9743 5.98495C13.1133 5.77635 13.2725 5.44105 13.321 5.0561L12.3289 4.93097ZM12.1735 4.41237C12.3161 4.55502 12.3536 4.73518 12.3289 4.93097L13.321 5.05611C13.3716 4.65508 13.305 4.12967 12.8806 3.70526L12.1735 4.41237ZM11.6789 4.25675C11.8568 4.23312 12.0285 4.26738 12.1735 4.41236L12.8806 3.70526C12.4631 3.28777 11.952 3.21169 11.5472 3.26545L11.6789 4.25675ZM11.2227 4.43843C11.3201 4.3683 11.4937 4.28134 11.6789 4.25675L11.5472 3.26545C11.1659 3.3161 10.8398 3.48183 10.6382 3.62706L11.2227 4.43843ZM11.2078 4.44921L11.2227 4.43843L10.6382 3.62706L10.6232 3.63784L11.2078 4.44921ZM11.2509 4.41478L11.2641 4.40192L10.5668 3.68514L10.5536 3.698L11.2509 4.41478ZM9.13067 6.4774L11.2509 4.41478L10.5536 3.698L8.43337 5.76062L9.13067 6.4774ZM5.783 6.61901H8.78202V5.61901H5.783V6.61901ZM3.25435 4.41738L5.43958 6.48242L6.12642 5.75561L3.94119 3.69057L3.25435 4.41738ZM3.24625 4.40972L3.25436 4.41739L3.94119 3.69057L3.93308 3.68291L3.24625 4.40972ZM3.27122 4.43195L3.27998 4.43886L3.89935 3.65377L3.89059 3.64686L3.27122 4.43195ZM2.862 4.25657C3.03016 4.28026 3.18553 4.36435 3.27122 4.43196L3.89059 3.64686C3.69686 3.49402 3.38024 3.3197 3.00149 3.26635L2.862 4.25657ZM2.39346 4.41246C2.54129 4.26463 2.70377 4.23428 2.862 4.25657L3.00149 3.26635C2.5916 3.2086 2.09547 3.29624 1.68636 3.70535L2.39346 4.41246ZM2.23806 4.93106C2.21336 4.73527 2.25081 4.55511 2.39346 4.41246L1.68636 3.70535C1.26195 4.12976 1.19534 4.65517 1.24592 5.0562L2.23806 4.93106ZM2.4247 5.43034C2.35252 5.32207 2.26335 5.13162 2.23806 4.93106L1.24592 5.0562C1.29447 5.44114 1.45358 5.77644 1.59265 5.98504L2.4247 5.43034ZM2.43844 5.45095L2.4247 5.43034L1.59265 5.98504L1.60639 6.00565L2.43844 5.45095ZM2.39345 5.39223L2.37594 5.37471L1.66889 6.08188L1.6864 6.09939L2.39345 5.39223ZM4.72056 7.7189L2.39345 5.39222L1.68641 6.09939L4.01352 8.42607L4.72056 7.7189ZM4.86704 16.5023V8.07249H3.86704V16.5023H4.86704ZM4.86704 16.5023V16.5023H3.86704V16.5023H4.86704ZM5.03312 17.023C4.91042 16.8525 4.86701 16.6404 4.86704 16.5024L3.86704 16.5022C3.86698 16.7999 3.94999 17.2299 4.22152 17.6072L5.03312 17.023ZM5.68357 17.319C5.33835 17.319 5.14675 17.1808 5.03312 17.023L4.22152 17.6072C4.52054 18.0226 5.01239 18.319 5.68357 18.319V17.319ZM6.35668 17.0959C6.2521 17.2048 6.05522 17.319 5.68357 17.319V18.319C6.27607 18.319 6.752 18.128 7.07802 17.7884L6.35668 17.0959ZM6.50037 16.769C6.50037 16.8448 6.46737 16.9806 6.35668 17.0959L7.07802 17.7884C7.38577 17.4679 7.50037 17.0754 7.50037 16.769H6.50037ZM6.50037 12.4857V16.769H7.50037V12.4857H6.50037ZM7.56704 11.9857H7.00037V12.9857H7.56704V11.9857ZM8.06704 16.5023V12.4857H7.06704V16.5023H8.06704ZM8.23326 17.0229C8.1105 16.8524 8.06704 16.6403 8.06704 16.5023H7.06704C7.06704 16.8 7.15014 17.23 7.42172 17.6072L8.23326 17.0229ZM8.88371 17.319C8.53856 17.319 8.34693 17.1808 8.23326 17.0229L7.42172 17.6072C7.72075 18.0226 8.21256 18.319 8.88371 18.319V17.319ZM9.53416 17.0229C9.42048 17.1808 9.22886 17.319 8.88371 17.319V18.319C9.55485 18.319 10.0467 18.0226 10.3457 17.6072L9.53416 17.0229ZM9.70037 16.5023C9.70037 16.6403 9.65692 16.8524 9.53416 17.0229L10.3457 17.6072C10.6173 17.23 10.7004 16.8 10.7004 16.5023H9.70037ZM9.70037 12.1414V16.5023H10.7004V12.1414H9.70037ZM11.2429 12.4774L10.5541 11.788L9.84667 12.4948L10.5355 13.1842L11.2429 12.4774ZM11.3892 21.2889V12.8308H10.3892V21.2889H11.3892ZM11.49 21.8395C11.3945 21.6818 11.3723 21.4809 11.3866 21.3393L10.3917 21.2386C10.3624 21.5284 10.396 21.9633 10.6346 22.3575L11.49 21.8395ZM12.0837 22.119C11.7398 22.119 11.5769 21.983 11.49 21.8395L10.6346 22.3575C10.912 22.8156 11.4084 23.119 12.0837 23.119V22.119ZM12.7342 21.8229C12.6205 21.9808 12.4289 22.119 12.0837 22.119V23.119C12.7549 23.119 13.2467 22.8226 13.5457 22.4072L12.7342 21.8229ZM12.9004 21.3023C12.9004 21.4403 12.8569 21.6524 12.7342 21.8229L13.5457 22.4072C13.8173 22.03 13.9004 21.6 13.9004 21.3023H12.9004ZM12.9004 17.1479V21.3023H13.9004V17.1479H12.9004ZM14.0503 16.6479H13.4004V17.6479H14.0503V16.6479ZM14.5503 21.3828V17.1479H13.5503V21.3828H14.5503ZM14.6663 21.8593C14.5672 21.7181 14.54 21.5405 14.5489 21.4196L13.5516 21.346C13.5302 21.6371 13.5852 22.0595 13.8476 22.4336L14.6663 21.8593ZM15.2837 22.119C14.9296 22.119 14.7572 21.989 14.6663 21.8593L13.8476 22.4336C14.145 22.8576 14.6386 23.119 15.2837 23.119V22.119ZM15.9406 21.8483C15.8305 21.9882 15.638 22.119 15.2837 22.119V23.119C15.9279 23.119 16.4168 22.8604 16.7265 22.4666L15.9406 21.8483ZM16.1004 21.3927C16.1004 21.5109 16.0594 21.6973 15.9406 21.8483L16.7265 22.4666C17.0098 22.1065 17.1004 21.6895 17.1004 21.3927H16.1004ZM16.1004 12.6059V21.3927H17.1004V12.6059H16.1004ZM10.2002 8.99548V7.96892H9.20023V8.99548H10.2002ZM9.20356 9.3224C9.28229 9.33521 9.35854 9.36876 9.42356 9.41196L9.9769 8.579C9.81751 8.47312 9.60926 8.37526 9.36414 8.33538L9.20356 9.3224ZM8.79382 9.47912C8.87711 9.39583 8.95286 9.35526 9.01475 9.33549C9.07735 9.3155 9.14046 9.31213 9.20356 9.3224L9.36414 8.33538C8.93822 8.26608 8.4729 8.38582 8.08671 8.77202L8.79382 9.47912ZM8.63713 9.88884C8.62685 9.82574 8.63021 9.76264 8.6502 9.70004C8.66996 9.63815 8.71053 9.56241 8.79382 9.47912L8.08671 8.77202C7.7005 9.15823 7.58078 9.62358 7.65012 10.0495L8.63713 9.88884ZM8.79382 10.1922C8.73308 10.1315 8.65799 10.017 8.63713 9.88884L7.65012 10.0495C7.71192 10.4292 7.91309 10.7257 8.08671 10.8993L8.79382 10.1922ZM8.79964 10.1981L8.79382 10.1922L8.08671 10.8993L8.09253 10.9052L8.79964 10.1981ZM8.78182 10.181L8.77563 10.1756L8.11654 10.9276L8.12273 10.9331L8.78182 10.181ZM10.0299 11.2747L8.78181 10.181L8.12274 10.9331L9.37084 12.0268L10.0299 11.2747ZM10.2004 16.5023V11.6508H9.20037V16.5023H10.2004ZM9.93993 17.3151C10.137 17.0414 10.2004 16.7204 10.2004 16.5023H9.20037C9.20037 16.5231 9.19648 16.5643 9.1826 16.6128C9.16891 16.6607 9.1496 16.7013 9.12839 16.7308L9.93993 17.3151ZM8.88371 17.819C9.39179 17.819 9.73354 17.6017 9.93993 17.3151L9.12839 16.7308C9.1102 16.756 9.09133 16.773 9.06657 16.7858C9.04156 16.7987 8.98783 16.819 8.88371 16.819V17.819ZM7.82749 17.3151C8.03388 17.6017 8.37563 17.819 8.88371 17.819V16.819C8.77958 16.819 8.72586 16.7987 8.70085 16.7858C8.67608 16.773 8.65722 16.756 8.63903 16.7308L7.82749 17.3151ZM7.56704 16.5023C7.56704 16.7204 7.63043 17.0414 7.82749 17.3151L8.63903 16.7308C8.61782 16.7013 8.59851 16.6607 8.58481 16.6128C8.57093 16.5643 8.56704 16.5231 8.56704 16.5023H7.56704ZM7.56704 12.2357V16.5023H8.56704V12.2357H7.56704ZM7.56704 11.9857V12.2357H8.56704V11.9857H7.56704ZM7.81704 12.4857H8.06704V11.4857H7.81704V12.4857ZM6.75037 12.4857H7.81704V11.4857H6.75037V12.4857ZM6.50037 12.4857H6.75037V11.4857H6.50037V12.4857ZM7.00037 12.2357V11.9857H6.00037V12.2357H7.00037ZM7.00037 16.769V12.2357H6.00037V16.769H7.00037ZM6.71735 17.4422C6.92631 17.2245 7.00037 16.9605 7.00037 16.769H6.00037C6.00037 16.7606 6.00082 16.7544 6.00122 16.7504C6.00163 16.7463 6.0021 16.7434 6.00241 16.7418C6.003 16.7387 6.00336 16.7382 6.00294 16.7392C6.00216 16.7413 6.00025 16.7452 5.99601 16.7496L6.71735 17.4422ZM5.68357 17.819C6.16611 17.819 6.50232 17.6661 6.71735 17.4422L5.99601 16.7496C5.99376 16.7519 5.97962 16.7666 5.93943 16.7821C5.89746 16.7984 5.81812 16.819 5.68357 16.819V17.819ZM4.62732 17.3151C4.83368 17.6017 5.17544 17.819 5.68357 17.819V16.819C5.57939 16.819 5.52566 16.7987 5.50067 16.7858C5.47592 16.773 5.45709 16.7561 5.43892 16.7309L4.62732 17.3151ZM4.36704 16.5023C4.36698 16.7203 4.43029 17.0413 4.62732 17.3151L5.43892 16.7309C5.41775 16.7014 5.39846 16.6609 5.38478 16.613C5.37091 16.5645 5.36704 16.5232 5.36704 16.5025L4.36704 16.5023ZM4.36704 16.5023V16.5024H5.36704V16.5023H4.36704ZM4.36704 7.96892V16.5023H5.36704V7.96892H4.36704ZM4.36704 7.86535V7.96892H5.36704V7.86535H4.36704ZM4.44028 8.14572L4.51352 8.21894L5.22056 7.51177L5.14732 7.43854L4.44028 8.14572ZM2.05858 5.76446L4.44028 8.14571L5.14732 7.43854L2.76562 5.05729L2.05858 5.76446ZM1.74199 4.99363C1.77697 5.27097 1.88997 5.5198 1.98882 5.67702L2.83539 5.14473C2.818 5.11708 2.79482 5.07328 2.77439 5.02034C2.75395 4.96737 2.73997 4.91487 2.73413 4.8685L1.74199 4.99363ZM2.03991 4.0589C1.75726 4.34156 1.70415 4.69362 1.74199 4.99363L2.73413 4.8685C2.72796 4.81958 2.73238 4.79432 2.73497 4.78492C2.73617 4.78053 2.7373 4.77828 2.73813 4.77685C2.73893 4.77546 2.74118 4.77184 2.74702 4.76601L2.03991 4.0589ZM2.93174 3.76146C2.64652 3.72128 2.31766 3.78115 2.03991 4.0589L2.74702 4.76601C2.75745 4.75558 2.76384 4.75147 2.76559 4.75041C2.76719 4.74945 2.76686 4.74983 2.76537 4.75027C2.76165 4.75136 2.76771 4.74822 2.79225 4.75168L2.93174 3.76146ZM3.5663 4.02808C3.42711 3.92196 3.19767 3.79892 2.93174 3.76146L2.79225 4.75168C2.81758 4.75525 2.8502 4.76473 2.88559 4.78068C2.9212 4.79673 2.94778 4.814 2.96002 4.82333L3.5663 4.02808ZM5.85527 6.18731L3.60658 4.0623L2.91974 4.78911L5.16844 6.91412L5.85527 6.18731ZM5.92755 6.25561L5.85527 6.18731L5.16844 6.91412L5.24071 6.98242L5.92755 6.25561ZM5.68357 6.11901H5.58413V7.11901H5.68357V6.11901ZM8.88356 6.11901H5.68357V7.11901H8.88356V6.11901ZM8.98511 6.11901H8.88356V7.11901H8.98511V6.11901ZM8.70924 6.18982L8.63646 6.26062L9.33376 6.9774L9.40654 6.9066L8.70924 6.18982ZM10.8881 4.07021L8.70924 6.18982L9.40654 6.9066L11.5854 4.78699L10.8881 4.07021ZM11.613 3.7611C11.3417 3.79714 11.1024 3.91439 10.9539 4.01628L11.5195 4.84093C11.5399 4.82697 11.5755 4.80634 11.6202 4.78781C11.6649 4.76931 11.7081 4.75726 11.7447 4.75239L11.613 3.7611ZM12.527 4.05881C12.2466 3.77841 11.9058 3.72221 11.613 3.7611L11.7447 4.75239C11.7821 4.74742 11.7983 4.75128 11.8014 4.75217C11.803 4.75261 11.804 4.75302 11.8054 4.75388C11.8069 4.75477 11.8119 4.75788 11.8199 4.76592L12.527 4.05881ZM12.8249 4.99354C12.8628 4.69353 12.8097 4.34147 12.527 4.05881L11.8199 4.76592C11.8257 4.77175 11.828 4.77537 11.8288 4.77676C11.8296 4.77819 11.8307 4.78044 11.832 4.78483C11.8345 4.79423 11.839 4.81949 11.8328 4.8684L12.8249 4.99354ZM12.5781 5.67694C12.6769 5.51972 12.79 5.27088 12.8249 4.99354L11.8328 4.86841C11.8269 4.91478 11.813 4.96728 11.7925 5.02025C11.7721 5.0732 11.7489 5.11699 11.7315 5.14464L12.5781 5.67694ZM10.127 8.1457L12.5084 5.76434L11.8013 5.05724L9.4199 7.43859L10.127 8.1457ZM10.0538 8.21892L10.127 8.1457L9.4199 7.43859L9.34668 7.51181L10.0538 8.21892ZM10.2002 7.96892V7.86537H9.20023V7.96892H10.2002ZM9.28385 8.82889C9.01435 8.78504 8.71113 8.8547 8.44026 9.12557L9.14737 9.83268C9.16325 9.8168 9.17295 9.81019 9.17566 9.80847C9.17806 9.80695 9.17509 9.80916 9.16699 9.81175C9.15882 9.81436 9.14949 9.81606 9.14022 9.81655C9.13132 9.81702 9.12526 9.81623 9.12327 9.81591L9.28385 8.82889ZM9.86047 9.12546C9.74303 9.00804 9.53747 8.87015 9.28385 8.82889L9.12327 9.81591C9.12028 9.81542 9.12056 9.81517 9.124 9.81644C9.12742 9.81769 9.13231 9.81985 9.13808 9.82305C9.14386 9.82625 9.14891 9.82961 9.15261 9.83239C9.15659 9.83536 9.15673 9.83594 9.15342 9.83263L9.86047 9.12546ZM9.86635 9.13134L9.86047 9.12546L9.15342 9.83263L9.1593 9.8385L9.86635 9.13134ZM9.84832 9.1141L9.84207 9.10863L9.18358 9.86122L9.18983 9.86669L9.84832 9.1141ZM11.9817 10.9809L9.84834 9.11411L9.18982 9.86667L11.3231 11.7334L11.9817 10.9809ZM12.0524 11.0427L11.9817 10.9809L11.3231 11.7334L11.3938 11.7953L12.0524 11.0427ZM11.817 10.919H11.7231V11.919H11.817V10.919ZM15.5504 10.919H11.817V11.919H15.5504V10.919ZM15.6539 10.919H15.5504V11.919H15.6539V10.919ZM15.3736 10.9922L15.3004 11.0655L16.0075 11.7726L16.0807 11.6993L15.3736 10.9922ZM17.2403 9.12557L15.3736 10.9922L16.0807 11.6993L17.9474 9.83268L17.2403 9.12557ZM17.8169 8.82893C17.5633 8.87021 17.3577 9.00814 17.2403 9.12557L17.9474 9.83268C17.9441 9.83598 17.9442 9.8354 17.9482 9.83242C17.9519 9.82965 17.957 9.82628 17.9627 9.82308C17.9685 9.81987 17.9734 9.81772 17.9768 9.81646C17.9803 9.81519 17.9805 9.81545 17.9775 9.81593L17.8169 8.82893ZM18.6605 9.12557C18.3896 8.8547 18.0864 8.78505 17.8169 8.82893L17.9776 9.81593C17.9756 9.81626 17.9695 9.81704 17.9606 9.81657C17.9513 9.81608 17.942 9.81439 17.9338 9.81177C17.9257 9.80918 17.9227 9.80697 17.9251 9.80848C17.9278 9.8102 17.9375 9.8168 17.9534 9.83268L18.6605 9.12557ZM18.9571 9.96918C19.001 9.69967 18.9314 9.39644 18.6605 9.12557L17.9534 9.83267C17.9692 9.84855 17.9759 9.85825 17.9776 9.86095C17.9791 9.86334 17.9769 9.86036 17.9743 9.85225C17.9717 9.84407 17.97 9.83474 17.9695 9.82547C17.969 9.81656 17.9698 9.81049 17.9701 9.80851L18.9571 9.96918ZM18.6605 10.5458C18.7779 10.4284 18.9158 10.2228 18.9571 9.96918L17.9701 9.80851C17.9706 9.80551 17.9709 9.80579 17.9696 9.80924C17.9683 9.81265 17.9662 9.81754 17.963 9.82332C17.9598 9.82909 17.9564 9.83415 17.9536 9.83786C17.9507 9.84184 17.9501 9.84199 17.9534 9.83868L18.6605 10.5458ZM16.5272 12.6791L18.6605 10.5458L17.9534 9.83868L15.82 11.972L16.5272 12.6791ZM16.4539 12.7523L16.5271 12.6791L15.82 11.972L15.7468 12.0452L16.4539 12.7523ZM16.6004 12.5023V12.3988H15.6004V12.5023H16.6004ZM16.6004 21.3927V12.5023H15.6004V21.3927H16.6004ZM16.3335 22.1575C16.5344 21.9021 16.6004 21.6005 16.6004 21.3927H15.6004C15.6004 21.3988 15.5985 21.4246 15.5878 21.4589C15.5775 21.4919 15.5631 21.5195 15.5476 21.5392L16.3335 22.1575ZM15.2837 22.619C15.7831 22.619 16.1238 22.4241 16.3335 22.1575L15.5476 21.5392C15.535 21.5551 15.5187 21.5705 15.49 21.5841C15.4602 21.5982 15.3983 21.619 15.2837 21.619V22.619ZM14.2569 22.1465C14.4508 22.4229 14.7835 22.619 15.2837 22.619V21.619C15.1683 21.619 15.1151 21.5981 15.0976 21.5894C15.0826 21.582 15.0787 21.5766 15.0756 21.5722L14.2569 22.1465ZM14.0512 21.3715C14.0336 21.5781 14.0731 21.8843 14.2569 22.1465L15.0756 21.5722C15.0694 21.5634 15.0601 21.5449 15.0536 21.5163C15.0469 21.487 15.047 21.4635 15.0476 21.4564L14.0512 21.3715ZM14.0521 21.3609L14.0512 21.3715L15.0476 21.4564L15.0485 21.4458L14.0521 21.3609ZM14.0503 21.3927V21.4034H15.0503V21.3927H14.0503ZM14.0503 16.8979V21.3927H15.0503V16.8979H14.0503ZM14.0503 16.6479V16.8979H15.0503V16.6479H14.0503ZM14.3003 17.1479H14.5503V16.1479H14.3003V17.1479ZM13.1504 17.1479H14.3003V16.1479H13.1504V17.1479ZM12.9004 17.1479H13.1504V16.1479H12.9004V17.1479ZM13.4004 16.8979V16.6479H12.4004V16.8979H13.4004ZM13.4004 21.3023V16.8979H12.4004V21.3023H13.4004ZM13.1399 22.1151C13.337 21.8414 13.4004 21.5204 13.4004 21.3023H12.4004C12.4004 21.323 12.3965 21.3643 12.3826 21.4128C12.3689 21.4607 12.3496 21.5013 12.3284 21.5308L13.1399 22.1151ZM12.0837 22.619C12.5918 22.619 12.9335 22.4017 13.1399 22.1151L12.3284 21.5308C12.3102 21.556 12.2913 21.573 12.2666 21.5858C12.2416 21.5987 12.1878 21.619 12.0837 21.619V22.619ZM11.0623 22.0985C11.1431 22.232 11.2656 22.3702 11.45 22.4714C11.6323 22.5715 11.8453 22.619 12.0837 22.619V21.619C11.9784 21.619 11.938 21.5986 11.9312 21.5948C11.9264 21.5922 11.9239 21.5907 11.9177 21.5805L11.0623 22.0985ZM10.8908 21.2739C10.8661 21.49 10.8915 21.8163 11.0623 22.0985L11.9177 21.5805C11.9084 21.5651 11.8962 21.5356 11.8888 21.4922C11.8814 21.4491 11.8817 21.41 11.8843 21.3877L10.8908 21.2739ZM10.8924 21.2597L10.8908 21.2739L11.8843 21.3877L11.8859 21.3735L10.8924 21.2597ZM10.8892 21.3023V21.3166H11.8892V21.3023H10.8892ZM10.8892 12.7273V21.3023H11.8892V12.7273H10.8892ZM10.8892 12.6238V12.7273H11.8892V12.6238H10.8892ZM10.9623 12.904L11.0355 12.9772L11.7429 12.2704L11.6697 12.1972L10.9623 12.904ZM9.77352 11.7141L10.9623 12.904L11.6697 12.1972L10.4809 11.0074L9.77352 11.7141ZM9.76765 11.7083L9.7735 11.7141L10.481 11.0074L10.4751 11.0015L9.76765 11.7083ZM9.7856 11.7255L9.79184 11.7309L10.4509 10.9789L10.4447 10.9734L9.7856 11.7255ZM8.4592 10.5631L9.78561 11.7255L10.4447 10.9734L9.11827 9.81102L8.4592 10.5631ZM8.14362 9.96918C8.18392 10.2167 8.3161 10.4174 8.42901 10.5343L9.14847 9.8398C9.15058 9.84198 9.14947 9.84109 9.14645 9.83696C9.14358 9.83303 9.14031 9.82798 9.13727 9.8224C9.13422 9.81681 9.13222 9.81217 9.13106 9.80898C9.1299 9.80577 9.13015 9.80558 9.13063 9.80851L8.14362 9.96918ZM8.44026 9.12557C8.16939 9.39644 8.09975 9.69967 8.14362 9.96918L9.13063 9.80851C9.13095 9.81049 9.13174 9.81656 9.13127 9.82547C9.13078 9.83474 9.12908 9.84407 9.12647 9.85225C9.12388 9.86036 9.12166 9.86334 9.12318 9.86095C9.12489 9.85825 9.1315 9.84855 9.14737 9.83267L8.44026 9.12557ZM14.817 8.53332C14.817 9.15924 14.3096 9.66665 13.6837 9.66665V10.6667C14.8619 10.6667 15.817 9.71153 15.817 8.53332H14.817ZM13.6837 7.39998C14.3096 7.39998 14.817 7.90739 14.817 8.53332H15.817C15.817 7.35511 14.8619 6.39998 13.6837 6.39998V7.39998ZM12.5504 8.53332C12.5504 7.90739 13.0578 7.39998 13.6837 7.39998V6.39998C12.5055 6.39998 11.5504 7.35511 11.5504 8.53332H12.5504ZM13.6837 9.66665C13.0578 9.66665 12.5504 9.15924 12.5504 8.53332H11.5504C11.5504 9.71152 12.5055 10.6667 13.6837 10.6667V9.66665ZM15.317 8.53332C15.317 9.43538 14.5858 10.1667 13.6837 10.1667V11.1667C15.1381 11.1667 16.317 9.98767 16.317 8.53332H15.317ZM13.6837 6.89998C14.5858 6.89998 15.317 7.63125 15.317 8.53332H16.317C16.317 7.07897 15.1381 5.89998 13.6837 5.89998V6.89998ZM12.0504 8.53332C12.0504 7.63125 12.7816 6.89998 13.6837 6.89998V5.89998C12.2294 5.89998 11.0504 7.07897 11.0504 8.53332H12.0504ZM13.6837 10.1667C12.7816 10.1667 12.0504 9.43538 12.0504 8.53332H11.0504C11.0504 9.98767 12.2294 11.1667 13.6837 11.1667V10.1667Z" fill="black" mask="url(#path-1-inside-1_951_2379)"/>
</svg>
