<svg width="126" height="40" viewBox="0 0 126 40" fill="none" xmlns="http://www.w3.org/2000/svg">
<circle cx="17.0003" cy="20.0002" r="13.3846" stroke="#909090" stroke-width="2"/>
<path d="M17 12.1536V19.9997L23.5385 23.9228" stroke="#909090" stroke-width="2" stroke-linecap="round"/>
<path d="M43.204 13V3.13H44.352L48.244 11.894H47.824L51.716 3.13H52.85V13H51.66V4.866H52.094L48.44 13H47.614L43.96 4.866H44.394V13H43.204ZM57.8106 13.126C57.1946 13.126 56.6533 12.9813 56.1866 12.692C55.7199 12.4027 55.3559 11.9827 55.0946 11.432C54.8333 10.8813 54.7026 10.228 54.7026 9.472C54.7026 8.716 54.8333 8.06733 55.0946 7.526C55.3559 6.97533 55.7199 6.55533 56.1866 6.266C56.6533 5.97667 57.1946 5.832 57.8106 5.832C58.4359 5.832 58.9773 5.99067 59.4346 6.308C59.9013 6.616 60.2093 7.04067 60.3586 7.582H60.1906L60.3446 5.958H61.5766C61.5486 6.238 61.5206 6.518 61.4926 6.798C61.4739 7.078 61.4646 7.35333 61.4646 7.624V13H60.1906V11.39H60.3446C60.1953 11.922 59.8873 12.3467 59.4206 12.664C58.9633 12.972 58.4266 13.126 57.8106 13.126ZM58.1046 12.118C58.7393 12.118 59.2479 11.894 59.6306 11.446C60.0133 10.998 60.2046 10.34 60.2046 9.472C60.2046 8.604 60.0133 7.95067 59.6306 7.512C59.2479 7.07333 58.7393 6.854 58.1046 6.854C57.4699 6.854 56.9566 7.07333 56.5646 7.512C56.1819 7.95067 55.9906 8.604 55.9906 9.472C55.9906 10.34 56.1819 10.998 56.5646 11.446C56.9473 11.894 57.4606 12.118 58.1046 12.118ZM62.6192 13L65.8112 9.052V9.682L62.8012 5.958H64.3272L66.5252 8.772H66.0632L68.2612 5.958H69.7732L66.8052 9.654V9.08L69.9552 13H68.4152L66.0632 9.99H66.5252L64.1452 13H62.6192ZM73.9558 13L78.3238 3.13H79.4578L83.8958 13H82.5518L81.3338 10.2L81.8938 10.536H75.8878L76.5038 10.2L75.2858 13H73.9558ZM78.8698 4.586L76.6858 9.766L76.3498 9.472H81.4318L81.1658 9.766L78.9258 4.586H78.8698ZM85.1597 13V2.696H86.4337V13H85.1597ZM91.196 13.126C90.4587 13.126 89.8987 12.9253 89.516 12.524C89.1427 12.1133 88.956 11.4973 88.956 10.676V6.938H87.584V5.958H88.956V4.068L90.23 3.718V5.958H92.218V6.938H90.23V10.564C90.23 11.1053 90.3233 11.4927 90.51 11.726C90.706 11.95 90.986 12.062 91.35 12.062C91.5367 12.062 91.6953 12.048 91.826 12.02C91.966 11.9827 92.092 11.9407 92.204 11.894V12.944C92.064 13 91.9007 13.042 91.714 13.07C91.5367 13.1073 91.364 13.126 91.196 13.126ZM93.5542 13V5.958H94.8282V13H93.5542ZM93.4422 4.418V3.046H94.9542V4.418H93.4422ZM99.5905 13.126C98.8532 13.126 98.2932 12.9253 97.9105 12.524C97.5372 12.1133 97.3505 11.4973 97.3505 10.676V6.938H95.9785V5.958H97.3505V4.068L98.6245 3.718V5.958H100.613V6.938H98.6245V10.564C98.6245 11.1053 98.7179 11.4927 98.9045 11.726C99.1005 11.95 99.3805 12.062 99.7445 12.062C99.9312 12.062 100.09 12.048 100.221 12.02C100.361 11.9827 100.487 11.9407 100.599 11.894V12.944C100.459 13 100.295 13.042 100.109 13.07C99.9312 13.1073 99.7585 13.126 99.5905 13.126ZM104.455 13.126C103.605 13.126 102.966 12.8973 102.537 12.44C102.117 11.9827 101.907 11.278 101.907 10.326V5.958H103.181V10.298C103.181 10.914 103.307 11.3667 103.559 11.656C103.811 11.9453 104.203 12.09 104.735 12.09C105.313 12.09 105.78 11.8987 106.135 11.516C106.499 11.124 106.681 10.606 106.681 9.962V5.958H107.955V13H106.723V11.446H106.905C106.709 11.978 106.396 12.3933 105.967 12.692C105.537 12.9813 105.033 13.126 104.455 13.126ZM112.785 13.126C112.169 13.126 111.628 12.9813 111.161 12.692C110.695 12.4027 110.331 11.9827 110.069 11.432C109.808 10.8813 109.677 10.228 109.677 9.472C109.677 8.716 109.808 8.06733 110.069 7.526C110.331 6.97533 110.695 6.55533 111.161 6.266C111.628 5.97667 112.169 5.832 112.785 5.832C113.401 5.832 113.938 5.986 114.395 6.294C114.862 6.602 115.175 7.02667 115.333 7.568H115.165V2.696H116.439V13H115.179V11.362H115.333C115.184 11.9127 114.876 12.3467 114.409 12.664C113.952 12.972 113.411 13.126 112.785 13.126ZM113.079 12.118C113.714 12.118 114.223 11.894 114.605 11.446C114.997 10.998 115.193 10.34 115.193 9.472C115.193 8.604 114.997 7.95067 114.605 7.512C114.223 7.07333 113.714 6.854 113.079 6.854C112.445 6.854 111.931 7.07333 111.539 7.512C111.157 7.95067 110.965 8.604 110.965 9.472C110.965 10.34 111.157 10.998 111.539 11.446C111.931 11.894 112.445 12.118 113.079 12.118ZM121.78 13.126C120.66 13.126 119.773 12.804 119.12 12.16C118.476 11.516 118.154 10.6293 118.154 9.5C118.154 8.75333 118.294 8.10933 118.574 7.568C118.863 7.01733 119.26 6.59267 119.764 6.294C120.268 5.986 120.856 5.832 121.528 5.832C122.172 5.832 122.718 5.972 123.166 6.252C123.614 6.52267 123.954 6.91 124.188 7.414C124.421 7.918 124.538 8.51533 124.538 9.206V9.626H119.148V8.87H123.67L123.432 9.052C123.432 8.324 123.268 7.75933 122.942 7.358C122.624 6.95667 122.153 6.756 121.528 6.756C120.846 6.756 120.319 6.994 119.946 7.47C119.572 7.93667 119.386 8.576 119.386 9.388V9.514C119.386 10.3727 119.596 11.0213 120.016 11.46C120.445 11.8987 121.038 12.118 121.794 12.118C122.214 12.118 122.606 12.0573 122.97 11.936C123.334 11.8147 123.684 11.614 124.02 11.334L124.44 12.216C124.122 12.5053 123.726 12.7293 123.25 12.888C122.783 13.0467 122.293 13.126 121.78 13.126Z" fill="#282828"/>
<path d="M43.19 37V36.034L46.634 32.422C47.082 31.9647 47.4133 31.526 47.628 31.106C47.852 30.686 47.964 30.252 47.964 29.804C47.964 29.2533 47.7913 28.838 47.446 28.558C47.11 28.2687 46.6153 28.124 45.962 28.124C45.458 28.124 44.982 28.2173 44.534 28.404C44.0953 28.5813 43.6753 28.8567 43.274 29.23L42.812 28.236C43.1947 27.8627 43.6753 27.564 44.254 27.34C44.842 27.116 45.458 27.004 46.102 27.004C47.11 27.004 47.8893 27.2373 48.44 27.704C48.9907 28.1613 49.266 28.8193 49.266 29.678C49.266 30.3033 49.112 30.9007 48.804 31.47C48.5053 32.03 48.062 32.6087 47.474 33.206L44.464 36.258V35.894H49.672V37H43.19ZM54.7625 37.126C54.3332 37.126 53.9085 37.0793 53.4885 36.986C53.0779 36.8927 52.6905 36.762 52.3265 36.594C51.9625 36.4167 51.6452 36.202 51.3745 35.95L51.8365 34.942C52.2939 35.306 52.7605 35.5767 53.2365 35.754C53.7125 35.922 54.2119 36.006 54.7345 36.006C55.4252 36.006 55.9665 35.824 56.3585 35.46C56.7505 35.096 56.9465 34.6107 56.9465 34.004C56.9465 33.3787 56.7599 32.8747 56.3865 32.492C56.0132 32.1 55.4952 31.904 54.8325 31.904C54.3752 31.904 53.9599 31.9973 53.5865 32.184C53.2225 32.3613 52.9005 32.646 52.6205 33.038H51.6965V27.13H57.6185V28.236H52.9565V31.974H52.6205C52.8725 31.6007 53.2132 31.3113 53.6425 31.106C54.0812 30.9007 54.5712 30.798 55.1125 30.798C55.7472 30.798 56.2932 30.9287 56.7505 31.19C57.2172 31.4513 57.5765 31.82 57.8285 32.296C58.0899 32.7627 58.2205 33.3087 58.2205 33.934C58.2205 34.5593 58.0805 35.1147 57.8005 35.6C57.5205 36.076 57.1192 36.4493 56.5965 36.72C56.0832 36.9907 55.4719 37.126 54.7625 37.126ZM62.9891 37.126C61.8597 37.126 60.9917 36.692 60.3851 35.824C59.7784 34.9467 59.4751 33.6913 59.4751 32.058C59.4751 30.3967 59.7784 29.1413 60.3851 28.292C60.9917 27.4333 61.8597 27.004 62.9891 27.004C64.1277 27.004 64.9957 27.4333 65.5931 28.292C66.1997 29.1413 66.5031 30.392 66.5031 32.044C66.5031 33.6867 66.1997 34.9467 65.5931 35.824C64.9864 36.692 64.1184 37.126 62.9891 37.126ZM62.9891 36.02C63.7357 36.02 64.2911 35.698 64.6551 35.054C65.0284 34.41 65.2151 33.4067 65.2151 32.044C65.2151 30.6813 65.0284 29.6873 64.6551 29.062C64.2911 28.4273 63.7357 28.11 62.9891 28.11C62.2517 28.11 61.6964 28.4273 61.3231 29.062C60.9497 29.6873 60.7631 30.6813 60.7631 32.044C60.7631 33.4067 60.9497 34.41 61.3231 35.054C61.6964 35.698 62.2517 36.02 62.9891 36.02ZM71.3836 37.126C70.2543 37.126 69.3863 36.692 68.7796 35.824C68.1729 34.9467 67.8696 33.6913 67.8696 32.058C67.8696 30.3967 68.1729 29.1413 68.7796 28.292C69.3863 27.4333 70.2543 27.004 71.3836 27.004C72.5223 27.004 73.3903 27.4333 73.9876 28.292C74.5943 29.1413 74.8976 30.392 74.8976 32.044C74.8976 33.6867 74.5943 34.9467 73.9876 35.824C73.3809 36.692 72.5129 37.126 71.3836 37.126ZM71.3836 36.02C72.1303 36.02 72.6856 35.698 73.0496 35.054C73.4229 34.41 73.6096 33.4067 73.6096 32.044C73.6096 30.6813 73.4229 29.6873 73.0496 29.062C72.6856 28.4273 72.1303 28.11 71.3836 28.11C70.6463 28.11 70.0909 28.4273 69.7176 29.062C69.3443 29.6873 69.1576 30.6813 69.1576 32.044C69.1576 33.4067 69.3443 34.41 69.7176 35.054C70.0909 35.698 70.6463 36.02 71.3836 36.02ZM80.4735 37V27.13H86.7175V28.194H81.7755V31.498H86.3955V32.562H81.7755V37H80.4735ZM90.8815 37.126C90.1442 37.126 89.5842 36.9253 89.2015 36.524C88.8282 36.1133 88.6415 35.4973 88.6415 34.676V30.938H87.2695V29.958H88.6415V28.068L89.9155 27.718V29.958H91.9035V30.938H89.9155V34.564C89.9155 35.1053 90.0089 35.4927 90.1955 35.726C90.3915 35.95 90.6715 36.062 91.0355 36.062C91.2222 36.062 91.3809 36.048 91.5115 36.02C91.6515 35.9827 91.7775 35.9407 91.8895 35.894V36.944C91.7495 37 91.5862 37.042 91.3995 37.07C91.2222 37.1073 91.0495 37.126 90.8815 37.126ZM93.2349 37V35.446H94.7889V37H93.2349Z" fill="#5E6D77"/>
</svg>
