<svg width="32" height="32" viewBox="0 0 32 32" fill="none" xmlns="http://www.w3.org/2000/svg">
<circle cx="16" cy="16" r="16" fill="white"/>
<g clip-path="url(#clip0_1207_1792)">
<path fill-rule="evenodd" clip-rule="evenodd" d="M18.1045 7.95841C18.9785 7.62482 19.9339 7.5677 20.8414 7.79478C21.5631 7.97535 22.2268 8.32871 22.7771 8.82084C23.4539 8.57207 24.0959 8.2354 24.6863 7.81895L25.1666 8.49992L25.9763 8.6971C25.6909 9.8692 25.1187 10.9496 24.314 11.8424C24.3264 11.9769 24.3328 12.1119 24.3333 12.2472L24.3333 12.2499C24.3333 17.3332 21.8859 21.0624 18.3707 22.9335C14.8757 24.7937 10.409 24.7731 6.42859 22.5617C6.09125 22.3743 5.92671 21.9798 6.03092 21.6082C6.13513 21.2367 6.48082 20.9852 6.86642 21.0006C8.2721 21.0565 9.66361 20.777 10.9289 20.1941C9.67628 19.4211 8.77448 18.5035 8.14751 17.5135C7.31115 16.1929 6.99543 14.794 6.93832 13.5378C6.88139 12.2852 7.08036 11.1573 7.28953 10.3486C7.39461 9.94223 7.50365 9.61117 7.5877 9.37869C7.62977 9.26232 7.66572 9.17026 7.692 9.1054C7.70514 9.07296 7.71588 9.04729 7.72376 9.02874L7.7334 9.0063L7.73587 9.00067C7.74174 8.98719 7.74798 8.97382 7.75461 8.96057L8.49996 9.33325L9.18193 8.85432C9.94488 9.94072 10.9647 10.8216 12.1505 11.4184C13.0937 11.8932 14.1186 12.1765 15.1664 12.2553C15.1602 11.3305 15.435 10.4255 15.9546 9.65997C16.4801 8.88596 17.2305 8.292 18.1045 7.95841ZM8.83717 11.0363C8.68409 11.7041 8.56186 12.5509 8.60327 13.4621C8.65034 14.4975 8.90753 15.5986 9.55554 16.6217C10.2002 17.6396 11.2633 18.631 13.0051 19.4051C13.2816 19.528 13.4697 19.7911 13.4967 20.0925C13.5236 20.3938 13.385 20.6861 13.1347 20.8561C12.2089 21.4845 11.1951 21.9573 10.1334 22.263C12.7752 22.936 15.4225 22.6146 17.5876 21.4622C20.5304 19.8959 22.6662 16.7506 22.6666 12.2513C22.666 12.0712 22.6486 11.8916 22.6148 11.7147C22.5626 11.4415 22.6501 11.1602 22.8482 10.9649C23.0338 10.7818 23.2057 10.5867 23.363 10.3812C23.1743 10.4508 22.9833 10.5147 22.7902 10.5729C22.4764 10.6674 22.1363 10.5691 21.9212 10.3218C21.5313 9.87352 21.0132 9.5558 20.4369 9.4116C19.8606 9.2674 19.2539 9.30367 18.6989 9.51551C18.1438 9.72735 17.6673 10.1045 17.3336 10.5961C16.9999 11.0876 16.8253 11.6697 16.8332 12.2637L16.8334 12.2749H16.8333V13.1082C16.8333 13.5601 16.4732 13.9296 16.0216 13.9413C14.4197 13.9828 12.8325 13.6276 11.4011 12.9071C10.4465 12.4266 9.581 11.7936 8.83717 11.0363Z" fill="#0B1B3E"/>
</g>
<defs>
<clipPath id="clip0_1207_1792">
<rect width="20" height="20" fill="white" transform="translate(6 6)"/>
</clipPath>
</defs>
</svg>
