<svg width="32" height="32" viewBox="0 0 32 32" fill="none" xmlns="http://www.w3.org/2000/svg">
<circle cx="16" cy="16" r="16" fill="white"/>
<g clip-path="url(#clip0_1207_1305)">
<path fill-rule="evenodd" clip-rule="evenodd" d="M11.8335 8.49967C9.99255 8.49967 8.50016 9.99206 8.50016 11.833V20.1663C8.50016 22.0073 9.99255 23.4997 11.8335 23.4997H20.1668C22.0078 23.4997 23.5002 22.0073 23.5002 20.1663V11.833C23.5002 9.99206 22.0078 8.49967 20.1668 8.49967H11.8335ZM6.8335 11.833C6.8335 9.07158 9.07207 6.83301 11.8335 6.83301H20.1668C22.9283 6.83301 25.1668 9.07158 25.1668 11.833V20.1663C25.1668 22.9278 22.9283 25.1663 20.1668 25.1663H11.8335C9.07207 25.1663 6.8335 22.9278 6.8335 20.1663V11.833Z" fill="#0B1B3E"/>
<path fill-rule="evenodd" clip-rule="evenodd" d="M16.4025 13.4906C15.8824 13.4135 15.3511 13.5023 14.8844 13.7445C14.4176 13.9867 14.0391 14.3699 13.8027 14.8396C13.5663 15.3093 13.484 15.8416 13.5676 16.3607C13.6511 16.8799 13.8962 17.3595 14.268 17.7313C14.6399 18.1031 15.1195 18.3483 15.6386 18.4318C16.1578 18.5153 16.6901 18.433 17.1598 18.1966C17.6295 17.9602 18.0127 17.5817 18.2549 17.115C18.4971 16.6482 18.5859 16.117 18.5088 15.5968C18.4301 15.0663 18.1829 14.5751 17.8036 14.1958C17.4243 13.8165 16.9331 13.5693 16.4025 13.4906ZM14.1168 12.2651C14.8947 11.8615 15.7801 11.7134 16.647 11.8419C17.5313 11.9731 18.35 12.3851 18.9821 13.0173C19.6142 13.6494 20.0263 14.4681 20.1574 15.3524C20.286 16.2193 20.1379 17.1047 19.7342 17.8826C19.3306 18.6605 18.6919 19.2913 17.9091 19.6854C17.1263 20.0794 16.2391 20.2165 15.3739 20.0773C14.5086 19.9381 13.7092 19.5295 13.0895 18.9098C12.4698 18.2901 12.0613 17.4908 11.9221 16.6255C11.7828 15.7602 11.92 14.8731 12.314 14.0903C12.708 13.3074 13.3389 12.6688 14.1168 12.2651Z" fill="#0B1B3E"/>
<path fill-rule="evenodd" clip-rule="evenodd" d="M19.75 11.4163C19.75 10.9561 20.1231 10.583 20.5833 10.583H20.5917C21.0519 10.583 21.425 10.9561 21.425 11.4163C21.425 11.8766 21.0519 12.2497 20.5917 12.2497H20.5833C20.1231 12.2497 19.75 11.8766 19.75 11.4163Z" fill="#0B1B3E"/>
</g>
<defs>
<clipPath id="clip0_1207_1305">
<rect width="20" height="20" fill="white" transform="translate(6 6)"/>
</clipPath>
</defs>
</svg>
