<svg width="32" height="32" viewBox="0 0 32 32" fill="none" xmlns="http://www.w3.org/2000/svg">
<circle cx="16" cy="16" r="16" fill="white"/>
<path fill-rule="evenodd" clip-rule="evenodd" d="M14.9645 8.29747C15.9021 7.35979 17.1739 6.83301 18.5 6.83301H21C21.4602 6.83301 21.8333 7.2061 21.8333 7.66634V10.9997C21.8333 11.4599 21.4602 11.833 21 11.833H18.5V13.4997H21C21.2566 13.4997 21.4989 13.6179 21.6568 13.8202C21.8148 14.0224 21.8707 14.2862 21.8085 14.5351L20.9751 17.8685C20.8824 18.2394 20.5491 18.4997 20.1667 18.4997H18.5V24.333C18.5 24.7932 18.1269 25.1663 17.6667 25.1663H14.3333C13.8731 25.1663 13.5 24.7932 13.5 24.333V18.4997H11.8333C11.3731 18.4997 11 18.1266 11 17.6663V14.333C11 13.8728 11.3731 13.4997 11.8333 13.4997H13.5V11.833C13.5 10.5069 14.0268 9.23516 14.9645 8.29747ZM18.5 8.49967C17.6159 8.49967 16.7681 8.85086 16.143 9.47599C15.5179 10.1011 15.1667 10.949 15.1667 11.833V14.333C15.1667 14.7932 14.7936 15.1663 14.3333 15.1663H12.6667V16.833H14.3333C14.7936 16.833 15.1667 17.2061 15.1667 17.6663V23.4997H16.8333V17.6663C16.8333 17.2061 17.2064 16.833 17.6667 16.833H19.516L19.9327 15.1663H17.6667C17.2064 15.1663 16.8333 14.7932 16.8333 14.333V11.833C16.8333 11.391 17.0089 10.9671 17.3215 10.6545C17.634 10.3419 18.058 10.1663 18.5 10.1663H20.1667V8.49967H18.5Z" fill="#0B1B3E"/>
</svg>
