<svg width="32" height="32" viewBox="0 0 32 32" fill="none" xmlns="http://www.w3.org/2000/svg">
<circle cx="16" cy="16" r="16" fill="white"/>
<g clip-path="url(#clip0_600_1131)">
<path fill-rule="evenodd" clip-rule="evenodd" d="M16.0004 8.5C16.0004 8.5 16.0005 8.5 16.0005 9.33333L16.0005 10.1667L15.9376 10.1668C15.8959 10.1669 15.8343 10.167 15.7552 10.1674C15.5971 10.1681 15.3692 10.1696 15.0912 10.1726C14.5347 10.1786 13.7788 10.1905 12.9794 10.2142C12.1787 10.238 11.341 10.2735 10.6189 10.3262C9.87882 10.3802 9.32891 10.448 9.05494 10.5202C8.80602 10.5917 8.58013 10.7271 8.39976 10.9131C8.22382 11.0944 8.09723 11.3177 8.03182 11.5615C7.7822 12.9561 7.66013 14.3707 7.66713 15.7876L7.66718 15.7969C7.65825 17.2196 7.7794 18.6401 8.02921 20.0406C8.10139 20.272 8.22925 20.4823 8.40179 20.6531C8.58255 20.832 8.80626 20.9614 9.05142 21.0289C9.32419 21.1014 9.87564 21.1696 10.6189 21.2238C11.341 21.2765 12.1787 21.312 12.9794 21.3358C13.7788 21.3595 14.5347 21.3714 15.0912 21.3774C15.3692 21.3804 15.5971 21.3819 15.7552 21.3826C15.8343 21.383 15.8959 21.3832 15.9376 21.3832H16.0634C16.1051 21.3832 16.1667 21.383 16.2457 21.3826C16.4038 21.3819 16.6317 21.3804 16.9098 21.3774C17.4663 21.3714 18.2222 21.3595 19.0216 21.3358C19.8223 21.312 20.66 21.2765 21.382 21.2238C22.1221 21.1698 22.672 21.102 22.946 21.0298C23.1949 20.9583 23.4208 20.8229 23.6012 20.6369C23.7771 20.4556 23.9037 20.2324 23.9691 19.9886C24.2168 18.6045 24.3389 17.2008 24.3338 15.7947L24.3338 15.7864C24.3428 14.3588 24.2207 12.9334 23.9691 11.5281C23.9037 11.2843 23.7771 11.0611 23.6012 10.8797C23.4229 10.6959 23.2001 10.5614 22.9546 10.4893C22.6713 10.4227 22.1193 10.3612 21.3873 10.3125C20.6638 10.2643 19.8249 10.2318 19.0237 10.2101C18.2237 10.1884 17.4673 10.1775 16.9106 10.1721C16.6323 10.1694 16.4043 10.168 16.2461 10.1673L16.0635 10.1668L16.0005 10.1667L16.0005 9.33333C16.0005 8.5 16.0004 8.5 16.0004 8.5L16.0669 8.50009C16.1098 8.50017 16.1727 8.50035 16.2532 8.50069C16.4141 8.50138 16.6452 8.50276 16.9268 8.50551C17.4899 8.51101 18.2564 8.52201 19.0689 8.54406C19.8802 8.56607 20.7434 8.59924 21.498 8.6495C22.2311 8.69832 22.9267 8.76681 23.3648 8.87379C23.3746 8.87617 23.3843 8.87874 23.394 8.88147C23.9274 9.03238 24.4115 9.32139 24.7975 9.71929C25.1835 10.1172 25.4576 10.6099 25.5922 11.1477C25.5967 11.1657 25.6006 11.1838 25.6039 11.2021C25.8771 12.7168 26.0099 14.2536 26.0005 15.7928C26.0057 17.3089 25.873 18.8224 25.6039 20.3145C25.6006 20.3328 25.5967 20.351 25.5922 20.369C25.4576 20.9068 25.1835 21.3995 24.7975 21.7974C24.4115 22.1953 23.9274 22.4843 23.394 22.6352L23.3824 22.6384C22.9377 22.7573 22.236 22.8326 21.5033 22.8861C20.7472 22.9412 19.8828 22.9776 19.0711 23.0017C18.258 23.0259 17.4909 23.0379 16.9276 23.044C16.6458 23.047 16.4146 23.0485 16.2535 23.0492C16.173 23.0496 16.11 23.0498 16.0671 23.0499L16.0008 23.05L15.9339 23.0499C15.8909 23.0498 15.8279 23.0496 15.7474 23.0492C15.5864 23.0485 15.3552 23.047 15.0733 23.044C14.51 23.0379 13.743 23.0259 12.9299 23.0017C12.1181 22.9776 11.2537 22.9412 10.4977 22.8861C9.76492 22.8326 9.06322 22.7573 8.61851 22.6384L8.61388 22.6371C8.09132 22.4942 7.61447 22.2188 7.2294 21.8377C6.84433 21.4566 6.56407 20.9826 6.41568 20.4616C6.40814 20.4351 6.40193 20.4083 6.39704 20.3813C6.12385 18.8667 5.99109 17.3301 6.00046 15.7911C5.9932 14.2636 6.12595 12.7387 6.39704 11.2354C6.40033 11.2172 6.40424 11.199 6.40875 11.181C6.54335 10.6432 6.81747 10.1505 7.20344 9.75262C7.58941 9.35472 8.07354 9.06572 8.60695 8.91481L8.61851 8.91163C9.06322 8.79269 9.76492 8.71737 10.4977 8.66393C11.2537 8.60878 12.1181 8.57241 12.9299 8.54828C13.743 8.52412 14.51 8.51206 15.0733 8.50604C15.3552 8.50302 15.5864 8.50151 15.7474 8.50076C15.8279 8.50038 15.8909 8.50019 15.9339 8.5001L16.0004 8.5Z" fill="#0B1B3E"/>
<path fill-rule="evenodd" clip-rule="evenodd" d="M13.7063 12.3463C13.9628 12.1971 14.2793 12.1955 14.5373 12.3422L19.3289 15.0672C19.5894 15.2154 19.7503 15.4919 19.7503 15.7916C19.7503 16.0913 19.5894 16.3679 19.3289 16.516L14.5373 19.241C14.2793 19.3877 13.9628 19.3861 13.7063 19.2369C13.4498 19.0877 13.292 18.8134 13.292 18.5166V13.0666C13.292 12.7699 13.4498 12.4955 13.7063 12.3463ZM14.9587 14.4992V17.084L17.2313 15.7916L14.9587 14.4992Z" fill="#0B1B3E"/>
</g>
<defs>
<clipPath id="clip0_600_1131">
<rect width="20" height="20" fill="white" transform="translate(6 6)"/>
</clipPath>
</defs>
</svg>
