<svg width="45" height="43" viewBox="0 0 45 43" fill="none" xmlns="http://www.w3.org/2000/svg">
<path fill-rule="evenodd" clip-rule="evenodd" d="M21.8229 0.0712891L43.0746 14.784L41.1938 17.9186L39.2337 16.6119V42.1828H38.6979V31.5795L37.9234 30.8049L36.5551 32.6292V42.1828H36.0194V37.6292H33.8765V42.1828H33.3408V32.6292L32.0015 30.8435L30.6622 32.6292V42.1828H30.1265V37.6292H27.9837V42.1828H27.4479V32.6292L26.1087 30.8435L24.7694 32.6292V42.1828H24.2337V32.4506L26.1087 29.9506L27.9837 32.4506V34.4149H30.1265V32.4506L32.0015 29.9506L33.8765 32.4506V34.4149H36.0194V32.4506L37.8654 29.9893L38.6979 30.8218V16.2547L21.8229 5.00471L5.21581 16.0761V23.9097L5.23041 23.9413C5.25605 23.9971 5.29361 24.079 5.34138 24.184C5.43691 24.394 5.57329 24.6961 5.73692 25.0653C6.0641 25.8036 6.50054 26.8107 6.93718 27.8855C7.37354 28.9597 7.81147 30.1047 8.14075 31.1179C8.46618 32.1192 8.69795 33.0276 8.69795 33.6114C8.69795 34.7276 8.39161 35.8603 7.73195 36.7208C7.10996 37.5321 6.18325 38.0873 4.94795 38.1574V42.1828H4.41223V38.1574C3.17693 38.0873 2.25023 37.5321 1.62823 36.7208C0.968573 35.8603 0.662234 34.7276 0.662234 33.6114C0.662234 33.0205 0.931988 32.1068 1.30708 31.1066C1.68733 30.0926 2.19291 28.947 2.69649 27.8727C3.20042 26.7976 3.7041 25.7903 4.08167 25.0519C4.2705 24.6826 4.4279 24.3804 4.53815 24.1704C4.59327 24.0654 4.63662 23.9835 4.66622 23.9277L4.68009 23.9016V16.4333L2.45208 17.9186L0.571289 14.784L21.8229 0.0712891ZM4.93074 24.5756C4.76277 24.5756 4.7038 25.0119 4.55864 25.2958C4.18286 26.0307 3.68209 27.0322 3.18155 28.1C2.68066 29.1686 2.18178 30.2998 1.80868 31.2947C1.43043 32.3034 1.19795 33.1308 1.19795 33.6114C1.19795 34.638 1.48089 35.6481 2.05338 36.3948C2.61935 37.133 3.47866 37.6292 4.68009 37.6292C5.88152 37.6292 6.74083 37.133 7.3068 36.3948C7.87929 35.6481 8.16223 34.638 8.16223 33.6114C8.16223 33.1237 7.95873 32.291 7.63126 31.2834C7.30764 30.2877 6.87503 29.1559 6.44086 28.0872C6.00696 27.0191 5.57287 26.0173 5.24715 25.2824C5.12425 25.0051 5.0987 24.5756 4.93074 24.5756ZM36.0194 34.9506H33.8765V37.0935H36.0194V34.9506ZM30.1265 34.9506H27.9837V37.0935H30.1265V34.9506ZM1.28889 14.9387L2.62239 17.1612L21.8229 4.36086L41.0235 17.1612L42.357 14.9387L21.8229 0.722857L1.28889 14.9387ZM18.1832 13.3572C17.9016 13.7483 17.8051 14.2257 17.8051 14.5399V16.522H21.5551V12.6649H19.6801C18.9102 12.6649 18.455 12.9797 18.1832 13.3572ZM22.0908 12.6649V16.522H25.8408V15.0756C25.8408 14.069 25.5081 13.4759 25.1259 13.1319C24.7351 12.7802 24.266 12.6649 23.9658 12.6649H22.0908ZM25.8408 17.0577H22.0908V20.7006H23.9658C24.7356 20.7006 25.1909 20.3859 25.4627 20.0084C25.7443 19.6173 25.8408 19.1399 25.8408 18.8256V17.0577ZM21.5551 20.7006V17.0577H17.8051V18.8256C17.8051 19.5955 18.1199 20.0508 18.4973 20.3226C18.8884 20.6042 19.3658 20.7006 19.6801 20.7006H21.5551ZM17.7484 13.0441C18.1195 12.5287 18.7356 12.1292 19.6801 12.1292H23.9658C24.3799 12.1292 24.9822 12.2818 25.4843 12.7337C25.9949 13.1933 26.3765 13.9394 26.3765 15.0756V18.8256C26.3765 19.2256 26.2587 19.8197 25.8975 20.3214C25.5264 20.8368 24.9102 21.2364 23.9658 21.2364H19.6801C19.2801 21.2364 18.686 21.1186 18.1843 20.7573C17.6689 20.3862 17.2694 19.7701 17.2694 18.8256V14.5399C17.2694 14.1399 17.3872 13.5459 17.7484 13.0441ZM10.8408 27.9864H19.4122V42.1828H18.8765V28.5221H11.3765V42.1828H10.8408V27.9864Z" fill="black"/>
<rect x="15.9302" y="34.6826" width="1.07143" height="1.07143" fill="black"/>
<path fill-rule="evenodd" clip-rule="evenodd" d="M44.323 42.7189H0.930176V41.6475H44.323V42.7189Z" fill="black"/>
</svg>
