<svg width="32" height="32" viewBox="0 0 32 32" fill="none" xmlns="http://www.w3.org/2000/svg">
<circle cx="16" cy="16" r="16" fill="white"/>
<g clip-path="url(#clip0_1207_1256)">
<path fill-rule="evenodd" clip-rule="evenodd" d="M11.8333 8.49967C9.9923 8.49967 8.49992 9.99206 8.49992 11.833V20.1663C8.49992 22.0073 9.9923 23.4997 11.8333 23.4997H20.1666C22.0075 23.4997 23.4999 22.0073 23.4999 20.1663V11.833C23.4999 9.99206 22.0075 8.49967 20.1666 8.49967H11.8333ZM6.83325 11.833C6.83325 9.07158 9.07183 6.83301 11.8333 6.83301H20.1666C22.928 6.83301 25.1666 9.07158 25.1666 11.833V20.1663C25.1666 22.9278 22.928 25.1663 20.1666 25.1663H11.8333C9.07183 25.1663 6.83325 22.9278 6.83325 20.1663V11.833Z" fill="#0B1B3E"/>
<path fill-rule="evenodd" clip-rule="evenodd" d="M16.4028 13.4906C15.8826 13.4135 15.3514 13.5023 14.8846 13.7445C14.4179 13.9867 14.0394 14.3699 13.803 14.8396C13.5666 15.3093 13.4843 15.8416 13.5678 16.3607C13.6513 16.8799 13.8965 17.3595 14.2683 17.7313C14.6401 18.1031 15.1197 18.3483 15.6389 18.4318C16.158 18.5153 16.6903 18.433 17.16 18.1966C17.6297 17.9602 18.0129 17.5817 18.2551 17.115C18.4973 16.6482 18.5861 16.117 18.509 15.5968C18.4303 15.0663 18.1831 14.5751 17.8038 14.1958C17.4245 13.8165 16.9333 13.5693 16.4028 13.4906ZM14.117 12.2651C14.8949 11.8615 15.7803 11.7134 16.6472 11.8419C17.5315 11.9731 18.3502 12.3851 18.9823 13.0173C19.6145 13.6494 20.0265 14.4681 20.1577 15.3524C20.2862 16.2193 20.1381 17.1047 19.7345 17.8826C19.3308 18.6605 18.6922 19.2913 17.9093 19.6854C17.1265 20.0794 16.2394 20.2165 15.3741 20.0773C14.5088 19.9381 13.7095 19.5295 13.0898 18.9098C12.4701 18.2901 12.0615 17.4908 11.9223 16.6255C11.7831 15.7602 11.9202 14.8731 12.3142 14.0903C12.7083 13.3074 13.3391 12.6688 14.117 12.2651Z" fill="#0B1B3E"/>
<path fill-rule="evenodd" clip-rule="evenodd" d="M19.75 11.4163C19.75 10.9561 20.1231 10.583 20.5833 10.583H20.5917C21.0519 10.583 21.425 10.9561 21.425 11.4163C21.425 11.8766 21.0519 12.2497 20.5917 12.2497H20.5833C20.1231 12.2497 19.75 11.8766 19.75 11.4163Z" fill="#0B1B3E"/>
</g>
<defs>
<clipPath id="clip0_1207_1256">
<rect width="20" height="20" fill="white" transform="translate(6 6)"/>
</clipPath>
</defs>
</svg>
