<svg width="1270" height="56" viewBox="0 0 1270 56" fill="none" xmlns="http://www.w3.org/2000/svg">
<circle cx="1242" cy="28" r="27.5" stroke="#EEEFF0"/>
<path d="M1248.59 27.2929L1240.13 18.8353C1239.74 18.4448 1239.11 18.4448 1238.72 18.8353L1238.49 19.0664C1238.1 19.4569 1238.1 20.0901 1238.49 20.4806L1245.3 27.2929C1245.69 27.6834 1245.69 28.3166 1245.3 28.7071L1238.49 35.5194C1238.1 35.9099 1238.1 36.543 1238.49 36.9336L1238.72 37.1647C1239.11 37.5552 1239.74 37.5552 1240.13 37.1647L1248.59 28.7071C1248.98 28.3166 1248.98 27.6834 1248.59 27.2929Z" fill="#6C7078"/>
<circle cx="28" cy="28" r="27.5" transform="matrix(-1 0 0 1 56 0)" stroke="#EEEFF0"/>
<path d="M21.4078 27.2929L29.8654 18.8353C30.2559 18.4448 30.8891 18.4448 31.2796 18.8353L31.5107 19.0664C31.9012 19.4569 31.9012 20.0901 31.5107 20.4806L24.6984 27.2929C24.3079 27.6834 24.3079 28.3166 24.6984 28.7071L31.5107 35.5194C31.9012 35.9099 31.9012 36.543 31.5107 36.9336L31.2796 37.1647C30.8891 37.5552 30.2559 37.5552 29.8654 37.1647L21.4078 28.7071C21.0173 28.3166 21.0173 27.6834 21.4078 27.2929Z" fill="#6C7078"/>
</svg>
