<svg width="32" height="32" viewBox="0 0 32 32" fill="none" xmlns="http://www.w3.org/2000/svg">
<circle cx="16" cy="16" r="16" fill="white"/>
<path fill-rule="evenodd" clip-rule="evenodd" d="M14.9645 8.29845C15.9021 7.36077 17.1739 6.83398 18.5 6.83398H21C21.4602 6.83398 21.8333 7.20708 21.8333 7.66732V11.0007C21.8333 11.4609 21.4602 11.834 21 11.834H18.5V13.5007H21C21.2566 13.5007 21.4989 13.6189 21.6568 13.8211C21.8148 14.0234 21.8707 14.2871 21.8085 14.5361L20.9751 17.8694C20.8824 18.2404 20.5491 18.5007 20.1667 18.5007H18.5V24.334C18.5 24.7942 18.1269 25.1673 17.6667 25.1673H14.3333C13.8731 25.1673 13.5 24.7942 13.5 24.334V18.5007H11.8333C11.3731 18.5007 11 18.1276 11 17.6673V14.334C11 13.8737 11.3731 13.5007 11.8333 13.5007H13.5V11.834C13.5 10.5079 14.0268 9.23613 14.9645 8.29845ZM18.5 8.50065C17.6159 8.50065 16.7681 8.85184 16.143 9.47696C15.5179 10.1021 15.1667 10.9499 15.1667 11.834V14.334C15.1667 14.7942 14.7936 15.1673 14.3333 15.1673H12.6667V16.834H14.3333C14.7936 16.834 15.1667 17.2071 15.1667 17.6673V23.5006H16.8333V17.6673C16.8333 17.2071 17.2064 16.834 17.6667 16.834H19.516L19.9327 15.1673H17.6667C17.2064 15.1673 16.8333 14.7942 16.8333 14.334V11.834C16.8333 11.392 17.0089 10.968 17.3215 10.6555C17.634 10.3429 18.058 10.1673 18.5 10.1673H20.1667V8.50065H18.5Z" fill="#0B1B3E"/>
</svg>
