<svg width="32" height="32" viewBox="0 0 32 32" fill="none" xmlns="http://www.w3.org/2000/svg">
<circle cx="16" cy="16" r="16" fill="white"/>
<g clip-path="url(#clip0_1207_1564)">
<path fill-rule="evenodd" clip-rule="evenodd" d="M15.9999 8.5C15.9999 8.5 16 8.5 16 9.33333L16 10.1667L15.9371 10.1668C15.8954 10.1669 15.8338 10.167 15.7547 10.1674C15.5966 10.1681 15.3687 10.1696 15.0907 10.1726C14.5342 10.1786 13.7783 10.1905 12.9789 10.2142C12.1782 10.238 11.3405 10.2735 10.6184 10.3262C9.87833 10.3802 9.32842 10.448 9.05445 10.5202C8.80553 10.5917 8.57964 10.7271 8.39927 10.9131C8.22333 11.0944 8.09674 11.3177 8.03133 11.5615C7.78171 12.9561 7.65964 14.3707 7.66664 15.7876L7.66669 15.7969C7.65776 17.2196 7.77891 18.6401 8.02872 20.0406C8.10091 20.272 8.22876 20.4823 8.4013 20.6531C8.58206 20.832 8.80577 20.9614 9.05094 21.0289C9.32371 21.1014 9.87515 21.1696 10.6184 21.2238C11.3405 21.2765 12.1782 21.312 12.9789 21.3358C13.7783 21.3595 14.5342 21.3714 15.0907 21.3774C15.3687 21.3804 15.5966 21.3819 15.7547 21.3826C15.8338 21.383 15.8954 21.3832 15.9371 21.3832H16.0629C16.1046 21.3832 16.1662 21.383 16.2452 21.3826C16.4034 21.3819 16.6312 21.3804 16.9093 21.3774C17.4658 21.3714 18.2217 21.3595 19.0211 21.3358C19.8218 21.312 20.6595 21.2765 21.3816 21.2238C22.1216 21.1698 22.6716 21.102 22.9455 21.0298C23.1944 20.9583 23.4203 20.8229 23.6007 20.6369C23.7766 20.4556 23.9032 20.2324 23.9686 19.9886C24.2163 18.6045 24.3384 17.2008 24.3333 15.7947L24.3333 15.7864C24.3423 14.3588 24.2202 12.9334 23.9687 11.5281C23.9032 11.2843 23.7767 11.0611 23.6007 10.8797C23.4224 10.6959 23.1996 10.5614 22.9541 10.4893C22.6708 10.4227 22.1188 10.3612 21.3868 10.3125C20.6633 10.2643 19.8244 10.2318 19.0232 10.2101C18.2232 10.1884 17.4668 10.1775 16.9101 10.1721C16.6318 10.1694 16.4038 10.168 16.2456 10.1673L16.063 10.1668L16 10.1667L16 9.33333C16 8.5 15.9999 8.5 15.9999 8.5L16.0664 8.50009C16.1093 8.50017 16.1723 8.50035 16.2527 8.50069C16.4136 8.50138 16.6447 8.50276 16.9264 8.50551C17.4894 8.51101 18.2559 8.52201 19.0684 8.54406C19.8797 8.56607 20.743 8.59924 21.4976 8.6495C22.2306 8.69832 22.9262 8.76681 23.3643 8.87379C23.3741 8.87617 23.3838 8.87874 23.3935 8.88147C23.9269 9.03238 24.4111 9.32139 24.797 9.71929C25.183 10.1172 25.4571 10.6099 25.5917 11.1477C25.5962 11.1657 25.6001 11.1838 25.6034 11.2021C25.8767 12.7168 26.0094 14.2536 26 15.7928C26.0052 17.3089 25.8725 18.8224 25.6034 20.3145C25.6001 20.3328 25.5962 20.351 25.5917 20.369C25.4571 20.9068 25.183 21.3995 24.797 21.7974C24.4111 22.1953 23.9269 22.4843 23.3935 22.6352L23.382 22.6384C22.9372 22.7573 22.2355 22.8326 21.5028 22.8861C20.7467 22.9412 19.8823 22.9776 19.0706 23.0017C18.2575 23.0259 17.4904 23.0379 16.9271 23.044C16.6453 23.047 16.4141 23.0485 16.2531 23.0492C16.1725 23.0496 16.1096 23.0498 16.0666 23.0499L16.0004 23.05L15.9334 23.0499C15.8904 23.0498 15.8274 23.0496 15.7469 23.0492C15.5859 23.0485 15.3547 23.047 15.0728 23.044C14.5095 23.0379 13.7425 23.0259 12.9294 23.0017C12.1176 22.9776 11.2532 22.9412 10.4972 22.8861C9.76443 22.8326 9.06273 22.7573 8.61802 22.6384L8.61339 22.6371C8.09083 22.4942 7.61398 22.2188 7.22891 21.8377C6.84385 21.4566 6.56358 20.9826 6.41519 20.4616C6.40766 20.4351 6.40144 20.4083 6.39656 20.3813C6.12336 18.8667 5.9906 17.3301 5.99998 15.7911C5.99271 14.2636 6.12546 12.7387 6.39655 11.2354C6.39985 11.2172 6.40375 11.199 6.40826 11.181C6.54286 10.6432 6.81698 10.1505 7.20295 9.75262C7.58892 9.35472 8.07305 9.06572 8.60646 8.91481L8.61802 8.91163C9.06273 8.79269 9.76443 8.71737 10.4972 8.66393C11.2532 8.60878 12.1176 8.57241 12.9294 8.54828C13.7425 8.52412 14.5095 8.51206 15.0728 8.50604C15.3547 8.50302 15.5859 8.50151 15.7469 8.50076C15.8274 8.50038 15.8904 8.50019 15.9334 8.5001L15.9999 8.5Z" fill="#0B1B3E"/>
<path fill-rule="evenodd" clip-rule="evenodd" d="M13.7061 12.3454C13.9626 12.1962 14.2791 12.1947 14.537 12.3414L19.3287 15.0664C19.5892 15.2145 19.7501 15.4911 19.7501 15.7908C19.7501 16.0904 19.5892 16.367 19.3287 16.5151L14.537 19.2401C14.2791 19.3868 13.9626 19.3853 13.7061 19.2361C13.4496 19.0869 13.2917 18.8125 13.2917 18.5158V13.0658C13.2917 12.769 13.4496 12.4946 13.7061 12.3454ZM14.9584 14.4983V17.0832L17.231 15.7908L14.9584 14.4983Z" fill="#0B1B3E"/>
</g>
<defs>
<clipPath id="clip0_1207_1564">
<rect width="20" height="20" fill="white" transform="translate(6 6)"/>
</clipPath>
</defs>
</svg>
