<svg width="41" height="40" viewBox="0 0 41 40" fill="none" xmlns="http://www.w3.org/2000/svg">
<path fill-rule="evenodd" clip-rule="evenodd" d="M19.8349 0L39.6698 13.7318L37.9144 16.6575L36.0849 15.4379V39.3041H35.5849V29.4076L34.8619 28.6847L33.5849 30.3874V39.3041H33.0849V35.0541H31.0849V39.3041H30.5849V30.3874L29.3349 28.7207L28.0849 30.3874V39.3041H27.5849V35.0541H25.5849V39.3041H25.0849V30.3874L23.8349 28.7207L22.5849 30.3874V39.3041H22.0849V30.2207L23.8349 27.8874L25.5849 30.2207V32.0541H27.5849V30.2207L29.3349 27.8874L31.0849 30.2207V32.0541H33.0849V30.2207L34.8078 27.9235L35.5849 28.7005V15.1045L19.8349 4.60453L4.33488 14.9379V22.2491L4.34851 22.2787C4.37245 22.3308 4.4075 22.4072 4.45208 22.5052C4.54124 22.7012 4.66854 22.9832 4.82125 23.3278C5.12662 24.0168 5.53397 24.9568 5.9415 25.96C6.34877 26.9625 6.75751 28.0312 7.06483 28.9768C7.36857 29.9114 7.58488 30.7593 7.58488 31.3041C7.58488 32.3459 7.29897 33.4031 6.68328 34.2062C6.10276 34.9634 5.23783 35.4817 4.08488 35.5471V39.3041H3.58488V35.5471C2.43193 35.4817 1.56701 34.9634 0.98648 34.2062C0.370798 33.4031 0.0848819 32.3459 0.0848819 31.3041C0.0848819 30.7526 0.336652 29.8998 0.686737 28.9663C1.04164 28.0199 1.51351 26.9506 1.98352 25.948C2.45385 24.9446 2.92396 24.0044 3.27636 23.3152C3.4526 22.9706 3.5995 22.6885 3.7024 22.4925C3.75385 22.3945 3.79431 22.318 3.82193 22.266L3.83488 22.2416V15.2712L1.7554 16.6575L0 13.7318L19.8349 0ZM4.06882 22.8707C3.91205 22.8707 3.85701 23.2779 3.72153 23.5429C3.3708 24.2288 2.90341 25.1636 2.43625 26.1602C1.96875 27.1575 1.50313 28.2132 1.1549 29.1418C0.801862 30.0833 0.584882 30.8556 0.584882 31.3041C0.584882 32.2622 0.848965 33.205 1.38328 33.902C1.91153 34.591 2.71355 35.0541 3.83488 35.0541C4.95621 35.0541 5.75824 34.591 6.28648 33.902C6.8208 33.205 7.08488 32.2622 7.08488 31.3041C7.08488 30.8489 6.89494 30.0718 6.58931 29.1313C6.28726 28.2019 5.88349 27.1456 5.47827 26.1482C5.07329 25.1513 4.66814 24.2163 4.36413 23.5304C4.24943 23.2715 4.22559 22.8707 4.06882 22.8707ZM33.0849 32.5541H31.0849V34.5541H33.0849V32.5541ZM27.5849 32.5541H25.5849V34.5541H27.5849V32.5541ZM0.669764 13.8763L1.91436 15.9506L19.8349 4.0036L37.7554 15.9506L39 13.8763L19.8349 0.60813L0.669764 13.8763ZM16.4378 15.2001C16.1749 15.5652 16.0849 16.0107 16.0849 16.3041V18.154H19.5849V14.5541H17.8349C17.1164 14.5541 16.6914 14.8478 16.4378 15.2001ZM20.0849 14.5541V18.154H23.5849V16.8041C23.5849 15.8646 23.2744 15.311 22.9176 14.9899C22.5529 14.6616 22.1151 14.5541 21.8349 14.5541H20.0849ZM23.5849 18.654H20.0849V22.0541H21.8349C22.5534 22.0541 22.9783 21.7603 23.232 21.408C23.4948 21.0429 23.5849 20.5974 23.5849 20.3041V18.654ZM19.5849 22.0541V18.654H16.0849V20.3041C16.0849 21.0226 16.3787 21.4475 16.731 21.7012C17.096 21.964 17.5416 22.0541 17.8349 22.0541H19.5849ZM16.032 14.908C16.3783 14.4269 16.9534 14.0541 17.8349 14.0541H21.8349C22.2214 14.0541 22.7835 14.1965 23.2521 14.6182C23.7287 15.0472 24.0849 15.7436 24.0849 16.8041V20.3041C24.0849 20.6774 23.9749 21.2318 23.6378 21.7001C23.2914 22.1812 22.7164 22.5541 21.8349 22.5541H17.8349C17.4615 22.5541 16.9071 22.4441 16.4388 22.1069C15.9578 21.7606 15.5849 21.1855 15.5849 20.3041V16.3041C15.5849 15.9307 15.6948 15.3763 16.032 14.908ZM9.58488 26.0541H17.5849V39.3041H17.0849V26.5541H10.0849V39.3041H9.58488V26.0541Z" fill="black"/>
<rect x="14.335" y="32.3041" width="1" height="1" fill="black"/>
<path fill-rule="evenodd" clip-rule="evenodd" d="M40.835 39.8042H0.334961V38.8042H40.835V39.8042Z" fill="black"/>
</svg>
