<svg width="40" height="40" viewBox="0 0 40 40" fill="none" xmlns="http://www.w3.org/2000/svg">
<path d="M24.7236 27.7243L24.2308 27.4555C24.1887 27.4325 24.1303 27.4016 24.0652 27.3672C23.9559 27.3095 23.8277 27.2418 23.7252 27.1842C23.7245 27.1838 23.7239 27.1835 23.7232 27.1831L24.0909 26.5294C22.5116 25.6531 19.3937 23.5017 17.1195 21.226L24.7236 27.7243ZM24.7236 27.7243L25.1205 27.3273L26.9603 25.4866C28.0347 24.4117 29.7763 24.4117 30.8507 25.4865C30.8507 25.4865 30.8507 25.4865 30.8507 25.4865L33.4446 28.082L33.4446 28.082C34.5257 29.1637 34.5183 30.92 33.4282 31.9925L32.7283 32.6811C32.198 33.0929 31.5725 33.4501 30.9172 33.7064C30.2587 33.9612 29.6029 34.1598 28.9896 34.2325M24.7236 27.7243L28.9896 34.2325M28.9896 34.2325C28.8196 34.2508 21.6195 34.9198 12.5215 25.8191C5.83669 19.1275 3.56639 14.3823 4.18043 9.30307L4.18047 9.30308L4.18135 9.29509C4.24772 8.69191 4.40186 8.07572 4.65087 7.41735C4.91026 6.75556 5.26172 6.13597 5.67212 5.60415L6.36005 4.90487L6.36007 4.90485C7.43188 3.8153 9.18552 3.80836 10.2659 4.88937L10.2659 4.88937L12.9623 7.58731C12.9623 7.58732 12.9623 7.58733 12.9623 7.58733C14.037 8.66274 14.0369 10.4062 12.9623 11.4815L13.4928 12.0117L12.9623 11.4815L12.7917 11.6522L11.0743 13.2672L10.6501 13.6661L10.9316 14.176C10.9607 14.2288 10.9818 14.2729 11.0134 14.3393L11.0175 14.3477C11.0508 14.4175 11.0928 14.5048 11.1526 14.6104L28.9896 34.2325Z" stroke="#073763" stroke-width="1.5"/>
</svg>
