<svg width="32" height="32" viewBox="0 0 32 32" fill="none" xmlns="http://www.w3.org/2000/svg">
<circle cx="16" cy="16" r="16" fill="white"/>
<g clip-path="url(#clip0_1207_1511)">
<path fill-rule="evenodd" clip-rule="evenodd" d="M18.1047 7.95841C18.9787 7.62482 19.934 7.5677 20.8416 7.79478C21.5632 7.97535 22.227 8.32871 22.7773 8.82084C23.4541 8.57207 24.096 8.2354 24.6864 7.81895L25.1668 8.49992L25.9764 8.6971C25.691 9.8692 25.1188 10.9496 24.3142 11.8424C24.3265 11.9769 24.333 12.1119 24.3334 12.2472L24.3334 12.2499C24.3334 17.3332 21.886 21.0624 18.3708 22.9335C14.8759 24.7937 10.4091 24.7731 6.42872 22.5617C6.09137 22.3743 5.92684 21.9798 6.03104 21.6082C6.13525 21.2367 6.48094 20.9852 6.86654 21.0006C8.27222 21.0565 9.66373 20.777 10.929 20.1941C9.67641 19.4211 8.7746 18.5035 8.14763 17.5135C7.31127 16.1929 6.99555 14.794 6.93845 13.5378C6.88151 12.2852 7.08048 11.1573 7.28965 10.3486C7.39474 9.94223 7.50377 9.61117 7.58782 9.37869C7.62989 9.26232 7.66584 9.17026 7.69212 9.1054C7.70526 9.07296 7.716 9.04729 7.72388 9.02874L7.73353 9.0063L7.73599 9.00067C7.74186 8.98719 7.74811 8.97382 7.75473 8.96057L8.50009 9.33325L9.18205 8.85432C9.945 9.94072 10.9648 10.8216 12.1506 11.4184C13.0938 11.8932 14.1188 12.1765 15.1665 12.2553C15.1604 11.3305 15.4351 10.4255 15.9548 9.65997C16.4802 8.88596 17.2307 8.292 18.1047 7.95841ZM8.83729 11.0363C8.68422 11.7041 8.56198 12.5509 8.60339 13.4621C8.65046 14.4975 8.90765 15.5986 9.55566 16.6217C10.2003 17.6396 11.2635 18.631 13.0052 19.4051C13.2817 19.528 13.4699 19.7911 13.4968 20.0925C13.5237 20.3938 13.3851 20.6861 13.1348 20.8561C12.209 21.4845 11.1953 21.9573 10.1335 22.263C12.7753 22.936 15.4226 22.6146 17.5877 21.4622C20.5305 19.8959 22.6663 16.7506 22.6668 12.2513C22.6661 12.0712 22.6487 11.8916 22.6149 11.7147C22.5627 11.4415 22.6502 11.1602 22.8483 10.9649C23.0339 10.7818 23.2058 10.5867 23.3632 10.3812C23.1744 10.4508 22.9834 10.5147 22.7904 10.5729C22.4765 10.6674 22.1364 10.5691 21.9213 10.3218C21.5314 9.87352 21.0133 9.5558 20.437 9.4116C19.8607 9.2674 19.254 9.30367 18.699 9.51551C18.144 9.72735 17.6674 10.1045 17.3337 10.5961C17 11.0876 16.8254 11.6697 16.8333 12.2637L16.8335 12.2749H16.8334V13.1082C16.8334 13.5601 16.4734 13.9296 16.0217 13.9413C14.4198 13.9828 12.8326 13.6276 11.4013 12.9071C10.4466 12.4266 9.58112 11.7936 8.83729 11.0363Z" fill="#0B1B3E"/>
</g>
<defs>
<clipPath id="clip0_1207_1511">
<rect width="20" height="20" fill="white" transform="translate(6 6)"/>
</clipPath>
</defs>
</svg>
