<svg width="1112" height="30" viewBox="0 0 1112 30" fill="none" xmlns="http://www.w3.org/2000/svg">
<path d="M8.392 24L0.784 6.912H4.024L10.168 21.264H9.184L15.4 6.912H18.52L10.936 24H8.392ZM19.9049 24V11.88H22.9049V24H19.9049ZM19.7609 6.384H23.0969V9.336H19.7609V6.384ZM30.6033 24.168C28.3953 24.168 26.6513 23.664 25.3713 22.656L26.2113 20.544C26.8513 21.024 27.5473 21.384 28.2993 21.624C29.0513 21.864 29.8353 21.984 30.6513 21.984C31.3873 21.984 31.9473 21.864 32.3313 21.624C32.7153 21.384 32.9073 21.048 32.9073 20.616C32.9073 20.248 32.7713 19.96 32.4993 19.752C32.2273 19.528 31.7633 19.336 31.1073 19.176L29.0913 18.72C27.9873 18.48 27.1553 18.08 26.5953 17.52C26.0513 16.944 25.7793 16.216 25.7793 15.336C25.7793 14.6 25.9873 13.952 26.4033 13.392C26.8193 12.816 27.4033 12.368 28.1553 12.048C28.9073 11.728 29.7793 11.568 30.7713 11.568C31.6353 11.568 32.4673 11.704 33.2673 11.976C34.0673 12.232 34.7633 12.608 35.3553 13.104L34.4913 15.168C33.8833 14.704 33.2593 14.36 32.6193 14.136C31.9953 13.912 31.3713 13.8 30.7473 13.8C30.0593 13.8 29.5233 13.928 29.1393 14.184C28.7553 14.44 28.5633 14.792 28.5633 15.24C28.5633 15.592 28.6753 15.872 28.8993 16.08C29.1393 16.288 29.5473 16.456 30.1233 16.584L32.1633 17.088C33.3633 17.344 34.2353 17.76 34.7793 18.336C35.3393 18.896 35.6193 19.64 35.6193 20.568C35.6193 21.672 35.1713 22.552 34.2753 23.208C33.3793 23.848 32.1553 24.168 30.6033 24.168ZM42.5547 24.168C41.0667 24.168 39.9467 23.76 39.1947 22.944C38.4587 22.112 38.0907 20.864 38.0907 19.2V11.88H41.0907V19.224C41.0907 20.104 41.2747 20.752 41.6427 21.168C42.0107 21.584 42.5627 21.792 43.2987 21.792C44.1787 21.792 44.8827 21.504 45.4107 20.928C45.9387 20.352 46.2027 19.584 46.2027 18.624V11.88H49.2267V24H46.2987V21.504L46.6107 21.48C46.2587 22.36 45.7307 23.032 45.0267 23.496C44.3227 23.944 43.4987 24.168 42.5547 24.168ZM57.1641 24.168C56.1081 24.168 55.1721 23.92 54.3561 23.424C53.5401 22.912 52.9081 22.192 52.4601 21.264C52.0281 20.32 51.8121 19.216 51.8121 17.952C51.8121 16.672 52.0361 15.56 52.4841 14.616C52.9321 13.656 53.5561 12.912 54.3561 12.384C55.1721 11.84 56.1081 11.568 57.1641 11.568C58.1881 11.568 59.0761 11.824 59.8281 12.336C60.5961 12.832 61.1161 13.528 61.3881 14.424L61.1001 14.592V11.88H64.0521V24H61.1001V21.264L61.3881 21.36C61.1161 22.256 60.5961 22.952 59.8281 23.448C59.0761 23.928 58.1881 24.168 57.1641 24.168ZM57.9801 21.864C58.9721 21.864 59.7401 21.52 60.2841 20.832C60.8281 20.144 61.1001 19.168 61.1001 17.904C61.1001 16.608 60.8281 15.624 60.2841 14.952C59.7401 14.264 58.9721 13.92 57.9801 13.92C56.9721 13.92 56.1881 14.272 55.6281 14.976C55.0681 15.68 54.7881 16.672 54.7881 17.952C54.7881 19.2 55.0681 20.168 55.6281 20.856C56.1881 21.528 56.9721 21.864 57.9801 21.864ZM67.2955 24V6.336H70.2955V24H67.2955ZM86.1398 24.192C85.2598 24.192 84.4198 24.12 83.6198 23.976C82.8198 23.816 82.0678 23.584 81.3638 23.28C80.6758 22.976 80.0678 22.608 79.5398 22.176L80.5718 19.92C81.4358 20.56 82.3158 21.024 83.2118 21.312C84.1078 21.6 85.0918 21.744 86.1638 21.744C87.3478 21.744 88.2598 21.536 88.8998 21.12C89.5558 20.704 89.8838 20.12 89.8838 19.368C89.8838 18.92 89.7398 18.552 89.4518 18.264C89.1638 17.96 88.7318 17.704 88.1558 17.496C87.5798 17.288 86.8678 17.088 86.0198 16.896C85.0118 16.704 84.1238 16.472 83.3558 16.2C82.5878 15.912 81.9478 15.576 81.4358 15.192C80.9238 14.808 80.5318 14.352 80.2598 13.824C80.0038 13.28 79.8758 12.64 79.8758 11.904C79.8758 10.896 80.1478 10 80.6918 9.216C81.2358 8.432 81.9958 7.824 82.9718 7.392C83.9638 6.944 85.1238 6.72 86.4518 6.72C87.2518 6.72 88.0278 6.8 88.7798 6.96C89.5478 7.12 90.2518 7.352 90.8918 7.656C91.5318 7.944 92.0838 8.304 92.5478 8.736L91.4918 10.992C90.7238 10.368 89.9238 9.912 89.0918 9.624C88.2598 9.32 87.3878 9.168 86.4758 9.168C85.3718 9.168 84.4998 9.392 83.8598 9.84C83.2198 10.288 82.8998 10.912 82.8998 11.712C82.8998 12.176 83.0278 12.56 83.2838 12.864C83.5558 13.168 83.9638 13.424 84.5078 13.632C85.0678 13.84 85.7798 14.048 86.6438 14.256C87.6358 14.464 88.5158 14.704 89.2838 14.976C90.0678 15.248 90.7318 15.576 91.2758 15.96C91.8198 16.328 92.2278 16.776 92.4998 17.304C92.7878 17.816 92.9318 18.432 92.9318 19.152C92.9318 20.176 92.6598 21.072 92.1158 21.84C91.5718 22.592 90.7878 23.176 89.7638 23.592C88.7558 23.992 87.5478 24.192 86.1398 24.192ZM93.9325 14.136V11.88H102.477V14.136H93.9325ZM102.477 21.504V23.88C102.157 23.992 101.837 24.064 101.517 24.096C101.213 24.144 100.885 24.168 100.533 24.168C99.1725 24.168 98.1165 23.784 97.3645 23.016C96.6285 22.248 96.2605 21.144 96.2605 19.704V8.928L99.2605 7.92V19.56C99.2605 20.104 99.3485 20.536 99.5245 20.856C99.7005 21.16 99.9325 21.376 100.221 21.504C100.525 21.632 100.861 21.696 101.229 21.696C101.437 21.696 101.637 21.68 101.829 21.648C102.021 21.616 102.237 21.568 102.477 21.504ZM110.034 24.168C108.77 24.168 107.674 23.912 106.746 23.4C105.834 22.888 105.13 22.168 104.634 21.24C104.138 20.296 103.89 19.176 103.89 17.88C103.89 16.6 104.138 15.488 104.634 14.544C105.13 13.584 105.834 12.848 106.746 12.336C107.674 11.824 108.77 11.568 110.034 11.568C111.266 11.568 112.338 11.824 113.25 12.336C114.178 12.848 114.89 13.584 115.386 14.544C115.898 15.488 116.154 16.6 116.154 17.88C116.154 19.176 115.898 20.296 115.386 21.24C114.89 22.168 114.178 22.888 113.25 23.4C112.338 23.912 111.266 24.168 110.034 24.168ZM110.034 21.864C111.026 21.864 111.786 21.536 112.314 20.88C112.858 20.208 113.13 19.208 113.13 17.88C113.13 16.568 112.858 15.584 112.314 14.928C111.786 14.256 111.026 13.92 110.034 13.92C109.026 13.92 108.242 14.256 107.682 14.928C107.138 15.584 106.866 16.568 106.866 17.88C106.866 19.208 107.138 20.208 107.682 20.88C108.226 21.536 109.01 21.864 110.034 21.864ZM118.717 24V15.312C118.717 14.752 118.701 14.184 118.669 13.608C118.653 13.016 118.605 12.44 118.525 11.88H121.357L121.693 15L121.357 14.832C121.565 13.76 122.037 12.952 122.773 12.408C123.509 11.864 124.341 11.592 125.269 11.592C125.509 11.592 125.733 11.608 125.941 11.64C126.149 11.672 126.333 11.72 126.493 11.784L126.445 14.52C125.949 14.312 125.421 14.208 124.861 14.208C124.141 14.208 123.549 14.352 123.085 14.64C122.637 14.928 122.293 15.32 122.053 15.816C121.829 16.296 121.717 16.84 121.717 17.448V24H118.717ZM128.116 24V11.88H131.116V24H128.116ZM127.972 6.384H131.308V9.336H127.972V6.384ZM144.766 22.656C144.19 23.136 143.478 23.512 142.63 23.784C141.798 24.04 140.95 24.168 140.086 24.168C138.774 24.168 137.638 23.92 136.678 23.424C135.734 22.928 135.006 22.208 134.494 21.264C133.982 20.32 133.726 19.2 133.726 17.904C133.726 16.656 133.974 15.56 134.47 14.616C134.966 13.656 135.654 12.912 136.534 12.384C137.414 11.84 138.43 11.568 139.582 11.568C140.702 11.568 141.662 11.816 142.462 12.312C143.262 12.792 143.878 13.488 144.31 14.4C144.758 15.312 144.982 16.392 144.982 17.64V18.096H136.366L136.39 16.488H143.206L142.39 17.304C142.406 16.136 142.174 15.248 141.694 14.64C141.23 14.032 140.55 13.728 139.654 13.728C138.694 13.728 137.95 14.072 137.422 14.76C136.894 15.432 136.63 16.4 136.63 17.664C136.63 19.104 136.926 20.168 137.518 20.856C138.11 21.528 139.006 21.864 140.206 21.864C140.862 21.864 141.502 21.76 142.126 21.552C142.766 21.328 143.358 21.008 143.902 20.592L144.766 22.656ZM151.963 24.168C149.755 24.168 148.011 23.664 146.731 22.656L147.571 20.544C148.211 21.024 148.907 21.384 149.659 21.624C150.411 21.864 151.195 21.984 152.011 21.984C152.747 21.984 153.307 21.864 153.691 21.624C154.075 21.384 154.267 21.048 154.267 20.616C154.267 20.248 154.131 19.96 153.859 19.752C153.587 19.528 153.123 19.336 152.467 19.176L150.451 18.72C149.347 18.48 148.515 18.08 147.955 17.52C147.411 16.944 147.139 16.216 147.139 15.336C147.139 14.6 147.347 13.952 147.763 13.392C148.179 12.816 148.763 12.368 149.515 12.048C150.267 11.728 151.139 11.568 152.131 11.568C152.995 11.568 153.827 11.704 154.627 11.976C155.427 12.232 156.123 12.608 156.715 13.104L155.851 15.168C155.243 14.704 154.619 14.36 153.979 14.136C153.355 13.912 152.731 13.8 152.107 13.8C151.419 13.8 150.883 13.928 150.499 14.184C150.115 14.44 149.923 14.792 149.923 15.24C149.923 15.592 150.035 15.872 150.259 16.08C150.499 16.288 150.907 16.456 151.483 16.584L153.523 17.088C154.723 17.344 155.595 17.76 156.139 18.336C156.699 18.896 156.979 19.64 156.979 20.568C156.979 21.672 156.531 22.552 155.635 23.208C154.739 23.848 153.515 24.168 151.963 24.168Z" fill="#0B1B3E"/>
<path d="M1017.89 23L1011.61 8.76H1013.79L1019.13 21.24H1018.41L1023.79 8.76H1025.91L1019.63 23H1017.89ZM1027.29 23V12.92H1029.31V23H1027.29ZM1027.15 8.52H1029.49V10.64H1027.15V8.52ZM1040.69 21.84C1040.24 22.24 1039.66 22.56 1038.97 22.8C1038.28 23.0267 1037.57 23.14 1036.85 23.14C1035.78 23.14 1034.86 22.9333 1034.09 22.52C1033.32 22.1067 1032.72 21.5067 1032.31 20.72C1031.9 19.9333 1031.69 19 1031.69 17.92C1031.69 16.88 1031.89 15.9667 1032.29 15.18C1032.7 14.3933 1033.27 13.78 1033.99 13.34C1034.71 12.9 1035.54 12.68 1036.49 12.68C1037.4 12.68 1038.18 12.88 1038.83 13.28C1039.48 13.68 1039.98 14.2533 1040.33 15C1040.69 15.7333 1040.87 16.62 1040.87 17.66V18H1033.45L1033.47 16.8H1039.69L1039.11 17.52C1039.12 16.44 1038.91 15.6133 1038.47 15.04C1038.03 14.4667 1037.38 14.18 1036.53 14.18C1035.64 14.18 1034.94 14.5 1034.43 15.14C1033.92 15.7667 1033.67 16.6467 1033.67 17.78C1033.67 19.0467 1033.94 19.9933 1034.49 20.62C1035.04 21.2333 1035.84 21.54 1036.89 21.54C1037.46 21.54 1038.02 21.4467 1038.55 21.26C1039.08 21.0733 1039.59 20.7867 1040.07 20.4L1040.69 21.84ZM1045.79 23L1041.95 12.92H1044.05L1047.03 21.32H1046.53L1049.57 12.92H1051.17L1054.19 21.32H1053.69L1056.71 12.92H1058.69L1054.85 23H1053.01L1049.79 14.36H1050.81L1047.63 23H1045.79ZM1069.76 23.14C1068.87 23.14 1068.08 22.9333 1067.4 22.52C1066.74 22.0933 1066.22 21.4933 1065.84 20.72C1065.48 19.9333 1065.3 19.0133 1065.3 17.96C1065.3 16.9067 1065.49 15.9867 1065.86 15.2C1066.24 14.4 1066.76 13.78 1067.42 13.34C1068.1 12.9 1068.88 12.68 1069.76 12.68C1070.66 12.68 1071.42 12.9 1072.04 13.34C1072.68 13.7667 1073.12 14.38 1073.34 15.18L1073.1 15.34V12.92H1075.1V23H1073.1V20.54L1073.34 20.64C1073.12 21.44 1072.68 22.06 1072.04 22.5C1071.42 22.9267 1070.66 23.14 1069.76 23.14ZM1070.24 21.54C1071.15 21.54 1071.85 21.2267 1072.34 20.6C1072.85 19.9733 1073.1 19.08 1073.1 17.92C1073.1 16.76 1072.85 15.8667 1072.34 15.24C1071.85 14.6133 1071.15 14.3 1070.24 14.3C1069.32 14.3 1068.6 14.6267 1068.08 15.28C1067.58 15.92 1067.32 16.8133 1067.32 17.96C1067.32 19.1067 1067.58 19.9933 1068.08 20.62C1068.6 21.2333 1069.32 21.54 1070.24 21.54ZM1078.05 23V8.28H1080.07V23H1078.05ZM1083.01 23V8.28H1085.03V23H1083.01ZM1094.64 17.53V15.85H1106.29L1103.41 12.97L1104.43 11.93L1109.2 16.7L1104.43 21.47L1103.41 20.43L1106.31 17.53H1094.64Z" fill="#6C7078"/>
</svg>
