<svg width="48" height="48" viewBox="0 0 48 48" fill="none" xmlns="http://www.w3.org/2000/svg">
<path d="M29.7528 38.0003L23.8539 29.034C23.1723 27.9853 22.4644 27.2381 21.7303 26.7924C20.9963 26.3467 19.9869 26.1239 18.7022 26.1239H13V24.4378H21.3125C23.305 24.4378 26.4232 23.5529 27.5506 22.6878C28.6779 21.8226 29.7528 19.8186 29.7528 17.8261C29.7528 15.886 29.0023 14.3654 27.875 13.5003C26.8869 12.1878 24.6175 11.7503 22.625 11.7503H18.427V10.5115H21.927C23.8146 10.5115 25.4532 10.7606 26.8427 11.2587C28.2322 11.7568 29.3071 12.5564 30.0674 13.6576C30.8277 14.7587 31.2079 16.2006 31.2079 17.9834C31.2079 19.6613 30.8146 21.0902 30.0281 22.2699C29.2678 23.4497 28.1929 24.3542 26.8034 24.9834C25.4139 25.6126 23.8015 25.9272 21.9663 25.9272L21.927 25.534C23.264 25.534 23.8599 26.2681 24.6726 26.7924C26.5625 28.8128 26.0431 28.27 26.8034 29.4236L29.7528 34.0628L32.25 38.0003H29.7528ZM13 18.3668V17.0543L35.1798 17.0545V18.3668H13ZM13 11.7503V10.3101L35.1798 10.3104V11.7503H13Z" fill="black"/>
<circle cx="24" cy="24" r="23.5" stroke="black"/>
</svg>
