<svg width="32" height="32" viewBox="0 0 32 32" fill="none" xmlns="http://www.w3.org/2000/svg">
<circle cx="16" cy="16" r="16" fill="white"/>
<g clip-path="url(#clip0_1207_1620)">
<path fill-rule="evenodd" clip-rule="evenodd" d="M18.1046 7.95841C18.9786 7.62482 19.9339 7.5677 20.8415 7.79478C21.5631 7.97535 22.2269 8.32871 22.7772 8.82084C23.454 8.57207 24.0959 8.2354 24.6863 7.81895L25.1667 8.49992L25.9763 8.6971C25.6909 9.8692 25.1187 10.9496 24.3141 11.8424C24.3264 11.9769 24.3329 12.1119 24.3333 12.2472L24.3333 12.2499C24.3333 17.3332 21.8859 21.0624 18.3707 22.9335C14.8758 24.7937 10.4091 24.7731 6.42863 22.5617C6.09128 22.3743 5.92674 21.9798 6.03095 21.6082C6.13516 21.2367 6.48085 20.9852 6.86645 21.0006C8.27213 21.0565 9.66364 20.777 10.9289 20.1941C9.67631 19.4211 8.77451 18.5035 8.14754 17.5135C7.31118 16.1929 6.99546 14.794 6.93835 13.5378C6.88142 12.2852 7.08039 11.1573 7.28956 10.3486C7.39464 9.94223 7.50368 9.61117 7.58773 9.37869C7.6298 9.26232 7.66575 9.17026 7.69203 9.1054C7.70517 9.07296 7.71591 9.04729 7.72379 9.02874L7.73344 9.0063L7.7359 9.00067C7.74177 8.98719 7.74801 8.97382 7.75464 8.96057L8.49999 9.33325L9.18196 8.85432C9.94491 9.94072 10.9647 10.8216 12.1505 11.4184C13.0937 11.8932 14.1187 12.1765 15.1664 12.2553C15.1603 11.3305 15.435 10.4255 15.9547 9.65997C16.4801 8.88596 17.2306 8.292 18.1046 7.95841ZM8.8372 11.0363C8.68412 11.7041 8.56189 12.5509 8.6033 13.4621C8.65037 14.4975 8.90756 15.5986 9.55557 16.6217C10.2002 17.6396 11.2634 18.631 13.0051 19.4051C13.2816 19.528 13.4698 19.7911 13.4967 20.0925C13.5236 20.3938 13.385 20.6861 13.1347 20.8561C12.2089 21.4845 11.1952 21.9573 10.1334 22.263C12.7752 22.936 15.4225 22.6146 17.5876 21.4622C20.5304 19.8959 22.6662 16.7506 22.6667 12.2513C22.666 12.0712 22.6486 11.8916 22.6148 11.7147C22.5626 11.4415 22.6501 11.1602 22.8482 10.9649C23.0338 10.7818 23.2057 10.5867 23.3631 10.3812C23.1743 10.4508 22.9833 10.5147 22.7903 10.5729C22.4764 10.6674 22.1363 10.5691 21.9212 10.3218C21.5313 9.87352 21.0132 9.5558 20.4369 9.4116C19.8606 9.2674 19.2539 9.30367 18.6989 9.51551C18.1439 9.72735 17.6673 10.1045 17.3336 10.5961C17 11.0876 16.8253 11.6697 16.8333 12.2637L16.8334 12.2749H16.8333V13.1082C16.8333 13.5601 16.4733 13.9296 16.0216 13.9413C14.4197 13.9828 12.8325 13.6276 11.4012 12.9071C10.4465 12.4266 9.58103 11.7936 8.8372 11.0363Z" fill="#0B1B3E"/>
</g>
<defs>
<clipPath id="clip0_1207_1620">
<rect width="20" height="20" fill="white" transform="translate(6 6)"/>
</clipPath>
</defs>
</svg>
