<svg width="305" height="117" viewBox="0 0 305 117" fill="none" xmlns="http://www.w3.org/2000/svg">
<circle cx="22" cy="22" r="22" fill="white"/>
<circle cx="303" cy="13" r="2" fill="white"/>
<circle cx="303" cy="21" r="2" fill="white"/>
<circle cx="303" cy="29" r="2" fill="white"/>
<path d="M62.22 29L55.94 14.76H58.12L63.46 27.24H62.74L68.12 14.76H70.24L63.96 29H62.22ZM74.3678 29.14C73.4745 29.14 72.6878 28.9333 72.0078 28.52C71.3411 28.0933 70.8211 27.4933 70.4478 26.72C70.0878 25.9333 69.9078 25.0133 69.9078 23.96C69.9078 22.9067 70.0945 21.9867 70.4678 21.2C70.8411 20.4 71.3611 19.78 72.0278 19.34C72.7078 18.9 73.4878 18.68 74.3678 18.68C75.2611 18.68 76.0211 18.9 76.6478 19.34C77.2878 19.7667 77.7211 20.38 77.9478 21.18L77.7078 21.34V18.92H79.7078V29H77.7078V26.54L77.9478 26.64C77.7211 27.44 77.2878 28.06 76.6478 28.5C76.0211 28.9267 75.2611 29.14 74.3678 29.14ZM74.8478 27.54C75.7545 27.54 76.4545 27.2267 76.9478 26.6C77.4545 25.9733 77.7078 25.08 77.7078 23.92C77.7078 22.76 77.4545 21.8667 76.9478 21.24C76.4545 20.6133 75.7545 20.3 74.8478 20.3C73.9278 20.3 73.2078 20.6267 72.6878 21.28C72.1811 21.92 71.9278 22.8133 71.9278 23.96C71.9278 25.1067 72.1811 25.9933 72.6878 26.62C73.2078 27.2333 73.9278 27.54 74.8478 27.54ZM82.6553 29V14.28H84.6753V29H82.6553ZM87.6163 29V14.28H89.6363V29H87.6163ZM101.017 27.84C100.564 28.24 99.9905 28.56 99.2972 28.8C98.6039 29.0267 97.8972 29.14 97.1772 29.14C96.1105 29.14 95.1905 28.9333 94.4172 28.52C93.6439 28.1067 93.0505 27.5067 92.6372 26.72C92.2239 25.9333 92.0172 25 92.0172 23.92C92.0172 22.88 92.2172 21.9667 92.6172 21.18C93.0305 20.3933 93.5972 19.78 94.3172 19.34C95.0372 18.9 95.8705 18.68 96.8172 18.68C97.7239 18.68 98.5039 18.88 99.1572 19.28C99.8105 19.68 100.311 20.2533 100.657 21C101.017 21.7333 101.197 22.62 101.197 23.66V24H93.7772L93.7972 22.8H100.017L99.4372 23.52C99.4505 22.44 99.2372 21.6133 98.7972 21.04C98.3572 20.4667 97.7105 20.18 96.8572 20.18C95.9639 20.18 95.2639 20.5 94.7572 21.14C94.2505 21.7667 93.9972 22.6467 93.9972 23.78C93.9972 25.0467 94.2705 25.9933 94.8172 26.62C95.3639 27.2333 96.1639 27.54 97.2172 27.54C97.7905 27.54 98.3439 27.4467 98.8772 27.26C99.4105 27.0733 99.9172 26.7867 100.397 26.4L101.017 27.84ZM102.998 33.54L102.558 31.98C103.172 31.8467 103.685 31.68 104.098 31.48C104.525 31.2933 104.878 31.0533 105.158 30.76C105.438 30.4667 105.678 30.0867 105.878 29.62L106.558 28.06L107.038 27.36L110.518 18.92H112.538L107.838 29.8C107.465 30.6533 107.038 31.3267 106.558 31.82C106.092 32.3267 105.558 32.7133 104.958 32.98C104.358 33.2467 103.705 33.4333 102.998 33.54ZM106.598 29.58L102.018 18.92H104.118L107.558 27.36L106.598 29.58ZM123.793 29.14C122.793 29.14 121.919 28.9267 121.173 28.5C120.439 28.0733 119.873 27.4733 119.473 26.7C119.073 25.9133 118.873 24.98 118.873 23.9C118.873 22.8467 119.073 21.9267 119.473 21.14C119.873 20.3533 120.439 19.7467 121.173 19.32C121.919 18.8933 122.793 18.68 123.793 18.68C124.779 18.68 125.639 18.8933 126.373 19.32C127.119 19.7467 127.693 20.3533 128.093 21.14C128.506 21.9267 128.713 22.8467 128.713 23.9C128.713 24.98 128.506 25.9133 128.093 26.7C127.693 27.4733 127.119 28.0733 126.373 28.5C125.639 28.9267 124.779 29.14 123.793 29.14ZM123.793 27.54C124.699 27.54 125.399 27.2333 125.893 26.62C126.399 26.0067 126.653 25.1 126.653 23.9C126.653 22.74 126.399 21.8533 125.893 21.24C125.399 20.6133 124.699 20.3 123.793 20.3C122.886 20.3 122.173 20.6133 121.653 21.24C121.146 21.8533 120.893 22.74 120.893 23.9C120.893 25.1 121.139 26.0067 121.633 26.62C122.139 27.2333 122.859 27.54 123.793 27.54ZM129.675 20.48V18.92H135.995V20.48H129.675ZM136.315 16.06C135.941 15.9533 135.601 15.9 135.295 15.9C134.988 15.9 134.708 15.96 134.455 16.08C134.201 16.1867 134.001 16.38 133.855 16.66C133.708 16.94 133.635 17.32 133.635 17.8V29H131.615V17.64C131.615 16.5067 131.895 15.6533 132.455 15.08C133.028 14.4933 133.828 14.2 134.855 14.2C135.108 14.2 135.355 14.2133 135.595 14.24C135.835 14.2667 136.075 14.32 136.315 14.4V16.06ZM143.558 29V14.76H152.598V16.46H145.598V20.92H152.198V22.62H145.598V29H143.558ZM154.706 29V14.28H156.726V29H154.706ZM164.027 29.14C163.027 29.14 162.154 28.9267 161.407 28.5C160.674 28.0733 160.107 27.4733 159.707 26.7C159.307 25.9133 159.107 24.98 159.107 23.9C159.107 22.8467 159.307 21.9267 159.707 21.14C160.107 20.3533 160.674 19.7467 161.407 19.32C162.154 18.8933 163.027 18.68 164.027 18.68C165.014 18.68 165.874 18.8933 166.607 19.32C167.354 19.7467 167.927 20.3533 168.327 21.14C168.74 21.9267 168.947 22.8467 168.947 23.9C168.947 24.98 168.74 25.9133 168.327 26.7C167.927 27.4733 167.354 28.0733 166.607 28.5C165.874 28.9267 165.014 29.14 164.027 29.14ZM164.027 27.54C164.934 27.54 165.634 27.2333 166.127 26.62C166.634 26.0067 166.887 25.1 166.887 23.9C166.887 22.74 166.634 21.8533 166.127 21.24C165.634 20.6133 164.934 20.3 164.027 20.3C163.12 20.3 162.407 20.6133 161.887 21.24C161.38 21.8533 161.127 22.74 161.127 23.9C161.127 25.1 161.374 26.0067 161.867 26.62C162.374 27.2333 163.094 27.54 164.027 27.54ZM173.911 29L170.071 18.92H172.171L175.151 27.32H174.651L177.691 18.92H179.291L182.311 27.32H181.811L184.831 18.92H186.811L182.971 29H181.131L177.911 20.36H178.931L175.751 29H173.911ZM196.955 27.84C196.501 28.24 195.928 28.56 195.235 28.8C194.541 29.0267 193.835 29.14 193.115 29.14C192.048 29.14 191.128 28.9333 190.355 28.52C189.581 28.1067 188.988 27.5067 188.575 26.72C188.161 25.9333 187.955 25 187.955 23.92C187.955 22.88 188.155 21.9667 188.555 21.18C188.968 20.3933 189.535 19.78 190.255 19.34C190.975 18.9 191.808 18.68 192.755 18.68C193.661 18.68 194.441 18.88 195.095 19.28C195.748 19.68 196.248 20.2533 196.595 21C196.955 21.7333 197.135 22.62 197.135 23.66V24H189.715L189.735 22.8H195.955L195.375 23.52C195.388 22.44 195.175 21.6133 194.735 21.04C194.295 20.4667 193.648 20.18 192.795 20.18C191.901 20.18 191.201 20.5 190.695 21.14C190.188 21.7667 189.935 22.6467 189.935 23.78C189.935 25.0467 190.208 25.9933 190.755 26.62C191.301 27.2333 192.101 27.54 193.155 27.54C193.728 27.54 194.281 27.4467 194.815 27.26C195.348 27.0733 195.855 26.7867 196.335 26.4L196.955 27.84ZM199.433 29V21.76C199.433 21.2933 199.419 20.82 199.393 20.34C199.379 19.86 199.339 19.3867 199.273 18.92H201.193L201.433 21.46L201.193 21.36C201.366 20.48 201.759 19.8133 202.373 19.36C202.999 18.9067 203.699 18.68 204.473 18.68C204.659 18.68 204.833 18.6933 204.993 18.72C205.153 18.7467 205.299 18.78 205.433 18.82L205.393 20.66C205.033 20.5267 204.639 20.46 204.213 20.46C203.559 20.46 203.033 20.6 202.633 20.88C202.233 21.1467 201.933 21.5067 201.733 21.96C201.546 22.4 201.453 22.8733 201.453 23.38V29H199.433ZM210.395 29.14C208.635 29.14 207.241 28.7133 206.215 27.86L206.835 26.4C207.368 26.8133 207.928 27.12 208.515 27.32C209.115 27.5067 209.761 27.6 210.455 27.6C211.148 27.6 211.675 27.4867 212.035 27.26C212.395 27.02 212.575 26.6867 212.575 26.26C212.575 25.9 212.448 25.62 212.195 25.42C211.955 25.2067 211.541 25.0267 210.955 24.88L209.255 24.48C208.375 24.2933 207.701 23.9667 207.235 23.5C206.781 23.02 206.555 22.4267 206.555 21.72C206.555 21.12 206.721 20.5933 207.055 20.14C207.388 19.6867 207.855 19.3333 208.455 19.08C209.055 18.8133 209.755 18.68 210.555 18.68C211.275 18.68 211.955 18.7933 212.595 19.02C213.235 19.2333 213.788 19.5533 214.255 19.98L213.635 21.4C213.141 21.0133 212.635 20.7267 212.115 20.54C211.608 20.34 211.088 20.24 210.555 20.24C209.901 20.24 209.395 20.3667 209.035 20.62C208.675 20.86 208.495 21.2 208.495 21.64C208.495 22 208.601 22.2867 208.815 22.5C209.041 22.7 209.415 22.86 209.935 22.98L211.635 23.4C212.608 23.6133 213.321 23.9533 213.775 24.42C214.228 24.8867 214.455 25.4867 214.455 26.22C214.455 27.1133 214.088 27.8267 213.355 28.36C212.635 28.88 211.648 29.14 210.395 29.14ZM222.348 29V14.76H223.908L232.588 26.2L232.088 26.4V14.76H234.028V29H232.447L223.808 17.58L224.288 17.36V29H222.348ZM241.048 29.14C240.154 29.14 239.368 28.9333 238.688 28.52C238.021 28.0933 237.501 27.4933 237.128 26.72C236.768 25.9333 236.588 25.0133 236.588 23.96C236.588 22.9067 236.774 21.9867 237.148 21.2C237.521 20.4 238.041 19.78 238.708 19.34C239.388 18.9 240.168 18.68 241.048 18.68C241.941 18.68 242.701 18.9 243.328 19.34C243.968 19.7667 244.401 20.38 244.628 21.18L244.388 21.34V18.92H246.388V29H244.388V26.54L244.628 26.64C244.401 27.44 243.968 28.06 243.328 28.5C242.701 28.9267 241.941 29.14 241.048 29.14ZM241.528 27.54C242.434 27.54 243.134 27.2267 243.628 26.6C244.134 25.9733 244.388 25.08 244.388 23.92C244.388 22.76 244.134 21.8667 243.628 21.24C243.134 20.6133 242.434 20.3 241.528 20.3C240.608 20.3 239.888 20.6267 239.368 21.28C238.861 21.92 238.608 22.8133 238.608 23.96C238.608 25.1067 238.861 25.9933 239.368 26.62C239.888 27.2333 240.608 27.54 241.528 27.54ZM249.075 26.6H251.475V29H249.075V26.6ZM253.88 26.6H256.28V29H253.88V26.6ZM258.684 26.6H261.084V29H258.684V26.6Z" fill="white"/>
<path d="M204.656 62.9938C203.603 59.0599 200.5 55.9621 196.56 54.9107C189.419 53 160.785 53 160.785 53C160.785 53 132.15 53 125.009 54.9107C121.069 55.9621 117.966 59.0599 116.913 62.9938C115 70.1238 115 85 115 85C115 85 115 99.876 116.913 107.007C117.966 110.94 121.069 114.038 125.009 115.09C132.15 117 160.785 117 160.785 117C160.785 117 189.419 117 196.56 115.09C200.5 114.038 203.603 110.94 204.656 107.007C206.569 99.876 206.569 85 206.569 85C206.569 85 206.569 70.1238 204.656 62.9938Z" fill="#ED1D24"/>
<path d="M151.419 98.5063L175.352 85.0005L151.419 71.4934V98.5063Z" fill="white"/>
</svg>
