<svg width="32" height="32" viewBox="0 0 32 32" fill="none" xmlns="http://www.w3.org/2000/svg">
<circle cx="16" cy="16" r="16" fill="white"/>
<path fill-rule="evenodd" clip-rule="evenodd" d="M14.9645 8.29772C15.9021 7.36004 17.1739 6.83325 18.5 6.83325H21C21.4602 6.83325 21.8333 7.20635 21.8333 7.66659V10.9999C21.8333 11.4602 21.4602 11.8333 21 11.8333H18.5V13.4999H21C21.2566 13.4999 21.4989 13.6181 21.6568 13.8204C21.8148 14.0227 21.8707 14.2864 21.8085 14.5354L20.9751 17.8687C20.8824 18.2397 20.5491 18.4999 20.1667 18.4999H18.5V24.3333C18.5 24.7935 18.1269 25.1666 17.6667 25.1666H14.3333C13.8731 25.1666 13.5 24.7935 13.5 24.3333V18.4999H11.8333C11.3731 18.4999 11 18.1268 11 17.6666V14.3333C11 13.873 11.3731 13.4999 11.8333 13.4999H13.5V11.8333C13.5 10.5072 14.0268 9.2354 14.9645 8.29772ZM18.5 8.49992C17.6159 8.49992 16.7681 8.85111 16.143 9.47623C15.5179 10.1014 15.1667 10.9492 15.1667 11.8333V14.3333C15.1667 14.7935 14.7936 15.1666 14.3333 15.1666H12.6667V16.8333H14.3333C14.7936 16.8333 15.1667 17.2063 15.1667 17.6666V23.4999H16.8333V17.6666C16.8333 17.2063 17.2064 16.8333 17.6667 16.8333H19.516L19.9327 15.1666H17.6667C17.2064 15.1666 16.8333 14.7935 16.8333 14.3333V11.8333C16.8333 11.3912 17.0089 10.9673 17.3215 10.6547C17.634 10.3422 18.058 10.1666 18.5 10.1666H20.1667V8.49992H18.5Z" fill="#0B1B3E"/>
</svg>
