<svg width="26" height="20" viewBox="0 0 26 20" fill="none" xmlns="http://www.w3.org/2000/svg">
<rect x="8.49585" y="3.27722" width="6.96244" height="0.409555" rx="0.204778" fill="black"/>
<path fill-rule="evenodd" clip-rule="evenodd" d="M11.9768 16.9967C14.9172 16.9967 17.301 14.6129 17.301 11.6724C17.301 8.73195 14.9172 6.34821 11.9768 6.34821C9.03627 6.34821 6.65253 8.73195 6.65253 11.6724C6.65253 14.6129 9.03627 16.9967 11.9768 16.9967ZM11.9768 17.2014C15.0303 17.2014 17.5058 14.726 17.5058 11.6724C17.5058 8.61885 15.0303 6.14343 11.9768 6.14343C8.92317 6.14343 6.44775 8.61885 6.44775 11.6724C6.44775 14.726 8.92317 17.2014 11.9768 17.2014Z" fill="black"/>
<path fill-rule="evenodd" clip-rule="evenodd" d="M3.58064 3.48122H7.06186V3.27644C7.06186 1.58001 8.4371 0.204778 10.1335 0.204778H13.8195C15.516 0.204778 16.8912 1.58001 16.8912 3.27644V3.48122H22.0106C23.7071 3.48122 25.0823 4.85645 25.0823 6.55289V16.3822C25.0823 18.0787 23.7071 19.4539 22.0106 19.4539H3.58064C1.88421 19.4539 0.508977 18.0787 0.508977 16.3822V6.55289C0.508977 4.85645 1.88421 3.48122 3.58064 3.48122ZM10.1335 0C8.324 0 6.85709 1.46691 6.85709 3.27644H3.58064C1.77111 3.27644 0.304199 4.74336 0.304199 6.55289V16.3822C0.304199 18.1918 1.77111 19.6587 3.58064 19.6587H22.0106C23.8202 19.6587 25.2871 18.1918 25.2871 16.3822V6.55289C25.2871 4.74336 23.8202 3.27644 22.0106 3.27644H17.096C17.096 1.46691 15.6291 0 13.8195 0H10.1335ZM18.1645 2.29295C18.1645 2.23019 18.188 2.125 18.2562 2.04075C18.3159 1.96708 18.4266 1.88766 18.6517 1.88766H20.679H20.8633C20.9517 1.88766 21.0858 1.91305 21.1893 1.97928C21.2793 2.03689 21.3505 2.1254 21.3505 2.29295V3.27588H21.8505V2.29295C21.8505 1.93626 21.676 1.69713 21.4588 1.55815C21.2551 1.42779 21.0207 1.38766 20.8633 1.38766H20.679H18.6517C18.2871 1.38766 18.0292 1.52667 17.8677 1.72604C17.7148 1.91482 17.6645 2.13727 17.6645 2.29295V3.27588H18.1645V2.29295Z" fill="black"/>
<path fill-rule="evenodd" clip-rule="evenodd" d="M14.7158 9.55652C15.2693 10.3252 15.4577 11.2599 15.4577 11.8769H16.2769C16.2769 11.1288 16.0558 10.0157 15.3806 9.07791C14.6903 8.11921 13.5434 7.37183 11.7717 7.37183V8.19094C13.2765 8.19094 14.1774 8.80874 14.7158 9.55652Z" fill="black"/>
</svg>
