<svg width="95" height="18" viewBox="0 0 95 18" fill="none" xmlns="http://www.w3.org/2000/svg">
<path d="M1.82 14H0L4.508 4.032H5.978L10.486 14H8.694L5.026 5.432H5.516L1.82 14ZM1.988 11.662L2.674 10.262H7.756L8.414 11.662H1.988ZM11.7043 14V4.032H13.5103V12.516H18.1583V14H11.7043ZM19.6783 14V4.032H21.4843V12.516H26.1323V14H19.6783ZM33.9721 14V5.516H30.7241V4.032H39.0401V5.516H35.7921V14H33.9721ZM40.4284 14V4.032H44.6984C45.8277 4.032 46.6864 4.27933 47.2744 4.774C47.8624 5.26867 48.1564 5.978 48.1564 6.902C48.1564 7.77933 47.8531 8.47933 47.2464 9.002C46.6397 9.51533 45.7951 9.772 44.7124 9.772L45.8324 9.548C46.1777 9.548 46.4857 9.65067 46.7564 9.856C47.0271 10.0613 47.2417 10.3787 47.4004 10.808L48.6324 14H46.7284L45.4684 10.682C45.3377 10.3553 45.1511 10.136 44.9084 10.024C44.6751 9.912 44.3811 9.856 44.0264 9.856H42.2064V14H40.4284ZM42.1924 8.456H44.4464C45.1371 8.456 45.6411 8.33 45.9584 8.078C46.2757 7.826 46.4344 7.448 46.4344 6.944C46.4344 6.43067 46.2757 6.05267 45.9584 5.81C45.6411 5.56733 45.1371 5.446 44.4464 5.446H42.1924V8.456ZM50.3985 14V4.032H52.2045V14H50.3985ZM54.517 14V4.032H58.843C59.9257 4.032 60.761 4.29333 61.349 4.816C61.9463 5.32933 62.245 6.034 62.245 6.93C62.245 7.81667 61.9417 8.52133 61.335 9.044C60.7377 9.56667 59.907 9.828 58.843 9.828H56.323V14H54.517ZM56.323 8.442H58.633C59.2677 8.442 59.739 8.31133 60.047 8.05C60.3643 7.78867 60.523 7.42 60.523 6.944C60.523 6.45867 60.369 6.09 60.061 5.838C59.753 5.57667 59.277 5.446 58.633 5.446H56.323V8.442ZM67.3552 14.112C66.8419 14.112 66.3519 14.07 65.8852 13.986C65.4185 13.8927 64.9799 13.7573 64.5692 13.58C64.1679 13.4027 63.8132 13.188 63.5052 12.936L64.1072 11.62C64.6112 11.9933 65.1245 12.264 65.6472 12.432C66.1699 12.6 66.7439 12.684 67.3692 12.684C68.0599 12.684 68.5919 12.5627 68.9652 12.32C69.3479 12.0773 69.5392 11.7367 69.5392 11.298C69.5392 11.0367 69.4552 10.822 69.2872 10.654C69.1192 10.4767 68.8672 10.3273 68.5312 10.206C68.1952 10.0847 67.7799 9.968 67.2852 9.856C66.6972 9.744 66.1792 9.60867 65.7312 9.45C65.2832 9.282 64.9099 9.086 64.6112 8.862C64.3125 8.638 64.0839 8.372 63.9252 8.064C63.7759 7.74667 63.7012 7.37333 63.7012 6.944C63.7012 6.356 63.8599 5.83333 64.1772 5.376C64.4945 4.91867 64.9379 4.564 65.5072 4.312C66.0859 4.05067 66.7625 3.92 67.5372 3.92C68.0039 3.92 68.4565 3.96667 68.8952 4.06C69.3432 4.15333 69.7539 4.28867 70.1272 4.466C70.5005 4.634 70.8225 4.844 71.0932 5.096L70.4772 6.412C70.0292 6.048 69.5625 5.782 69.0772 5.614C68.5919 5.43667 68.0832 5.348 67.5512 5.348C66.9072 5.348 66.3985 5.47867 66.0252 5.74C65.6519 6.00133 65.4652 6.36533 65.4652 6.832C65.4652 7.10267 65.5399 7.32667 65.6892 7.504C65.8479 7.68133 66.0859 7.83067 66.4032 7.952C66.7299 8.07333 67.1452 8.19467 67.6492 8.316C68.2279 8.43733 68.7412 8.57733 69.1892 8.736C69.6465 8.89467 70.0339 9.086 70.3512 9.31C70.6685 9.52467 70.9065 9.786 71.0652 10.094C71.2332 10.3927 71.3172 10.752 71.3172 11.172C71.3172 11.7693 71.1585 12.292 70.8412 12.74C70.5239 13.1787 70.0665 13.5193 69.4692 13.762C68.8812 13.9953 68.1765 14.112 67.3552 14.112Z" fill="#0B1B3E"/>
<path d="M81.25 6.25L87.5 12.5L93.75 6.25" stroke="#073763" stroke-width="2" stroke-linecap="round"/>
</svg>
