<svg width="61" height="48" viewBox="0 0 61 48" fill="none" xmlns="http://www.w3.org/2000/svg">
<mask id="path-1-inside-1_481_242" fill="white">
<path fill-rule="evenodd" clip-rule="evenodd" d="M24 0C19.5817 0 16 3.58172 16 8H8C3.58172 8 0 11.5817 0 16V40C0 44.4183 3.58172 48 8 48H53C57.4183 48 61 44.4183 61 40V16C61 11.5817 57.4183 8 53 8H41C41 3.58172 37.4183 0 33 0H24Z"/>
</mask>
<path d="M16 8V8.5H16.5V8H16ZM41 8H40.5V8.5H41V8ZM16.5 8C16.5 3.85786 19.8579 0.5 24 0.5V-0.5C19.3056 -0.5 15.5 3.30558 15.5 8H16.5ZM8 8.5H16V7.5H8V8.5ZM0.5 16C0.5 11.8579 3.85786 8.5 8 8.5V7.5C3.30558 7.5 -0.5 11.3056 -0.5 16H0.5ZM0.5 40V16H-0.5V40H0.5ZM8 47.5C3.85787 47.5 0.5 44.1421 0.5 40H-0.5C-0.5 44.6944 3.30558 48.5 8 48.5V47.5ZM53 47.5H8V48.5H53V47.5ZM60.5 40C60.5 44.1421 57.1421 47.5 53 47.5V48.5C57.6944 48.5 61.5 44.6944 61.5 40H60.5ZM60.5 16V40H61.5V16H60.5ZM53 8.5C57.1421 8.5 60.5 11.8579 60.5 16H61.5C61.5 11.3056 57.6944 7.5 53 7.5V8.5ZM41 8.5H53V7.5H41V8.5ZM33 0.5C37.1421 0.5 40.5 3.85786 40.5 8H41.5C41.5 3.30558 37.6944 -0.5 33 -0.5V0.5ZM24 0.5H33V-0.5H24V0.5Z" fill="black" mask="url(#path-1-inside-1_481_242)"/>
<rect x="20" y="8" width="17" height="1" rx="0.5" fill="black"/>
<circle cx="28.5" cy="28.5" r="13.25" stroke="black" stroke-width="0.5"/>
<path d="M43 8V5.6C43 5.06667 43.36 4 44.8 4C46.24 4 48.7 4 49.75 4H50.2C50.8 4 52 4.32 52 5.6C52 6.88 52 7.73333 52 8" stroke="black" stroke-width="0.5"/>
<path d="M19 29C19 25.6667 21 19 29 19" stroke="black" stroke-width="2"/>
</svg>
