<svg width="22" height="22" viewBox="0 0 22 22" fill="none" xmlns="http://www.w3.org/2000/svg">
<path fill-rule="evenodd" clip-rule="evenodd" d="M10.6897 0.846191L21.152 8.08936L20.2261 9.63257L19.2611 8.98924V21.578H18.9973V16.3579L18.616 15.9766L17.9424 16.8747V21.578H17.6787V19.3363H16.6237V21.578H16.36V16.8747L15.7006 15.9956L15.0413 16.8747V21.578H14.7776V19.3363H13.7226V21.578H13.4589V16.8747L12.7995 15.9956L12.1402 16.8747V21.578H11.8765V16.7868L12.7995 15.556L13.7226 16.7868V17.7538H14.7776V16.7868L15.7006 15.556L16.6237 16.7868V17.7538H17.6787V16.7868L18.5875 15.5751L18.9973 15.9849V8.81342L10.6897 3.27495L2.51383 8.7255V12.582L2.52102 12.5976C2.53364 12.6251 2.55213 12.6654 2.57565 12.7171C2.62268 12.8204 2.68982 12.9692 2.77037 13.151C2.93145 13.5144 3.14631 14.0102 3.36127 14.5394C3.5761 15.0682 3.79169 15.6319 3.9538 16.1307C4.11401 16.6236 4.22811 17.0709 4.22811 17.3582C4.22811 17.9078 4.0773 18.4654 3.75254 18.889C3.44633 19.2884 2.99011 19.5618 2.38196 19.5963V21.578H2.11822V19.5963C1.51007 19.5618 1.05385 19.2884 0.747636 18.889C0.422881 18.4654 0.272068 17.9078 0.272068 17.3582C0.272068 17.0673 0.40487 16.6175 0.58953 16.1251C0.776729 15.6259 1.02563 15.0619 1.27355 14.533C1.52163 14.0038 1.7696 13.5078 1.95548 13.1443C2.04845 12.9625 2.12593 12.8138 2.18021 12.7104C2.20735 12.6587 2.22869 12.6183 2.24326 12.5909L2.25009 12.578V8.90133L1.15322 9.63257L0.227295 8.08936L10.6897 0.846191ZM2.37349 12.9098C2.2908 12.9098 2.26176 13.1247 2.1903 13.2644C2.0053 13.6262 1.75876 14.1193 1.51235 14.645C1.26576 15.171 1.02015 15.7279 0.836474 16.2177C0.650255 16.7143 0.535804 17.1217 0.535804 17.3582C0.535804 17.8636 0.675101 18.3609 0.956939 18.7285C1.23557 19.092 1.65862 19.3363 2.25009 19.3363C2.84156 19.3363 3.26461 19.092 3.54324 18.7285C3.82508 18.3609 3.96438 17.8636 3.96438 17.3582C3.96438 17.1181 3.86419 16.7082 3.70298 16.2122C3.54365 15.7219 3.33068 15.1648 3.11693 14.6386C2.90332 14.1128 2.68961 13.6196 2.52926 13.2578C2.46875 13.1213 2.45618 12.9098 2.37349 12.9098ZM17.6787 18.0176H16.6237V19.0725H17.6787V18.0176ZM14.7776 18.0176H13.7226V19.0725H14.7776V18.0176ZM0.580577 8.16555L1.23707 9.2597L10.6897 2.95798L20.1422 9.2597L20.7987 8.16555L10.6897 1.16696L0.580577 8.16555ZM8.89777 7.38693C8.75913 7.57947 8.71163 7.81449 8.71163 7.96922V8.94499H10.5578V7.04614H9.63471C9.25571 7.04614 9.03156 7.2011 8.89777 7.38693ZM10.8215 7.04614V8.94499H12.6677V8.23295C12.6677 7.73739 12.5039 7.44538 12.3157 7.27602C12.1233 7.10287 11.8924 7.04614 11.7446 7.04614H10.8215ZM12.6677 9.20872H10.8215V11.0022H11.7446C12.1236 11.0022 12.3477 10.8472 12.4815 10.6614C12.6202 10.4688 12.6677 10.2338 12.6677 10.0791V9.20872ZM10.5578 11.0022V9.20872H8.71163V10.0791C8.71163 10.4581 8.86659 10.6823 9.05242 10.816C9.24496 10.9547 9.47998 11.0022 9.63471 11.0022H10.5578ZM8.68373 7.23282C8.86642 6.97909 9.16975 6.7824 9.63471 6.7824H11.7446C11.9485 6.7824 12.245 6.85754 12.4922 7.07999C12.7435 7.30624 12.9314 7.67357 12.9314 8.23295V10.0791C12.9314 10.276 12.8734 10.5685 12.6956 10.8155C12.5129 11.0692 12.2096 11.2659 11.7446 11.2659H9.63471C9.43778 11.2659 9.14533 11.2079 8.89831 11.0301C8.64458 10.8474 8.44789 10.5441 8.44789 10.0791V7.96922C8.44789 7.77229 8.50589 7.47984 8.68373 7.23282ZM5.28306 14.589H9.50284V21.578H9.2391V14.8527H5.54679V21.578H5.28306V14.589Z" fill="black"/>
<rect x="7.78857" y="17.8857" width="0.527472" height="0.527472" fill="black"/>
<path fill-rule="evenodd" clip-rule="evenodd" d="M21.7667 21.8418H0.404053V21.3143H21.7667V21.8418Z" fill="black"/>
</svg>
