<svg width="1270" height="56" viewBox="0 0 1270 56" fill="none" xmlns="http://www.w3.org/2000/svg">
<circle cx="1242" cy="28" r="27.5" stroke="#EEEFF0"/>
<path d="M1248.59 27.2926L1240.13 18.835C1239.74 18.4445 1239.11 18.4445 1238.72 18.835L1238.49 19.0661C1238.1 19.4566 1238.1 20.0898 1238.49 20.4803L1245.3 27.2926C1245.69 27.6831 1245.69 28.3163 1245.3 28.7068L1238.49 35.5191C1238.1 35.9096 1238.1 36.5428 1238.49 36.9333L1238.72 37.1644C1239.11 37.5549 1239.74 37.5549 1240.13 37.1644L1248.59 28.7068C1248.98 28.3163 1248.98 27.6831 1248.59 27.2926Z" fill="#6C7078"/>
<circle cx="28" cy="28" r="27.5" transform="matrix(-1 0 0 1 56 0)" stroke="#EEEFF0"/>
<path d="M21.4078 27.2926L29.8654 18.835C30.2559 18.4445 30.8891 18.4445 31.2796 18.835L31.5107 19.0661C31.9012 19.4566 31.9012 20.0898 31.5107 20.4803L24.6984 27.2926C24.3079 27.6831 24.3079 28.3163 24.6984 28.7068L31.5107 35.5191C31.9012 35.9096 31.9012 36.5428 31.5107 36.9333L31.2796 37.1644C30.8891 37.5549 30.2559 37.5549 29.8654 37.1644L21.4078 28.7068C21.0173 28.3163 21.0173 27.6831 21.4078 27.2926Z" fill="#6C7078"/>
</svg>
