<svg width="32" height="32" viewBox="0 0 32 32" fill="none" xmlns="http://www.w3.org/2000/svg">
<circle cx="16" cy="16" r="16" fill="white"/>
<g clip-path="url(#clip0_1207_1207)">
<path fill-rule="evenodd" clip-rule="evenodd" d="M11.8335 8.49992C9.99255 8.49992 8.50016 9.9923 8.50016 11.8333V20.1666C8.50016 22.0075 9.99255 23.4999 11.8335 23.4999H20.1668C22.0078 23.4999 23.5002 22.0075 23.5002 20.1666V11.8333C23.5002 9.9923 22.0078 8.49992 20.1668 8.49992H11.8335ZM6.8335 11.8333C6.8335 9.07183 9.07207 6.83325 11.8335 6.83325H20.1668C22.9283 6.83325 25.1668 9.07183 25.1668 11.8333V20.1666C25.1668 22.928 22.9283 25.1666 20.1668 25.1666H11.8335C9.07207 25.1666 6.8335 22.928 6.8335 20.1666V11.8333Z" fill="#0B1B3E"/>
<path fill-rule="evenodd" clip-rule="evenodd" d="M16.4025 13.4911C15.8824 13.4139 15.3511 13.5028 14.8844 13.745C14.4176 13.9872 14.0391 14.3704 13.8027 14.8401C13.5663 15.3098 13.484 15.842 13.5676 16.3612C13.6511 16.8804 13.8962 17.36 14.268 17.7318C14.6399 18.1036 15.1195 18.3487 15.6386 18.4323C16.1578 18.5158 16.6901 18.4335 17.1598 18.1971C17.6295 17.9607 18.0127 17.5822 18.2549 17.1155C18.4971 16.6487 18.5859 16.1175 18.5088 15.5973C18.4301 15.0667 18.1829 14.5755 17.8036 14.1963C17.4243 13.817 16.9331 13.5698 16.4025 13.4911ZM14.1168 12.2656C14.8947 11.862 15.7801 11.7139 16.647 11.8424C17.5313 11.9736 18.35 12.3856 18.9821 13.0178C19.6142 13.6499 20.0263 14.4686 20.1574 15.3529C20.286 16.2198 20.1379 17.1052 19.7342 17.8831C19.3306 18.661 18.6919 19.2918 17.9091 19.6858C17.1263 20.0799 16.2391 20.217 15.3739 20.0778C14.5086 19.9385 13.7092 19.53 13.0895 18.9103C12.4698 18.2906 12.0613 17.4913 11.9221 16.626C11.7828 15.7607 11.92 14.8736 12.314 14.0907C12.708 13.3079 13.3389 12.6692 14.1168 12.2656Z" fill="#0B1B3E"/>
<path fill-rule="evenodd" clip-rule="evenodd" d="M19.75 11.4166C19.75 10.9563 20.1231 10.5833 20.5833 10.5833H20.5917C21.0519 10.5833 21.425 10.9563 21.425 11.4166C21.425 11.8768 21.0519 12.2499 20.5917 12.2499H20.5833C20.1231 12.2499 19.75 11.8768 19.75 11.4166Z" fill="#0B1B3E"/>
</g>
<defs>
<clipPath id="clip0_1207_1207">
<rect width="20" height="20" fill="white" transform="translate(6 6)"/>
</clipPath>
</defs>
</svg>
