<svg width="48" height="38" viewBox="0 0 48 38" fill="none" xmlns="http://www.w3.org/2000/svg">
<rect x="15.8594" y="6.64453" width="13.0546" height="0.767917" rx="0.383958" fill="black"/>
<path fill-rule="evenodd" clip-rule="evenodd" d="M22.3859 32.3693C27.8993 32.3693 32.3688 27.8998 32.3688 22.3864C32.3688 16.873 27.8993 12.4035 22.3859 12.4035C16.8725 12.4035 12.403 16.873 12.403 22.3864C12.403 27.8998 16.8725 32.3693 22.3859 32.3693ZM22.3859 32.7533C28.1114 32.7533 32.7528 28.1119 32.7528 22.3864C32.7528 16.6609 28.1114 12.0195 22.3859 12.0195C16.6605 12.0195 12.019 16.6609 12.019 22.3864C12.019 28.1119 16.6605 32.7533 22.3859 32.7533Z" fill="black"/>
<path fill-rule="evenodd" clip-rule="evenodd" d="M6.64333 7.02729H13.1706V6.64333C13.1706 3.46252 15.7492 0.883958 18.93 0.883958H25.8412C29.0221 0.883958 31.6006 3.46252 31.6006 6.64333V7.02729H41.1996C44.3804 7.02729 46.959 9.60585 46.959 12.7867V31.2167C46.959 34.3975 44.3804 36.976 41.1996 36.976H6.64333C3.46252 36.976 0.883958 34.3975 0.883958 31.2167V12.7867C0.883958 9.60585 3.46252 7.02729 6.64333 7.02729ZM18.93 0.5C15.5371 0.5 12.7867 3.25046 12.7867 6.64333H6.64333C3.25046 6.64333 0.5 9.3938 0.5 12.7867V31.2167C0.5 34.6095 3.25046 37.36 6.64333 37.36H41.1996C44.5924 37.36 47.3429 34.6095 47.3429 31.2167V12.7867C47.3429 9.3938 44.5924 6.64333 41.1996 6.64333H31.9846C31.9846 3.25046 29.2341 0.5 25.8412 0.5H18.93ZM33.7693 4.79928C33.7693 4.64096 33.8251 4.39243 33.9901 4.18871C34.1465 3.99559 34.4185 3.82061 34.9016 3.82061H38.7028H39.0483C39.2442 3.82061 39.5396 3.87467 39.7775 4.02691C40.0019 4.17052 40.1806 4.40238 40.1806 4.79928V6.64228H40.6806V4.79928C40.6806 4.21324 40.3986 3.83077 40.047 3.60577C39.7089 3.38941 39.3132 3.32061 39.0483 3.32061H38.7028H34.9016C34.2789 3.32061 33.8598 3.55518 33.6015 3.874C33.3519 4.18224 33.2693 4.54804 33.2693 4.79928V6.64228H33.7693V4.79928Z" fill="black"/>
<path fill-rule="evenodd" clip-rule="evenodd" d="M27.5218 18.4186C28.5595 19.8598 28.9129 21.6124 28.9129 22.7693H30.4487C30.4487 21.3666 30.0342 19.2796 28.7682 17.5212C27.4739 15.7236 25.3236 14.3223 22.0016 14.3223V15.8581C24.823 15.8581 26.5123 17.0165 27.5218 18.4186Z" fill="black"/>
</svg>
