<svg width="1110" height="30" viewBox="0 0 1110 30" fill="none" xmlns="http://www.w3.org/2000/svg">
<path d="M5.856 24V9.456H0.288V6.912H14.544V9.456H8.976V24H5.856ZM14.5455 24V15.312C14.5455 14.752 14.5295 14.184 14.4975 13.608C14.4815 13.016 14.4335 12.44 14.3535 11.88H17.1855L17.5215 15L17.1855 14.832C17.3935 13.76 17.8655 12.952 18.6015 12.408C19.3375 11.864 20.1695 11.592 21.0975 11.592C21.3375 11.592 21.5615 11.608 21.7695 11.64C21.9775 11.672 22.1615 11.72 22.3215 11.784L22.2735 14.52C21.7775 14.312 21.2495 14.208 20.6895 14.208C19.9695 14.208 19.3775 14.352 18.9135 14.64C18.4655 14.928 18.1215 15.32 17.8815 15.816C17.6575 16.296 17.5455 16.84 17.5455 17.448V24H14.5455ZM28.4376 24.168C27.3816 24.168 26.4456 23.92 25.6296 23.424C24.8136 22.912 24.1816 22.192 23.7336 21.264C23.3016 20.32 23.0856 19.216 23.0856 17.952C23.0856 16.672 23.3096 15.56 23.7576 14.616C24.2056 13.656 24.8296 12.912 25.6296 12.384C26.4456 11.84 27.3816 11.568 28.4376 11.568C29.4616 11.568 30.3496 11.824 31.1016 12.336C31.8696 12.832 32.3896 13.528 32.6616 14.424L32.3736 14.592V11.88H35.3256V24H32.3736V21.264L32.6616 21.36C32.3896 22.256 31.8696 22.952 31.1016 23.448C30.3496 23.928 29.4616 24.168 28.4376 24.168ZM29.2536 21.864C30.2456 21.864 31.0136 21.52 31.5576 20.832C32.1016 20.144 32.3736 19.168 32.3736 17.904C32.3736 16.608 32.1016 15.624 31.5576 14.952C31.0136 14.264 30.2456 13.92 29.2536 13.92C28.2456 13.92 27.4616 14.272 26.9016 14.976C26.3416 15.68 26.0616 16.672 26.0616 17.952C26.0616 19.2 26.3416 20.168 26.9016 20.856C27.4616 21.528 28.2456 21.864 29.2536 21.864ZM42.1449 24L36.9129 11.904H40.0569L43.8729 21.384H43.2009L47.0889 11.904H50.0649L44.7609 24H42.1449ZM61.8287 22.656C61.2527 23.136 60.5407 23.512 59.6927 23.784C58.8607 24.04 58.0127 24.168 57.1487 24.168C55.8367 24.168 54.7007 23.92 53.7407 23.424C52.7967 22.928 52.0687 22.208 51.5567 21.264C51.0447 20.32 50.7887 19.2 50.7887 17.904C50.7887 16.656 51.0367 15.56 51.5327 14.616C52.0287 13.656 52.7167 12.912 53.5967 12.384C54.4767 11.84 55.4927 11.568 56.6447 11.568C57.7647 11.568 58.7247 11.816 59.5247 12.312C60.3247 12.792 60.9407 13.488 61.3727 14.4C61.8207 15.312 62.0447 16.392 62.0447 17.64V18.096H53.4287L53.4527 16.488H60.2687L59.4527 17.304C59.4687 16.136 59.2367 15.248 58.7567 14.64C58.2927 14.032 57.6127 13.728 56.7167 13.728C55.7567 13.728 55.0127 14.072 54.4847 14.76C53.9567 15.432 53.6927 16.4 53.6927 17.664C53.6927 19.104 53.9887 20.168 54.5807 20.856C55.1727 21.528 56.0687 21.864 57.2687 21.864C57.9247 21.864 58.5647 21.76 59.1887 21.552C59.8287 21.328 60.4207 21.008 60.9647 20.592L61.8287 22.656ZM64.5611 24V6.336H67.5611V24H64.5611ZM83.4054 24.192C82.5254 24.192 81.6854 24.12 80.8854 23.976C80.0854 23.816 79.3334 23.584 78.6294 23.28C77.9414 22.976 77.3334 22.608 76.8054 22.176L77.8374 19.92C78.7014 20.56 79.5814 21.024 80.4774 21.312C81.3734 21.6 82.3574 21.744 83.4294 21.744C84.6134 21.744 85.5254 21.536 86.1654 21.12C86.8214 20.704 87.1494 20.12 87.1494 19.368C87.1494 18.92 87.0054 18.552 86.7174 18.264C86.4294 17.96 85.9974 17.704 85.4214 17.496C84.8454 17.288 84.1334 17.088 83.2854 16.896C82.2774 16.704 81.3894 16.472 80.6214 16.2C79.8534 15.912 79.2134 15.576 78.7014 15.192C78.1894 14.808 77.7974 14.352 77.5254 13.824C77.2694 13.28 77.1414 12.64 77.1414 11.904C77.1414 10.896 77.4134 10 77.9574 9.216C78.5014 8.432 79.2614 7.824 80.2374 7.392C81.2294 6.944 82.3894 6.72 83.7174 6.72C84.5174 6.72 85.2934 6.8 86.0454 6.96C86.8134 7.12 87.5174 7.352 88.1574 7.656C88.7974 7.944 89.3494 8.304 89.8134 8.736L88.7574 10.992C87.9894 10.368 87.1894 9.912 86.3574 9.624C85.5254 9.32 84.6534 9.168 83.7414 9.168C82.6374 9.168 81.7654 9.392 81.1254 9.84C80.4854 10.288 80.1654 10.912 80.1654 11.712C80.1654 12.176 80.2934 12.56 80.5494 12.864C80.8214 13.168 81.2294 13.424 81.7734 13.632C82.3334 13.84 83.0454 14.048 83.9094 14.256C84.9014 14.464 85.7814 14.704 86.5494 14.976C87.3334 15.248 87.9974 15.576 88.5414 15.96C89.0854 16.328 89.4934 16.776 89.7654 17.304C90.0534 17.816 90.1974 18.432 90.1974 19.152C90.1974 20.176 89.9254 21.072 89.3814 21.84C88.8374 22.592 88.0534 23.176 87.0294 23.592C86.0214 23.992 84.8134 24.192 83.4054 24.192ZM91.1981 14.136V11.88H99.7421V14.136H91.1981ZM99.7421 21.504V23.88C99.4221 23.992 99.1021 24.064 98.7821 24.096C98.4781 24.144 98.1501 24.168 97.7981 24.168C96.4381 24.168 95.3821 23.784 94.6301 23.016C93.8941 22.248 93.5261 21.144 93.5261 19.704V8.928L96.5261 7.92V19.56C96.5261 20.104 96.6141 20.536 96.7901 20.856C96.9661 21.16 97.1981 21.376 97.4861 21.504C97.7901 21.632 98.1261 21.696 98.4941 21.696C98.7021 21.696 98.9021 21.68 99.0941 21.648C99.2861 21.616 99.5021 21.568 99.7421 21.504ZM107.3 24.168C106.036 24.168 104.94 23.912 104.012 23.4C103.1 22.888 102.396 22.168 101.9 21.24C101.404 20.296 101.156 19.176 101.156 17.88C101.156 16.6 101.404 15.488 101.9 14.544C102.396 13.584 103.1 12.848 104.012 12.336C104.94 11.824 106.036 11.568 107.3 11.568C108.532 11.568 109.604 11.824 110.516 12.336C111.444 12.848 112.156 13.584 112.652 14.544C113.164 15.488 113.42 16.6 113.42 17.88C113.42 19.176 113.164 20.296 112.652 21.24C112.156 22.168 111.444 22.888 110.516 23.4C109.604 23.912 108.532 24.168 107.3 24.168ZM107.3 21.864C108.292 21.864 109.052 21.536 109.58 20.88C110.124 20.208 110.396 19.208 110.396 17.88C110.396 16.568 110.124 15.584 109.58 14.928C109.052 14.256 108.292 13.92 107.3 13.92C106.292 13.92 105.508 14.256 104.948 14.928C104.404 15.584 104.132 16.568 104.132 17.88C104.132 19.208 104.404 20.208 104.948 20.88C105.492 21.536 106.276 21.864 107.3 21.864ZM115.983 24V15.312C115.983 14.752 115.967 14.184 115.935 13.608C115.919 13.016 115.871 12.44 115.791 11.88H118.623L118.959 15L118.623 14.832C118.831 13.76 119.303 12.952 120.039 12.408C120.775 11.864 121.607 11.592 122.535 11.592C122.775 11.592 122.999 11.608 123.207 11.64C123.415 11.672 123.599 11.72 123.759 11.784L123.711 14.52C123.215 14.312 122.687 14.208 122.127 14.208C121.407 14.208 120.815 14.352 120.351 14.64C119.903 14.928 119.559 15.32 119.319 15.816C119.095 16.296 118.983 16.84 118.983 17.448V24H115.983ZM125.381 24V11.88H128.381V24H125.381ZM125.237 6.384H128.573V9.336H125.237V6.384ZM142.032 22.656C141.456 23.136 140.744 23.512 139.896 23.784C139.064 24.04 138.216 24.168 137.352 24.168C136.04 24.168 134.904 23.92 133.944 23.424C133 22.928 132.272 22.208 131.76 21.264C131.248 20.32 130.992 19.2 130.992 17.904C130.992 16.656 131.24 15.56 131.736 14.616C132.232 13.656 132.92 12.912 133.8 12.384C134.68 11.84 135.696 11.568 136.848 11.568C137.968 11.568 138.928 11.816 139.728 12.312C140.528 12.792 141.144 13.488 141.576 14.4C142.024 15.312 142.248 16.392 142.248 17.64V18.096H133.632L133.656 16.488H140.472L139.656 17.304C139.672 16.136 139.44 15.248 138.96 14.64C138.496 14.032 137.816 13.728 136.92 13.728C135.96 13.728 135.216 14.072 134.688 14.76C134.16 15.432 133.896 16.4 133.896 17.664C133.896 19.104 134.192 20.168 134.784 20.856C135.376 21.528 136.272 21.864 137.472 21.864C138.128 21.864 138.768 21.76 139.392 21.552C140.032 21.328 140.624 21.008 141.168 20.592L142.032 22.656ZM149.228 24.168C147.02 24.168 145.276 23.664 143.996 22.656L144.836 20.544C145.476 21.024 146.172 21.384 146.924 21.624C147.676 21.864 148.46 21.984 149.276 21.984C150.012 21.984 150.572 21.864 150.956 21.624C151.34 21.384 151.532 21.048 151.532 20.616C151.532 20.248 151.396 19.96 151.124 19.752C150.852 19.528 150.388 19.336 149.732 19.176L147.716 18.72C146.612 18.48 145.78 18.08 145.22 17.52C144.676 16.944 144.404 16.216 144.404 15.336C144.404 14.6 144.612 13.952 145.028 13.392C145.444 12.816 146.028 12.368 146.78 12.048C147.532 11.728 148.404 11.568 149.396 11.568C150.26 11.568 151.092 11.704 151.892 11.976C152.692 12.232 153.388 12.608 153.98 13.104L153.116 15.168C152.508 14.704 151.884 14.36 151.244 14.136C150.62 13.912 149.996 13.8 149.372 13.8C148.684 13.8 148.148 13.928 147.764 14.184C147.38 14.44 147.188 14.792 147.188 15.24C147.188 15.592 147.3 15.872 147.524 16.08C147.764 16.288 148.172 16.456 148.748 16.584L150.788 17.088C151.988 17.344 152.86 17.76 153.404 18.336C153.964 18.896 154.244 19.64 154.244 20.568C154.244 21.672 153.796 22.552 152.9 23.208C152.004 23.848 150.78 24.168 149.228 24.168Z" fill="#0B1B3E"/>
<path d="M1015.89 23L1009.61 8.76H1011.79L1017.13 21.24H1016.41L1021.79 8.76H1023.91L1017.63 23H1015.89ZM1025.29 23V12.92H1027.31V23H1025.29ZM1025.15 8.52H1027.49V10.64H1025.15V8.52ZM1038.69 21.84C1038.24 22.24 1037.66 22.56 1036.97 22.8C1036.28 23.0267 1035.57 23.14 1034.85 23.14C1033.78 23.14 1032.86 22.9333 1032.09 22.52C1031.32 22.1067 1030.72 21.5067 1030.31 20.72C1029.9 19.9333 1029.69 19 1029.69 17.92C1029.69 16.88 1029.89 15.9667 1030.29 15.18C1030.7 14.3933 1031.27 13.78 1031.99 13.34C1032.71 12.9 1033.54 12.68 1034.49 12.68C1035.4 12.68 1036.18 12.88 1036.83 13.28C1037.48 13.68 1037.98 14.2533 1038.33 15C1038.69 15.7333 1038.87 16.62 1038.87 17.66V18H1031.45L1031.47 16.8H1037.69L1037.11 17.52C1037.12 16.44 1036.91 15.6133 1036.47 15.04C1036.03 14.4667 1035.38 14.18 1034.53 14.18C1033.64 14.18 1032.94 14.5 1032.43 15.14C1031.92 15.7667 1031.67 16.6467 1031.67 17.78C1031.67 19.0467 1031.94 19.9933 1032.49 20.62C1033.04 21.2333 1033.84 21.54 1034.89 21.54C1035.46 21.54 1036.02 21.4467 1036.55 21.26C1037.08 21.0733 1037.59 20.7867 1038.07 20.4L1038.69 21.84ZM1043.79 23L1039.95 12.92H1042.05L1045.03 21.32H1044.53L1047.57 12.92H1049.17L1052.19 21.32H1051.69L1054.71 12.92H1056.69L1052.85 23H1051.01L1047.79 14.36H1048.81L1045.63 23H1043.79ZM1067.76 23.14C1066.87 23.14 1066.08 22.9333 1065.4 22.52C1064.74 22.0933 1064.22 21.4933 1063.84 20.72C1063.48 19.9333 1063.3 19.0133 1063.3 17.96C1063.3 16.9067 1063.49 15.9867 1063.86 15.2C1064.24 14.4 1064.76 13.78 1065.42 13.34C1066.1 12.9 1066.88 12.68 1067.76 12.68C1068.66 12.68 1069.42 12.9 1070.04 13.34C1070.68 13.7667 1071.12 14.38 1071.34 15.18L1071.1 15.34V12.92H1073.1V23H1071.1V20.54L1071.34 20.64C1071.12 21.44 1070.68 22.06 1070.04 22.5C1069.42 22.9267 1068.66 23.14 1067.76 23.14ZM1068.24 21.54C1069.15 21.54 1069.85 21.2267 1070.34 20.6C1070.85 19.9733 1071.1 19.08 1071.1 17.92C1071.1 16.76 1070.85 15.8667 1070.34 15.24C1069.85 14.6133 1069.15 14.3 1068.24 14.3C1067.32 14.3 1066.6 14.6267 1066.08 15.28C1065.58 15.92 1065.32 16.8133 1065.32 17.96C1065.32 19.1067 1065.58 19.9933 1066.08 20.62C1066.6 21.2333 1067.32 21.54 1068.24 21.54ZM1076.05 23V8.28H1078.07V23H1076.05ZM1081.01 23V8.28H1083.03V23H1081.01ZM1092.64 17.53V15.85H1104.29L1101.41 12.97L1102.43 11.93L1107.2 16.7L1102.43 21.47L1101.41 20.43L1104.31 17.53H1092.64Z" fill="#6C7078"/>
</svg>
