<svg width="16" height="16" viewBox="0 0 16 16" fill="none" xmlns="http://www.w3.org/2000/svg">
<path d="M10.0834 6.64672C10.0834 7.86599 9.09494 8.85441 7.87566 8.85441C6.65639 8.85441 5.66797 7.86599 5.66797 6.64672C5.66797 5.42744 6.65639 4.43903 7.87566 4.43903C9.09494 4.43903 10.0834 5.42744 10.0834 6.64672Z" stroke="#6C7078"/>
<path d="M12.7922 6.64616C12.7922 7.98306 12.1887 9.22988 11.2037 10.5088C10.3733 11.5871 9.31043 12.6413 8.18039 13.7621C8.07969 13.862 7.97846 13.9624 7.87681 14.0634C7.77516 13.9624 7.67393 13.862 7.57324 13.7621C6.4432 12.6413 5.3803 11.5871 4.54987 10.5088C3.56493 9.22988 2.96143 7.98306 2.96143 6.64616C2.96143 3.93147 5.16212 1.73077 7.87681 1.73077C10.5915 1.73077 12.7922 3.93147 12.7922 6.64616Z" stroke="#6C7078"/>
</svg>
