<svg width="28" height="28" viewBox="0 0 28 28" fill="none" xmlns="http://www.w3.org/2000/svg">
<path d="M24.1891 19.8142C24.1891 22.2305 22.2303 24.1894 19.8139 24.1894C17.3976 24.1894 15.4387 22.2305 15.4387 19.8142C15.4387 17.3978 17.3976 15.439 19.8139 15.439C22.2303 15.439 24.1891 17.3978 24.1891 19.8142Z" stroke="#E83F53" stroke-width="1.5"/>
<path d="M24.1121 23.0508L23.5818 22.5205L22.5211 23.5812L23.0515 24.1115L24.1121 23.0508ZM25.3165 26.3765C25.6094 26.6694 26.0843 26.6694 26.3772 26.3765C26.6701 26.0837 26.6701 25.6088 26.3772 25.3159L25.3165 26.3765ZM23.0515 24.1115L25.3165 26.3765L26.3772 25.3159L24.1121 23.0508L23.0515 24.1115Z" fill="#E83F53"/>
<rect x="2.90381" y="2.90384" width="8.41822" height="8.41822" rx="1.25" stroke="#E83F53" stroke-width="1.5"/>
<rect x="16.1277" y="2.90384" width="8.41822" height="8.41822" rx="1.25" stroke="#E83F53" stroke-width="1.5"/>
<rect x="2.90381" y="16.1282" width="8.41822" height="8.41822" rx="1.25" stroke="#E83F53" stroke-width="1.5"/>
</svg>
