<svg width="20" height="20" viewBox="0 0 20 20" fill="none" xmlns="http://www.w3.org/2000/svg">
<path d="M12.3875 14.372C12.4427 14.403 12.5156 14.4415 12.5753 14.4731C12.6092 14.491 12.6389 14.5067 12.6586 14.5174L12.9871 14.6966L13.2517 14.432L14.2349 13.4483C14.7704 12.9126 15.6383 12.9126 16.1737 13.4482C16.1737 13.4482 16.1737 13.4482 16.1737 13.4483L17.5599 14.8353L17.9136 14.4818L17.5599 14.8353C18.0987 15.3744 18.0951 16.2498 17.5518 16.7843L17.1819 17.1482C16.907 17.3609 16.5827 17.5458 16.2431 17.6786C15.8952 17.8132 15.5539 17.916 15.2382 17.9535C15.2376 17.9536 15.2368 17.9537 15.2357 17.9538L15.2256 17.9547C15.2169 17.9554 15.2045 17.9563 15.1885 17.9573C15.1565 17.9592 15.1104 17.9612 15.0509 17.9619C14.9318 17.9633 14.7595 17.9595 14.5393 17.9397C14.099 17.9002 13.4665 17.7967 12.6848 17.5424C11.1241 17.0345 8.95228 15.9201 6.51853 13.4856C2.95234 9.91579 1.7669 7.40905 2.0894 4.74138L2.08943 4.74138L2.09001 4.73606C2.12442 4.42338 2.20444 4.10241 2.3349 3.75736C2.4694 3.41437 2.65124 3.09341 2.86302 2.81801L3.22645 2.44859L3.22647 2.44857C3.76061 1.90559 4.63451 1.90213 5.17291 2.44085L5.17291 2.44086L6.61389 3.88267C7.14952 4.41865 7.1495 5.28763 6.6139 5.82356L6.52382 5.91369L5.60717 6.77568L5.32432 7.04167L5.51198 7.38159C5.52611 7.40717 5.53622 7.42836 5.5536 7.46479L5.5552 7.46814C5.57317 7.50577 5.59677 7.55486 5.6304 7.61428C6.11849 8.495 7.2981 10.1997 8.552 11.4547L8.55205 11.4547C9.80432 12.7077 11.5084 13.884 12.3875 14.372ZM12.3875 14.372C12.3879 14.3722 12.3883 14.3724 12.3887 14.3727L12.6313 13.9355L12.3862 14.3713C12.3867 14.3715 12.3871 14.3718 12.3875 14.372Z" stroke="#0B1B3E"/>
</svg>
