<svg width="24" height="24" viewBox="0 0 24 24" fill="none" xmlns="http://www.w3.org/2000/svg">
<path d="M15.1179 17.5519L15.6107 17.8207L16.0076 17.4237L17.1874 16.2433C17.7714 15.6591 18.7178 15.6591 19.3018 16.2432C19.3018 16.2432 19.3018 16.2432 19.3018 16.2432L20.9652 17.9077L20.9652 17.9077C21.5529 18.4957 21.5489 19.4505 20.9563 20.0335L20.5189 20.4639C20.2021 20.7079 19.8282 20.9207 19.437 21.0738C19.0254 21.233 18.6295 21.3514 18.2687 21.3944C18.2599 21.3953 18.1882 21.402 18.0587 21.4035C17.9207 21.4051 17.719 21.4008 17.4599 21.3775C16.9421 21.331 16.1943 21.209 15.2676 20.9075C13.4182 20.3057 10.8323 18.9814 7.92773 16.076C3.65761 11.8015 2.27715 8.8375 2.65561 5.70694L2.65565 5.70694L2.65653 5.69896C2.69621 5.33835 2.78868 4.96581 2.94128 4.56203C3.09644 4.16656 3.30564 3.7967 3.54843 3.47951L3.97809 3.04278L3.97811 3.04276C4.56063 2.45059 5.51365 2.44682 6.1008 3.03434L6.10081 3.03434L7.82998 4.76451C7.82999 4.76452 7.82999 4.76452 7.83 4.76453C8.4142 5.34914 8.41418 6.29698 7.82999 6.88151L8.36048 7.41168L7.82999 6.88152L7.72354 6.98803L6.62527 8.02082L6.20098 8.4198L6.48247 8.92968C6.49726 8.95645 6.50764 8.97821 6.52954 9.02409L6.53029 9.02566C6.55209 9.07133 6.58213 9.13388 6.62498 9.20965C7.21678 10.2773 8.64021 12.3341 10.1557 13.8509L10.1558 13.851C11.6696 15.3657 13.7259 16.7851 14.7914 17.3767C14.8582 17.4142 14.953 17.4643 15.0264 17.5032C15.0654 17.5238 15.0984 17.5412 15.1179 17.5519Z" stroke="#073763" stroke-width="1.5"/>
</svg>
