<svg width="24" height="24" viewBox="0 0 24 24" fill="none" xmlns="http://www.w3.org/2000/svg">
<path d="M16.657 15.7131L15.4771 16.8935C15.3761 16.8384 15.2671 16.7837 15.157 16.7218C14.1442 16.1598 12.1447 14.7802 10.6863 13.3208C9.2246 11.8579 7.84046 9.85648 7.27929 8.84307C7.2188 8.73655 7.1941 8.66689 7.13906 8.5672L8.24582 7.52643L8.36048 7.41169C9.23736 6.53428 9.23736 5.11182 8.36048 4.23436L6.63129 2.50417C5.74956 1.6219 4.31819 1.62758 3.44344 2.51681L2.98255 2.9853C2.68237 3.36936 2.42778 3.81613 2.24136 4.29253C2.06902 4.74761 1.95876 5.1832 1.91103 5.61693C1.48987 9.10071 3.08064 12.2852 7.39732 16.6062C13.3662 22.5769 18.1452 22.163 18.353 22.1397C18.8041 22.0864 19.2683 21.9433 19.709 21.7727C20.1816 21.5879 20.6319 21.3294 21.0139 21.029L21.4823 20.5681C22.3718 19.693 22.3778 18.2601 21.4957 17.3775L19.8322 15.713C18.9554 14.8358 17.5339 14.8358 16.657 15.7131Z" fill="white"/>
</svg>
