<svg width="16" height="16" viewBox="0 0 16 16" fill="none" xmlns="http://www.w3.org/2000/svg">
<path d="M10.0843 6.64672C10.0843 7.86599 9.09591 8.85441 7.87664 8.85441C6.65736 8.85441 5.66895 7.86599 5.66895 6.64672C5.66895 5.42744 6.65736 4.43903 7.87664 4.43903C9.09591 4.43903 10.0843 5.42744 10.0843 6.64672Z" stroke="#6C7078"/>
<path d="M12.7927 6.64616C12.7927 7.98306 12.1892 9.22988 11.2042 10.5088C10.3738 11.5871 9.31091 12.6413 8.18088 13.7621C8.08018 13.862 7.97895 13.9624 7.8773 14.0634C7.77565 13.9624 7.67442 13.862 7.57372 13.7621C6.44369 12.6413 5.38078 11.5871 4.55036 10.5088C3.56542 9.22988 2.96191 7.98306 2.96191 6.64616C2.96191 3.93147 5.16261 1.73077 7.8773 1.73077C10.592 1.73077 12.7927 3.93147 12.7927 6.64616Z" stroke="#6C7078"/>
</svg>
