<svg width="16" height="16" viewBox="0 0 16 16" fill="none" xmlns="http://www.w3.org/2000/svg">
<path d="M10.0834 6.64666C10.0834 7.86593 9.09494 8.85435 7.87566 8.85435C6.65639 8.85435 5.66797 7.86593 5.66797 6.64666C5.66797 5.42738 6.65639 4.43896 7.87566 4.43896C9.09494 4.43896 10.0834 5.42738 10.0834 6.64666Z" stroke="#6C7078"/>
<path d="M12.7922 6.64634C12.7922 7.98324 12.1887 9.23006 11.2037 10.509C10.3733 11.5873 9.31043 12.6415 8.18039 13.7623C8.07969 13.8622 7.97846 13.9626 7.87681 14.0636C7.77516 13.9626 7.67393 13.8622 7.57324 13.7623C6.4432 12.6415 5.3803 11.5873 4.54987 10.509C3.56493 9.23006 2.96143 7.98324 2.96143 6.64634C2.96143 3.93165 5.16212 1.73096 7.87681 1.73096C10.5915 1.73096 12.7922 3.93165 12.7922 6.64634Z" stroke="#6C7078"/>
</svg>
