<svg width="16" height="16" viewBox="0 0 16 16" fill="none" xmlns="http://www.w3.org/2000/svg">
<path d="M10.0834 6.64617C10.0834 7.86544 9.09494 8.85386 7.87566 8.85386C6.65639 8.85386 5.66797 7.86544 5.66797 6.64617C5.66797 5.42689 6.65639 4.43848 7.87566 4.43848C9.09494 4.43848 10.0834 5.42689 10.0834 6.64617Z" stroke="#6C7078"/>
<path d="M12.7922 6.64585C12.7922 7.98275 12.1887 9.22957 11.2037 10.5085C10.3733 11.5868 9.31043 12.641 8.18039 13.7618C8.07969 13.8617 7.97846 13.9621 7.87681 14.0631C7.77516 13.9621 7.67393 13.8617 7.57324 13.7618C6.4432 12.641 5.3803 11.5868 4.54987 10.5085C3.56493 9.22957 2.96143 7.98275 2.96143 6.64585C2.96143 3.93116 5.16212 1.73047 7.87681 1.73047C10.5915 1.73047 12.7922 3.93116 12.7922 6.64585Z" stroke="#6C7078"/>
</svg>
