<svg width="26" height="38" viewBox="0 0 26 38" fill="none" xmlns="http://www.w3.org/2000/svg">
<g clip-path="url(#clip0_197_120)">
<path d="M15.1654 37.9909L1.29289 20.7915L1.37302 17.3829C7.88374 17.8276 12.9454 17.1446 14.1231 11.0422L0.250376 10.9633L2.49566 7.23754L13.5617 7.39538C11.8756 3.92304 7.23849 3.49506 0.00976562 3.75003L2.49566 0.10316L25.9915 0.0683594L23.666 3.66986H17.1707C18.3579 4.91163 19.2267 6.34043 19.2557 7.55363L25.9915 7.47437L23.666 11.0411L19.1754 11.1204C18.4744 16.4409 13.5412 19.591 7.30741 20.3148L21.2729 37.9861L15.1659 37.9895V37.9895L15.1654 37.9909Z" fill="black" stroke="black" stroke-width="0.099084"/>
</g>
<defs>
<clipPath id="clip0_197_120">
<rect width="26" height="38" fill="white"/>
</clipPath>
</defs>
</svg>
