<svg width="24" height="24" viewBox="0 0 24 24" fill="none" xmlns="http://www.w3.org/2000/svg">
<g clip-path="url(#clip0_143_147)">
<path d="M23.4617 18.9667L19.7554 15.26C19.0173 14.5248 17.7946 14.5473 17.0306 15.3113L15.1635 17.1784C15.0456 17.1131 14.9235 17.0452 14.795 16.9732C13.616 16.3199 12.002 15.4244 10.3036 13.7248C8.60041 12.0218 7.70375 10.4052 7.04864 9.22527C6.9791 9.10017 6.913 8.97982 6.84773 8.86538L8.10097 7.6138L8.71698 6.99695C9.48226 6.23167 9.50347 5.00935 8.76662 4.27215L5.06021 0.564913C4.32384 -0.171464 3.10069 -0.149074 2.33541 0.616208L1.29079 1.66675L1.31957 1.69518C0.969391 2.14203 0.676427 2.65759 0.458926 3.21343C0.25801 3.74249 0.132911 4.24751 0.0756928 4.75323C-0.413566 8.81065 1.44041 12.5186 6.47208 17.5507C13.4273 24.5054 19.0325 23.9802 19.2742 23.9543C19.8013 23.8916 20.3057 23.7656 20.8187 23.5664C21.3698 23.351 21.885 23.0589 22.3314 22.7095L22.3543 22.7294L23.4125 21.6932C24.1762 20.928 24.1982 19.7057 23.4617 18.9667ZM22.5892 20.8692L22.1228 21.3347L21.937 21.5133C21.6446 21.796 21.1382 22.1932 20.3989 22.4824C19.9792 22.644 19.5654 22.7478 19.1444 22.7979C19.0914 22.803 13.8194 23.2528 7.29446 16.7284C1.74652 11.1807 0.857441 7.98388 1.23013 4.88769C1.27681 4.47733 1.37975 4.06436 1.5443 3.63279C1.83596 2.88919 2.23282 2.38335 2.51346 2.09038L3.15826 1.43918C3.469 1.12762 3.95363 1.10381 4.23771 1.38789L7.944 5.09417C8.2276 5.37861 8.20521 5.86325 7.89401 6.17576L5.39097 8.67631L5.62197 9.06511C5.75039 9.28178 5.88615 9.52463 6.03115 9.78846C6.71967 11.0302 7.6617 12.7299 9.48096 14.5475C11.2955 16.363 12.9927 17.3042 14.2307 17.9909C14.4982 18.1389 14.7425 18.275 14.9616 18.4056L15.3512 18.6366L17.8526 16.1344C18.1647 15.8236 18.651 15.8007 18.935 16.0839L22.6397 19.7894C22.9229 20.0733 22.9004 20.558 22.5892 20.8692Z" fill="white"/>
</g>
<defs>
<clipPath id="clip0_143_147">
<rect width="24" height="24" fill="white"/>
</clipPath>
</defs>
</svg>
