<svg width="32" height="32" viewBox="0 0 32 32" fill="none" xmlns="http://www.w3.org/2000/svg">
<circle cx="16" cy="16" r="16" fill="white"/>
<g clip-path="url(#clip0_600_1063)">
<path fill-rule="evenodd" clip-rule="evenodd" d="M18.1047 7.95853C18.9787 7.62494 19.934 7.56782 20.8416 7.7949C21.5632 7.97547 22.227 8.32884 22.7773 8.82096C23.4541 8.57219 24.096 8.23552 24.6864 7.81907L25.1668 8.50004L25.9764 8.69722C25.691 9.86932 25.1188 10.9497 24.3142 11.8425C24.3265 11.977 24.333 12.1121 24.3334 12.2473L24.3334 12.25C24.3334 17.3333 21.886 21.0626 18.3708 22.9336C14.8759 24.7938 10.4091 24.7732 6.42872 22.5618C6.09137 22.3744 5.92684 21.9799 6.03104 21.6083C6.13525 21.2368 6.48094 20.9854 6.86654 21.0007C8.27222 21.0566 9.66373 20.7771 10.929 20.1942C9.67641 19.4212 8.7746 18.5036 8.14763 17.5136C7.31127 16.1931 6.99555 14.7941 6.93845 13.5379C6.88151 12.2853 7.08048 11.1575 7.28965 10.3487C7.39474 9.94235 7.50377 9.61129 7.58782 9.37881C7.62989 9.26244 7.66584 9.17038 7.69212 9.10552C7.70526 9.07308 7.716 9.04741 7.72388 9.02886L7.73353 9.00643L7.73599 9.0008C7.74186 8.98731 7.74811 8.97394 7.75473 8.96069L8.50009 9.33337L9.18205 8.85445C9.945 9.94085 10.9648 10.8217 12.1506 11.4185C13.0938 11.8933 14.1188 12.1766 15.1665 12.2554C15.1604 11.3307 15.4351 10.4256 15.9548 9.66009C16.4802 8.88608 17.2307 8.29212 18.1047 7.95853ZM8.83729 11.0364C8.68422 11.7042 8.56198 12.5511 8.60339 13.4622C8.65046 14.4976 8.90765 15.5987 9.55566 16.6219C10.2003 17.6398 11.2635 18.6311 13.0052 19.4052C13.2817 19.5281 13.4699 19.7912 13.4968 20.0926C13.5237 20.394 13.3851 20.6863 13.1348 20.8562C12.209 21.4846 11.1953 21.9574 10.1335 22.2631C12.7753 22.9362 15.4226 22.6147 17.5877 21.4623C20.5305 19.896 22.6663 16.7507 22.6668 12.2514C22.6661 12.0713 22.6487 11.8917 22.6149 11.7148C22.5627 11.4416 22.6502 11.1604 22.8483 10.965C23.0339 10.782 23.2058 10.5868 23.3632 10.3813C23.1744 10.4509 22.9834 10.5149 22.7904 10.573C22.4765 10.6675 22.1364 10.5692 21.9213 10.3219C21.5314 9.87364 21.0133 9.55592 20.437 9.41172C19.8607 9.26752 19.254 9.30379 18.699 9.51563C18.144 9.72748 17.6674 10.1047 17.3337 10.5962C17 11.0877 16.8254 11.6698 16.8333 12.2639L16.8335 12.275H16.8334V13.1084C16.8334 13.5602 16.4734 13.9297 16.0217 13.9414C14.4198 13.983 12.8326 13.6277 11.4013 12.9073C10.4466 12.4268 9.58112 11.7938 8.83729 11.0364Z" fill="#0B1B3E"/>
</g>
<defs>
<clipPath id="clip0_600_1063">
<rect width="20" height="20" fill="white" transform="translate(6 6)"/>
</clipPath>
</defs>
</svg>
