<svg width="27" height="26" viewBox="0 0 27 26" fill="none" xmlns="http://www.w3.org/2000/svg">
<rect x="0.935547" width="26" height="26" rx="6" fill="#252323"/>
<path d="M24.9355 13.0002C24.9355 6.92507 20.0107 2.00021 13.9355 2.00021C7.86041 2.00021 2.93555 6.92507 2.93555 13.0002C2.93555 18.4906 6.95809 23.0414 12.2168 23.8666V16.1799H9.42383V13.0002H12.2168V10.5768C12.2168 7.8199 13.859 6.29708 16.3717 6.29708C17.5752 6.29708 18.834 6.51193 18.834 6.51193V9.21896H17.4469C16.0804 9.21896 15.6543 10.0669 15.6543 10.9368V13.0002H18.7051L18.2174 16.1799H15.6543V23.8666C20.913 23.0414 24.9355 18.4906 24.9355 13.0002Z" fill="#100F0D"/>
<path d="M18.2174 16.1797L18.7051 13H15.6543V10.9366C15.6543 10.0667 16.0804 9.21875 17.4469 9.21875H18.834V6.51172C18.834 6.51172 17.5752 6.29687 16.3717 6.29687C13.859 6.29687 12.2168 7.81969 12.2168 10.5766V13H9.42383V16.1797H12.2168V23.8664C12.7768 23.9542 13.3508 24 13.9355 24C14.5203 24 15.0943 23.9542 15.6543 23.8664V16.1797H18.2174Z" fill="white"/>
</svg>
