<svg width="45" height="26" viewBox="0 0 45 26" fill="none" xmlns="http://www.w3.org/2000/svg">
<path fill-rule="evenodd" clip-rule="evenodd" d="M33.4801 2.12996L33.5488 2.24691C33.5937 2.32333 33.6599 2.43552 33.7445 2.57849C33.9137 2.86443 34.1569 3.27347 34.4525 3.76568C35.0439 4.75019 35.8448 6.06698 36.6838 7.39678C37.523 8.72715 38.3988 10.0681 39.1399 11.1019C39.5108 11.6192 39.8456 12.0564 40.1238 12.376C40.2631 12.536 40.3856 12.6635 40.4894 12.7562C40.5971 12.8523 40.6704 12.8979 40.712 12.9124L40.7717 12.9332L43.25 16.8223L42.945 17.035L40.5793 13.3224L38.4765 14.0557L39.6921 16.3874L26.9293 21.7283L27.3941 23.9168L27.0364 24L26.5845 21.8726L24.1778 22.8797L6.26289 19.002V17.0858L3.5054 16.5089L2.3403 19.5561L2 19.4137L3.23298 16.1889L3.25272 16.1648C3.49325 15.8712 3.85356 15.4687 4.31762 14.9503C6.23282 12.8107 9.91504 8.69717 14.2363 2.12146L14.3055 2.01613L14.425 2.04246C20.2083 3.31622 24.9238 3.31573 28.1909 2.99778C29.8245 2.8388 31.096 2.60044 31.9578 2.4023C32.3887 2.30322 32.7171 2.21421 32.9371 2.15021C33.0471 2.1182 33.13 2.09246 33.185 2.07483C33.2126 2.06602 33.2331 2.05923 33.2466 2.05472L33.2616 2.04967L33.2651 2.04847L33.4041 2L33.4801 2.12996ZM3.73962 16.1668L6.26289 16.6948V15.596L11.5554 6.65176C8.52927 10.8076 6.03066 13.5982 4.5773 15.2215C4.23941 15.5989 3.95801 15.9132 3.73962 16.1668ZM12.8104 5.25917L6.6294 15.7051V18.6897L13.9978 20.2846V5.38417L12.8104 5.25917ZM14.6506 20.426L23.9777 22.4448V16.2807C20.6312 12.4655 17.9095 8.51809 16.1116 5.60671L14.6506 5.4529V20.426ZM15.8592 5.19476C15.2353 4.16889 14.7365 3.28865 14.3774 2.61093L13.0251 4.8964L15.8592 5.19476ZM14.7388 2.50187C16.3176 5.46179 20.4753 12.1403 26.0432 17.9874L40.2392 13.0368C40.1225 12.9312 39.9927 12.7948 39.8529 12.6342C39.5632 12.3014 39.2204 11.8532 38.8467 11.332C38.0989 10.2889 37.2184 8.94041 36.3779 7.608C35.5369 6.27501 34.7344 4.95564 34.1422 3.96969C33.8461 3.47667 33.6025 3.0669 33.4329 2.78035C33.3515 2.64283 33.2871 2.53369 33.2422 2.45733C33.1885 2.47414 33.1194 2.49516 33.0353 2.51963C32.8091 2.58544 32.4741 2.67616 32.0365 2.7768C31.1611 2.97807 29.8746 3.21902 28.2249 3.37957C24.9991 3.6935 20.3845 3.70005 14.7388 2.50187ZM25.8262 18.3028C25.3204 17.7727 24.8261 17.2357 24.3442 16.6952V22.3971L26.5039 21.4933L25.8262 18.3028ZM26.8487 21.349L39.1726 16.1918L38.1232 14.1789L26.2083 18.334L26.8487 21.349Z" fill="black"/>
</svg>
