<svg width="32" height="32" viewBox="0 0 32 32" fill="none" xmlns="http://www.w3.org/2000/svg">
<circle cx="16" cy="16" r="16" fill="white"/>
<g clip-path="url(#clip0_600_1061)">
<path fill-rule="evenodd" clip-rule="evenodd" d="M11.833 8.50004C9.99206 8.50004 8.49967 9.99242 8.49967 11.8334V20.1667C8.49967 22.0077 9.99206 23.5 11.833 23.5H20.1663C22.0073 23.5 23.4997 22.0077 23.4997 20.1667V11.8334C23.4997 9.99242 22.0073 8.50004 20.1663 8.50004H11.833ZM6.83301 11.8334C6.83301 9.07195 9.07158 6.83337 11.833 6.83337H20.1663C22.9278 6.83337 25.1663 9.07195 25.1663 11.8334V20.1667C25.1663 22.9281 22.9278 25.1667 20.1663 25.1667H11.833C9.07158 25.1667 6.83301 22.9281 6.83301 20.1667V11.8334Z" fill="#0B1B3E"/>
<path fill-rule="evenodd" clip-rule="evenodd" d="M16.4025 13.491C15.8824 13.4138 15.3511 13.5027 14.8844 13.7449C14.4176 13.987 14.0391 14.3702 13.8027 14.8399C13.5663 15.3096 13.484 15.8419 13.5676 16.3611C13.6511 16.8802 13.8962 17.3599 14.268 17.7317C14.6399 18.1035 15.1195 18.3486 15.6386 18.4322C16.1578 18.5157 16.6901 18.4334 17.1598 18.197C17.6295 17.9606 18.0127 17.5821 18.2549 17.1153C18.4971 16.6486 18.5859 16.1174 18.5088 15.5972C18.4301 15.0666 18.1829 14.5754 17.8036 14.1961C17.4243 13.8169 16.9331 13.5696 16.4025 13.491ZM14.1168 12.2655C14.8947 11.8618 15.7801 11.7138 16.647 11.8423C17.5313 11.9734 18.35 12.3855 18.9821 13.0176C19.6142 13.6498 20.0263 14.4684 20.1574 15.3527C20.286 16.2197 20.1379 17.105 19.7342 17.883C19.3306 18.6609 18.6919 19.2917 17.9091 19.6857C17.1263 20.0797 16.2391 20.2169 15.3739 20.0777C14.5086 19.9384 13.7092 19.5299 13.0895 18.9102C12.4698 18.2905 12.0613 17.4911 11.9221 16.6259C11.7828 15.7606 11.92 14.8735 12.314 14.0906C12.708 13.3078 13.3389 12.6691 14.1168 12.2655Z" fill="#0B1B3E"/>
<path fill-rule="evenodd" clip-rule="evenodd" d="M19.75 11.4167C19.75 10.9565 20.1231 10.5834 20.5833 10.5834H20.5917C21.0519 10.5834 21.425 10.9565 21.425 11.4167C21.425 11.8769 21.0519 12.25 20.5917 12.25H20.5833C20.1231 12.25 19.75 11.8769 19.75 11.4167Z" fill="#0B1B3E"/>
</g>
<defs>
<clipPath id="clip0_600_1061">
<rect width="20" height="20" fill="white" transform="translate(6 6)"/>
</clipPath>
</defs>
</svg>
