<svg width="26" height="26" viewBox="0 0 26 26" fill="none" xmlns="http://www.w3.org/2000/svg">
<path d="M16.4082 18.9596L16.901 19.2285L17.2978 18.8315L18.576 17.5527C19.233 16.8954 20.298 16.8954 20.9549 17.5526C20.9549 17.5526 20.955 17.5526 20.955 17.5526L22.757 19.3558L22.757 19.3558C23.4182 20.0174 23.4137 21.0916 22.747 21.7475L22.2704 22.2164C21.9219 22.4853 21.5107 22.7195 21.0802 22.888C20.6318 23.0615 20.197 23.1919 19.7986 23.2394C19.7942 23.2399 19.7742 23.2418 19.739 23.2439C19.6989 23.2463 19.6406 23.2488 19.5648 23.2497C19.4133 23.2514 19.1927 23.2466 18.9098 23.2212C18.3445 23.1705 17.5297 23.0374 16.5211 22.7092C14.5077 22.0541 11.6979 20.614 8.54466 17.4598C3.91482 12.8252 2.40179 9.59589 2.81535 6.17502L2.81539 6.17502L2.81627 6.16704C2.85993 5.77029 2.96158 5.36145 3.12855 4.91974C3.29923 4.4846 3.52962 4.07755 3.79736 3.72839L4.26553 3.25251L4.26555 3.25249C4.92097 2.58622 5.99326 2.58198 6.6539 3.24302L6.65391 3.24302L8.52717 5.11737C8.52718 5.11738 8.52719 5.11739 8.5272 5.11739C9.18447 5.77513 9.18445 6.8415 8.52719 7.49916L8.41118 7.61523L7.22068 8.73475L6.79639 9.13374L7.07788 9.64361C7.0948 9.67426 7.10678 9.69936 7.13002 9.74804L7.13137 9.75087C7.15489 9.80014 7.18672 9.86641 7.23212 9.94665C7.87072 11.0988 9.40945 13.3223 11.0467 14.961L11.0468 14.961C12.6821 16.5974 14.9051 18.1318 16.0549 18.7701C16.1271 18.8106 16.2266 18.8633 16.3054 18.9049C16.3484 18.9277 16.3853 18.9472 16.4082 18.9596Z" stroke="#909090" stroke-width="1.5"/>
</svg>
