<svg width="38" height="26" viewBox="0 0 38 26" fill="none" xmlns="http://www.w3.org/2000/svg">
<path d="M34.3729 5.43537C34.0154 4.08308 32.9621 3.01821 31.6245 2.65681C29.2002 2 19.479 2 19.479 2C19.479 2 9.75787 2 7.33355 2.65681C5.99605 3.01821 4.94262 4.08308 4.58515 5.43537C3.93555 7.8863 3.93555 13 3.93555 13C3.93555 13 3.93555 18.1136 4.58515 20.5648C4.94262 21.9169 5.99605 22.9818 7.33355 23.3433C9.75787 24 19.479 24 19.479 24C19.479 24 29.2002 24 31.6245 23.3433C32.9621 22.9818 34.0154 21.9169 34.3729 20.5648C35.0225 18.1136 35.0225 13 35.0225 13C35.0225 13 35.0225 7.8863 34.3729 5.43537Z" fill="#252323"/>
<path d="M16.2998 17.6427L24.4248 13.0001L16.2998 8.35702V17.6427Z" fill="white"/>
</svg>
