<svg width="32" height="32" viewBox="0 0 32 32" fill="none" xmlns="http://www.w3.org/2000/svg">
<circle cx="16" cy="16" r="16" fill="white"/>
<path fill-rule="evenodd" clip-rule="evenodd" d="M14.9645 8.29784C15.9021 7.36016 17.1739 6.83337 18.5 6.83337H21C21.4602 6.83337 21.8333 7.20647 21.8333 7.66671V11C21.8333 11.4603 21.4602 11.8334 21 11.8334H18.5V13.5H21C21.2566 13.5 21.4989 13.6183 21.6568 13.8205C21.8148 14.0228 21.8707 14.2865 21.8085 14.5355L20.9751 17.8688C20.8824 18.2398 20.5491 18.5 20.1667 18.5H18.5V24.3334C18.5 24.7936 18.1269 25.1667 17.6667 25.1667H14.3333C13.8731 25.1667 13.5 24.7936 13.5 24.3334V18.5H11.8333C11.3731 18.5 11 18.1269 11 17.6667V14.3334C11 13.8731 11.3731 13.5 11.8333 13.5H13.5V11.8334C13.5 10.5073 14.0268 9.23552 14.9645 8.29784ZM18.5 8.50004C17.6159 8.50004 16.7681 8.85123 16.143 9.47635C15.5179 10.1015 15.1667 10.9493 15.1667 11.8334V14.3334C15.1667 14.7936 14.7936 15.1667 14.3333 15.1667H12.6667V16.8334H14.3333C14.7936 16.8334 15.1667 17.2065 15.1667 17.6667V23.5H16.8333V17.6667C16.8333 17.2065 17.2064 16.8334 17.6667 16.8334H19.516L19.9327 15.1667H17.6667C17.2064 15.1667 16.8333 14.7936 16.8333 14.3334V11.8334C16.8333 11.3913 17.0089 10.9674 17.3215 10.6549C17.634 10.3423 18.058 10.1667 18.5 10.1667H20.1667V8.50004H18.5Z" fill="#0B1B3E"/>
</svg>
