<svg width="191" height="66" viewBox="0 0 191 66" fill="none" xmlns="http://www.w3.org/2000/svg">
<rect x="20" y="20" width="26" height="26" rx="6" fill="black"/>
<path d="M28.4443 22.0769C27.2739 22.1322 26.4746 22.3189 25.7759 22.5935C25.0528 22.8753 24.4398 23.2535 23.83 23.8655C23.2202 24.4776 22.8446 25.0909 22.5648 25.8152C22.2939 26.5154 22.1105 27.3154 22.0588 28.4864C22.0071 29.6575 21.9956 30.0339 22.0013 33.0211C22.0071 36.0083 22.0203 36.3827 22.077 37.5562C22.1329 38.7264 22.319 39.5254 22.5936 40.2244C22.8758 40.9475 23.2536 41.5602 23.8659 42.1703C24.4781 42.7803 25.091 43.155 25.8171 43.4353C26.5167 43.7056 27.3168 43.89 28.4877 43.9413C29.6585 43.9925 30.0354 44.0044 33.0217 43.9987C36.008 43.993 36.384 43.9798 37.5573 43.9241C38.7305 43.8684 39.5254 43.681 40.2246 43.4078C40.9477 43.1248 41.5609 42.7478 42.1705 42.1353C42.7801 41.5228 43.1554 40.909 43.4351 40.1843C43.7061 39.4847 43.8902 38.6846 43.9411 37.5146C43.9923 36.3405 44.0044 35.9656 43.9987 32.9788C43.993 29.9921 43.9796 29.6177 43.9239 28.4446C43.8682 27.2716 43.6819 26.475 43.4076 25.7756C43.1249 25.0524 42.7475 24.4402 42.1355 23.8297C41.5235 23.2192 40.9092 22.8441 40.1847 22.5651C39.4847 22.2943 38.685 22.1097 37.5141 22.0591C36.3433 22.0085 35.9664 21.9955 32.979 22.0013C29.9916 22.007 29.6176 22.0197 28.4443 22.0769ZM28.5728 41.9624C27.5003 41.9157 26.9179 41.7375 26.5299 41.5884C26.0159 41.3904 25.6499 41.151 25.2631 40.768C24.8763 40.385 24.6387 40.0176 24.4381 39.5047C24.2874 39.1166 24.1059 38.535 24.0557 37.4625C24.0012 36.3033 23.9897 35.9552 23.9833 33.0184C23.977 30.0817 23.9882 29.7341 24.039 28.5744C24.0848 27.5028 24.2641 26.9198 24.413 26.5319C24.611 26.0174 24.8495 25.6519 25.2334 25.2654C25.6173 24.8789 25.9836 24.6408 26.4969 24.4402C26.8845 24.2888 27.4662 24.1089 28.5383 24.0578C29.6983 24.0028 30.0459 23.9918 32.9823 23.9854C35.9187 23.9791 36.2672 23.9901 37.4277 24.0411C38.4993 24.0877 39.0825 24.2653 39.47 24.4151C39.9841 24.6131 40.35 24.8509 40.7365 25.2355C41.1231 25.62 41.3613 25.985 41.562 26.4994C41.7135 26.8859 41.8935 27.4674 41.9441 28.5401C41.9993 29.7002 42.0119 30.048 42.0171 32.9841C42.0224 35.9203 42.0121 36.269 41.9613 37.4281C41.9144 38.5006 41.7366 39.0832 41.5873 39.4717C41.3893 39.9854 41.1506 40.3517 40.7664 40.7381C40.3823 41.1244 40.0164 41.3624 39.503 41.5631C39.1158 41.7142 38.5334 41.8946 37.4622 41.9456C36.3021 42.0002 35.9545 42.0116 33.0171 42.018C30.0796 42.0244 29.7331 42.0125 28.573 41.9624M37.5403 27.1209C37.5408 27.382 37.6186 27.6371 37.764 27.8539C37.9095 28.0708 38.1159 28.2396 38.3573 28.3391C38.5987 28.4386 38.8642 28.4643 39.1202 28.4129C39.3762 28.3615 39.6111 28.2353 39.7954 28.0504C39.9797 27.8654 40.105 27.6299 40.1555 27.3738C40.2059 27.1176 40.1793 26.8522 40.0789 26.6112C39.9785 26.3702 39.8089 26.1643 39.5915 26.0197C39.3742 25.8751 39.1188 25.7982 38.8577 25.7987C38.5077 25.7994 38.1723 25.9391 37.9252 26.187C37.6782 26.435 37.5397 26.7709 37.5403 27.1209ZM27.352 33.011C27.3582 36.1306 29.8917 38.6538 33.0107 38.6478C36.1297 38.6419 38.6546 36.1086 38.6487 32.989C38.6427 29.8694 36.1085 27.3455 32.9891 27.3517C29.8697 27.3578 27.3461 29.8918 27.352 33.011ZM29.3334 33.007C29.3319 32.2818 29.5456 31.5724 29.9473 30.9687C30.349 30.3649 30.9207 29.8938 31.5902 29.6149C32.2597 29.336 32.9968 29.262 33.7084 29.4021C34.4199 29.5421 35.074 29.8901 35.5878 30.4018C36.1016 30.9136 36.4521 31.5663 36.595 32.2773C36.7379 32.9883 36.6668 33.7257 36.3906 34.3962C36.1144 35.0668 35.6455 35.6404 35.0433 36.0445C34.4411 36.4486 33.7326 36.6651 33.0074 36.6665C32.5258 36.6675 32.0488 36.5737 31.6036 36.3903C31.1583 36.2069 30.7535 35.9376 30.4123 35.5978C30.0712 35.258 29.8003 34.8543 29.6151 34.4097C29.43 33.9652 29.3342 33.4886 29.3334 33.007Z" fill="white"/>
<rect x="56" y="20" width="31.9355" height="26" rx="6" fill="#100F0D"/>
<path d="M82.2559 27.4768C82.2724 27.7155 82.2724 27.9542 82.2724 28.1951C82.2724 35.5349 76.6956 44 66.4981 44V43.9956C63.4857 44 60.5359 43.1355 58 41.5054C58.438 41.5582 58.8782 41.5846 59.3196 41.5857C61.816 41.5879 64.241 40.7486 66.205 39.2032C63.8326 39.1581 61.7523 37.6083 61.0255 35.3457C61.8566 35.5063 62.7129 35.4733 63.5285 35.2501C60.9421 34.7265 59.0813 32.4496 59.0813 29.8054C59.0813 29.7812 59.0813 29.7581 59.0813 29.735C59.852 30.1651 60.7149 30.4038 61.5975 30.4302C59.1615 28.799 58.4106 25.552 59.8816 23.0133C62.6964 26.4836 66.8494 28.5933 71.3076 28.8166C70.8607 26.8873 71.4711 24.8656 72.9114 23.5094C75.1444 21.4063 78.6562 21.5141 80.7552 23.7503C81.9968 23.505 83.1869 23.0485 84.2759 22.4018C83.862 23.6876 82.9958 24.7798 81.8388 25.4739C82.9377 25.3441 84.0113 25.0493 85.0224 24.5994C84.2781 25.717 83.3406 26.6904 82.2559 27.4768Z" fill="white"/>
<rect x="97.9355" y="20" width="26" height="26" rx="6" fill="#252323"/>
<path d="M121.936 33.0002C121.936 26.9251 117.011 22.0002 110.936 22.0002C104.86 22.0002 99.9355 26.9251 99.9355 33.0002C99.9355 38.4906 103.958 43.0414 109.217 43.8666V36.1799H106.424V33.0002H109.217V30.5768C109.217 27.8199 110.859 26.2971 113.372 26.2971C114.575 26.2971 115.834 26.5119 115.834 26.5119V29.219H114.447C113.08 29.219 112.654 30.0669 112.654 30.9368V33.0002H115.705L115.217 36.1799H112.654V43.8666C117.913 43.0414 121.936 38.4906 121.936 33.0002Z" fill="#100F0D"/>
<path d="M115.217 36.1797L115.705 33H112.654V30.9366C112.654 30.0667 113.08 29.2188 114.447 29.2188H115.834V26.5117C115.834 26.5117 114.575 26.2969 113.372 26.2969C110.859 26.2969 109.217 27.8197 109.217 30.5766V33H106.424V36.1797H109.217V43.8664C109.777 43.9542 110.351 44 110.936 44C111.52 44 112.094 43.9542 112.654 43.8664V36.1797H115.217Z" fill="white"/>
<path d="M167.373 25.4354C167.015 24.0831 165.962 23.0182 164.624 22.6568C162.2 22 152.479 22 152.479 22C152.479 22 142.758 22 140.334 22.6568C138.996 23.0182 137.943 24.0831 137.585 25.4354C136.936 27.8863 136.936 33 136.936 33C136.936 33 136.936 38.1136 137.585 40.5648C137.943 41.9169 138.996 42.9818 140.334 43.3433C142.758 44 152.479 44 152.479 44C152.479 44 162.2 44 164.624 43.3433C165.962 42.9818 167.015 41.9169 167.373 40.5648C168.023 38.1136 168.023 33 168.023 33C168.023 33 168.023 27.8863 167.373 25.4354Z" fill="#252323"/>
<path d="M149.3 37.6427L157.425 33.0001L149.3 28.357V37.6427Z" fill="white"/>
<rect x="0.5" y="0.5" width="189.675" height="65" rx="4.5" stroke="#9747FF" stroke-dasharray="10 5"/>
</svg>
