<svg width="20" height="30" viewBox="0 0 20 30" fill="none" xmlns="http://www.w3.org/2000/svg">
<mask id="path-1-inside-1_693_2782" fill="white">
<path fill-rule="evenodd" clip-rule="evenodd" d="M10.1723 8C12.3814 8 14.1723 6.20914 14.1723 4C14.1723 1.79086 12.3814 0 10.1723 0C7.96316 0 6.17229 1.79086 6.17229 4C6.17229 6.20914 7.96316 8 10.1723 8ZM15.1723 11.7769V20V28C15.1723 29.1046 14.2769 30 13.1723 30C12.0677 30 11.1723 29.1046 11.1723 28V20H9.17229V28C9.17229 29.1046 8.27686 30 7.17229 30C6.06772 30 5.17229 29.1046 5.17229 28L5.17229 20V12.1802L5.16743 12.1753L0.497246 7.50513C-0.165739 6.84214 -0.165739 5.76723 0.497246 5.10425C1.16023 4.44126 2.23514 4.44126 2.89812 5.10425L6.79388 9H13.1474L17.0431 5.10425C17.7061 4.44126 18.781 4.44126 19.444 5.10425C20.107 5.76723 20.107 6.84214 19.444 7.50513L15.1723 11.7769Z"/>
</mask>
<path fill-rule="evenodd" clip-rule="evenodd" d="M10.1723 8C12.3814 8 14.1723 6.20914 14.1723 4C14.1723 1.79086 12.3814 0 10.1723 0C7.96316 0 6.17229 1.79086 6.17229 4C6.17229 6.20914 7.96316 8 10.1723 8ZM15.1723 11.7769V20V28C15.1723 29.1046 14.2769 30 13.1723 30C12.0677 30 11.1723 29.1046 11.1723 28V20H9.17229V28C9.17229 29.1046 8.27686 30 7.17229 30C6.06772 30 5.17229 29.1046 5.17229 28L5.17229 20V12.1802L5.16743 12.1753L0.497246 7.50513C-0.165739 6.84214 -0.165739 5.76723 0.497246 5.10425C1.16023 4.44126 2.23514 4.44126 2.89812 5.10425L6.79388 9H13.1474L17.0431 5.10425C17.7061 4.44126 18.781 4.44126 19.444 5.10425C20.107 5.76723 20.107 6.84214 19.444 7.50513L15.1723 11.7769Z" fill="#D9D9D9"/>
<path d="M15.1723 11.7769L14.8187 11.4233L14.6723 11.5697V11.7769H15.1723ZM11.1723 28H11.6723H11.1723ZM11.1723 20H11.6723V19.5H11.1723V20ZM9.17229 20V19.5H8.67229V20H9.17229ZM5.17229 28H4.67229H5.17229ZM5.17229 20H5.67229H5.17229ZM5.17229 12.1802H5.67229V11.9725L5.52515 11.8259L5.17229 12.1802ZM5.16743 12.1753L4.81388 12.5289L4.81458 12.5296L5.16743 12.1753ZM0.497246 7.50513L0.850799 7.15157L0.497246 7.50513ZM0.497246 5.10425L0.850799 5.4578L0.497246 5.10425ZM6.79388 9L6.44032 9.35355L6.58677 9.5H6.79388V9ZM13.1474 9V9.5H13.3545L13.5009 9.35355L13.1474 9ZM17.0431 5.10425L16.6896 4.75069L17.0431 5.10425ZM19.444 7.50513L19.0905 7.15157L19.444 7.50513ZM13.6723 4C13.6723 5.933 12.1053 7.5 10.1723 7.5V8.5C12.6576 8.5 14.6723 6.48528 14.6723 4H13.6723ZM10.1723 0.5C12.1053 0.5 13.6723 2.067 13.6723 4H14.6723C14.6723 1.51472 12.6576 -0.5 10.1723 -0.5V0.5ZM6.67229 4C6.67229 2.067 8.2393 0.5 10.1723 0.5V-0.5C7.68701 -0.5 5.67229 1.51472 5.67229 4H6.67229ZM10.1723 7.5C8.2393 7.5 6.67229 5.933 6.67229 4H5.67229C5.67229 6.48528 7.68701 8.5 10.1723 8.5V7.5ZM15.6723 20V11.7769H14.6723V20H15.6723ZM15.6723 28V20H14.6723V28H15.6723ZM13.1723 30.5C14.553 30.5 15.6723 29.3807 15.6723 28H14.6723C14.6723 28.8284 14.0007 29.5 13.1723 29.5V30.5ZM10.6723 28C10.6723 29.3807 11.7916 30.5 13.1723 30.5V29.5C12.3439 29.5 11.6723 28.8284 11.6723 28H10.6723ZM10.6723 20V28H11.6723V20H10.6723ZM9.17229 20.5H11.1723V19.5H9.17229V20.5ZM9.67229 28V20H8.67229V28H9.67229ZM7.17229 30.5C8.55301 30.5 9.67229 29.3807 9.67229 28H8.67229C8.67229 28.8284 8.00072 29.5 7.17229 29.5V30.5ZM4.67229 28C4.67229 29.3807 5.79158 30.5 7.17229 30.5V29.5C6.34387 29.5 5.67229 28.8284 5.67229 28H4.67229ZM4.67229 20L4.67229 28H5.67229L5.67229 20H4.67229ZM4.67229 12.1802V20H5.67229V12.1802H4.67229ZM4.81458 12.5296L4.81944 12.5344L5.52515 11.8259L5.52029 11.8211L4.81458 12.5296ZM0.143692 7.85868L4.81388 12.5289L5.52099 11.8218L0.850799 7.15157L0.143692 7.85868ZM0.143692 4.75069C-0.714554 5.60894 -0.714554 7.00043 0.143692 7.85868L0.850799 7.15157C0.383077 6.68385 0.383077 5.92552 0.850799 5.4578L0.143692 4.75069ZM3.25168 4.75069C2.39343 3.89245 1.00194 3.89245 0.143692 4.75069L0.850799 5.4578C1.31852 4.99008 2.07685 4.99008 2.54457 5.4578L3.25168 4.75069ZM7.14743 8.64645L3.25168 4.75069L2.54457 5.4578L6.44032 9.35355L7.14743 8.64645ZM13.1474 8.5H6.79388V9.5H13.1474V8.5ZM16.6896 4.75069L12.7938 8.64645L13.5009 9.35355L17.3967 5.4578L16.6896 4.75069ZM19.7976 4.75069C18.9393 3.89245 17.5478 3.89245 16.6896 4.75069L17.3967 5.4578C17.8644 4.99008 18.6227 4.99008 19.0905 5.4578L19.7976 4.75069ZM19.7976 7.85868C20.6558 7.00043 20.6558 5.60894 19.7976 4.75069L19.0905 5.4578C19.5582 5.92552 19.5582 6.68385 19.0905 7.15157L19.7976 7.85868ZM15.5258 12.1304L19.7976 7.85868L19.0905 7.15157L14.8187 11.4233L15.5258 12.1304Z" fill="black" mask="url(#path-1-inside-1_693_2782)"/>
</svg>
