<svg width="20" height="30" viewBox="0 0 20 30" fill="none" xmlns="http://www.w3.org/2000/svg">
<path fill-rule="evenodd" clip-rule="evenodd" d="M10.1723 8C12.3814 8 14.1723 6.20914 14.1723 4C14.1723 1.79086 12.3814 0 10.1723 0C7.96315 0 6.17229 1.79086 6.17229 4C6.17229 6.20914 7.96315 8 10.1723 8ZM15.1723 11.7769V20V28C15.1723 29.1046 14.2769 30 13.1723 30C12.0677 30 11.1723 29.1046 11.1723 28V20H9.17229V28C9.17229 29.1046 8.27686 30 7.17229 30C6.06772 30 5.17229 29.1046 5.17229 28L5.17229 20V12.1802L5.16743 12.1753L0.497238 7.50513C-0.165746 6.84214 -0.165746 5.76723 0.497238 5.10425C1.16022 4.44126 2.23513 4.44126 2.89812 5.10425L6.79387 9H13.1474L17.0431 5.10425C17.7061 4.44126 18.781 4.44126 19.444 5.10425C20.107 5.76723 20.107 6.84214 19.444 7.50513L15.1723 11.7769Z" fill="#D9D9D9"/>
</svg>
