<svg width="46" height="37" viewBox="0 0 46 37" fill="none" xmlns="http://www.w3.org/2000/svg">
<path d="M15.9421 11.879V8.94176L20.4421 4.44176C20.7754 3.94176 21.2421 2.74176 20.4421 1.94176C19.6421 1.14176 18.5167 1.60843 18.054 1.94176L13.9421 5.94193H7.94212L3.7093 1.94193C3.28677 1.6086 2.24172 1.14193 1.44172 1.94193C0.641721 2.74193 1.10839 3.94193 1.44172 4.44193L5.94238 8.94176V24.9419C5.9422 25.6086 6.3419 26.9419 7.94212 26.9419C9.54233 26.9419 9.94238 25.9419 9.94238 25.4419V16.9419H11.9424V24.9419C11.9424 25.6086 12.3424 26.9419 13.9424 26.9419C15.5424 26.9419 15.9424 25.6086 15.9424 24.9419V15.6327M15.9424 15.6327L13.4424 13.4419C13.109 13.1086 12.6424 12.2419 13.4424 11.4419C14.2424 10.6419 15.109 11.1085 15.4424 11.4418L19.4424 14.9419H26.4424L29.9424 11.4419C30.2757 11.1086 31.1424 10.6419 31.9424 11.4419C32.7424 12.2419 32.2757 13.1086 31.9424 13.4419L27.9424 17.4419V34.1114C27.9424 34.7216 27.5424 35.9419 25.9424 35.9419C24.3424 35.9419 24.0464 34.7216 24.0985 34.1114V25.6836H21.9424V33.9419C21.9424 34.6086 21.5424 35.9419 19.9424 35.9419C18.3424 35.9419 18.095 34.6086 18.1714 33.9419V17.8637L15.9424 15.6327ZM29.942 11.379V8.44172L25.442 3.94172C25.1087 3.44172 24.642 2.24172 25.442 1.44172C26.242 0.641721 27.3674 1.10839 27.8301 1.44172L31.942 5.44189H37.942L42.1748 1.44189C42.5973 1.10856 43.6424 0.641895 44.4424 1.44189C45.2424 2.24189 44.7757 3.44189 44.4424 3.94189L39.9417 8.44172V24.4419C39.9419 25.1086 39.5422 26.4419 37.942 26.4419C36.3418 26.4419 35.9417 25.4419 35.9417 24.9419V16.4419H33.9417V24.4419C33.9417 25.1086 33.5417 26.4419 31.9417 26.4419C30.3417 26.4419 29.9417 25.1086 29.9417 24.4419L29.9424 15.4419" stroke="black" stroke-width="0.5"/>
</svg>
