<svg width="102" height="20" viewBox="0 0 102 20" fill="none" xmlns="http://www.w3.org/2000/svg">
<path d="M2.08 16H0L5.152 4.608H6.832L11.984 16H9.936L5.744 6.208H6.304L2.08 16ZM2.272 13.328L3.056 11.728H8.864L9.616 13.328H2.272ZM13.3764 16V4.608H15.4404V14.304H20.7524V16H13.3764ZM22.4895 16V4.608H24.5535V14.304H29.8655V16H22.4895ZM38.8252 16V6.304H35.1132V4.608H44.6172V6.304H40.9052V16H38.8252ZM46.2039 16V4.608H51.0839C52.3745 4.608 53.3559 4.89067 54.0279 5.456C54.6999 6.02133 55.0359 6.832 55.0359 7.888C55.0359 8.89067 54.6892 9.69067 53.9959 10.288C53.3025 10.8747 52.3372 11.168 51.0999 11.168L52.3799 10.912C52.7745 10.912 53.1265 11.0293 53.4359 11.264C53.7452 11.4987 53.9905 11.8613 54.1719 12.352L55.5799 16H53.4039L51.9639 12.208C51.8145 11.8347 51.6012 11.584 51.3239 11.456C51.0572 11.328 50.7212 11.264 50.3159 11.264H48.2359V16H46.2039ZM48.2199 9.664H50.7959C51.5852 9.664 52.1612 9.52 52.5239 9.232C52.8865 8.944 53.0679 8.512 53.0679 7.936C53.0679 7.34933 52.8865 6.91733 52.5239 6.64C52.1612 6.36267 51.5852 6.224 50.7959 6.224H48.2199V9.664ZM57.5982 16V4.608H59.6622V16H57.5982ZM62.3051 16V4.608H67.2491C68.4865 4.608 69.4411 4.90667 70.1131 5.504C70.7958 6.09067 71.1371 6.896 71.1371 7.92C71.1371 8.93333 70.7905 9.73867 70.0971 10.336C69.4145 10.9333 68.4651 11.232 67.2491 11.232H64.3691V16H62.3051ZM64.3691 9.648H67.0091C67.7345 9.648 68.2731 9.49867 68.6251 9.2C68.9878 8.90133 69.1691 8.48 69.1691 7.936C69.1691 7.38133 68.9931 6.96 68.6411 6.672C68.2891 6.37333 67.7451 6.224 67.0091 6.224H64.3691V9.648ZM76.9774 16.128C76.3907 16.128 75.8307 16.08 75.2974 15.984C74.764 15.8773 74.2627 15.7227 73.7934 15.52C73.3347 15.3173 72.9294 15.072 72.5774 14.784L73.2654 13.28C73.8414 13.7067 74.428 14.016 75.0254 14.208C75.6227 14.4 76.2787 14.496 76.9934 14.496C77.7827 14.496 78.3907 14.3573 78.8174 14.08C79.2547 13.8027 79.4734 13.4133 79.4734 12.912C79.4734 12.6133 79.3774 12.368 79.1854 12.176C78.9934 11.9733 78.7054 11.8027 78.3214 11.664C77.9374 11.5253 77.4627 11.392 76.8974 11.264C76.2254 11.136 75.6334 10.9813 75.1214 10.8C74.6094 10.608 74.1827 10.384 73.8414 10.128C73.5 9.872 73.2387 9.568 73.0574 9.216C72.8867 8.85333 72.8014 8.42667 72.8014 7.936C72.8014 7.264 72.9827 6.66667 73.3454 6.144C73.708 5.62133 74.2147 5.216 74.8654 4.928C75.5267 4.62933 76.3 4.48 77.1854 4.48C77.7187 4.48 78.236 4.53333 78.7374 4.64C79.2494 4.74667 79.7187 4.90133 80.1454 5.104C80.572 5.296 80.94 5.536 81.2494 5.824L80.5454 7.328C80.0334 6.912 79.5 6.608 78.9454 6.416C78.3907 6.21333 77.8094 6.112 77.2014 6.112C76.4654 6.112 75.884 6.26133 75.4574 6.56C75.0307 6.85867 74.8174 7.27467 74.8174 7.808C74.8174 8.11733 74.9027 8.37333 75.0734 8.576C75.2547 8.77867 75.5267 8.94933 75.8894 9.088C76.2627 9.22667 76.7374 9.36533 77.3134 9.504C77.9747 9.64267 78.5614 9.80267 79.0734 9.984C79.596 10.1653 80.0387 10.384 80.4014 10.64C80.764 10.8853 81.036 11.184 81.2174 11.536C81.4094 11.8773 81.5054 12.288 81.5054 12.768C81.5054 13.4507 81.324 14.048 80.9614 14.56C80.5987 15.0613 80.076 15.4507 79.3934 15.728C78.7214 15.9947 77.916 16.128 76.9774 16.128Z" fill="white"/>
<path d="M88.25 6.25L94.5 12.5L100.75 6.25" stroke="white" stroke-width="2" stroke-linecap="round"/>
</svg>
